%TF.GenerationSoftware,KiCad,Pcbnew,(5.1.6-0-10_14)*%
%TF.CreationDate,2020-09-27T13:09:56+01:00*%
%TF.ProjectId,OLED_USB_Stick,4f4c4544-5f55-4534-925f-537469636b2e,rev?*%
%TF.SameCoordinates,Original*%
%TF.FileFunction,Copper,L2,Bot*%
%TF.FilePolarity,Positive*%
%FSLAX46Y46*%
G04 Gerber Fmt 4.6, Leading zero omitted, Abs format (unit mm)*
G04 Created by KiCad (PCBNEW (5.1.6-0-10_14)) date 2020-09-27 13:09:56*
%MOMM*%
%LPD*%
G01*
G04 APERTURE LIST*
%TA.AperFunction,ComponentPad*%
%ADD10O,1.700000X1.700000*%
%TD*%
%TA.AperFunction,ComponentPad*%
%ADD11R,1.700000X1.700000*%
%TD*%
%TA.AperFunction,SMDPad,CuDef*%
%ADD12R,1.220000X0.650000*%
%TD*%
%TA.AperFunction,ViaPad*%
%ADD13C,0.400000*%
%TD*%
%TA.AperFunction,Conductor*%
%ADD14C,0.400000*%
%TD*%
%TA.AperFunction,Conductor*%
%ADD15C,0.254000*%
%TD*%
G04 APERTURE END LIST*
%TO.P,R7,2*%
%TO.N,/MCU/I2C_SDA*%
%TA.AperFunction,SMDPad,CuDef*%
G36*
G01*
X174694001Y-75115000D02*
X173793999Y-75115000D01*
G75*
G02*
X173544000Y-74865001I0J249999D01*
G01*
X173544000Y-74214999D01*
G75*
G02*
X173793999Y-73965000I249999J0D01*
G01*
X174694001Y-73965000D01*
G75*
G02*
X174944000Y-74214999I0J-249999D01*
G01*
X174944000Y-74865001D01*
G75*
G02*
X174694001Y-75115000I-249999J0D01*
G01*
G37*
%TD.AperFunction*%
%TO.P,R7,1*%
%TO.N,+3V3*%
%TA.AperFunction,SMDPad,CuDef*%
G36*
G01*
X174694001Y-77165000D02*
X173793999Y-77165000D01*
G75*
G02*
X173544000Y-76915001I0J249999D01*
G01*
X173544000Y-76264999D01*
G75*
G02*
X173793999Y-76015000I249999J0D01*
G01*
X174694001Y-76015000D01*
G75*
G02*
X174944000Y-76264999I0J-249999D01*
G01*
X174944000Y-76915001D01*
G75*
G02*
X174694001Y-77165000I-249999J0D01*
G01*
G37*
%TD.AperFunction*%
%TD*%
%TO.P,R6,2*%
%TO.N,/MCU/I2C_SCL*%
%TA.AperFunction,SMDPad,CuDef*%
G36*
G01*
X176726001Y-75115000D02*
X175825999Y-75115000D01*
G75*
G02*
X175576000Y-74865001I0J249999D01*
G01*
X175576000Y-74214999D01*
G75*
G02*
X175825999Y-73965000I249999J0D01*
G01*
X176726001Y-73965000D01*
G75*
G02*
X176976000Y-74214999I0J-249999D01*
G01*
X176976000Y-74865001D01*
G75*
G02*
X176726001Y-75115000I-249999J0D01*
G01*
G37*
%TD.AperFunction*%
%TO.P,R6,1*%
%TO.N,+3V3*%
%TA.AperFunction,SMDPad,CuDef*%
G36*
G01*
X176726001Y-77165000D02*
X175825999Y-77165000D01*
G75*
G02*
X175576000Y-76915001I0J249999D01*
G01*
X175576000Y-76264999D01*
G75*
G02*
X175825999Y-76015000I249999J0D01*
G01*
X176726001Y-76015000D01*
G75*
G02*
X176976000Y-76264999I0J-249999D01*
G01*
X176976000Y-76915001D01*
G75*
G02*
X176726001Y-77165000I-249999J0D01*
G01*
G37*
%TD.AperFunction*%
%TD*%
%TO.P,C3,2*%
%TO.N,GNDS*%
%TA.AperFunction,SMDPad,CuDef*%
G36*
G01*
X154374000Y-83381001D02*
X154374000Y-82480999D01*
G75*
G02*
X154623999Y-82231000I249999J0D01*
G01*
X155274001Y-82231000D01*
G75*
G02*
X155524000Y-82480999I0J-249999D01*
G01*
X155524000Y-83381001D01*
G75*
G02*
X155274001Y-83631000I-249999J0D01*
G01*
X154623999Y-83631000D01*
G75*
G02*
X154374000Y-83381001I0J249999D01*
G01*
G37*
%TD.AperFunction*%
%TO.P,C3,1*%
%TO.N,+5V*%
%TA.AperFunction,SMDPad,CuDef*%
G36*
G01*
X152324000Y-83381001D02*
X152324000Y-82480999D01*
G75*
G02*
X152573999Y-82231000I249999J0D01*
G01*
X153224001Y-82231000D01*
G75*
G02*
X153474000Y-82480999I0J-249999D01*
G01*
X153474000Y-83381001D01*
G75*
G02*
X153224001Y-83631000I-249999J0D01*
G01*
X152573999Y-83631000D01*
G75*
G02*
X152324000Y-83381001I0J249999D01*
G01*
G37*
%TD.AperFunction*%
%TD*%
%TO.P,C1,2*%
%TO.N,GNDS*%
%TA.AperFunction,SMDPad,CuDef*%
G36*
G01*
X141028000Y-82480999D02*
X141028000Y-83381001D01*
G75*
G02*
X140778001Y-83631000I-249999J0D01*
G01*
X140127999Y-83631000D01*
G75*
G02*
X139878000Y-83381001I0J249999D01*
G01*
X139878000Y-82480999D01*
G75*
G02*
X140127999Y-82231000I249999J0D01*
G01*
X140778001Y-82231000D01*
G75*
G02*
X141028000Y-82480999I0J-249999D01*
G01*
G37*
%TD.AperFunction*%
%TO.P,C1,1*%
%TO.N,Net-(C1-Pad1)*%
%TA.AperFunction,SMDPad,CuDef*%
G36*
G01*
X143078000Y-82480999D02*
X143078000Y-83381001D01*
G75*
G02*
X142828001Y-83631000I-249999J0D01*
G01*
X142177999Y-83631000D01*
G75*
G02*
X141928000Y-83381001I0J249999D01*
G01*
X141928000Y-82480999D01*
G75*
G02*
X142177999Y-82231000I249999J0D01*
G01*
X142828001Y-82231000D01*
G75*
G02*
X143078000Y-82480999I0J-249999D01*
G01*
G37*
%TD.AperFunction*%
%TD*%
%TO.P,C2,2*%
%TO.N,+5V*%
%TA.AperFunction,SMDPad,CuDef*%
G36*
G01*
X150056000Y-83381001D02*
X150056000Y-82480999D01*
G75*
G02*
X150305999Y-82231000I249999J0D01*
G01*
X150956001Y-82231000D01*
G75*
G02*
X151206000Y-82480999I0J-249999D01*
G01*
X151206000Y-83381001D01*
G75*
G02*
X150956001Y-83631000I-249999J0D01*
G01*
X150305999Y-83631000D01*
G75*
G02*
X150056000Y-83381001I0J249999D01*
G01*
G37*
%TD.AperFunction*%
%TO.P,C2,1*%
%TO.N,GNDS*%
%TA.AperFunction,SMDPad,CuDef*%
G36*
G01*
X148006000Y-83381001D02*
X148006000Y-82480999D01*
G75*
G02*
X148255999Y-82231000I249999J0D01*
G01*
X148906001Y-82231000D01*
G75*
G02*
X149156000Y-82480999I0J-249999D01*
G01*
X149156000Y-83381001D01*
G75*
G02*
X148906001Y-83631000I-249999J0D01*
G01*
X148255999Y-83631000D01*
G75*
G02*
X148006000Y-83381001I0J249999D01*
G01*
G37*
%TD.AperFunction*%
%TD*%
%TO.P,FB1,2*%
%TO.N,+5V*%
%TA.AperFunction,SMDPad,CuDef*%
G36*
G01*
X145992000Y-83381001D02*
X145992000Y-82480999D01*
G75*
G02*
X146241999Y-82231000I249999J0D01*
G01*
X146892001Y-82231000D01*
G75*
G02*
X147142000Y-82480999I0J-249999D01*
G01*
X147142000Y-83381001D01*
G75*
G02*
X146892001Y-83631000I-249999J0D01*
G01*
X146241999Y-83631000D01*
G75*
G02*
X145992000Y-83381001I0J249999D01*
G01*
G37*
%TD.AperFunction*%
%TO.P,FB1,1*%
%TO.N,Net-(C1-Pad1)*%
%TA.AperFunction,SMDPad,CuDef*%
G36*
G01*
X143942000Y-83381001D02*
X143942000Y-82480999D01*
G75*
G02*
X144191999Y-82231000I249999J0D01*
G01*
X144842001Y-82231000D01*
G75*
G02*
X145092000Y-82480999I0J-249999D01*
G01*
X145092000Y-83381001D01*
G75*
G02*
X144842001Y-83631000I-249999J0D01*
G01*
X144191999Y-83631000D01*
G75*
G02*
X143942000Y-83381001I0J249999D01*
G01*
G37*
%TD.AperFunction*%
%TD*%
D10*
%TO.P,J3,4*%
%TO.N,/MCU/I2C_SDA*%
X179070000Y-82550000D03*
%TO.P,J3,3*%
%TO.N,/MCU/I2C_SCL*%
X179070000Y-80010000D03*
%TO.P,J3,2*%
%TO.N,+5V*%
X179070000Y-77470000D03*
D11*
%TO.P,J3,1*%
%TO.N,GNDS*%
X179070000Y-74930000D03*
%TD*%
%TO.P,R5,2*%
%TO.N,GNDS*%
%TA.AperFunction,SMDPad,CuDef*%
G36*
G01*
X174556000Y-83623999D02*
X174556000Y-84524001D01*
G75*
G02*
X174306001Y-84774000I-249999J0D01*
G01*
X173655999Y-84774000D01*
G75*
G02*
X173406000Y-84524001I0J249999D01*
G01*
X173406000Y-83623999D01*
G75*
G02*
X173655999Y-83374000I249999J0D01*
G01*
X174306001Y-83374000D01*
G75*
G02*
X174556000Y-83623999I0J-249999D01*
G01*
G37*
%TD.AperFunction*%
%TO.P,R5,1*%
%TO.N,Net-(R5-Pad1)*%
%TA.AperFunction,SMDPad,CuDef*%
G36*
G01*
X176606000Y-83623999D02*
X176606000Y-84524001D01*
G75*
G02*
X176356001Y-84774000I-249999J0D01*
G01*
X175705999Y-84774000D01*
G75*
G02*
X175456000Y-84524001I0J249999D01*
G01*
X175456000Y-83623999D01*
G75*
G02*
X175705999Y-83374000I249999J0D01*
G01*
X176356001Y-83374000D01*
G75*
G02*
X176606000Y-83623999I0J-249999D01*
G01*
G37*
%TD.AperFunction*%
%TD*%
%TO.P,U3,32*%
%TO.N,GNDS*%
%TA.AperFunction,SMDPad,CuDef*%
G36*
G01*
X158240000Y-83540000D02*
X158240000Y-82290000D01*
G75*
G02*
X158365000Y-82165000I125000J0D01*
G01*
X158615000Y-82165000D01*
G75*
G02*
X158740000Y-82290000I0J-125000D01*
G01*
X158740000Y-83540000D01*
G75*
G02*
X158615000Y-83665000I-125000J0D01*
G01*
X158365000Y-83665000D01*
G75*
G02*
X158240000Y-83540000I0J125000D01*
G01*
G37*
%TD.AperFunction*%
%TO.P,U3,31*%
%TO.N,Net-(SW1-Pad2)*%
%TA.AperFunction,SMDPad,CuDef*%
G36*
G01*
X159040000Y-83540000D02*
X159040000Y-82290000D01*
G75*
G02*
X159165000Y-82165000I125000J0D01*
G01*
X159415000Y-82165000D01*
G75*
G02*
X159540000Y-82290000I0J-125000D01*
G01*
X159540000Y-83540000D01*
G75*
G02*
X159415000Y-83665000I-125000J0D01*
G01*
X159165000Y-83665000D01*
G75*
G02*
X159040000Y-83540000I0J125000D01*
G01*
G37*
%TD.AperFunction*%
%TO.P,U3,30*%
%TO.N,Net-(U3-Pad30)*%
%TA.AperFunction,SMDPad,CuDef*%
G36*
G01*
X159840000Y-83540000D02*
X159840000Y-82290000D01*
G75*
G02*
X159965000Y-82165000I125000J0D01*
G01*
X160215000Y-82165000D01*
G75*
G02*
X160340000Y-82290000I0J-125000D01*
G01*
X160340000Y-83540000D01*
G75*
G02*
X160215000Y-83665000I-125000J0D01*
G01*
X159965000Y-83665000D01*
G75*
G02*
X159840000Y-83540000I0J125000D01*
G01*
G37*
%TD.AperFunction*%
%TO.P,U3,29*%
%TO.N,Net-(U3-Pad29)*%
%TA.AperFunction,SMDPad,CuDef*%
G36*
G01*
X160640000Y-83540000D02*
X160640000Y-82290000D01*
G75*
G02*
X160765000Y-82165000I125000J0D01*
G01*
X161015000Y-82165000D01*
G75*
G02*
X161140000Y-82290000I0J-125000D01*
G01*
X161140000Y-83540000D01*
G75*
G02*
X161015000Y-83665000I-125000J0D01*
G01*
X160765000Y-83665000D01*
G75*
G02*
X160640000Y-83540000I0J125000D01*
G01*
G37*
%TD.AperFunction*%
%TO.P,U3,28*%
%TO.N,Net-(U3-Pad28)*%
%TA.AperFunction,SMDPad,CuDef*%
G36*
G01*
X161440000Y-83540000D02*
X161440000Y-82290000D01*
G75*
G02*
X161565000Y-82165000I125000J0D01*
G01*
X161815000Y-82165000D01*
G75*
G02*
X161940000Y-82290000I0J-125000D01*
G01*
X161940000Y-83540000D01*
G75*
G02*
X161815000Y-83665000I-125000J0D01*
G01*
X161565000Y-83665000D01*
G75*
G02*
X161440000Y-83540000I0J125000D01*
G01*
G37*
%TD.AperFunction*%
%TO.P,U3,27*%
%TO.N,Net-(U3-Pad27)*%
%TA.AperFunction,SMDPad,CuDef*%
G36*
G01*
X162240000Y-83540000D02*
X162240000Y-82290000D01*
G75*
G02*
X162365000Y-82165000I125000J0D01*
G01*
X162615000Y-82165000D01*
G75*
G02*
X162740000Y-82290000I0J-125000D01*
G01*
X162740000Y-83540000D01*
G75*
G02*
X162615000Y-83665000I-125000J0D01*
G01*
X162365000Y-83665000D01*
G75*
G02*
X162240000Y-83540000I0J125000D01*
G01*
G37*
%TD.AperFunction*%
%TO.P,U3,26*%
%TO.N,Net-(U3-Pad26)*%
%TA.AperFunction,SMDPad,CuDef*%
G36*
G01*
X163040000Y-83540000D02*
X163040000Y-82290000D01*
G75*
G02*
X163165000Y-82165000I125000J0D01*
G01*
X163415000Y-82165000D01*
G75*
G02*
X163540000Y-82290000I0J-125000D01*
G01*
X163540000Y-83540000D01*
G75*
G02*
X163415000Y-83665000I-125000J0D01*
G01*
X163165000Y-83665000D01*
G75*
G02*
X163040000Y-83540000I0J125000D01*
G01*
G37*
%TD.AperFunction*%
%TO.P,U3,25*%
%TO.N,Net-(U3-Pad25)*%
%TA.AperFunction,SMDPad,CuDef*%
G36*
G01*
X163840000Y-83540000D02*
X163840000Y-82290000D01*
G75*
G02*
X163965000Y-82165000I125000J0D01*
G01*
X164215000Y-82165000D01*
G75*
G02*
X164340000Y-82290000I0J-125000D01*
G01*
X164340000Y-83540000D01*
G75*
G02*
X164215000Y-83665000I-125000J0D01*
G01*
X163965000Y-83665000D01*
G75*
G02*
X163840000Y-83540000I0J125000D01*
G01*
G37*
%TD.AperFunction*%
%TO.P,U3,24*%
%TO.N,Net-(U3-Pad24)*%
%TA.AperFunction,SMDPad,CuDef*%
G36*
G01*
X164715000Y-81665000D02*
X164715000Y-81415000D01*
G75*
G02*
X164840000Y-81290000I125000J0D01*
G01*
X166090000Y-81290000D01*
G75*
G02*
X166215000Y-81415000I0J-125000D01*
G01*
X166215000Y-81665000D01*
G75*
G02*
X166090000Y-81790000I-125000J0D01*
G01*
X164840000Y-81790000D01*
G75*
G02*
X164715000Y-81665000I0J125000D01*
G01*
G37*
%TD.AperFunction*%
%TO.P,U3,23*%
%TO.N,Net-(U3-Pad23)*%
%TA.AperFunction,SMDPad,CuDef*%
G36*
G01*
X164715000Y-80865000D02*
X164715000Y-80615000D01*
G75*
G02*
X164840000Y-80490000I125000J0D01*
G01*
X166090000Y-80490000D01*
G75*
G02*
X166215000Y-80615000I0J-125000D01*
G01*
X166215000Y-80865000D01*
G75*
G02*
X166090000Y-80990000I-125000J0D01*
G01*
X164840000Y-80990000D01*
G75*
G02*
X164715000Y-80865000I0J125000D01*
G01*
G37*
%TD.AperFunction*%
%TO.P,U3,22*%
%TO.N,Net-(U3-Pad22)*%
%TA.AperFunction,SMDPad,CuDef*%
G36*
G01*
X164715000Y-80065000D02*
X164715000Y-79815000D01*
G75*
G02*
X164840000Y-79690000I125000J0D01*
G01*
X166090000Y-79690000D01*
G75*
G02*
X166215000Y-79815000I0J-125000D01*
G01*
X166215000Y-80065000D01*
G75*
G02*
X166090000Y-80190000I-125000J0D01*
G01*
X164840000Y-80190000D01*
G75*
G02*
X164715000Y-80065000I0J125000D01*
G01*
G37*
%TD.AperFunction*%
%TO.P,U3,21*%
%TO.N,Net-(U3-Pad21)*%
%TA.AperFunction,SMDPad,CuDef*%
G36*
G01*
X164715000Y-79265000D02*
X164715000Y-79015000D01*
G75*
G02*
X164840000Y-78890000I125000J0D01*
G01*
X166090000Y-78890000D01*
G75*
G02*
X166215000Y-79015000I0J-125000D01*
G01*
X166215000Y-79265000D01*
G75*
G02*
X166090000Y-79390000I-125000J0D01*
G01*
X164840000Y-79390000D01*
G75*
G02*
X164715000Y-79265000I0J125000D01*
G01*
G37*
%TD.AperFunction*%
%TO.P,U3,20*%
%TO.N,/MCU/USART_RX*%
%TA.AperFunction,SMDPad,CuDef*%
G36*
G01*
X164715000Y-78465000D02*
X164715000Y-78215000D01*
G75*
G02*
X164840000Y-78090000I125000J0D01*
G01*
X166090000Y-78090000D01*
G75*
G02*
X166215000Y-78215000I0J-125000D01*
G01*
X166215000Y-78465000D01*
G75*
G02*
X166090000Y-78590000I-125000J0D01*
G01*
X164840000Y-78590000D01*
G75*
G02*
X164715000Y-78465000I0J125000D01*
G01*
G37*
%TD.AperFunction*%
%TO.P,U3,19*%
%TO.N,/MCU/USART_TX*%
%TA.AperFunction,SMDPad,CuDef*%
G36*
G01*
X164715000Y-77665000D02*
X164715000Y-77415000D01*
G75*
G02*
X164840000Y-77290000I125000J0D01*
G01*
X166090000Y-77290000D01*
G75*
G02*
X166215000Y-77415000I0J-125000D01*
G01*
X166215000Y-77665000D01*
G75*
G02*
X166090000Y-77790000I-125000J0D01*
G01*
X164840000Y-77790000D01*
G75*
G02*
X164715000Y-77665000I0J125000D01*
G01*
G37*
%TD.AperFunction*%
%TO.P,U3,18*%
%TO.N,Net-(U3-Pad18)*%
%TA.AperFunction,SMDPad,CuDef*%
G36*
G01*
X164715000Y-76865000D02*
X164715000Y-76615000D01*
G75*
G02*
X164840000Y-76490000I125000J0D01*
G01*
X166090000Y-76490000D01*
G75*
G02*
X166215000Y-76615000I0J-125000D01*
G01*
X166215000Y-76865000D01*
G75*
G02*
X166090000Y-76990000I-125000J0D01*
G01*
X164840000Y-76990000D01*
G75*
G02*
X164715000Y-76865000I0J125000D01*
G01*
G37*
%TD.AperFunction*%
%TO.P,U3,17*%
%TO.N,+3V3*%
%TA.AperFunction,SMDPad,CuDef*%
G36*
G01*
X164715000Y-76065000D02*
X164715000Y-75815000D01*
G75*
G02*
X164840000Y-75690000I125000J0D01*
G01*
X166090000Y-75690000D01*
G75*
G02*
X166215000Y-75815000I0J-125000D01*
G01*
X166215000Y-76065000D01*
G75*
G02*
X166090000Y-76190000I-125000J0D01*
G01*
X164840000Y-76190000D01*
G75*
G02*
X164715000Y-76065000I0J125000D01*
G01*
G37*
%TD.AperFunction*%
%TO.P,U3,16*%
%TO.N,GNDS*%
%TA.AperFunction,SMDPad,CuDef*%
G36*
G01*
X163840000Y-75190000D02*
X163840000Y-73940000D01*
G75*
G02*
X163965000Y-73815000I125000J0D01*
G01*
X164215000Y-73815000D01*
G75*
G02*
X164340000Y-73940000I0J-125000D01*
G01*
X164340000Y-75190000D01*
G75*
G02*
X164215000Y-75315000I-125000J0D01*
G01*
X163965000Y-75315000D01*
G75*
G02*
X163840000Y-75190000I0J125000D01*
G01*
G37*
%TD.AperFunction*%
%TO.P,U3,15*%
%TO.N,Net-(U3-Pad15)*%
%TA.AperFunction,SMDPad,CuDef*%
G36*
G01*
X163040000Y-75190000D02*
X163040000Y-73940000D01*
G75*
G02*
X163165000Y-73815000I125000J0D01*
G01*
X163415000Y-73815000D01*
G75*
G02*
X163540000Y-73940000I0J-125000D01*
G01*
X163540000Y-75190000D01*
G75*
G02*
X163415000Y-75315000I-125000J0D01*
G01*
X163165000Y-75315000D01*
G75*
G02*
X163040000Y-75190000I0J125000D01*
G01*
G37*
%TD.AperFunction*%
%TO.P,U3,14*%
%TO.N,Net-(U3-Pad14)*%
%TA.AperFunction,SMDPad,CuDef*%
G36*
G01*
X162240000Y-75190000D02*
X162240000Y-73940000D01*
G75*
G02*
X162365000Y-73815000I125000J0D01*
G01*
X162615000Y-73815000D01*
G75*
G02*
X162740000Y-73940000I0J-125000D01*
G01*
X162740000Y-75190000D01*
G75*
G02*
X162615000Y-75315000I-125000J0D01*
G01*
X162365000Y-75315000D01*
G75*
G02*
X162240000Y-75190000I0J125000D01*
G01*
G37*
%TD.AperFunction*%
%TO.P,U3,13*%
%TO.N,/MCU/I2C_SDA*%
%TA.AperFunction,SMDPad,CuDef*%
G36*
G01*
X161440000Y-75190000D02*
X161440000Y-73940000D01*
G75*
G02*
X161565000Y-73815000I125000J0D01*
G01*
X161815000Y-73815000D01*
G75*
G02*
X161940000Y-73940000I0J-125000D01*
G01*
X161940000Y-75190000D01*
G75*
G02*
X161815000Y-75315000I-125000J0D01*
G01*
X161565000Y-75315000D01*
G75*
G02*
X161440000Y-75190000I0J125000D01*
G01*
G37*
%TD.AperFunction*%
%TO.P,U3,12*%
%TO.N,/MCU/I2C_SCL*%
%TA.AperFunction,SMDPad,CuDef*%
G36*
G01*
X160640000Y-75190000D02*
X160640000Y-73940000D01*
G75*
G02*
X160765000Y-73815000I125000J0D01*
G01*
X161015000Y-73815000D01*
G75*
G02*
X161140000Y-73940000I0J-125000D01*
G01*
X161140000Y-75190000D01*
G75*
G02*
X161015000Y-75315000I-125000J0D01*
G01*
X160765000Y-75315000D01*
G75*
G02*
X160640000Y-75190000I0J125000D01*
G01*
G37*
%TD.AperFunction*%
%TO.P,U3,11*%
%TO.N,Net-(U3-Pad11)*%
%TA.AperFunction,SMDPad,CuDef*%
G36*
G01*
X159840000Y-75190000D02*
X159840000Y-73940000D01*
G75*
G02*
X159965000Y-73815000I125000J0D01*
G01*
X160215000Y-73815000D01*
G75*
G02*
X160340000Y-73940000I0J-125000D01*
G01*
X160340000Y-75190000D01*
G75*
G02*
X160215000Y-75315000I-125000J0D01*
G01*
X159965000Y-75315000D01*
G75*
G02*
X159840000Y-75190000I0J125000D01*
G01*
G37*
%TD.AperFunction*%
%TO.P,U3,10*%
%TO.N,Net-(U3-Pad10)*%
%TA.AperFunction,SMDPad,CuDef*%
G36*
G01*
X159040000Y-75190000D02*
X159040000Y-73940000D01*
G75*
G02*
X159165000Y-73815000I125000J0D01*
G01*
X159415000Y-73815000D01*
G75*
G02*
X159540000Y-73940000I0J-125000D01*
G01*
X159540000Y-75190000D01*
G75*
G02*
X159415000Y-75315000I-125000J0D01*
G01*
X159165000Y-75315000D01*
G75*
G02*
X159040000Y-75190000I0J125000D01*
G01*
G37*
%TD.AperFunction*%
%TO.P,U3,9*%
%TO.N,Net-(U3-Pad9)*%
%TA.AperFunction,SMDPad,CuDef*%
G36*
G01*
X158240000Y-75190000D02*
X158240000Y-73940000D01*
G75*
G02*
X158365000Y-73815000I125000J0D01*
G01*
X158615000Y-73815000D01*
G75*
G02*
X158740000Y-73940000I0J-125000D01*
G01*
X158740000Y-75190000D01*
G75*
G02*
X158615000Y-75315000I-125000J0D01*
G01*
X158365000Y-75315000D01*
G75*
G02*
X158240000Y-75190000I0J125000D01*
G01*
G37*
%TD.AperFunction*%
%TO.P,U3,8*%
%TO.N,Net-(U3-Pad8)*%
%TA.AperFunction,SMDPad,CuDef*%
G36*
G01*
X156365000Y-76065000D02*
X156365000Y-75815000D01*
G75*
G02*
X156490000Y-75690000I125000J0D01*
G01*
X157740000Y-75690000D01*
G75*
G02*
X157865000Y-75815000I0J-125000D01*
G01*
X157865000Y-76065000D01*
G75*
G02*
X157740000Y-76190000I-125000J0D01*
G01*
X156490000Y-76190000D01*
G75*
G02*
X156365000Y-76065000I0J125000D01*
G01*
G37*
%TD.AperFunction*%
%TO.P,U3,7*%
%TO.N,Net-(U3-Pad7)*%
%TA.AperFunction,SMDPad,CuDef*%
G36*
G01*
X156365000Y-76865000D02*
X156365000Y-76615000D01*
G75*
G02*
X156490000Y-76490000I125000J0D01*
G01*
X157740000Y-76490000D01*
G75*
G02*
X157865000Y-76615000I0J-125000D01*
G01*
X157865000Y-76865000D01*
G75*
G02*
X157740000Y-76990000I-125000J0D01*
G01*
X156490000Y-76990000D01*
G75*
G02*
X156365000Y-76865000I0J125000D01*
G01*
G37*
%TD.AperFunction*%
%TO.P,U3,6*%
%TO.N,Net-(U3-Pad6)*%
%TA.AperFunction,SMDPad,CuDef*%
G36*
G01*
X156365000Y-77665000D02*
X156365000Y-77415000D01*
G75*
G02*
X156490000Y-77290000I125000J0D01*
G01*
X157740000Y-77290000D01*
G75*
G02*
X157865000Y-77415000I0J-125000D01*
G01*
X157865000Y-77665000D01*
G75*
G02*
X157740000Y-77790000I-125000J0D01*
G01*
X156490000Y-77790000D01*
G75*
G02*
X156365000Y-77665000I0J125000D01*
G01*
G37*
%TD.AperFunction*%
%TO.P,U3,5*%
%TO.N,+3V3*%
%TA.AperFunction,SMDPad,CuDef*%
G36*
G01*
X156365000Y-78465000D02*
X156365000Y-78215000D01*
G75*
G02*
X156490000Y-78090000I125000J0D01*
G01*
X157740000Y-78090000D01*
G75*
G02*
X157865000Y-78215000I0J-125000D01*
G01*
X157865000Y-78465000D01*
G75*
G02*
X157740000Y-78590000I-125000J0D01*
G01*
X156490000Y-78590000D01*
G75*
G02*
X156365000Y-78465000I0J125000D01*
G01*
G37*
%TD.AperFunction*%
%TO.P,U3,4*%
%TO.N,Net-(C10-Pad1)*%
%TA.AperFunction,SMDPad,CuDef*%
G36*
G01*
X156365000Y-79265000D02*
X156365000Y-79015000D01*
G75*
G02*
X156490000Y-78890000I125000J0D01*
G01*
X157740000Y-78890000D01*
G75*
G02*
X157865000Y-79015000I0J-125000D01*
G01*
X157865000Y-79265000D01*
G75*
G02*
X157740000Y-79390000I-125000J0D01*
G01*
X156490000Y-79390000D01*
G75*
G02*
X156365000Y-79265000I0J125000D01*
G01*
G37*
%TD.AperFunction*%
%TO.P,U3,3*%
%TO.N,Net-(U3-Pad3)*%
%TA.AperFunction,SMDPad,CuDef*%
G36*
G01*
X156365000Y-80065000D02*
X156365000Y-79815000D01*
G75*
G02*
X156490000Y-79690000I125000J0D01*
G01*
X157740000Y-79690000D01*
G75*
G02*
X157865000Y-79815000I0J-125000D01*
G01*
X157865000Y-80065000D01*
G75*
G02*
X157740000Y-80190000I-125000J0D01*
G01*
X156490000Y-80190000D01*
G75*
G02*
X156365000Y-80065000I0J125000D01*
G01*
G37*
%TD.AperFunction*%
%TO.P,U3,2*%
%TO.N,Net-(U3-Pad2)*%
%TA.AperFunction,SMDPad,CuDef*%
G36*
G01*
X156365000Y-80865000D02*
X156365000Y-80615000D01*
G75*
G02*
X156490000Y-80490000I125000J0D01*
G01*
X157740000Y-80490000D01*
G75*
G02*
X157865000Y-80615000I0J-125000D01*
G01*
X157865000Y-80865000D01*
G75*
G02*
X157740000Y-80990000I-125000J0D01*
G01*
X156490000Y-80990000D01*
G75*
G02*
X156365000Y-80865000I0J125000D01*
G01*
G37*
%TD.AperFunction*%
%TO.P,U3,1*%
%TO.N,+3V3*%
%TA.AperFunction,SMDPad,CuDef*%
G36*
G01*
X156365000Y-81665000D02*
X156365000Y-81415000D01*
G75*
G02*
X156490000Y-81290000I125000J0D01*
G01*
X157740000Y-81290000D01*
G75*
G02*
X157865000Y-81415000I0J-125000D01*
G01*
X157865000Y-81665000D01*
G75*
G02*
X157740000Y-81790000I-125000J0D01*
G01*
X156490000Y-81790000D01*
G75*
G02*
X156365000Y-81665000I0J125000D01*
G01*
G37*
%TD.AperFunction*%
%TD*%
D12*
%TO.P,U2,3*%
%TO.N,+5V*%
X170013000Y-79121000D03*
%TO.P,U2,2*%
%TO.N,+3V3*%
X172633000Y-80071000D03*
%TO.P,U2,1*%
%TO.N,GNDS*%
X172633000Y-78171000D03*
%TD*%
%TO.P,C8,2*%
%TO.N,GNDS*%
%TA.AperFunction,SMDPad,CuDef*%
G36*
G01*
X170757001Y-74480000D02*
X169856999Y-74480000D01*
G75*
G02*
X169607000Y-74230001I0J249999D01*
G01*
X169607000Y-73579999D01*
G75*
G02*
X169856999Y-73330000I249999J0D01*
G01*
X170757001Y-73330000D01*
G75*
G02*
X171007000Y-73579999I0J-249999D01*
G01*
X171007000Y-74230001D01*
G75*
G02*
X170757001Y-74480000I-249999J0D01*
G01*
G37*
%TD.AperFunction*%
%TO.P,C8,1*%
%TO.N,+3V3*%
%TA.AperFunction,SMDPad,CuDef*%
G36*
G01*
X170757001Y-76530000D02*
X169856999Y-76530000D01*
G75*
G02*
X169607000Y-76280001I0J249999D01*
G01*
X169607000Y-75629999D01*
G75*
G02*
X169856999Y-75380000I249999J0D01*
G01*
X170757001Y-75380000D01*
G75*
G02*
X171007000Y-75629999I0J-249999D01*
G01*
X171007000Y-76280001D01*
G75*
G02*
X170757001Y-76530000I-249999J0D01*
G01*
G37*
%TD.AperFunction*%
%TD*%
%TO.P,C5,2*%
%TO.N,+5V*%
%TA.AperFunction,SMDPad,CuDef*%
G36*
G01*
X170757001Y-82544500D02*
X169856999Y-82544500D01*
G75*
G02*
X169607000Y-82294501I0J249999D01*
G01*
X169607000Y-81644499D01*
G75*
G02*
X169856999Y-81394500I249999J0D01*
G01*
X170757001Y-81394500D01*
G75*
G02*
X171007000Y-81644499I0J-249999D01*
G01*
X171007000Y-82294501D01*
G75*
G02*
X170757001Y-82544500I-249999J0D01*
G01*
G37*
%TD.AperFunction*%
%TO.P,C5,1*%
%TO.N,GNDS*%
%TA.AperFunction,SMDPad,CuDef*%
G36*
G01*
X170757001Y-84594500D02*
X169856999Y-84594500D01*
G75*
G02*
X169607000Y-84344501I0J249999D01*
G01*
X169607000Y-83694499D01*
G75*
G02*
X169856999Y-83444500I249999J0D01*
G01*
X170757001Y-83444500D01*
G75*
G02*
X171007000Y-83694499I0J-249999D01*
G01*
X171007000Y-84344501D01*
G75*
G02*
X170757001Y-84594500I-249999J0D01*
G01*
G37*
%TD.AperFunction*%
%TD*%
D13*
%TO.N,GNDS*%
X157124400Y-74269600D03*
X153416000Y-80645000D03*
X146685000Y-76327000D03*
X134302500Y-75247500D03*
X171577000Y-73977500D03*
%TO.N,Net-(C1-Pad1)*%
X135128000Y-81280000D03*
%TO.N,+5V*%
X154940000Y-76555600D03*
X168910000Y-82042000D03*
X135128000Y-80518000D03*
%TO.N,+3V3*%
X167957500Y-75946000D03*
X180848000Y-76200000D03*
%TO.N,Net-(J1-Pad3)*%
X154931400Y-75023000D03*
X135001000Y-78930500D03*
%TO.N,Net-(J1-Pad2)*%
X154971800Y-75673000D03*
X135000964Y-79756010D03*
%TO.N,/MCU/I2C_SDA*%
X161690000Y-76200000D03*
X174244000Y-73660000D03*
%TO.N,/MCU/I2C_SCL*%
X160909000Y-75946000D03*
X176276000Y-73406000D03*
%TO.N,/MCU/USART_RX*%
X166844000Y-83473000D03*
%TO.N,/MCU/USART_TX*%
X163195000Y-80391000D03*
%TO.N,Net-(C10-Pad1)*%
X153416000Y-79375000D03*
%TO.N,Net-(R5-Pad1)*%
X181864000Y-84328000D03*
%TO.N,Net-(SW1-Pad2)*%
X161925000Y-84518500D03*
%TD*%
D14*
%TO.N,Net-(C1-Pad1)*%
X142503000Y-82931000D02*
X144517000Y-82931000D01*
X142494000Y-82042000D02*
X142494000Y-82931000D01*
X141732000Y-81280000D02*
X142494000Y-82042000D01*
X135128000Y-81280000D02*
X141732000Y-81280000D01*
%TO.N,+5V*%
X152908000Y-82931000D02*
X150622000Y-82931000D01*
X150486000Y-82813000D02*
X150631000Y-82958000D01*
X151536400Y-76555600D02*
X154940000Y-76555600D01*
X150622000Y-82931000D02*
X150622000Y-77470000D01*
X150622000Y-77470000D02*
X151536400Y-76555600D01*
X170307000Y-80975200D02*
X170307000Y-82042000D01*
X170013000Y-79121000D02*
X170013000Y-80681200D01*
X170013000Y-80681200D02*
X170307000Y-80975200D01*
X170116500Y-82042000D02*
X168910000Y-82042000D01*
X170243500Y-81915000D02*
X170116500Y-82042000D01*
X175387000Y-77978000D02*
X177927000Y-77978000D01*
X175387000Y-80518000D02*
X175387000Y-77978000D01*
X172212000Y-81153000D02*
X174752000Y-81153000D01*
X177927000Y-77978000D02*
X178435000Y-77470000D01*
X174752000Y-81153000D02*
X175387000Y-80518000D01*
X171386500Y-81978500D02*
X172212000Y-81153000D01*
X178435000Y-77470000D02*
X179070000Y-77470000D01*
X170332400Y-81978500D02*
X171386500Y-81978500D01*
X146558000Y-82867500D02*
X146558000Y-80518000D01*
X147574000Y-80518000D02*
X150622000Y-77470000D01*
X146558000Y-80518000D02*
X147574000Y-80518000D01*
X135410842Y-80518000D02*
X135128000Y-80518000D01*
X146558000Y-80518000D02*
X135410842Y-80518000D01*
%TO.N,+3V3*%
X157115000Y-81540000D02*
X158363000Y-81540000D01*
X158363000Y-81540000D02*
X158858000Y-81045000D01*
X158858000Y-81045000D02*
X158858000Y-78340000D01*
X157115000Y-78340000D02*
X158858000Y-78340000D01*
X172633000Y-80071000D02*
X171414400Y-80071000D01*
X164090000Y-75940000D02*
X165465000Y-75940000D01*
X161734500Y-78295500D02*
X164090000Y-75940000D01*
X158858000Y-78340000D02*
X158902500Y-78295500D01*
X158902500Y-78295500D02*
X161734500Y-78295500D01*
X167957500Y-75946000D02*
X167951500Y-75940000D01*
X167951500Y-75940000D02*
X165465000Y-75940000D01*
X167957500Y-75946000D02*
X170370500Y-75946000D01*
X170307000Y-77800200D02*
X170307000Y-75987800D01*
X170307000Y-75987800D02*
X170281600Y-75962400D01*
X171297600Y-79954200D02*
X171297600Y-77800200D01*
X171297600Y-77800200D02*
X170307000Y-77800200D01*
X174244000Y-80073500D02*
X172656500Y-80073500D01*
X174244000Y-76590000D02*
X174244000Y-80073500D01*
X176276000Y-76590000D02*
X174244000Y-76590000D01*
X176276000Y-76590000D02*
X177664000Y-76590000D01*
X180828001Y-76180001D02*
X180848000Y-76200000D01*
X178073999Y-76180001D02*
X180828001Y-76180001D01*
X177664000Y-76590000D02*
X178073999Y-76180001D01*
%TO.N,Net-(J1-Pad3)*%
X146177000Y-78930500D02*
X150084500Y-75023000D01*
X135001000Y-78930500D02*
X146177000Y-78930500D01*
X154931400Y-75023000D02*
X150084500Y-75023000D01*
%TO.N,Net-(J1-Pad2)*%
X146862790Y-79756010D02*
X135000964Y-79756010D01*
X154971800Y-75673000D02*
X150945800Y-75673000D01*
X150945800Y-75673000D02*
X146862790Y-79756010D01*
%TO.N,/MCU/I2C_SDA*%
X161690000Y-74565000D02*
X161690000Y-76200000D01*
X174244000Y-74540000D02*
X174244000Y-73660000D01*
%TO.N,/MCU/I2C_SCL*%
X160909000Y-75946000D02*
X160890000Y-75927000D01*
X160890000Y-75927000D02*
X160890000Y-74565000D01*
X176276000Y-74286000D02*
X176276000Y-73406000D01*
X176530000Y-74540000D02*
X176276000Y-74286000D01*
%TO.N,/MCU/USART_RX*%
X166844000Y-78579000D02*
X166844000Y-83473000D01*
X166605000Y-78340000D02*
X166844000Y-78579000D01*
X165465000Y-78340000D02*
X166605000Y-78340000D01*
%TO.N,/MCU/USART_TX*%
X163195000Y-80391000D02*
X163195000Y-78105000D01*
X163195000Y-78105000D02*
X163760000Y-77540000D01*
X163760000Y-77540000D02*
X165465000Y-77540000D01*
%TO.N,Net-(C10-Pad1)*%
X153651000Y-79140000D02*
X153416000Y-79375000D01*
X157115000Y-79140000D02*
X153651000Y-79140000D01*
%TO.N,Net-(R5-Pad1)*%
X181864000Y-84328000D02*
X176530000Y-84328000D01*
X176530000Y-84328000D02*
X176276000Y-84074000D01*
%TO.N,Net-(SW1-Pad2)*%
X159290000Y-83979000D02*
X159829500Y-84518500D01*
X159290000Y-82915000D02*
X159290000Y-83979000D01*
X159829500Y-84518500D02*
X161925000Y-84518500D01*
%TD*%
D15*
%TO.N,GNDS*%
G36*
X186792000Y-85700000D02*
G01*
X138328000Y-85700000D01*
X138328000Y-83852419D01*
X138331193Y-83820000D01*
X138318450Y-83690617D01*
X138280710Y-83566207D01*
X138219425Y-83451550D01*
X138136948Y-83351052D01*
X138036450Y-83268575D01*
X137921793Y-83207290D01*
X137797383Y-83169550D01*
X137700419Y-83160000D01*
X137668000Y-83156807D01*
X137635581Y-83160000D01*
X125628000Y-83160000D01*
X125628000Y-79756010D01*
X134161924Y-79756010D01*
X134165964Y-79797029D01*
X134165964Y-79838250D01*
X134174006Y-79878678D01*
X134178046Y-79919699D01*
X134190012Y-79959146D01*
X134198053Y-79999570D01*
X134213825Y-80037648D01*
X134225792Y-80077097D01*
X134245224Y-80113452D01*
X134260997Y-80151531D01*
X134283897Y-80185803D01*
X134303328Y-80222156D01*
X134329477Y-80254019D01*
X134331990Y-80257780D01*
X134325089Y-80274440D01*
X134317048Y-80314864D01*
X134305082Y-80354311D01*
X134301042Y-80395332D01*
X134293000Y-80435760D01*
X134293000Y-80476981D01*
X134288960Y-80518000D01*
X134293000Y-80559018D01*
X134293000Y-80600240D01*
X134301042Y-80640668D01*
X134305082Y-80681689D01*
X134317048Y-80721136D01*
X134325089Y-80761560D01*
X134340861Y-80799638D01*
X134352828Y-80839087D01*
X134372260Y-80875442D01*
X134382018Y-80899000D01*
X134372260Y-80922558D01*
X134352828Y-80958913D01*
X134340861Y-80998362D01*
X134325089Y-81036440D01*
X134317048Y-81076864D01*
X134305082Y-81116311D01*
X134301042Y-81157332D01*
X134293000Y-81197760D01*
X134293000Y-81238981D01*
X134288960Y-81280000D01*
X134293000Y-81321019D01*
X134293000Y-81362240D01*
X134301042Y-81402668D01*
X134305082Y-81443689D01*
X134317048Y-81483136D01*
X134325089Y-81523560D01*
X134340861Y-81561638D01*
X134352828Y-81601087D01*
X134372260Y-81637442D01*
X134388033Y-81675521D01*
X134410933Y-81709793D01*
X134430364Y-81746146D01*
X134456513Y-81778009D01*
X134479413Y-81812281D01*
X134508559Y-81841427D01*
X134534709Y-81873291D01*
X134566573Y-81899441D01*
X134595719Y-81928587D01*
X134629991Y-81951487D01*
X134661854Y-81977636D01*
X134698207Y-81997067D01*
X134732479Y-82019967D01*
X134770558Y-82035740D01*
X134806913Y-82055172D01*
X134846362Y-82067139D01*
X134884440Y-82082911D01*
X134924864Y-82090952D01*
X134964311Y-82102918D01*
X135005332Y-82106958D01*
X135045760Y-82115000D01*
X141371505Y-82115000D01*
X141357528Y-82141149D01*
X141306992Y-82307745D01*
X141289928Y-82480999D01*
X141289928Y-83381001D01*
X141306992Y-83554255D01*
X141357528Y-83720851D01*
X141439595Y-83874387D01*
X141550038Y-84008962D01*
X141684613Y-84119405D01*
X141838149Y-84201472D01*
X142004745Y-84252008D01*
X142177999Y-84269072D01*
X142828001Y-84269072D01*
X143001255Y-84252008D01*
X143167851Y-84201472D01*
X143321387Y-84119405D01*
X143455962Y-84008962D01*
X143510000Y-83943117D01*
X143564038Y-84008962D01*
X143698613Y-84119405D01*
X143852149Y-84201472D01*
X144018745Y-84252008D01*
X144191999Y-84269072D01*
X144842001Y-84269072D01*
X145015255Y-84252008D01*
X145181851Y-84201472D01*
X145335387Y-84119405D01*
X145469962Y-84008962D01*
X145542000Y-83921184D01*
X145614038Y-84008962D01*
X145748613Y-84119405D01*
X145902149Y-84201472D01*
X146068745Y-84252008D01*
X146241999Y-84269072D01*
X146892001Y-84269072D01*
X147065255Y-84252008D01*
X147231851Y-84201472D01*
X147385387Y-84119405D01*
X147519962Y-84008962D01*
X147630405Y-83874387D01*
X147712472Y-83720851D01*
X147763008Y-83554255D01*
X147780072Y-83381001D01*
X147780072Y-82480999D01*
X147763008Y-82307745D01*
X147712472Y-82141149D01*
X147630405Y-81987613D01*
X147519962Y-81853038D01*
X147393000Y-81748843D01*
X147393000Y-81353000D01*
X147532982Y-81353000D01*
X147574000Y-81357040D01*
X147615018Y-81353000D01*
X147615019Y-81353000D01*
X147737689Y-81340918D01*
X147895087Y-81293172D01*
X148040146Y-81215636D01*
X148167291Y-81111291D01*
X148193446Y-81079421D01*
X149787001Y-79485867D01*
X149787000Y-81763615D01*
X149678038Y-81853038D01*
X149567595Y-81987613D01*
X149485528Y-82141149D01*
X149434992Y-82307745D01*
X149417928Y-82480999D01*
X149417928Y-83381001D01*
X149434992Y-83554255D01*
X149485528Y-83720851D01*
X149567595Y-83874387D01*
X149678038Y-84008962D01*
X149812613Y-84119405D01*
X149966149Y-84201472D01*
X150132745Y-84252008D01*
X150305999Y-84269072D01*
X150956001Y-84269072D01*
X151129255Y-84252008D01*
X151295851Y-84201472D01*
X151449387Y-84119405D01*
X151583962Y-84008962D01*
X151694405Y-83874387D01*
X151752339Y-83766000D01*
X151777661Y-83766000D01*
X151835595Y-83874387D01*
X151946038Y-84008962D01*
X152080613Y-84119405D01*
X152234149Y-84201472D01*
X152400745Y-84252008D01*
X152573999Y-84269072D01*
X153224001Y-84269072D01*
X153397255Y-84252008D01*
X153563851Y-84201472D01*
X153717387Y-84119405D01*
X153851962Y-84008962D01*
X153962405Y-83874387D01*
X154044472Y-83720851D01*
X154095008Y-83554255D01*
X154112072Y-83381001D01*
X154112072Y-82480999D01*
X154095008Y-82307745D01*
X154044472Y-82141149D01*
X153962405Y-81987613D01*
X153851962Y-81853038D01*
X153717387Y-81742595D01*
X153563851Y-81660528D01*
X153397255Y-81609992D01*
X153224001Y-81592928D01*
X152573999Y-81592928D01*
X152400745Y-81609992D01*
X152234149Y-81660528D01*
X152080613Y-81742595D01*
X151946038Y-81853038D01*
X151835595Y-81987613D01*
X151777661Y-82096000D01*
X151752339Y-82096000D01*
X151694405Y-81987613D01*
X151583962Y-81853038D01*
X151457000Y-81748843D01*
X151457000Y-77815868D01*
X151882268Y-77390600D01*
X155022240Y-77390600D01*
X155062668Y-77382558D01*
X155103689Y-77378518D01*
X155143136Y-77366552D01*
X155183560Y-77358511D01*
X155221638Y-77342739D01*
X155261087Y-77330772D01*
X155297442Y-77311340D01*
X155335521Y-77295567D01*
X155369793Y-77272667D01*
X155406146Y-77253236D01*
X155438009Y-77227087D01*
X155472281Y-77204187D01*
X155501427Y-77175041D01*
X155533291Y-77148891D01*
X155559441Y-77117027D01*
X155588587Y-77087881D01*
X155611487Y-77053609D01*
X155637636Y-77021746D01*
X155657067Y-76985393D01*
X155679967Y-76951121D01*
X155695740Y-76913042D01*
X155715172Y-76876687D01*
X155726928Y-76837933D01*
X155726928Y-76865000D01*
X155741590Y-77013868D01*
X155779852Y-77140000D01*
X155741590Y-77266132D01*
X155726928Y-77415000D01*
X155726928Y-77665000D01*
X155741590Y-77813868D01*
X155779852Y-77940000D01*
X155741590Y-78066132D01*
X155726928Y-78215000D01*
X155726928Y-78305000D01*
X153692018Y-78305000D01*
X153650999Y-78300960D01*
X153609981Y-78305000D01*
X153487311Y-78317082D01*
X153329913Y-78364828D01*
X153184854Y-78442364D01*
X153057709Y-78546709D01*
X153031554Y-78578579D01*
X152883722Y-78726411D01*
X152883719Y-78726413D01*
X152767413Y-78842719D01*
X152744509Y-78876998D01*
X152718364Y-78908855D01*
X152698936Y-78945203D01*
X152676033Y-78979479D01*
X152660258Y-79017562D01*
X152640828Y-79053914D01*
X152628862Y-79093360D01*
X152613089Y-79131440D01*
X152605047Y-79171867D01*
X152593082Y-79211312D01*
X152589042Y-79252331D01*
X152581000Y-79292760D01*
X152581000Y-79333982D01*
X152576960Y-79375000D01*
X152581000Y-79416018D01*
X152581000Y-79457240D01*
X152589042Y-79497669D01*
X152593082Y-79538688D01*
X152605047Y-79578133D01*
X152613089Y-79618560D01*
X152628862Y-79656640D01*
X152640828Y-79696086D01*
X152660258Y-79732438D01*
X152676033Y-79770521D01*
X152698936Y-79804797D01*
X152718364Y-79841145D01*
X152744508Y-79873002D01*
X152767413Y-79907281D01*
X152796567Y-79936435D01*
X152822710Y-79968290D01*
X152854565Y-79994433D01*
X152883719Y-80023587D01*
X152917998Y-80046492D01*
X152949855Y-80072636D01*
X152986203Y-80092064D01*
X153020479Y-80114967D01*
X153058562Y-80130742D01*
X153094914Y-80150172D01*
X153134360Y-80162138D01*
X153172440Y-80177911D01*
X153212867Y-80185953D01*
X153252312Y-80197918D01*
X153293331Y-80201958D01*
X153333760Y-80210000D01*
X153374982Y-80210000D01*
X153416000Y-80214040D01*
X153457018Y-80210000D01*
X153498240Y-80210000D01*
X153538669Y-80201958D01*
X153579688Y-80197918D01*
X153619133Y-80185953D01*
X153659560Y-80177911D01*
X153697640Y-80162138D01*
X153737086Y-80150172D01*
X153773438Y-80130742D01*
X153811521Y-80114967D01*
X153845797Y-80092064D01*
X153882145Y-80072636D01*
X153914002Y-80046491D01*
X153948281Y-80023587D01*
X153996868Y-79975000D01*
X155726928Y-79975000D01*
X155726928Y-80065000D01*
X155741590Y-80213868D01*
X155779852Y-80340000D01*
X155741590Y-80466132D01*
X155726928Y-80615000D01*
X155726928Y-80865000D01*
X155741590Y-81013868D01*
X155779852Y-81140000D01*
X155741590Y-81266132D01*
X155726928Y-81415000D01*
X155726928Y-81665000D01*
X155741590Y-81813868D01*
X155785013Y-81957015D01*
X155855529Y-82088940D01*
X155950427Y-82204573D01*
X156066060Y-82299471D01*
X156197985Y-82369987D01*
X156341132Y-82413410D01*
X156490000Y-82428072D01*
X157740000Y-82428072D01*
X157888868Y-82413410D01*
X158015489Y-82375000D01*
X158321982Y-82375000D01*
X158363000Y-82379040D01*
X158401928Y-82375206D01*
X158401928Y-83540000D01*
X158416590Y-83688868D01*
X158455001Y-83815492D01*
X158455001Y-83937972D01*
X158450960Y-83979000D01*
X158467082Y-84142688D01*
X158514828Y-84300086D01*
X158587615Y-84436260D01*
X158592365Y-84445146D01*
X158696710Y-84572291D01*
X158728574Y-84598441D01*
X159210054Y-85079921D01*
X159236209Y-85111791D01*
X159363354Y-85216136D01*
X159508413Y-85293672D01*
X159665811Y-85341418D01*
X159788481Y-85353500D01*
X159788483Y-85353500D01*
X159829499Y-85357540D01*
X159870515Y-85353500D01*
X162007240Y-85353500D01*
X162047668Y-85345458D01*
X162088689Y-85341418D01*
X162128136Y-85329452D01*
X162168560Y-85321411D01*
X162206638Y-85305639D01*
X162246087Y-85293672D01*
X162282442Y-85274240D01*
X162320521Y-85258467D01*
X162354793Y-85235567D01*
X162391146Y-85216136D01*
X162423009Y-85189987D01*
X162457281Y-85167087D01*
X162486427Y-85137941D01*
X162518291Y-85111791D01*
X162544441Y-85079927D01*
X162573587Y-85050781D01*
X162596487Y-85016509D01*
X162622636Y-84984646D01*
X162642067Y-84948293D01*
X162664967Y-84914021D01*
X162680740Y-84875942D01*
X162700172Y-84839587D01*
X162712139Y-84800138D01*
X162727911Y-84762060D01*
X162735952Y-84721636D01*
X162747918Y-84682189D01*
X162751958Y-84641168D01*
X162760000Y-84600740D01*
X162760000Y-84559519D01*
X162764040Y-84518500D01*
X162760000Y-84477481D01*
X162760000Y-84436260D01*
X162751958Y-84395832D01*
X162747918Y-84354811D01*
X162735952Y-84315364D01*
X162731230Y-84291625D01*
X162763868Y-84288410D01*
X162890000Y-84250148D01*
X163016132Y-84288410D01*
X163165000Y-84303072D01*
X163415000Y-84303072D01*
X163563868Y-84288410D01*
X163690000Y-84250148D01*
X163816132Y-84288410D01*
X163965000Y-84303072D01*
X164215000Y-84303072D01*
X164363868Y-84288410D01*
X164507015Y-84244987D01*
X164638940Y-84174471D01*
X164754573Y-84079573D01*
X164849471Y-83963940D01*
X164919987Y-83832015D01*
X164963410Y-83688868D01*
X164978072Y-83540000D01*
X164978072Y-82428072D01*
X166009001Y-82428072D01*
X166009001Y-83390755D01*
X166009000Y-83390760D01*
X166009000Y-83555240D01*
X166017044Y-83595678D01*
X166021083Y-83636689D01*
X166033046Y-83676126D01*
X166041089Y-83716560D01*
X166056865Y-83754647D01*
X166068829Y-83794087D01*
X166088257Y-83830434D01*
X166104033Y-83868521D01*
X166126938Y-83902801D01*
X166146365Y-83939146D01*
X166172509Y-83971002D01*
X166195413Y-84005281D01*
X166224564Y-84034432D01*
X166250710Y-84066291D01*
X166282569Y-84092437D01*
X166311719Y-84121587D01*
X166345997Y-84144491D01*
X166377855Y-84170636D01*
X166414203Y-84190064D01*
X166448479Y-84212967D01*
X166486562Y-84228742D01*
X166522914Y-84248172D01*
X166562360Y-84260138D01*
X166600440Y-84275911D01*
X166640867Y-84283953D01*
X166680312Y-84295918D01*
X166721331Y-84299958D01*
X166761760Y-84308000D01*
X166802982Y-84308000D01*
X166844000Y-84312040D01*
X166885019Y-84308000D01*
X166926240Y-84308000D01*
X166966668Y-84299958D01*
X167007689Y-84295918D01*
X167047136Y-84283952D01*
X167087560Y-84275911D01*
X167125638Y-84260139D01*
X167165087Y-84248172D01*
X167201442Y-84228740D01*
X167239521Y-84212967D01*
X167273793Y-84190067D01*
X167310146Y-84170636D01*
X167342009Y-84144487D01*
X167376281Y-84121587D01*
X167405427Y-84092441D01*
X167437291Y-84066291D01*
X167463441Y-84034427D01*
X167492587Y-84005281D01*
X167515487Y-83971009D01*
X167541636Y-83939146D01*
X167561067Y-83902793D01*
X167583967Y-83868521D01*
X167599740Y-83830442D01*
X167619172Y-83794087D01*
X167631139Y-83754638D01*
X167646911Y-83716560D01*
X167654952Y-83676136D01*
X167666918Y-83636689D01*
X167670958Y-83595668D01*
X167679000Y-83555240D01*
X167679000Y-78620018D01*
X167683040Y-78578999D01*
X167666918Y-78415311D01*
X167651025Y-78362918D01*
X167619172Y-78257913D01*
X167541636Y-78112854D01*
X167437291Y-77985709D01*
X167405422Y-77959555D01*
X167224446Y-77778579D01*
X167198291Y-77746709D01*
X167071146Y-77642364D01*
X166926087Y-77564828D01*
X166853072Y-77542679D01*
X166853072Y-77415000D01*
X166838410Y-77266132D01*
X166800148Y-77140000D01*
X166838410Y-77013868D01*
X166853072Y-76865000D01*
X166853072Y-76775000D01*
X167845096Y-76775000D01*
X167875260Y-76781000D01*
X167916491Y-76781000D01*
X167957499Y-76785039D01*
X167998507Y-76781000D01*
X169124843Y-76781000D01*
X169229038Y-76907962D01*
X169363613Y-77018405D01*
X169472000Y-77076339D01*
X169472000Y-77759181D01*
X169467960Y-77800200D01*
X169484082Y-77963889D01*
X169531828Y-78121287D01*
X169551413Y-78157928D01*
X169403000Y-78157928D01*
X169278518Y-78170188D01*
X169158820Y-78206498D01*
X169048506Y-78265463D01*
X168951815Y-78344815D01*
X168872463Y-78441506D01*
X168813498Y-78551820D01*
X168777188Y-78671518D01*
X168764928Y-78796000D01*
X168764928Y-79446000D01*
X168777188Y-79570482D01*
X168813498Y-79690180D01*
X168872463Y-79800494D01*
X168951815Y-79897185D01*
X169048506Y-79976537D01*
X169158820Y-80035502D01*
X169178001Y-80041320D01*
X169178001Y-80640172D01*
X169173960Y-80681200D01*
X169190082Y-80844888D01*
X169237828Y-81002286D01*
X169240443Y-81007178D01*
X169229038Y-81016538D01*
X169118595Y-81151113D01*
X169088723Y-81207000D01*
X168827760Y-81207000D01*
X168787332Y-81215042D01*
X168746311Y-81219082D01*
X168706864Y-81231048D01*
X168666440Y-81239089D01*
X168628362Y-81254861D01*
X168588913Y-81266828D01*
X168552558Y-81286260D01*
X168514479Y-81302033D01*
X168480207Y-81324933D01*
X168443854Y-81344364D01*
X168411991Y-81370513D01*
X168377719Y-81393413D01*
X168348573Y-81422559D01*
X168316709Y-81448709D01*
X168290561Y-81480571D01*
X168261413Y-81509719D01*
X168238513Y-81543991D01*
X168212364Y-81575854D01*
X168192933Y-81612207D01*
X168170033Y-81646479D01*
X168154260Y-81684558D01*
X168134828Y-81720913D01*
X168122861Y-81760362D01*
X168107089Y-81798440D01*
X168099048Y-81838864D01*
X168087082Y-81878311D01*
X168083042Y-81919332D01*
X168075000Y-81959760D01*
X168075000Y-82000981D01*
X168070960Y-82042000D01*
X168075000Y-82083019D01*
X168075000Y-82124240D01*
X168083042Y-82164668D01*
X168087082Y-82205689D01*
X168099048Y-82245136D01*
X168107089Y-82285560D01*
X168122861Y-82323638D01*
X168134828Y-82363087D01*
X168154260Y-82399442D01*
X168170033Y-82437521D01*
X168192933Y-82471793D01*
X168212364Y-82508146D01*
X168238513Y-82540009D01*
X168261413Y-82574281D01*
X168290559Y-82603427D01*
X168316709Y-82635291D01*
X168348573Y-82661441D01*
X168377719Y-82690587D01*
X168411991Y-82713487D01*
X168443854Y-82739636D01*
X168480207Y-82759067D01*
X168514479Y-82781967D01*
X168552558Y-82797740D01*
X168588913Y-82817172D01*
X168628362Y-82829139D01*
X168666440Y-82844911D01*
X168706864Y-82852952D01*
X168746311Y-82864918D01*
X168787332Y-82868958D01*
X168827760Y-82877000D01*
X169191728Y-82877000D01*
X169229038Y-82922462D01*
X169363613Y-83032905D01*
X169517149Y-83114972D01*
X169683745Y-83165508D01*
X169856999Y-83182572D01*
X170757001Y-83182572D01*
X170930255Y-83165508D01*
X171096851Y-83114972D01*
X171250387Y-83032905D01*
X171384962Y-82922462D01*
X171478506Y-82808478D01*
X171550189Y-82801418D01*
X171707587Y-82753672D01*
X171852646Y-82676136D01*
X171979791Y-82571791D01*
X172005946Y-82539921D01*
X172557868Y-81988000D01*
X174710982Y-81988000D01*
X174752000Y-81992040D01*
X174793018Y-81988000D01*
X174793019Y-81988000D01*
X174915689Y-81975918D01*
X175073087Y-81928172D01*
X175218146Y-81850636D01*
X175345291Y-81746291D01*
X175371445Y-81714422D01*
X175948432Y-81137436D01*
X175980291Y-81111291D01*
X176009287Y-81075960D01*
X176084636Y-80984146D01*
X176162172Y-80839087D01*
X176189888Y-80747719D01*
X176209918Y-80681689D01*
X176222000Y-80559019D01*
X176222000Y-80559018D01*
X176226040Y-80518000D01*
X176222000Y-80476981D01*
X176222000Y-78813000D01*
X177885982Y-78813000D01*
X177927000Y-78817040D01*
X177968018Y-78813000D01*
X177968019Y-78813000D01*
X178090689Y-78800918D01*
X178248087Y-78753172D01*
X178286636Y-78732567D01*
X178297760Y-78740000D01*
X178123368Y-78856525D01*
X177916525Y-79063368D01*
X177754010Y-79306589D01*
X177642068Y-79576842D01*
X177585000Y-79863740D01*
X177585000Y-80156260D01*
X177642068Y-80443158D01*
X177754010Y-80713411D01*
X177916525Y-80956632D01*
X178123368Y-81163475D01*
X178297760Y-81280000D01*
X178123368Y-81396525D01*
X177916525Y-81603368D01*
X177754010Y-81846589D01*
X177642068Y-82116842D01*
X177585000Y-82403740D01*
X177585000Y-82696260D01*
X177642068Y-82983158D01*
X177754010Y-83253411D01*
X177914098Y-83493000D01*
X177231170Y-83493000D01*
X177227008Y-83450745D01*
X177176472Y-83284149D01*
X177094405Y-83130613D01*
X176983962Y-82996038D01*
X176849387Y-82885595D01*
X176695851Y-82803528D01*
X176529255Y-82752992D01*
X176356001Y-82735928D01*
X175705999Y-82735928D01*
X175532745Y-82752992D01*
X175366149Y-82803528D01*
X175212613Y-82885595D01*
X175078038Y-82996038D01*
X174967595Y-83130613D01*
X174885528Y-83284149D01*
X174834992Y-83450745D01*
X174817928Y-83623999D01*
X174817928Y-84524001D01*
X174834992Y-84697255D01*
X174885528Y-84863851D01*
X174967595Y-85017387D01*
X175078038Y-85151962D01*
X175212613Y-85262405D01*
X175366149Y-85344472D01*
X175532745Y-85395008D01*
X175705999Y-85412072D01*
X176356001Y-85412072D01*
X176529255Y-85395008D01*
X176695851Y-85344472D01*
X176849387Y-85262405D01*
X176970512Y-85163000D01*
X181946240Y-85163000D01*
X181986668Y-85154958D01*
X182027689Y-85150918D01*
X182067136Y-85138952D01*
X182107560Y-85130911D01*
X182145638Y-85115139D01*
X182185087Y-85103172D01*
X182221442Y-85083740D01*
X182259521Y-85067967D01*
X182293793Y-85045067D01*
X182330146Y-85025636D01*
X182362009Y-84999487D01*
X182396281Y-84976587D01*
X182425427Y-84947441D01*
X182457291Y-84921291D01*
X182483441Y-84889427D01*
X182512587Y-84860281D01*
X182535487Y-84826009D01*
X182561636Y-84794146D01*
X182581067Y-84757793D01*
X182603967Y-84723521D01*
X182619740Y-84685442D01*
X182639172Y-84649087D01*
X182651139Y-84609638D01*
X182666911Y-84571560D01*
X182674952Y-84531136D01*
X182686918Y-84491689D01*
X182690958Y-84450668D01*
X182699000Y-84410240D01*
X182699000Y-84369019D01*
X182703040Y-84328000D01*
X182699000Y-84286981D01*
X182699000Y-84245760D01*
X182690958Y-84205332D01*
X182686918Y-84164311D01*
X182674952Y-84124864D01*
X182666911Y-84084440D01*
X182651139Y-84046362D01*
X182639172Y-84006913D01*
X182619740Y-83970558D01*
X182603967Y-83932479D01*
X182581067Y-83898207D01*
X182561636Y-83861854D01*
X182535487Y-83829991D01*
X182512587Y-83795719D01*
X182483439Y-83766571D01*
X182457291Y-83734709D01*
X182425427Y-83708559D01*
X182396281Y-83679413D01*
X182362009Y-83656513D01*
X182330146Y-83630364D01*
X182293793Y-83610933D01*
X182259521Y-83588033D01*
X182221442Y-83572260D01*
X182185087Y-83552828D01*
X182145638Y-83540861D01*
X182107560Y-83525089D01*
X182067136Y-83517048D01*
X182027689Y-83505082D01*
X181986668Y-83501042D01*
X181946240Y-83493000D01*
X180225902Y-83493000D01*
X180385990Y-83253411D01*
X180497932Y-82983158D01*
X180555000Y-82696260D01*
X180555000Y-82403740D01*
X180506281Y-82158812D01*
X184386600Y-82158812D01*
X184386600Y-82382388D01*
X184430217Y-82601667D01*
X184515776Y-82808224D01*
X184639988Y-82994120D01*
X184798080Y-83152212D01*
X184983976Y-83276424D01*
X185190533Y-83361983D01*
X185409812Y-83405600D01*
X185633388Y-83405600D01*
X185852667Y-83361983D01*
X186059224Y-83276424D01*
X186245120Y-83152212D01*
X186403212Y-82994120D01*
X186527424Y-82808224D01*
X186612983Y-82601667D01*
X186656600Y-82382388D01*
X186656600Y-82158812D01*
X186612983Y-81939533D01*
X186527424Y-81732976D01*
X186403212Y-81547080D01*
X186245120Y-81388988D01*
X186059224Y-81264776D01*
X185852667Y-81179217D01*
X185633388Y-81135600D01*
X185409812Y-81135600D01*
X185190533Y-81179217D01*
X184983976Y-81264776D01*
X184798080Y-81388988D01*
X184639988Y-81547080D01*
X184515776Y-81732976D01*
X184430217Y-81939533D01*
X184386600Y-82158812D01*
X180506281Y-82158812D01*
X180497932Y-82116842D01*
X180385990Y-81846589D01*
X180223475Y-81603368D01*
X180016632Y-81396525D01*
X179842240Y-81280000D01*
X180016632Y-81163475D01*
X180223475Y-80956632D01*
X180385990Y-80713411D01*
X180497932Y-80443158D01*
X180555000Y-80156260D01*
X180555000Y-79863740D01*
X180497932Y-79576842D01*
X180385990Y-79306589D01*
X180223475Y-79063368D01*
X180016632Y-78856525D01*
X179842240Y-78740000D01*
X180016632Y-78623475D01*
X180223475Y-78416632D01*
X180385990Y-78173411D01*
X180497932Y-77903158D01*
X180555000Y-77616260D01*
X180555000Y-77323740D01*
X180497932Y-77036842D01*
X180488885Y-77015001D01*
X180658213Y-77015001D01*
X180684312Y-77022918D01*
X180725331Y-77026958D01*
X180765760Y-77035000D01*
X180806982Y-77035000D01*
X180848000Y-77039040D01*
X180889018Y-77035000D01*
X180930240Y-77035000D01*
X180970669Y-77026958D01*
X181011688Y-77022918D01*
X181051133Y-77010953D01*
X181091560Y-77002911D01*
X181129640Y-76987138D01*
X181169086Y-76975172D01*
X181205438Y-76955742D01*
X181243521Y-76939967D01*
X181277797Y-76917064D01*
X181314145Y-76897636D01*
X181346002Y-76871492D01*
X181380281Y-76848587D01*
X181409435Y-76819433D01*
X181441290Y-76793290D01*
X181467433Y-76761435D01*
X181496587Y-76732281D01*
X181519492Y-76698002D01*
X181545636Y-76666145D01*
X181565064Y-76629797D01*
X181587967Y-76595521D01*
X181603742Y-76557438D01*
X181623172Y-76521086D01*
X181635138Y-76481640D01*
X181650911Y-76443560D01*
X181658953Y-76403133D01*
X181670918Y-76363688D01*
X181674958Y-76322669D01*
X181683000Y-76282240D01*
X181683000Y-76241018D01*
X181687040Y-76200000D01*
X181683000Y-76158982D01*
X181683000Y-76117760D01*
X181674958Y-76077331D01*
X181670918Y-76036312D01*
X181658953Y-75996867D01*
X181650911Y-75956440D01*
X181635138Y-75918360D01*
X181623172Y-75878914D01*
X181603742Y-75842562D01*
X181587967Y-75804479D01*
X181565064Y-75770203D01*
X181545636Y-75733855D01*
X181519490Y-75701996D01*
X181496587Y-75667719D01*
X181447442Y-75618574D01*
X181421292Y-75586710D01*
X181389428Y-75560560D01*
X181380281Y-75551413D01*
X181369525Y-75544226D01*
X181294147Y-75482365D01*
X181149088Y-75404829D01*
X180991690Y-75357083D01*
X180869020Y-75345001D01*
X180869019Y-75345001D01*
X180828001Y-75340961D01*
X180786983Y-75345001D01*
X178115017Y-75345001D01*
X178073998Y-75340961D01*
X177962791Y-75351914D01*
X177910310Y-75357083D01*
X177752912Y-75404829D01*
X177607853Y-75482365D01*
X177480708Y-75586710D01*
X177454553Y-75618580D01*
X177390984Y-75682149D01*
X177353962Y-75637038D01*
X177266184Y-75565000D01*
X177353962Y-75492962D01*
X177464405Y-75358387D01*
X177495179Y-75300812D01*
X184386600Y-75300812D01*
X184386600Y-75524388D01*
X184430217Y-75743667D01*
X184515776Y-75950224D01*
X184639988Y-76136120D01*
X184798080Y-76294212D01*
X184983976Y-76418424D01*
X185190533Y-76503983D01*
X185409812Y-76547600D01*
X185633388Y-76547600D01*
X185852667Y-76503983D01*
X186059224Y-76418424D01*
X186245120Y-76294212D01*
X186403212Y-76136120D01*
X186527424Y-75950224D01*
X186612983Y-75743667D01*
X186656600Y-75524388D01*
X186656600Y-75300812D01*
X186612983Y-75081533D01*
X186527424Y-74874976D01*
X186403212Y-74689080D01*
X186245120Y-74530988D01*
X186059224Y-74406776D01*
X185852667Y-74321217D01*
X185633388Y-74277600D01*
X185409812Y-74277600D01*
X185190533Y-74321217D01*
X184983976Y-74406776D01*
X184798080Y-74530988D01*
X184639988Y-74689080D01*
X184515776Y-74874976D01*
X184430217Y-75081533D01*
X184386600Y-75300812D01*
X177495179Y-75300812D01*
X177546472Y-75204851D01*
X177597008Y-75038255D01*
X177614072Y-74865001D01*
X177614072Y-74214999D01*
X177597008Y-74041745D01*
X177546472Y-73875149D01*
X177464405Y-73721613D01*
X177353962Y-73587038D01*
X177219387Y-73476595D01*
X177111000Y-73418661D01*
X177111000Y-73323760D01*
X177102958Y-73283332D01*
X177098918Y-73242311D01*
X177086952Y-73202864D01*
X177078911Y-73162440D01*
X177063139Y-73124362D01*
X177051172Y-73084913D01*
X177031740Y-73048558D01*
X177015967Y-73010479D01*
X176993067Y-72976207D01*
X176973636Y-72939854D01*
X176947487Y-72907991D01*
X176924587Y-72873719D01*
X176895441Y-72844573D01*
X176869291Y-72812709D01*
X176837427Y-72786559D01*
X176808281Y-72757413D01*
X176774009Y-72734513D01*
X176742146Y-72708364D01*
X176705793Y-72688933D01*
X176671521Y-72666033D01*
X176633442Y-72650260D01*
X176597087Y-72630828D01*
X176557638Y-72618861D01*
X176519560Y-72603089D01*
X176479136Y-72595048D01*
X176439689Y-72583082D01*
X176398668Y-72579042D01*
X176358240Y-72571000D01*
X176317019Y-72571000D01*
X176276000Y-72566960D01*
X176234982Y-72571000D01*
X176193760Y-72571000D01*
X176153331Y-72579042D01*
X176112312Y-72583082D01*
X176072867Y-72595047D01*
X176032440Y-72603089D01*
X175994360Y-72618862D01*
X175954914Y-72630828D01*
X175918562Y-72650258D01*
X175880479Y-72666033D01*
X175846203Y-72688936D01*
X175809855Y-72708364D01*
X175777997Y-72734509D01*
X175743719Y-72757413D01*
X175714569Y-72786563D01*
X175682710Y-72812709D01*
X175656564Y-72844568D01*
X175627413Y-72873719D01*
X175604509Y-72907998D01*
X175578365Y-72939854D01*
X175558938Y-72976199D01*
X175536033Y-73010479D01*
X175520257Y-73048566D01*
X175500829Y-73084913D01*
X175488865Y-73124353D01*
X175473089Y-73162440D01*
X175465046Y-73202874D01*
X175453083Y-73242311D01*
X175449043Y-73283325D01*
X175441000Y-73323760D01*
X175441000Y-73418661D01*
X175332613Y-73476595D01*
X175260000Y-73536187D01*
X175187387Y-73476595D01*
X175038968Y-73397263D01*
X175031139Y-73378362D01*
X175019172Y-73338913D01*
X174999740Y-73302558D01*
X174983967Y-73264479D01*
X174961067Y-73230207D01*
X174941636Y-73193854D01*
X174915487Y-73161991D01*
X174892587Y-73127719D01*
X174863441Y-73098573D01*
X174837291Y-73066709D01*
X174805427Y-73040559D01*
X174776281Y-73011413D01*
X174742009Y-72988513D01*
X174710146Y-72962364D01*
X174673793Y-72942933D01*
X174639521Y-72920033D01*
X174601442Y-72904260D01*
X174565087Y-72884828D01*
X174525638Y-72872861D01*
X174487560Y-72857089D01*
X174447136Y-72849048D01*
X174407689Y-72837082D01*
X174366668Y-72833042D01*
X174326240Y-72825000D01*
X174285019Y-72825000D01*
X174244000Y-72820960D01*
X174202982Y-72825000D01*
X174161760Y-72825000D01*
X174121331Y-72833042D01*
X174080312Y-72837082D01*
X174040867Y-72849047D01*
X174000440Y-72857089D01*
X173962360Y-72872862D01*
X173922914Y-72884828D01*
X173886562Y-72904258D01*
X173848479Y-72920033D01*
X173814203Y-72942936D01*
X173777855Y-72962364D01*
X173745997Y-72988509D01*
X173711719Y-73011413D01*
X173682569Y-73040563D01*
X173650710Y-73066709D01*
X173624564Y-73098568D01*
X173595413Y-73127719D01*
X173572509Y-73161998D01*
X173546365Y-73193854D01*
X173526938Y-73230199D01*
X173504033Y-73264479D01*
X173488257Y-73302566D01*
X173468829Y-73338913D01*
X173456865Y-73378353D01*
X173449032Y-73397263D01*
X173300613Y-73476595D01*
X173166038Y-73587038D01*
X173055595Y-73721613D01*
X172973528Y-73875149D01*
X172922992Y-74041745D01*
X172905928Y-74214999D01*
X172905928Y-74865001D01*
X172922992Y-75038255D01*
X172973528Y-75204851D01*
X173055595Y-75358387D01*
X173166038Y-75492962D01*
X173253816Y-75565000D01*
X173166038Y-75637038D01*
X173055595Y-75771613D01*
X172973528Y-75925149D01*
X172922992Y-76091745D01*
X172905928Y-76264999D01*
X172905928Y-76915001D01*
X172922992Y-77088255D01*
X172973528Y-77254851D01*
X173055595Y-77408387D01*
X173166038Y-77542962D01*
X173300613Y-77653405D01*
X173409000Y-77711339D01*
X173409001Y-79132783D01*
X173367482Y-79120188D01*
X173243000Y-79107928D01*
X172132600Y-79107928D01*
X172132600Y-77841218D01*
X172136640Y-77800200D01*
X172120518Y-77636511D01*
X172072772Y-77479113D01*
X171995236Y-77334054D01*
X171890891Y-77206909D01*
X171763746Y-77102564D01*
X171618687Y-77025028D01*
X171461289Y-76977282D01*
X171338619Y-76965200D01*
X171317725Y-76963142D01*
X171384962Y-76907962D01*
X171495405Y-76773387D01*
X171577472Y-76619851D01*
X171628008Y-76453255D01*
X171645072Y-76280001D01*
X171645072Y-75629999D01*
X171628008Y-75456745D01*
X171577472Y-75290149D01*
X171495405Y-75136613D01*
X171384962Y-75002038D01*
X171250387Y-74891595D01*
X171096851Y-74809528D01*
X170930255Y-74758992D01*
X170757001Y-74741928D01*
X169856999Y-74741928D01*
X169683745Y-74758992D01*
X169517149Y-74809528D01*
X169363613Y-74891595D01*
X169229038Y-75002038D01*
X169139615Y-75111000D01*
X168053438Y-75111000D01*
X167992519Y-75105000D01*
X167992518Y-75105000D01*
X167951500Y-75100960D01*
X167910482Y-75105000D01*
X166365489Y-75105000D01*
X166238868Y-75066590D01*
X166090000Y-75051928D01*
X164840000Y-75051928D01*
X164691132Y-75066590D01*
X164564511Y-75105000D01*
X164178072Y-75105000D01*
X164178072Y-73940000D01*
X164163410Y-73791132D01*
X164119987Y-73647985D01*
X164049471Y-73516060D01*
X163954573Y-73400427D01*
X163838940Y-73305529D01*
X163707015Y-73235013D01*
X163563868Y-73191590D01*
X163415000Y-73176928D01*
X163165000Y-73176928D01*
X163016132Y-73191590D01*
X162890000Y-73229852D01*
X162763868Y-73191590D01*
X162615000Y-73176928D01*
X162365000Y-73176928D01*
X162216132Y-73191590D01*
X162090000Y-73229852D01*
X161963868Y-73191590D01*
X161815000Y-73176928D01*
X161565000Y-73176928D01*
X161416132Y-73191590D01*
X161290000Y-73229852D01*
X161163868Y-73191590D01*
X161015000Y-73176928D01*
X160765000Y-73176928D01*
X160616132Y-73191590D01*
X160490000Y-73229852D01*
X160363868Y-73191590D01*
X160215000Y-73176928D01*
X159965000Y-73176928D01*
X159816132Y-73191590D01*
X159690000Y-73229852D01*
X159563868Y-73191590D01*
X159415000Y-73176928D01*
X159165000Y-73176928D01*
X159016132Y-73191590D01*
X158890000Y-73229852D01*
X158763868Y-73191590D01*
X158615000Y-73176928D01*
X158365000Y-73176928D01*
X158216132Y-73191590D01*
X158072985Y-73235013D01*
X157941060Y-73305529D01*
X157825427Y-73400427D01*
X157730529Y-73516060D01*
X157660013Y-73647985D01*
X157616590Y-73791132D01*
X157601928Y-73940000D01*
X157601928Y-75051928D01*
X156490000Y-75051928D01*
X156341132Y-75066590D01*
X156197985Y-75110013D01*
X156066060Y-75180529D01*
X155950427Y-75275427D01*
X155855529Y-75391060D01*
X155793851Y-75506451D01*
X155782752Y-75469864D01*
X155774711Y-75429440D01*
X155758939Y-75391362D01*
X155746972Y-75351913D01*
X155727540Y-75315558D01*
X155720778Y-75299233D01*
X155734311Y-75266560D01*
X155742352Y-75226136D01*
X155754318Y-75186689D01*
X155758358Y-75145668D01*
X155766400Y-75105240D01*
X155766400Y-75064019D01*
X155770440Y-75023000D01*
X155766400Y-74981981D01*
X155766400Y-74940760D01*
X155758358Y-74900332D01*
X155754318Y-74859311D01*
X155742352Y-74819864D01*
X155734311Y-74779440D01*
X155718539Y-74741362D01*
X155706572Y-74701913D01*
X155687140Y-74665558D01*
X155671367Y-74627479D01*
X155648467Y-74593207D01*
X155629036Y-74556854D01*
X155602887Y-74524991D01*
X155579987Y-74490719D01*
X155550841Y-74461573D01*
X155524691Y-74429709D01*
X155492827Y-74403559D01*
X155463681Y-74374413D01*
X155429409Y-74351513D01*
X155397546Y-74325364D01*
X155361193Y-74305933D01*
X155326921Y-74283033D01*
X155288842Y-74267260D01*
X155252487Y-74247828D01*
X155213038Y-74235861D01*
X155174960Y-74220089D01*
X155134536Y-74212048D01*
X155095089Y-74200082D01*
X155054068Y-74196042D01*
X155013640Y-74188000D01*
X150125507Y-74188000D01*
X150084499Y-74183961D01*
X150043491Y-74188000D01*
X150043481Y-74188000D01*
X149920811Y-74200082D01*
X149763413Y-74247828D01*
X149618354Y-74325364D01*
X149491209Y-74429709D01*
X149465059Y-74461573D01*
X145831133Y-78095500D01*
X134918760Y-78095500D01*
X134878332Y-78103542D01*
X134837311Y-78107582D01*
X134797864Y-78119548D01*
X134757440Y-78127589D01*
X134719362Y-78143361D01*
X134679913Y-78155328D01*
X134643558Y-78174760D01*
X134605479Y-78190533D01*
X134571207Y-78213433D01*
X134534854Y-78232864D01*
X134502991Y-78259013D01*
X134468719Y-78281913D01*
X134439573Y-78311059D01*
X134407709Y-78337209D01*
X134381561Y-78369071D01*
X134352413Y-78398219D01*
X134329513Y-78432491D01*
X134303364Y-78464354D01*
X134283933Y-78500707D01*
X134261033Y-78534979D01*
X134245260Y-78573058D01*
X134225828Y-78609413D01*
X134213861Y-78648862D01*
X134198089Y-78686940D01*
X134190048Y-78727364D01*
X134178082Y-78766811D01*
X134174042Y-78807832D01*
X134166000Y-78848260D01*
X134166000Y-78889481D01*
X134161960Y-78930500D01*
X134166000Y-78971519D01*
X134166000Y-79012740D01*
X134174042Y-79053168D01*
X134178082Y-79094189D01*
X134190048Y-79133636D01*
X134198089Y-79174060D01*
X134213861Y-79212138D01*
X134225828Y-79251587D01*
X134245260Y-79287942D01*
X134261033Y-79326021D01*
X134272530Y-79343228D01*
X134260997Y-79360489D01*
X134245224Y-79398568D01*
X134225792Y-79434923D01*
X134213825Y-79474372D01*
X134198053Y-79512450D01*
X134190012Y-79552874D01*
X134178046Y-79592321D01*
X134174006Y-79633342D01*
X134165964Y-79673770D01*
X134165964Y-79714991D01*
X134161924Y-79756010D01*
X125628000Y-79756010D01*
X125628000Y-74320000D01*
X137635581Y-74320000D01*
X137668000Y-74323193D01*
X137700419Y-74320000D01*
X137797383Y-74310450D01*
X137921793Y-74272710D01*
X138036450Y-74211425D01*
X138136948Y-74128948D01*
X138219425Y-74028450D01*
X138280710Y-73913793D01*
X138318450Y-73789383D01*
X138331193Y-73660000D01*
X138328000Y-73627581D01*
X138328000Y-72288000D01*
X186792001Y-72288000D01*
X186792000Y-85700000D01*
G37*
X186792000Y-85700000D02*
X138328000Y-85700000D01*
X138328000Y-83852419D01*
X138331193Y-83820000D01*
X138318450Y-83690617D01*
X138280710Y-83566207D01*
X138219425Y-83451550D01*
X138136948Y-83351052D01*
X138036450Y-83268575D01*
X137921793Y-83207290D01*
X137797383Y-83169550D01*
X137700419Y-83160000D01*
X137668000Y-83156807D01*
X137635581Y-83160000D01*
X125628000Y-83160000D01*
X125628000Y-79756010D01*
X134161924Y-79756010D01*
X134165964Y-79797029D01*
X134165964Y-79838250D01*
X134174006Y-79878678D01*
X134178046Y-79919699D01*
X134190012Y-79959146D01*
X134198053Y-79999570D01*
X134213825Y-80037648D01*
X134225792Y-80077097D01*
X134245224Y-80113452D01*
X134260997Y-80151531D01*
X134283897Y-80185803D01*
X134303328Y-80222156D01*
X134329477Y-80254019D01*
X134331990Y-80257780D01*
X134325089Y-80274440D01*
X134317048Y-80314864D01*
X134305082Y-80354311D01*
X134301042Y-80395332D01*
X134293000Y-80435760D01*
X134293000Y-80476981D01*
X134288960Y-80518000D01*
X134293000Y-80559018D01*
X134293000Y-80600240D01*
X134301042Y-80640668D01*
X134305082Y-80681689D01*
X134317048Y-80721136D01*
X134325089Y-80761560D01*
X134340861Y-80799638D01*
X134352828Y-80839087D01*
X134372260Y-80875442D01*
X134382018Y-80899000D01*
X134372260Y-80922558D01*
X134352828Y-80958913D01*
X134340861Y-80998362D01*
X134325089Y-81036440D01*
X134317048Y-81076864D01*
X134305082Y-81116311D01*
X134301042Y-81157332D01*
X134293000Y-81197760D01*
X134293000Y-81238981D01*
X134288960Y-81280000D01*
X134293000Y-81321019D01*
X134293000Y-81362240D01*
X134301042Y-81402668D01*
X134305082Y-81443689D01*
X134317048Y-81483136D01*
X134325089Y-81523560D01*
X134340861Y-81561638D01*
X134352828Y-81601087D01*
X134372260Y-81637442D01*
X134388033Y-81675521D01*
X134410933Y-81709793D01*
X134430364Y-81746146D01*
X134456513Y-81778009D01*
X134479413Y-81812281D01*
X134508559Y-81841427D01*
X134534709Y-81873291D01*
X134566573Y-81899441D01*
X134595719Y-81928587D01*
X134629991Y-81951487D01*
X134661854Y-81977636D01*
X134698207Y-81997067D01*
X134732479Y-82019967D01*
X134770558Y-82035740D01*
X134806913Y-82055172D01*
X134846362Y-82067139D01*
X134884440Y-82082911D01*
X134924864Y-82090952D01*
X134964311Y-82102918D01*
X135005332Y-82106958D01*
X135045760Y-82115000D01*
X141371505Y-82115000D01*
X141357528Y-82141149D01*
X141306992Y-82307745D01*
X141289928Y-82480999D01*
X141289928Y-83381001D01*
X141306992Y-83554255D01*
X141357528Y-83720851D01*
X141439595Y-83874387D01*
X141550038Y-84008962D01*
X141684613Y-84119405D01*
X141838149Y-84201472D01*
X142004745Y-84252008D01*
X142177999Y-84269072D01*
X142828001Y-84269072D01*
X143001255Y-84252008D01*
X143167851Y-84201472D01*
X143321387Y-84119405D01*
X143455962Y-84008962D01*
X143510000Y-83943117D01*
X143564038Y-84008962D01*
X143698613Y-84119405D01*
X143852149Y-84201472D01*
X144018745Y-84252008D01*
X144191999Y-84269072D01*
X144842001Y-84269072D01*
X145015255Y-84252008D01*
X145181851Y-84201472D01*
X145335387Y-84119405D01*
X145469962Y-84008962D01*
X145542000Y-83921184D01*
X145614038Y-84008962D01*
X145748613Y-84119405D01*
X145902149Y-84201472D01*
X146068745Y-84252008D01*
X146241999Y-84269072D01*
X146892001Y-84269072D01*
X147065255Y-84252008D01*
X147231851Y-84201472D01*
X147385387Y-84119405D01*
X147519962Y-84008962D01*
X147630405Y-83874387D01*
X147712472Y-83720851D01*
X147763008Y-83554255D01*
X147780072Y-83381001D01*
X147780072Y-82480999D01*
X147763008Y-82307745D01*
X147712472Y-82141149D01*
X147630405Y-81987613D01*
X147519962Y-81853038D01*
X147393000Y-81748843D01*
X147393000Y-81353000D01*
X147532982Y-81353000D01*
X147574000Y-81357040D01*
X147615018Y-81353000D01*
X147615019Y-81353000D01*
X147737689Y-81340918D01*
X147895087Y-81293172D01*
X148040146Y-81215636D01*
X148167291Y-81111291D01*
X148193446Y-81079421D01*
X149787001Y-79485867D01*
X149787000Y-81763615D01*
X149678038Y-81853038D01*
X149567595Y-81987613D01*
X149485528Y-82141149D01*
X149434992Y-82307745D01*
X149417928Y-82480999D01*
X149417928Y-83381001D01*
X149434992Y-83554255D01*
X149485528Y-83720851D01*
X149567595Y-83874387D01*
X149678038Y-84008962D01*
X149812613Y-84119405D01*
X149966149Y-84201472D01*
X150132745Y-84252008D01*
X150305999Y-84269072D01*
X150956001Y-84269072D01*
X151129255Y-84252008D01*
X151295851Y-84201472D01*
X151449387Y-84119405D01*
X151583962Y-84008962D01*
X151694405Y-83874387D01*
X151752339Y-83766000D01*
X151777661Y-83766000D01*
X151835595Y-83874387D01*
X151946038Y-84008962D01*
X152080613Y-84119405D01*
X152234149Y-84201472D01*
X152400745Y-84252008D01*
X152573999Y-84269072D01*
X153224001Y-84269072D01*
X153397255Y-84252008D01*
X153563851Y-84201472D01*
X153717387Y-84119405D01*
X153851962Y-84008962D01*
X153962405Y-83874387D01*
X154044472Y-83720851D01*
X154095008Y-83554255D01*
X154112072Y-83381001D01*
X154112072Y-82480999D01*
X154095008Y-82307745D01*
X154044472Y-82141149D01*
X153962405Y-81987613D01*
X153851962Y-81853038D01*
X153717387Y-81742595D01*
X153563851Y-81660528D01*
X153397255Y-81609992D01*
X153224001Y-81592928D01*
X152573999Y-81592928D01*
X152400745Y-81609992D01*
X152234149Y-81660528D01*
X152080613Y-81742595D01*
X151946038Y-81853038D01*
X151835595Y-81987613D01*
X151777661Y-82096000D01*
X151752339Y-82096000D01*
X151694405Y-81987613D01*
X151583962Y-81853038D01*
X151457000Y-81748843D01*
X151457000Y-77815868D01*
X151882268Y-77390600D01*
X155022240Y-77390600D01*
X155062668Y-77382558D01*
X155103689Y-77378518D01*
X155143136Y-77366552D01*
X155183560Y-77358511D01*
X155221638Y-77342739D01*
X155261087Y-77330772D01*
X155297442Y-77311340D01*
X155335521Y-77295567D01*
X155369793Y-77272667D01*
X155406146Y-77253236D01*
X155438009Y-77227087D01*
X155472281Y-77204187D01*
X155501427Y-77175041D01*
X155533291Y-77148891D01*
X155559441Y-77117027D01*
X155588587Y-77087881D01*
X155611487Y-77053609D01*
X155637636Y-77021746D01*
X155657067Y-76985393D01*
X155679967Y-76951121D01*
X155695740Y-76913042D01*
X155715172Y-76876687D01*
X155726928Y-76837933D01*
X155726928Y-76865000D01*
X155741590Y-77013868D01*
X155779852Y-77140000D01*
X155741590Y-77266132D01*
X155726928Y-77415000D01*
X155726928Y-77665000D01*
X155741590Y-77813868D01*
X155779852Y-77940000D01*
X155741590Y-78066132D01*
X155726928Y-78215000D01*
X155726928Y-78305000D01*
X153692018Y-78305000D01*
X153650999Y-78300960D01*
X153609981Y-78305000D01*
X153487311Y-78317082D01*
X153329913Y-78364828D01*
X153184854Y-78442364D01*
X153057709Y-78546709D01*
X153031554Y-78578579D01*
X152883722Y-78726411D01*
X152883719Y-78726413D01*
X152767413Y-78842719D01*
X152744509Y-78876998D01*
X152718364Y-78908855D01*
X152698936Y-78945203D01*
X152676033Y-78979479D01*
X152660258Y-79017562D01*
X152640828Y-79053914D01*
X152628862Y-79093360D01*
X152613089Y-79131440D01*
X152605047Y-79171867D01*
X152593082Y-79211312D01*
X152589042Y-79252331D01*
X152581000Y-79292760D01*
X152581000Y-79333982D01*
X152576960Y-79375000D01*
X152581000Y-79416018D01*
X152581000Y-79457240D01*
X152589042Y-79497669D01*
X152593082Y-79538688D01*
X152605047Y-79578133D01*
X152613089Y-79618560D01*
X152628862Y-79656640D01*
X152640828Y-79696086D01*
X152660258Y-79732438D01*
X152676033Y-79770521D01*
X152698936Y-79804797D01*
X152718364Y-79841145D01*
X152744508Y-79873002D01*
X152767413Y-79907281D01*
X152796567Y-79936435D01*
X152822710Y-79968290D01*
X152854565Y-79994433D01*
X152883719Y-80023587D01*
X152917998Y-80046492D01*
X152949855Y-80072636D01*
X152986203Y-80092064D01*
X153020479Y-80114967D01*
X153058562Y-80130742D01*
X153094914Y-80150172D01*
X153134360Y-80162138D01*
X153172440Y-80177911D01*
X153212867Y-80185953D01*
X153252312Y-80197918D01*
X153293331Y-80201958D01*
X153333760Y-80210000D01*
X153374982Y-80210000D01*
X153416000Y-80214040D01*
X153457018Y-80210000D01*
X153498240Y-80210000D01*
X153538669Y-80201958D01*
X153579688Y-80197918D01*
X153619133Y-80185953D01*
X153659560Y-80177911D01*
X153697640Y-80162138D01*
X153737086Y-80150172D01*
X153773438Y-80130742D01*
X153811521Y-80114967D01*
X153845797Y-80092064D01*
X153882145Y-80072636D01*
X153914002Y-80046491D01*
X153948281Y-80023587D01*
X153996868Y-79975000D01*
X155726928Y-79975000D01*
X155726928Y-80065000D01*
X155741590Y-80213868D01*
X155779852Y-80340000D01*
X155741590Y-80466132D01*
X155726928Y-80615000D01*
X155726928Y-80865000D01*
X155741590Y-81013868D01*
X155779852Y-81140000D01*
X155741590Y-81266132D01*
X155726928Y-81415000D01*
X155726928Y-81665000D01*
X155741590Y-81813868D01*
X155785013Y-81957015D01*
X155855529Y-82088940D01*
X155950427Y-82204573D01*
X156066060Y-82299471D01*
X156197985Y-82369987D01*
X156341132Y-82413410D01*
X156490000Y-82428072D01*
X157740000Y-82428072D01*
X157888868Y-82413410D01*
X158015489Y-82375000D01*
X158321982Y-82375000D01*
X158363000Y-82379040D01*
X158401928Y-82375206D01*
X158401928Y-83540000D01*
X158416590Y-83688868D01*
X158455001Y-83815492D01*
X158455001Y-83937972D01*
X158450960Y-83979000D01*
X158467082Y-84142688D01*
X158514828Y-84300086D01*
X158587615Y-84436260D01*
X158592365Y-84445146D01*
X158696710Y-84572291D01*
X158728574Y-84598441D01*
X159210054Y-85079921D01*
X159236209Y-85111791D01*
X159363354Y-85216136D01*
X159508413Y-85293672D01*
X159665811Y-85341418D01*
X159788481Y-85353500D01*
X159788483Y-85353500D01*
X159829499Y-85357540D01*
X159870515Y-85353500D01*
X162007240Y-85353500D01*
X162047668Y-85345458D01*
X162088689Y-85341418D01*
X162128136Y-85329452D01*
X162168560Y-85321411D01*
X162206638Y-85305639D01*
X162246087Y-85293672D01*
X162282442Y-85274240D01*
X162320521Y-85258467D01*
X162354793Y-85235567D01*
X162391146Y-85216136D01*
X162423009Y-85189987D01*
X162457281Y-85167087D01*
X162486427Y-85137941D01*
X162518291Y-85111791D01*
X162544441Y-85079927D01*
X162573587Y-85050781D01*
X162596487Y-85016509D01*
X162622636Y-84984646D01*
X162642067Y-84948293D01*
X162664967Y-84914021D01*
X162680740Y-84875942D01*
X162700172Y-84839587D01*
X162712139Y-84800138D01*
X162727911Y-84762060D01*
X162735952Y-84721636D01*
X162747918Y-84682189D01*
X162751958Y-84641168D01*
X162760000Y-84600740D01*
X162760000Y-84559519D01*
X162764040Y-84518500D01*
X162760000Y-84477481D01*
X162760000Y-84436260D01*
X162751958Y-84395832D01*
X162747918Y-84354811D01*
X162735952Y-84315364D01*
X162731230Y-84291625D01*
X162763868Y-84288410D01*
X162890000Y-84250148D01*
X163016132Y-84288410D01*
X163165000Y-84303072D01*
X163415000Y-84303072D01*
X163563868Y-84288410D01*
X163690000Y-84250148D01*
X163816132Y-84288410D01*
X163965000Y-84303072D01*
X164215000Y-84303072D01*
X164363868Y-84288410D01*
X164507015Y-84244987D01*
X164638940Y-84174471D01*
X164754573Y-84079573D01*
X164849471Y-83963940D01*
X164919987Y-83832015D01*
X164963410Y-83688868D01*
X164978072Y-83540000D01*
X164978072Y-82428072D01*
X166009001Y-82428072D01*
X166009001Y-83390755D01*
X166009000Y-83390760D01*
X166009000Y-83555240D01*
X166017044Y-83595678D01*
X166021083Y-83636689D01*
X166033046Y-83676126D01*
X166041089Y-83716560D01*
X166056865Y-83754647D01*
X166068829Y-83794087D01*
X166088257Y-83830434D01*
X166104033Y-83868521D01*
X166126938Y-83902801D01*
X166146365Y-83939146D01*
X166172509Y-83971002D01*
X166195413Y-84005281D01*
X166224564Y-84034432D01*
X166250710Y-84066291D01*
X166282569Y-84092437D01*
X166311719Y-84121587D01*
X166345997Y-84144491D01*
X166377855Y-84170636D01*
X166414203Y-84190064D01*
X166448479Y-84212967D01*
X166486562Y-84228742D01*
X166522914Y-84248172D01*
X166562360Y-84260138D01*
X166600440Y-84275911D01*
X166640867Y-84283953D01*
X166680312Y-84295918D01*
X166721331Y-84299958D01*
X166761760Y-84308000D01*
X166802982Y-84308000D01*
X166844000Y-84312040D01*
X166885019Y-84308000D01*
X166926240Y-84308000D01*
X166966668Y-84299958D01*
X167007689Y-84295918D01*
X167047136Y-84283952D01*
X167087560Y-84275911D01*
X167125638Y-84260139D01*
X167165087Y-84248172D01*
X167201442Y-84228740D01*
X167239521Y-84212967D01*
X167273793Y-84190067D01*
X167310146Y-84170636D01*
X167342009Y-84144487D01*
X167376281Y-84121587D01*
X167405427Y-84092441D01*
X167437291Y-84066291D01*
X167463441Y-84034427D01*
X167492587Y-84005281D01*
X167515487Y-83971009D01*
X167541636Y-83939146D01*
X167561067Y-83902793D01*
X167583967Y-83868521D01*
X167599740Y-83830442D01*
X167619172Y-83794087D01*
X167631139Y-83754638D01*
X167646911Y-83716560D01*
X167654952Y-83676136D01*
X167666918Y-83636689D01*
X167670958Y-83595668D01*
X167679000Y-83555240D01*
X167679000Y-78620018D01*
X167683040Y-78578999D01*
X167666918Y-78415311D01*
X167651025Y-78362918D01*
X167619172Y-78257913D01*
X167541636Y-78112854D01*
X167437291Y-77985709D01*
X167405422Y-77959555D01*
X167224446Y-77778579D01*
X167198291Y-77746709D01*
X167071146Y-77642364D01*
X166926087Y-77564828D01*
X166853072Y-77542679D01*
X166853072Y-77415000D01*
X166838410Y-77266132D01*
X166800148Y-77140000D01*
X166838410Y-77013868D01*
X166853072Y-76865000D01*
X166853072Y-76775000D01*
X167845096Y-76775000D01*
X167875260Y-76781000D01*
X167916491Y-76781000D01*
X167957499Y-76785039D01*
X167998507Y-76781000D01*
X169124843Y-76781000D01*
X169229038Y-76907962D01*
X169363613Y-77018405D01*
X169472000Y-77076339D01*
X169472000Y-77759181D01*
X169467960Y-77800200D01*
X169484082Y-77963889D01*
X169531828Y-78121287D01*
X169551413Y-78157928D01*
X169403000Y-78157928D01*
X169278518Y-78170188D01*
X169158820Y-78206498D01*
X169048506Y-78265463D01*
X168951815Y-78344815D01*
X168872463Y-78441506D01*
X168813498Y-78551820D01*
X168777188Y-78671518D01*
X168764928Y-78796000D01*
X168764928Y-79446000D01*
X168777188Y-79570482D01*
X168813498Y-79690180D01*
X168872463Y-79800494D01*
X168951815Y-79897185D01*
X169048506Y-79976537D01*
X169158820Y-80035502D01*
X169178001Y-80041320D01*
X169178001Y-80640172D01*
X169173960Y-80681200D01*
X169190082Y-80844888D01*
X169237828Y-81002286D01*
X169240443Y-81007178D01*
X169229038Y-81016538D01*
X169118595Y-81151113D01*
X169088723Y-81207000D01*
X168827760Y-81207000D01*
X168787332Y-81215042D01*
X168746311Y-81219082D01*
X168706864Y-81231048D01*
X168666440Y-81239089D01*
X168628362Y-81254861D01*
X168588913Y-81266828D01*
X168552558Y-81286260D01*
X168514479Y-81302033D01*
X168480207Y-81324933D01*
X168443854Y-81344364D01*
X168411991Y-81370513D01*
X168377719Y-81393413D01*
X168348573Y-81422559D01*
X168316709Y-81448709D01*
X168290561Y-81480571D01*
X168261413Y-81509719D01*
X168238513Y-81543991D01*
X168212364Y-81575854D01*
X168192933Y-81612207D01*
X168170033Y-81646479D01*
X168154260Y-81684558D01*
X168134828Y-81720913D01*
X168122861Y-81760362D01*
X168107089Y-81798440D01*
X168099048Y-81838864D01*
X168087082Y-81878311D01*
X168083042Y-81919332D01*
X168075000Y-81959760D01*
X168075000Y-82000981D01*
X168070960Y-82042000D01*
X168075000Y-82083019D01*
X168075000Y-82124240D01*
X168083042Y-82164668D01*
X168087082Y-82205689D01*
X168099048Y-82245136D01*
X168107089Y-82285560D01*
X168122861Y-82323638D01*
X168134828Y-82363087D01*
X168154260Y-82399442D01*
X168170033Y-82437521D01*
X168192933Y-82471793D01*
X168212364Y-82508146D01*
X168238513Y-82540009D01*
X168261413Y-82574281D01*
X168290559Y-82603427D01*
X168316709Y-82635291D01*
X168348573Y-82661441D01*
X168377719Y-82690587D01*
X168411991Y-82713487D01*
X168443854Y-82739636D01*
X168480207Y-82759067D01*
X168514479Y-82781967D01*
X168552558Y-82797740D01*
X168588913Y-82817172D01*
X168628362Y-82829139D01*
X168666440Y-82844911D01*
X168706864Y-82852952D01*
X168746311Y-82864918D01*
X168787332Y-82868958D01*
X168827760Y-82877000D01*
X169191728Y-82877000D01*
X169229038Y-82922462D01*
X169363613Y-83032905D01*
X169517149Y-83114972D01*
X169683745Y-83165508D01*
X169856999Y-83182572D01*
X170757001Y-83182572D01*
X170930255Y-83165508D01*
X171096851Y-83114972D01*
X171250387Y-83032905D01*
X171384962Y-82922462D01*
X171478506Y-82808478D01*
X171550189Y-82801418D01*
X171707587Y-82753672D01*
X171852646Y-82676136D01*
X171979791Y-82571791D01*
X172005946Y-82539921D01*
X172557868Y-81988000D01*
X174710982Y-81988000D01*
X174752000Y-81992040D01*
X174793018Y-81988000D01*
X174793019Y-81988000D01*
X174915689Y-81975918D01*
X175073087Y-81928172D01*
X175218146Y-81850636D01*
X175345291Y-81746291D01*
X175371445Y-81714422D01*
X175948432Y-81137436D01*
X175980291Y-81111291D01*
X176009287Y-81075960D01*
X176084636Y-80984146D01*
X176162172Y-80839087D01*
X176189888Y-80747719D01*
X176209918Y-80681689D01*
X176222000Y-80559019D01*
X176222000Y-80559018D01*
X176226040Y-80518000D01*
X176222000Y-80476981D01*
X176222000Y-78813000D01*
X177885982Y-78813000D01*
X177927000Y-78817040D01*
X177968018Y-78813000D01*
X177968019Y-78813000D01*
X178090689Y-78800918D01*
X178248087Y-78753172D01*
X178286636Y-78732567D01*
X178297760Y-78740000D01*
X178123368Y-78856525D01*
X177916525Y-79063368D01*
X177754010Y-79306589D01*
X177642068Y-79576842D01*
X177585000Y-79863740D01*
X177585000Y-80156260D01*
X177642068Y-80443158D01*
X177754010Y-80713411D01*
X177916525Y-80956632D01*
X178123368Y-81163475D01*
X178297760Y-81280000D01*
X178123368Y-81396525D01*
X177916525Y-81603368D01*
X177754010Y-81846589D01*
X177642068Y-82116842D01*
X177585000Y-82403740D01*
X177585000Y-82696260D01*
X177642068Y-82983158D01*
X177754010Y-83253411D01*
X177914098Y-83493000D01*
X177231170Y-83493000D01*
X177227008Y-83450745D01*
X177176472Y-83284149D01*
X177094405Y-83130613D01*
X176983962Y-82996038D01*
X176849387Y-82885595D01*
X176695851Y-82803528D01*
X176529255Y-82752992D01*
X176356001Y-82735928D01*
X175705999Y-82735928D01*
X175532745Y-82752992D01*
X175366149Y-82803528D01*
X175212613Y-82885595D01*
X175078038Y-82996038D01*
X174967595Y-83130613D01*
X174885528Y-83284149D01*
X174834992Y-83450745D01*
X174817928Y-83623999D01*
X174817928Y-84524001D01*
X174834992Y-84697255D01*
X174885528Y-84863851D01*
X174967595Y-85017387D01*
X175078038Y-85151962D01*
X175212613Y-85262405D01*
X175366149Y-85344472D01*
X175532745Y-85395008D01*
X175705999Y-85412072D01*
X176356001Y-85412072D01*
X176529255Y-85395008D01*
X176695851Y-85344472D01*
X176849387Y-85262405D01*
X176970512Y-85163000D01*
X181946240Y-85163000D01*
X181986668Y-85154958D01*
X182027689Y-85150918D01*
X182067136Y-85138952D01*
X182107560Y-85130911D01*
X182145638Y-85115139D01*
X182185087Y-85103172D01*
X182221442Y-85083740D01*
X182259521Y-85067967D01*
X182293793Y-85045067D01*
X182330146Y-85025636D01*
X182362009Y-84999487D01*
X182396281Y-84976587D01*
X182425427Y-84947441D01*
X182457291Y-84921291D01*
X182483441Y-84889427D01*
X182512587Y-84860281D01*
X182535487Y-84826009D01*
X182561636Y-84794146D01*
X182581067Y-84757793D01*
X182603967Y-84723521D01*
X182619740Y-84685442D01*
X182639172Y-84649087D01*
X182651139Y-84609638D01*
X182666911Y-84571560D01*
X182674952Y-84531136D01*
X182686918Y-84491689D01*
X182690958Y-84450668D01*
X182699000Y-84410240D01*
X182699000Y-84369019D01*
X182703040Y-84328000D01*
X182699000Y-84286981D01*
X182699000Y-84245760D01*
X182690958Y-84205332D01*
X182686918Y-84164311D01*
X182674952Y-84124864D01*
X182666911Y-84084440D01*
X182651139Y-84046362D01*
X182639172Y-84006913D01*
X182619740Y-83970558D01*
X182603967Y-83932479D01*
X182581067Y-83898207D01*
X182561636Y-83861854D01*
X182535487Y-83829991D01*
X182512587Y-83795719D01*
X182483439Y-83766571D01*
X182457291Y-83734709D01*
X182425427Y-83708559D01*
X182396281Y-83679413D01*
X182362009Y-83656513D01*
X182330146Y-83630364D01*
X182293793Y-83610933D01*
X182259521Y-83588033D01*
X182221442Y-83572260D01*
X182185087Y-83552828D01*
X182145638Y-83540861D01*
X182107560Y-83525089D01*
X182067136Y-83517048D01*
X182027689Y-83505082D01*
X181986668Y-83501042D01*
X181946240Y-83493000D01*
X180225902Y-83493000D01*
X180385990Y-83253411D01*
X180497932Y-82983158D01*
X180555000Y-82696260D01*
X180555000Y-82403740D01*
X180506281Y-82158812D01*
X184386600Y-82158812D01*
X184386600Y-82382388D01*
X184430217Y-82601667D01*
X184515776Y-82808224D01*
X184639988Y-82994120D01*
X184798080Y-83152212D01*
X184983976Y-83276424D01*
X185190533Y-83361983D01*
X185409812Y-83405600D01*
X185633388Y-83405600D01*
X185852667Y-83361983D01*
X186059224Y-83276424D01*
X186245120Y-83152212D01*
X186403212Y-82994120D01*
X186527424Y-82808224D01*
X186612983Y-82601667D01*
X186656600Y-82382388D01*
X186656600Y-82158812D01*
X186612983Y-81939533D01*
X186527424Y-81732976D01*
X186403212Y-81547080D01*
X186245120Y-81388988D01*
X186059224Y-81264776D01*
X185852667Y-81179217D01*
X185633388Y-81135600D01*
X185409812Y-81135600D01*
X185190533Y-81179217D01*
X184983976Y-81264776D01*
X184798080Y-81388988D01*
X184639988Y-81547080D01*
X184515776Y-81732976D01*
X184430217Y-81939533D01*
X184386600Y-82158812D01*
X180506281Y-82158812D01*
X180497932Y-82116842D01*
X180385990Y-81846589D01*
X180223475Y-81603368D01*
X180016632Y-81396525D01*
X179842240Y-81280000D01*
X180016632Y-81163475D01*
X180223475Y-80956632D01*
X180385990Y-80713411D01*
X180497932Y-80443158D01*
X180555000Y-80156260D01*
X180555000Y-79863740D01*
X180497932Y-79576842D01*
X180385990Y-79306589D01*
X180223475Y-79063368D01*
X180016632Y-78856525D01*
X179842240Y-78740000D01*
X180016632Y-78623475D01*
X180223475Y-78416632D01*
X180385990Y-78173411D01*
X180497932Y-77903158D01*
X180555000Y-77616260D01*
X180555000Y-77323740D01*
X180497932Y-77036842D01*
X180488885Y-77015001D01*
X180658213Y-77015001D01*
X180684312Y-77022918D01*
X180725331Y-77026958D01*
X180765760Y-77035000D01*
X180806982Y-77035000D01*
X180848000Y-77039040D01*
X180889018Y-77035000D01*
X180930240Y-77035000D01*
X180970669Y-77026958D01*
X181011688Y-77022918D01*
X181051133Y-77010953D01*
X181091560Y-77002911D01*
X181129640Y-76987138D01*
X181169086Y-76975172D01*
X181205438Y-76955742D01*
X181243521Y-76939967D01*
X181277797Y-76917064D01*
X181314145Y-76897636D01*
X181346002Y-76871492D01*
X181380281Y-76848587D01*
X181409435Y-76819433D01*
X181441290Y-76793290D01*
X181467433Y-76761435D01*
X181496587Y-76732281D01*
X181519492Y-76698002D01*
X181545636Y-76666145D01*
X181565064Y-76629797D01*
X181587967Y-76595521D01*
X181603742Y-76557438D01*
X181623172Y-76521086D01*
X181635138Y-76481640D01*
X181650911Y-76443560D01*
X181658953Y-76403133D01*
X181670918Y-76363688D01*
X181674958Y-76322669D01*
X181683000Y-76282240D01*
X181683000Y-76241018D01*
X181687040Y-76200000D01*
X181683000Y-76158982D01*
X181683000Y-76117760D01*
X181674958Y-76077331D01*
X181670918Y-76036312D01*
X181658953Y-75996867D01*
X181650911Y-75956440D01*
X181635138Y-75918360D01*
X181623172Y-75878914D01*
X181603742Y-75842562D01*
X181587967Y-75804479D01*
X181565064Y-75770203D01*
X181545636Y-75733855D01*
X181519490Y-75701996D01*
X181496587Y-75667719D01*
X181447442Y-75618574D01*
X181421292Y-75586710D01*
X181389428Y-75560560D01*
X181380281Y-75551413D01*
X181369525Y-75544226D01*
X181294147Y-75482365D01*
X181149088Y-75404829D01*
X180991690Y-75357083D01*
X180869020Y-75345001D01*
X180869019Y-75345001D01*
X180828001Y-75340961D01*
X180786983Y-75345001D01*
X178115017Y-75345001D01*
X178073998Y-75340961D01*
X177962791Y-75351914D01*
X177910310Y-75357083D01*
X177752912Y-75404829D01*
X177607853Y-75482365D01*
X177480708Y-75586710D01*
X177454553Y-75618580D01*
X177390984Y-75682149D01*
X177353962Y-75637038D01*
X177266184Y-75565000D01*
X177353962Y-75492962D01*
X177464405Y-75358387D01*
X177495179Y-75300812D01*
X184386600Y-75300812D01*
X184386600Y-75524388D01*
X184430217Y-75743667D01*
X184515776Y-75950224D01*
X184639988Y-76136120D01*
X184798080Y-76294212D01*
X184983976Y-76418424D01*
X185190533Y-76503983D01*
X185409812Y-76547600D01*
X185633388Y-76547600D01*
X185852667Y-76503983D01*
X186059224Y-76418424D01*
X186245120Y-76294212D01*
X186403212Y-76136120D01*
X186527424Y-75950224D01*
X186612983Y-75743667D01*
X186656600Y-75524388D01*
X186656600Y-75300812D01*
X186612983Y-75081533D01*
X186527424Y-74874976D01*
X186403212Y-74689080D01*
X186245120Y-74530988D01*
X186059224Y-74406776D01*
X185852667Y-74321217D01*
X185633388Y-74277600D01*
X185409812Y-74277600D01*
X185190533Y-74321217D01*
X184983976Y-74406776D01*
X184798080Y-74530988D01*
X184639988Y-74689080D01*
X184515776Y-74874976D01*
X184430217Y-75081533D01*
X184386600Y-75300812D01*
X177495179Y-75300812D01*
X177546472Y-75204851D01*
X177597008Y-75038255D01*
X177614072Y-74865001D01*
X177614072Y-74214999D01*
X177597008Y-74041745D01*
X177546472Y-73875149D01*
X177464405Y-73721613D01*
X177353962Y-73587038D01*
X177219387Y-73476595D01*
X177111000Y-73418661D01*
X177111000Y-73323760D01*
X177102958Y-73283332D01*
X177098918Y-73242311D01*
X177086952Y-73202864D01*
X177078911Y-73162440D01*
X177063139Y-73124362D01*
X177051172Y-73084913D01*
X177031740Y-73048558D01*
X177015967Y-73010479D01*
X176993067Y-72976207D01*
X176973636Y-72939854D01*
X176947487Y-72907991D01*
X176924587Y-72873719D01*
X176895441Y-72844573D01*
X176869291Y-72812709D01*
X176837427Y-72786559D01*
X176808281Y-72757413D01*
X176774009Y-72734513D01*
X176742146Y-72708364D01*
X176705793Y-72688933D01*
X176671521Y-72666033D01*
X176633442Y-72650260D01*
X176597087Y-72630828D01*
X176557638Y-72618861D01*
X176519560Y-72603089D01*
X176479136Y-72595048D01*
X176439689Y-72583082D01*
X176398668Y-72579042D01*
X176358240Y-72571000D01*
X176317019Y-72571000D01*
X176276000Y-72566960D01*
X176234982Y-72571000D01*
X176193760Y-72571000D01*
X176153331Y-72579042D01*
X176112312Y-72583082D01*
X176072867Y-72595047D01*
X176032440Y-72603089D01*
X175994360Y-72618862D01*
X175954914Y-72630828D01*
X175918562Y-72650258D01*
X175880479Y-72666033D01*
X175846203Y-72688936D01*
X175809855Y-72708364D01*
X175777997Y-72734509D01*
X175743719Y-72757413D01*
X175714569Y-72786563D01*
X175682710Y-72812709D01*
X175656564Y-72844568D01*
X175627413Y-72873719D01*
X175604509Y-72907998D01*
X175578365Y-72939854D01*
X175558938Y-72976199D01*
X175536033Y-73010479D01*
X175520257Y-73048566D01*
X175500829Y-73084913D01*
X175488865Y-73124353D01*
X175473089Y-73162440D01*
X175465046Y-73202874D01*
X175453083Y-73242311D01*
X175449043Y-73283325D01*
X175441000Y-73323760D01*
X175441000Y-73418661D01*
X175332613Y-73476595D01*
X175260000Y-73536187D01*
X175187387Y-73476595D01*
X175038968Y-73397263D01*
X175031139Y-73378362D01*
X175019172Y-73338913D01*
X174999740Y-73302558D01*
X174983967Y-73264479D01*
X174961067Y-73230207D01*
X174941636Y-73193854D01*
X174915487Y-73161991D01*
X174892587Y-73127719D01*
X174863441Y-73098573D01*
X174837291Y-73066709D01*
X174805427Y-73040559D01*
X174776281Y-73011413D01*
X174742009Y-72988513D01*
X174710146Y-72962364D01*
X174673793Y-72942933D01*
X174639521Y-72920033D01*
X174601442Y-72904260D01*
X174565087Y-72884828D01*
X174525638Y-72872861D01*
X174487560Y-72857089D01*
X174447136Y-72849048D01*
X174407689Y-72837082D01*
X174366668Y-72833042D01*
X174326240Y-72825000D01*
X174285019Y-72825000D01*
X174244000Y-72820960D01*
X174202982Y-72825000D01*
X174161760Y-72825000D01*
X174121331Y-72833042D01*
X174080312Y-72837082D01*
X174040867Y-72849047D01*
X174000440Y-72857089D01*
X173962360Y-72872862D01*
X173922914Y-72884828D01*
X173886562Y-72904258D01*
X173848479Y-72920033D01*
X173814203Y-72942936D01*
X173777855Y-72962364D01*
X173745997Y-72988509D01*
X173711719Y-73011413D01*
X173682569Y-73040563D01*
X173650710Y-73066709D01*
X173624564Y-73098568D01*
X173595413Y-73127719D01*
X173572509Y-73161998D01*
X173546365Y-73193854D01*
X173526938Y-73230199D01*
X173504033Y-73264479D01*
X173488257Y-73302566D01*
X173468829Y-73338913D01*
X173456865Y-73378353D01*
X173449032Y-73397263D01*
X173300613Y-73476595D01*
X173166038Y-73587038D01*
X173055595Y-73721613D01*
X172973528Y-73875149D01*
X172922992Y-74041745D01*
X172905928Y-74214999D01*
X172905928Y-74865001D01*
X172922992Y-75038255D01*
X172973528Y-75204851D01*
X173055595Y-75358387D01*
X173166038Y-75492962D01*
X173253816Y-75565000D01*
X173166038Y-75637038D01*
X173055595Y-75771613D01*
X172973528Y-75925149D01*
X172922992Y-76091745D01*
X172905928Y-76264999D01*
X172905928Y-76915001D01*
X172922992Y-77088255D01*
X172973528Y-77254851D01*
X173055595Y-77408387D01*
X173166038Y-77542962D01*
X173300613Y-77653405D01*
X173409000Y-77711339D01*
X173409001Y-79132783D01*
X173367482Y-79120188D01*
X173243000Y-79107928D01*
X172132600Y-79107928D01*
X172132600Y-77841218D01*
X172136640Y-77800200D01*
X172120518Y-77636511D01*
X172072772Y-77479113D01*
X171995236Y-77334054D01*
X171890891Y-77206909D01*
X171763746Y-77102564D01*
X171618687Y-77025028D01*
X171461289Y-76977282D01*
X171338619Y-76965200D01*
X171317725Y-76963142D01*
X171384962Y-76907962D01*
X171495405Y-76773387D01*
X171577472Y-76619851D01*
X171628008Y-76453255D01*
X171645072Y-76280001D01*
X171645072Y-75629999D01*
X171628008Y-75456745D01*
X171577472Y-75290149D01*
X171495405Y-75136613D01*
X171384962Y-75002038D01*
X171250387Y-74891595D01*
X171096851Y-74809528D01*
X170930255Y-74758992D01*
X170757001Y-74741928D01*
X169856999Y-74741928D01*
X169683745Y-74758992D01*
X169517149Y-74809528D01*
X169363613Y-74891595D01*
X169229038Y-75002038D01*
X169139615Y-75111000D01*
X168053438Y-75111000D01*
X167992519Y-75105000D01*
X167992518Y-75105000D01*
X167951500Y-75100960D01*
X167910482Y-75105000D01*
X166365489Y-75105000D01*
X166238868Y-75066590D01*
X166090000Y-75051928D01*
X164840000Y-75051928D01*
X164691132Y-75066590D01*
X164564511Y-75105000D01*
X164178072Y-75105000D01*
X164178072Y-73940000D01*
X164163410Y-73791132D01*
X164119987Y-73647985D01*
X164049471Y-73516060D01*
X163954573Y-73400427D01*
X163838940Y-73305529D01*
X163707015Y-73235013D01*
X163563868Y-73191590D01*
X163415000Y-73176928D01*
X163165000Y-73176928D01*
X163016132Y-73191590D01*
X162890000Y-73229852D01*
X162763868Y-73191590D01*
X162615000Y-73176928D01*
X162365000Y-73176928D01*
X162216132Y-73191590D01*
X162090000Y-73229852D01*
X161963868Y-73191590D01*
X161815000Y-73176928D01*
X161565000Y-73176928D01*
X161416132Y-73191590D01*
X161290000Y-73229852D01*
X161163868Y-73191590D01*
X161015000Y-73176928D01*
X160765000Y-73176928D01*
X160616132Y-73191590D01*
X160490000Y-73229852D01*
X160363868Y-73191590D01*
X160215000Y-73176928D01*
X159965000Y-73176928D01*
X159816132Y-73191590D01*
X159690000Y-73229852D01*
X159563868Y-73191590D01*
X159415000Y-73176928D01*
X159165000Y-73176928D01*
X159016132Y-73191590D01*
X158890000Y-73229852D01*
X158763868Y-73191590D01*
X158615000Y-73176928D01*
X158365000Y-73176928D01*
X158216132Y-73191590D01*
X158072985Y-73235013D01*
X157941060Y-73305529D01*
X157825427Y-73400427D01*
X157730529Y-73516060D01*
X157660013Y-73647985D01*
X157616590Y-73791132D01*
X157601928Y-73940000D01*
X157601928Y-75051928D01*
X156490000Y-75051928D01*
X156341132Y-75066590D01*
X156197985Y-75110013D01*
X156066060Y-75180529D01*
X155950427Y-75275427D01*
X155855529Y-75391060D01*
X155793851Y-75506451D01*
X155782752Y-75469864D01*
X155774711Y-75429440D01*
X155758939Y-75391362D01*
X155746972Y-75351913D01*
X155727540Y-75315558D01*
X155720778Y-75299233D01*
X155734311Y-75266560D01*
X155742352Y-75226136D01*
X155754318Y-75186689D01*
X155758358Y-75145668D01*
X155766400Y-75105240D01*
X155766400Y-75064019D01*
X155770440Y-75023000D01*
X155766400Y-74981981D01*
X155766400Y-74940760D01*
X155758358Y-74900332D01*
X155754318Y-74859311D01*
X155742352Y-74819864D01*
X155734311Y-74779440D01*
X155718539Y-74741362D01*
X155706572Y-74701913D01*
X155687140Y-74665558D01*
X155671367Y-74627479D01*
X155648467Y-74593207D01*
X155629036Y-74556854D01*
X155602887Y-74524991D01*
X155579987Y-74490719D01*
X155550841Y-74461573D01*
X155524691Y-74429709D01*
X155492827Y-74403559D01*
X155463681Y-74374413D01*
X155429409Y-74351513D01*
X155397546Y-74325364D01*
X155361193Y-74305933D01*
X155326921Y-74283033D01*
X155288842Y-74267260D01*
X155252487Y-74247828D01*
X155213038Y-74235861D01*
X155174960Y-74220089D01*
X155134536Y-74212048D01*
X155095089Y-74200082D01*
X155054068Y-74196042D01*
X155013640Y-74188000D01*
X150125507Y-74188000D01*
X150084499Y-74183961D01*
X150043491Y-74188000D01*
X150043481Y-74188000D01*
X149920811Y-74200082D01*
X149763413Y-74247828D01*
X149618354Y-74325364D01*
X149491209Y-74429709D01*
X149465059Y-74461573D01*
X145831133Y-78095500D01*
X134918760Y-78095500D01*
X134878332Y-78103542D01*
X134837311Y-78107582D01*
X134797864Y-78119548D01*
X134757440Y-78127589D01*
X134719362Y-78143361D01*
X134679913Y-78155328D01*
X134643558Y-78174760D01*
X134605479Y-78190533D01*
X134571207Y-78213433D01*
X134534854Y-78232864D01*
X134502991Y-78259013D01*
X134468719Y-78281913D01*
X134439573Y-78311059D01*
X134407709Y-78337209D01*
X134381561Y-78369071D01*
X134352413Y-78398219D01*
X134329513Y-78432491D01*
X134303364Y-78464354D01*
X134283933Y-78500707D01*
X134261033Y-78534979D01*
X134245260Y-78573058D01*
X134225828Y-78609413D01*
X134213861Y-78648862D01*
X134198089Y-78686940D01*
X134190048Y-78727364D01*
X134178082Y-78766811D01*
X134174042Y-78807832D01*
X134166000Y-78848260D01*
X134166000Y-78889481D01*
X134161960Y-78930500D01*
X134166000Y-78971519D01*
X134166000Y-79012740D01*
X134174042Y-79053168D01*
X134178082Y-79094189D01*
X134190048Y-79133636D01*
X134198089Y-79174060D01*
X134213861Y-79212138D01*
X134225828Y-79251587D01*
X134245260Y-79287942D01*
X134261033Y-79326021D01*
X134272530Y-79343228D01*
X134260997Y-79360489D01*
X134245224Y-79398568D01*
X134225792Y-79434923D01*
X134213825Y-79474372D01*
X134198053Y-79512450D01*
X134190012Y-79552874D01*
X134178046Y-79592321D01*
X134174006Y-79633342D01*
X134165964Y-79673770D01*
X134165964Y-79714991D01*
X134161924Y-79756010D01*
X125628000Y-79756010D01*
X125628000Y-74320000D01*
X137635581Y-74320000D01*
X137668000Y-74323193D01*
X137700419Y-74320000D01*
X137797383Y-74310450D01*
X137921793Y-74272710D01*
X138036450Y-74211425D01*
X138136948Y-74128948D01*
X138219425Y-74028450D01*
X138280710Y-73913793D01*
X138318450Y-73789383D01*
X138331193Y-73660000D01*
X138328000Y-73627581D01*
X138328000Y-72288000D01*
X186792001Y-72288000D01*
X186792000Y-85700000D01*
%TD*%
M02*
