%TF.GenerationSoftware,KiCad,Pcbnew,(5.1.6-0-10_14)*%
%TF.CreationDate,2020-09-27T13:09:56+01:00*%
%TF.ProjectId,OLED_USB_Stick,4f4c4544-5f55-4534-925f-537469636b2e,rev?*%
%TF.SameCoordinates,Original*%
%TF.FileFunction,Copper,L1,Top*%
%TF.FilePolarity,Positive*%
%FSLAX46Y46*%
G04 Gerber Fmt 4.6, Leading zero omitted, Abs format (unit mm)*
G04 Created by KiCad (PCBNEW (5.1.6-0-10_14)) date 2020-09-27 13:09:56*
%MOMM*%
%LPD*%
G01*
G04 APERTURE LIST*
%TA.AperFunction,ComponentPad*%
%ADD10O,1.700000X1.700000*%
%TD*%
%TA.AperFunction,ComponentPad*%
%ADD11R,1.700000X1.700000*%
%TD*%
%TA.AperFunction,SMDPad,CuDef*%
%ADD12R,1.120000X2.160000*%
%TD*%
%TA.AperFunction,SMDPad,CuDef*%
%ADD13R,2.500000X1.200000*%
%TD*%
%TA.AperFunction,SMDPad,CuDef*%
%ADD14R,1.750000X0.450000*%
%TD*%
%TA.AperFunction,SMDPad,CuDef*%
%ADD15R,6.000000X1.200000*%
%TD*%
%TA.AperFunction,SMDPad,CuDef*%
%ADD16R,8.000000X2.000000*%
%TD*%
%TA.AperFunction,ViaPad*%
%ADD17C,0.400000*%
%TD*%
%TA.AperFunction,Conductor*%
%ADD18C,0.400000*%
%TD*%
G04 APERTURE END LIST*
%TO.P,R3,2*%
%TO.N,/USB_TO_RS232/SLEEP#*%
%TA.AperFunction,SMDPad,CuDef*%
G36*
G01*
X144417200Y-75748301D02*
X144417200Y-74848299D01*
G75*
G02*
X144667199Y-74598300I249999J0D01*
G01*
X145317201Y-74598300D01*
G75*
G02*
X145567200Y-74848299I0J-249999D01*
G01*
X145567200Y-75748301D01*
G75*
G02*
X145317201Y-75998300I-249999J0D01*
G01*
X144667199Y-75998300D01*
G75*
G02*
X144417200Y-75748301I0J249999D01*
G01*
G37*
%TD.AperFunction*%
%TO.P,R3,1*%
%TO.N,Net-(D3-Pad1)*%
%TA.AperFunction,SMDPad,CuDef*%
G36*
G01*
X142367200Y-75748301D02*
X142367200Y-74848299D01*
G75*
G02*
X142617199Y-74598300I249999J0D01*
G01*
X143267201Y-74598300D01*
G75*
G02*
X143517200Y-74848299I0J-249999D01*
G01*
X143517200Y-75748301D01*
G75*
G02*
X143267201Y-75998300I-249999J0D01*
G01*
X142617199Y-75998300D01*
G75*
G02*
X142367200Y-75748301I0J249999D01*
G01*
G37*
%TD.AperFunction*%
%TD*%
%TO.P,D1,2*%
%TO.N,+5V*%
%TA.AperFunction,SMDPad,CuDef*%
G36*
G01*
X139059500Y-81655499D02*
X139059500Y-82555501D01*
G75*
G02*
X138809501Y-82805500I-249999J0D01*
G01*
X138159499Y-82805500D01*
G75*
G02*
X137909500Y-82555501I0J249999D01*
G01*
X137909500Y-81655499D01*
G75*
G02*
X138159499Y-81405500I249999J0D01*
G01*
X138809501Y-81405500D01*
G75*
G02*
X139059500Y-81655499I0J-249999D01*
G01*
G37*
%TD.AperFunction*%
%TO.P,D1,1*%
%TO.N,Net-(D1-Pad1)*%
%TA.AperFunction,SMDPad,CuDef*%
G36*
G01*
X141109500Y-81655499D02*
X141109500Y-82555501D01*
G75*
G02*
X140859501Y-82805500I-249999J0D01*
G01*
X140209499Y-82805500D01*
G75*
G02*
X139959500Y-82555501I0J249999D01*
G01*
X139959500Y-81655499D01*
G75*
G02*
X140209499Y-81405500I249999J0D01*
G01*
X140859501Y-81405500D01*
G75*
G02*
X141109500Y-81655499I0J-249999D01*
G01*
G37*
%TD.AperFunction*%
%TD*%
%TO.P,R1,2*%
%TO.N,/USB_TO_RS232/TXLED#*%
%TA.AperFunction,SMDPad,CuDef*%
G36*
G01*
X144404500Y-82555501D02*
X144404500Y-81655499D01*
G75*
G02*
X144654499Y-81405500I249999J0D01*
G01*
X145304501Y-81405500D01*
G75*
G02*
X145554500Y-81655499I0J-249999D01*
G01*
X145554500Y-82555501D01*
G75*
G02*
X145304501Y-82805500I-249999J0D01*
G01*
X144654499Y-82805500D01*
G75*
G02*
X144404500Y-82555501I0J249999D01*
G01*
G37*
%TD.AperFunction*%
%TO.P,R1,1*%
%TO.N,Net-(D1-Pad1)*%
%TA.AperFunction,SMDPad,CuDef*%
G36*
G01*
X142354500Y-82555501D02*
X142354500Y-81655499D01*
G75*
G02*
X142604499Y-81405500I249999J0D01*
G01*
X143254501Y-81405500D01*
G75*
G02*
X143504500Y-81655499I0J-249999D01*
G01*
X143504500Y-82555501D01*
G75*
G02*
X143254501Y-82805500I-249999J0D01*
G01*
X142604499Y-82805500D01*
G75*
G02*
X142354500Y-82555501I0J249999D01*
G01*
G37*
%TD.AperFunction*%
%TD*%
%TO.P,R4,2*%
%TO.N,GNDS*%
%TA.AperFunction,SMDPad,CuDef*%
G36*
G01*
X144391800Y-78008901D02*
X144391800Y-77108899D01*
G75*
G02*
X144641799Y-76858900I249999J0D01*
G01*
X145291801Y-76858900D01*
G75*
G02*
X145541800Y-77108899I0J-249999D01*
G01*
X145541800Y-78008901D01*
G75*
G02*
X145291801Y-78258900I-249999J0D01*
G01*
X144641799Y-78258900D01*
G75*
G02*
X144391800Y-78008901I0J249999D01*
G01*
G37*
%TD.AperFunction*%
%TO.P,R4,1*%
%TO.N,Net-(D4-Pad1)*%
%TA.AperFunction,SMDPad,CuDef*%
G36*
G01*
X142341800Y-78008901D02*
X142341800Y-77108899D01*
G75*
G02*
X142591799Y-76858900I249999J0D01*
G01*
X143241801Y-76858900D01*
G75*
G02*
X143491800Y-77108899I0J-249999D01*
G01*
X143491800Y-78008901D01*
G75*
G02*
X143241801Y-78258900I-249999J0D01*
G01*
X142591799Y-78258900D01*
G75*
G02*
X142341800Y-78008901I0J249999D01*
G01*
G37*
%TD.AperFunction*%
%TD*%
%TO.P,R2,2*%
%TO.N,/USB_TO_RS232/RXLED#*%
%TA.AperFunction,SMDPad,CuDef*%
G36*
G01*
X144391800Y-80269501D02*
X144391800Y-79369499D01*
G75*
G02*
X144641799Y-79119500I249999J0D01*
G01*
X145291801Y-79119500D01*
G75*
G02*
X145541800Y-79369499I0J-249999D01*
G01*
X145541800Y-80269501D01*
G75*
G02*
X145291801Y-80519500I-249999J0D01*
G01*
X144641799Y-80519500D01*
G75*
G02*
X144391800Y-80269501I0J249999D01*
G01*
G37*
%TD.AperFunction*%
%TO.P,R2,1*%
%TO.N,Net-(D2-Pad1)*%
%TA.AperFunction,SMDPad,CuDef*%
G36*
G01*
X142341800Y-80269501D02*
X142341800Y-79369499D01*
G75*
G02*
X142591799Y-79119500I249999J0D01*
G01*
X143241801Y-79119500D01*
G75*
G02*
X143491800Y-79369499I0J-249999D01*
G01*
X143491800Y-80269501D01*
G75*
G02*
X143241801Y-80519500I-249999J0D01*
G01*
X142591799Y-80519500D01*
G75*
G02*
X142341800Y-80269501I0J249999D01*
G01*
G37*
%TD.AperFunction*%
%TD*%
D10*
%TO.P,J3,4*%
%TO.N,/MCU/I2C_SDA*%
X179070000Y-82550000D03*
%TO.P,J3,3*%
%TO.N,/MCU/I2C_SCL*%
X179070000Y-80010000D03*
%TO.P,J3,2*%
%TO.N,+5V*%
X179070000Y-77470000D03*
D11*
%TO.P,J3,1*%
%TO.N,GNDS*%
X179070000Y-74930000D03*
%TD*%
D12*
%TO.P,SW2,2*%
%TO.N,Net-(C10-Pad1)*%
X152171400Y-82105000D03*
%TO.P,SW2,1*%
%TO.N,GNDS*%
X152171400Y-75375000D03*
%TD*%
D13*
%TO.P,SW1,3*%
%TO.N,+3V3*%
X182676800Y-76301600D03*
%TO.P,SW1,2*%
%TO.N,Net-(SW1-Pad2)*%
X182676800Y-78841600D03*
%TO.P,SW1,1*%
%TO.N,Net-(R5-Pad1)*%
X182676800Y-81381600D03*
%TD*%
%TO.P,D4,2*%
%TO.N,+5V*%
%TA.AperFunction,SMDPad,CuDef*%
G36*
G01*
X139046800Y-77108899D02*
X139046800Y-78008901D01*
G75*
G02*
X138796801Y-78258900I-249999J0D01*
G01*
X138146799Y-78258900D01*
G75*
G02*
X137896800Y-78008901I0J249999D01*
G01*
X137896800Y-77108899D01*
G75*
G02*
X138146799Y-76858900I249999J0D01*
G01*
X138796801Y-76858900D01*
G75*
G02*
X139046800Y-77108899I0J-249999D01*
G01*
G37*
%TD.AperFunction*%
%TO.P,D4,1*%
%TO.N,Net-(D4-Pad1)*%
%TA.AperFunction,SMDPad,CuDef*%
G36*
G01*
X141096800Y-77108899D02*
X141096800Y-78008901D01*
G75*
G02*
X140846801Y-78258900I-249999J0D01*
G01*
X140196799Y-78258900D01*
G75*
G02*
X139946800Y-78008901I0J249999D01*
G01*
X139946800Y-77108899D01*
G75*
G02*
X140196799Y-76858900I249999J0D01*
G01*
X140846801Y-76858900D01*
G75*
G02*
X141096800Y-77108899I0J-249999D01*
G01*
G37*
%TD.AperFunction*%
%TD*%
%TO.P,C10,2*%
%TO.N,GNDS*%
%TA.AperFunction,SMDPad,CuDef*%
G36*
G01*
X148786001Y-80626800D02*
X147885999Y-80626800D01*
G75*
G02*
X147636000Y-80376801I0J249999D01*
G01*
X147636000Y-79726799D01*
G75*
G02*
X147885999Y-79476800I249999J0D01*
G01*
X148786001Y-79476800D01*
G75*
G02*
X149036000Y-79726799I0J-249999D01*
G01*
X149036000Y-80376801D01*
G75*
G02*
X148786001Y-80626800I-249999J0D01*
G01*
G37*
%TD.AperFunction*%
%TO.P,C10,1*%
%TO.N,Net-(C10-Pad1)*%
%TA.AperFunction,SMDPad,CuDef*%
G36*
G01*
X148786001Y-82676800D02*
X147885999Y-82676800D01*
G75*
G02*
X147636000Y-82426801I0J249999D01*
G01*
X147636000Y-81776799D01*
G75*
G02*
X147885999Y-81526800I249999J0D01*
G01*
X148786001Y-81526800D01*
G75*
G02*
X149036000Y-81776799I0J-249999D01*
G01*
X149036000Y-82426801D01*
G75*
G02*
X148786001Y-82676800I-249999J0D01*
G01*
G37*
%TD.AperFunction*%
%TD*%
D14*
%TO.P,U1,28*%
%TO.N,Net-(U1-Pad28)*%
X157690000Y-83473000D03*
%TO.P,U1,27*%
%TO.N,Net-(U1-Pad27)*%
X157690000Y-82823000D03*
%TO.P,U1,26*%
%TO.N,GNDS*%
X157690000Y-82173000D03*
%TO.P,U1,25*%
X157690000Y-81523000D03*
%TO.P,U1,24*%
%TO.N,N/C*%
X157690000Y-80873000D03*
%TO.P,U1,23*%
%TO.N,/USB_TO_RS232/TXLED#*%
X157690000Y-80223000D03*
%TO.P,U1,22*%
%TO.N,/USB_TO_RS232/RXLED#*%
X157690000Y-79573000D03*
%TO.P,U1,21*%
%TO.N,GNDS*%
X157690000Y-78923000D03*
%TO.P,U1,20*%
%TO.N,+5V*%
X157690000Y-78273000D03*
%TO.P,U1,19*%
%TO.N,Net-(U1-Pad19)*%
X157690000Y-77623000D03*
%TO.P,U1,18*%
%TO.N,GNDS*%
X157690000Y-76973000D03*
%TO.P,U1,17*%
%TO.N,Net-(U1-Pad17)*%
X157690000Y-76323000D03*
%TO.P,U1,16*%
%TO.N,Net-(J1-Pad2)*%
X157690000Y-75673000D03*
%TO.P,U1,15*%
%TO.N,Net-(J1-Pad3)*%
X157690000Y-75023000D03*
%TO.P,U1,14*%
%TO.N,Net-(U1-Pad14)*%
X164890000Y-75023000D03*
%TO.P,U1,13*%
%TO.N,Net-(U1-Pad13)*%
X164890000Y-75673000D03*
%TO.P,U1,12*%
%TO.N,/USB_TO_RS232/SLEEP#*%
X164890000Y-76323000D03*
%TO.P,U1,11*%
%TO.N,Net-(U1-Pad11)*%
X164890000Y-76973000D03*
%TO.P,U1,10*%
%TO.N,Net-(U1-Pad10)*%
X164890000Y-77623000D03*
%TO.P,U1,9*%
%TO.N,Net-(U1-Pad9)*%
X164890000Y-78273000D03*
%TO.P,U1,8*%
%TO.N,N/C*%
X164890000Y-78923000D03*
%TO.P,U1,7*%
%TO.N,GNDS*%
X164890000Y-79573000D03*
%TO.P,U1,6*%
%TO.N,Net-(U1-Pad6)*%
X164890000Y-80223000D03*
%TO.P,U1,5*%
%TO.N,/MCU/USART_TX*%
X164890000Y-80873000D03*
%TO.P,U1,4*%
%TO.N,+5V*%
X164890000Y-81523000D03*
%TO.P,U1,3*%
%TO.N,Net-(U1-Pad3)*%
X164890000Y-82173000D03*
%TO.P,U1,2*%
%TO.N,Net-(U1-Pad2)*%
X164890000Y-82823000D03*
%TO.P,U1,1*%
%TO.N,/MCU/USART_RX*%
X164890000Y-83473000D03*
%TD*%
D15*
%TO.P,J1,3*%
%TO.N,Net-(J1-Pad3)*%
X129540000Y-77724000D03*
%TO.P,J1,2*%
%TO.N,Net-(J1-Pad2)*%
X129540000Y-79756000D03*
D16*
%TO.P,J1,4*%
%TO.N,GNDS*%
X129540000Y-75247500D03*
%TO.P,J1,1*%
%TO.N,Net-(C1-Pad1)*%
X129540000Y-82232500D03*
%TD*%
%TO.P,D3,2*%
%TO.N,+5V*%
%TA.AperFunction,SMDPad,CuDef*%
G36*
G01*
X139072200Y-74860999D02*
X139072200Y-75761001D01*
G75*
G02*
X138822201Y-76011000I-249999J0D01*
G01*
X138172199Y-76011000D01*
G75*
G02*
X137922200Y-75761001I0J249999D01*
G01*
X137922200Y-74860999D01*
G75*
G02*
X138172199Y-74611000I249999J0D01*
G01*
X138822201Y-74611000D01*
G75*
G02*
X139072200Y-74860999I0J-249999D01*
G01*
G37*
%TD.AperFunction*%
%TO.P,D3,1*%
%TO.N,Net-(D3-Pad1)*%
%TA.AperFunction,SMDPad,CuDef*%
G36*
G01*
X141122200Y-74860999D02*
X141122200Y-75761001D01*
G75*
G02*
X140872201Y-76011000I-249999J0D01*
G01*
X140222199Y-76011000D01*
G75*
G02*
X139972200Y-75761001I0J249999D01*
G01*
X139972200Y-74860999D01*
G75*
G02*
X140222199Y-74611000I249999J0D01*
G01*
X140872201Y-74611000D01*
G75*
G02*
X141122200Y-74860999I0J-249999D01*
G01*
G37*
%TD.AperFunction*%
%TD*%
%TO.P,D2,2*%
%TO.N,+5V*%
%TA.AperFunction,SMDPad,CuDef*%
G36*
G01*
X139046800Y-79369499D02*
X139046800Y-80269501D01*
G75*
G02*
X138796801Y-80519500I-249999J0D01*
G01*
X138146799Y-80519500D01*
G75*
G02*
X137896800Y-80269501I0J249999D01*
G01*
X137896800Y-79369499D01*
G75*
G02*
X138146799Y-79119500I249999J0D01*
G01*
X138796801Y-79119500D01*
G75*
G02*
X139046800Y-79369499I0J-249999D01*
G01*
G37*
%TD.AperFunction*%
%TO.P,D2,1*%
%TO.N,Net-(D2-Pad1)*%
%TA.AperFunction,SMDPad,CuDef*%
G36*
G01*
X141096800Y-79369499D02*
X141096800Y-80269501D01*
G75*
G02*
X140846801Y-80519500I-249999J0D01*
G01*
X140196799Y-80519500D01*
G75*
G02*
X139946800Y-80269501I0J249999D01*
G01*
X139946800Y-79369499D01*
G75*
G02*
X140196799Y-79119500I249999J0D01*
G01*
X140846801Y-79119500D01*
G75*
G02*
X141096800Y-79369499I0J-249999D01*
G01*
G37*
%TD.AperFunction*%
%TD*%
%TO.P,C9,2*%
%TO.N,GNDS*%
%TA.AperFunction,SMDPad,CuDef*%
G36*
G01*
X171011000Y-78682001D02*
X171011000Y-77781999D01*
G75*
G02*
X171260999Y-77532000I249999J0D01*
G01*
X171911001Y-77532000D01*
G75*
G02*
X172161000Y-77781999I0J-249999D01*
G01*
X172161000Y-78682001D01*
G75*
G02*
X171911001Y-78932000I-249999J0D01*
G01*
X171260999Y-78932000D01*
G75*
G02*
X171011000Y-78682001I0J249999D01*
G01*
G37*
%TD.AperFunction*%
%TO.P,C9,1*%
%TO.N,+3V3*%
%TA.AperFunction,SMDPad,CuDef*%
G36*
G01*
X168961000Y-78682001D02*
X168961000Y-77781999D01*
G75*
G02*
X169210999Y-77532000I249999J0D01*
G01*
X169861001Y-77532000D01*
G75*
G02*
X170111000Y-77781999I0J-249999D01*
G01*
X170111000Y-78682001D01*
G75*
G02*
X169861001Y-78932000I-249999J0D01*
G01*
X169210999Y-78932000D01*
G75*
G02*
X168961000Y-78682001I0J249999D01*
G01*
G37*
%TD.AperFunction*%
%TD*%
%TO.P,C7,2*%
%TO.N,GNDS*%
%TA.AperFunction,SMDPad,CuDef*%
G36*
G01*
X171011000Y-83762001D02*
X171011000Y-82861999D01*
G75*
G02*
X171260999Y-82612000I249999J0D01*
G01*
X171911001Y-82612000D01*
G75*
G02*
X172161000Y-82861999I0J-249999D01*
G01*
X172161000Y-83762001D01*
G75*
G02*
X171911001Y-84012000I-249999J0D01*
G01*
X171260999Y-84012000D01*
G75*
G02*
X171011000Y-83762001I0J249999D01*
G01*
G37*
%TD.AperFunction*%
%TO.P,C7,1*%
%TO.N,+3V3*%
%TA.AperFunction,SMDPad,CuDef*%
G36*
G01*
X168961000Y-83762001D02*
X168961000Y-82861999D01*
G75*
G02*
X169210999Y-82612000I249999J0D01*
G01*
X169861001Y-82612000D01*
G75*
G02*
X170111000Y-82861999I0J-249999D01*
G01*
X170111000Y-83762001D01*
G75*
G02*
X169861001Y-84012000I-249999J0D01*
G01*
X169210999Y-84012000D01*
G75*
G02*
X168961000Y-83762001I0J249999D01*
G01*
G37*
%TD.AperFunction*%
%TD*%
%TO.P,C6,2*%
%TO.N,GNDS*%
%TA.AperFunction,SMDPad,CuDef*%
G36*
G01*
X171011000Y-76142001D02*
X171011000Y-75241999D01*
G75*
G02*
X171260999Y-74992000I249999J0D01*
G01*
X171911001Y-74992000D01*
G75*
G02*
X172161000Y-75241999I0J-249999D01*
G01*
X172161000Y-76142001D01*
G75*
G02*
X171911001Y-76392000I-249999J0D01*
G01*
X171260999Y-76392000D01*
G75*
G02*
X171011000Y-76142001I0J249999D01*
G01*
G37*
%TD.AperFunction*%
%TO.P,C6,1*%
%TO.N,+3V3*%
%TA.AperFunction,SMDPad,CuDef*%
G36*
G01*
X168961000Y-76142001D02*
X168961000Y-75241999D01*
G75*
G02*
X169210999Y-74992000I249999J0D01*
G01*
X169861001Y-74992000D01*
G75*
G02*
X170111000Y-75241999I0J-249999D01*
G01*
X170111000Y-76142001D01*
G75*
G02*
X169861001Y-76392000I-249999J0D01*
G01*
X169210999Y-76392000D01*
G75*
G02*
X168961000Y-76142001I0J249999D01*
G01*
G37*
%TD.AperFunction*%
%TD*%
%TO.P,C4,2*%
%TO.N,GNDS*%
%TA.AperFunction,SMDPad,CuDef*%
G36*
G01*
X171011000Y-81222001D02*
X171011000Y-80321999D01*
G75*
G02*
X171260999Y-80072000I249999J0D01*
G01*
X171911001Y-80072000D01*
G75*
G02*
X172161000Y-80321999I0J-249999D01*
G01*
X172161000Y-81222001D01*
G75*
G02*
X171911001Y-81472000I-249999J0D01*
G01*
X171260999Y-81472000D01*
G75*
G02*
X171011000Y-81222001I0J249999D01*
G01*
G37*
%TD.AperFunction*%
%TO.P,C4,1*%
%TO.N,+3V3*%
%TA.AperFunction,SMDPad,CuDef*%
G36*
G01*
X168961000Y-81222001D02*
X168961000Y-80321999D01*
G75*
G02*
X169210999Y-80072000I249999J0D01*
G01*
X169861001Y-80072000D01*
G75*
G02*
X170111000Y-80321999I0J-249999D01*
G01*
X170111000Y-81222001D01*
G75*
G02*
X169861001Y-81472000I-249999J0D01*
G01*
X169210999Y-81472000D01*
G75*
G02*
X168961000Y-81222001I0J249999D01*
G01*
G37*
%TD.AperFunction*%
%TD*%
D17*
%TO.N,GNDS*%
X157124400Y-74269600D03*
X153416000Y-80645000D03*
X146685000Y-76327000D03*
X134302500Y-75247500D03*
X171577000Y-73977500D03*
%TO.N,Net-(C1-Pad1)*%
X135128000Y-81280000D03*
%TO.N,+5V*%
X154940000Y-76555600D03*
X168910000Y-82042000D03*
X135128000Y-80518000D03*
%TO.N,+3V3*%
X167957500Y-75946000D03*
X180848000Y-76200000D03*
%TO.N,Net-(J1-Pad3)*%
X154931400Y-75023000D03*
X135001000Y-78930500D03*
%TO.N,Net-(J1-Pad2)*%
X154971800Y-75673000D03*
X135000964Y-79756010D03*
%TO.N,/MCU/I2C_SDA*%
X161690000Y-76200000D03*
X174244000Y-73660000D03*
%TO.N,/MCU/I2C_SCL*%
X160909000Y-75946000D03*
X176276000Y-73406000D03*
%TO.N,/MCU/USART_RX*%
X166844000Y-83473000D03*
%TO.N,/MCU/USART_TX*%
X163195000Y-80391000D03*
%TO.N,Net-(C10-Pad1)*%
X153416000Y-79375000D03*
%TO.N,Net-(R5-Pad1)*%
X181864000Y-84328000D03*
%TO.N,Net-(SW1-Pad2)*%
X161925000Y-84518500D03*
%TD*%
D18*
%TO.N,GNDS*%
X171586000Y-78232000D02*
X171595000Y-78223000D01*
X157690000Y-81523000D02*
X157690000Y-82173000D01*
X159370600Y-76973000D02*
X159370600Y-74839400D01*
X159370600Y-76973000D02*
X157690000Y-76973000D01*
X159370600Y-74839400D02*
X158800800Y-74269600D01*
X158800800Y-74269600D02*
X157124400Y-74269600D01*
X153225000Y-75375000D02*
X152171400Y-75375000D01*
X157124400Y-74269600D02*
X154330400Y-74269600D01*
X154330400Y-74269600D02*
X153225000Y-75375000D01*
X171586000Y-80772000D02*
X171586000Y-83312000D01*
X171586000Y-80772000D02*
X171586000Y-78232000D01*
X171586000Y-78232000D02*
X171586000Y-75692000D01*
X157690000Y-78923000D02*
X159265500Y-78923000D01*
X159258000Y-81523000D02*
X157690000Y-81523000D01*
X159258000Y-78930500D02*
X159258000Y-81523000D01*
X159265500Y-78923000D02*
X159258000Y-78930500D01*
X159713500Y-76973000D02*
X159370600Y-76973000D01*
X164890000Y-79573000D02*
X162313500Y-79573000D01*
X162313500Y-79573000D02*
X159713500Y-76973000D01*
X156484200Y-78923000D02*
X157690000Y-78923000D01*
X155138000Y-78923000D02*
X156484200Y-78923000D01*
X153416000Y-80645000D02*
X155138000Y-78923000D01*
X144966800Y-77241400D02*
X146685000Y-77241400D01*
X148336000Y-78892400D02*
X148336000Y-80051800D01*
X146685000Y-77241400D02*
X148336000Y-78892400D01*
X146685000Y-77241400D02*
X146685000Y-76327000D01*
X129540000Y-75247500D02*
X134302500Y-75247500D01*
X171586000Y-75692000D02*
X171586000Y-73977500D01*
X171586000Y-73977500D02*
X171577000Y-73977500D01*
%TO.N,Net-(C1-Pad1)*%
X135128000Y-81280000D02*
X134112000Y-82296000D01*
X134112000Y-82296000D02*
X129603500Y-82296000D01*
X129603500Y-82296000D02*
X129540000Y-82232500D01*
%TO.N,+5V*%
X138471800Y-77558900D02*
X138471800Y-79844900D01*
X138471800Y-79844900D02*
X138471800Y-82130900D01*
X138506200Y-77724000D02*
X138506200Y-75320000D01*
X156657400Y-78273000D02*
X157690000Y-78273000D01*
X154940000Y-76555600D02*
X156657400Y-78273000D01*
X138497200Y-81220200D02*
X138497200Y-81915000D01*
X159807000Y-78273000D02*
X157690000Y-78273000D01*
X164890000Y-81523000D02*
X163057000Y-81523000D01*
X163057000Y-81523000D02*
X159807000Y-78273000D01*
X168275000Y-82042000D02*
X168910000Y-82042000D01*
X167756000Y-81523000D02*
X168275000Y-82042000D01*
X164890000Y-81523000D02*
X167756000Y-81523000D01*
X136525000Y-80518000D02*
X135128000Y-80518000D01*
X138471800Y-79819500D02*
X137223500Y-79819500D01*
X137223500Y-79819500D02*
X136525000Y-80518000D01*
%TO.N,+3V3*%
X169536000Y-83312000D02*
X169536000Y-75692000D01*
X182067200Y-76327000D02*
X182651400Y-76327000D01*
X182651400Y-76327000D02*
X182676800Y-76301600D01*
X167957500Y-75946000D02*
X168211500Y-75692000D01*
X168211500Y-75692000D02*
X169536000Y-75692000D01*
X182575200Y-76200000D02*
X182676800Y-76301600D01*
X180848000Y-76200000D02*
X182575200Y-76200000D01*
%TO.N,Net-(D1-Pad1)*%
X142916800Y-82130900D02*
X140521800Y-82130900D01*
%TO.N,Net-(D2-Pad1)*%
X142916800Y-79844900D02*
X140521800Y-79844900D01*
%TO.N,Net-(D3-Pad1)*%
X142942200Y-75311000D02*
X140547200Y-75311000D01*
%TO.N,Net-(J1-Pad3)*%
X154931400Y-75023000D02*
X157690000Y-75023000D01*
X129540000Y-77724000D02*
X133794500Y-77724000D01*
X133794500Y-77724000D02*
X135001000Y-78930500D01*
%TO.N,Net-(J1-Pad2)*%
X154971800Y-75673000D02*
X157690000Y-75673000D01*
X135000954Y-79756000D02*
X135000964Y-79756010D01*
X129540000Y-79756000D02*
X135000954Y-79756000D01*
%TO.N,/MCU/I2C_SDA*%
X176072800Y-82550000D02*
X179070000Y-82550000D01*
X175260000Y-81737200D02*
X176072800Y-82550000D01*
X175260000Y-72898000D02*
X175260000Y-81737200D01*
X161690000Y-74022000D02*
X162814000Y-72898000D01*
X161690000Y-76200000D02*
X161690000Y-74022000D01*
X174244000Y-73660000D02*
X174244000Y-72898000D01*
X174244000Y-72898000D02*
X175260000Y-72898000D01*
X162814000Y-72898000D02*
X174244000Y-72898000D01*
%TO.N,/MCU/I2C_SCL*%
X177596800Y-80010000D02*
X179070000Y-80010000D01*
X177546000Y-79959200D02*
X177596800Y-80010000D01*
X177546000Y-72136000D02*
X177546000Y-79959200D01*
X160909000Y-73533000D02*
X162306000Y-72136000D01*
X160909000Y-75946000D02*
X160909000Y-73533000D01*
X176276000Y-72136000D02*
X177546000Y-72136000D01*
X162306000Y-72136000D02*
X176276000Y-72136000D01*
X176276000Y-72136000D02*
X176276000Y-73406000D01*
%TO.N,/USB_TO_RS232/TXLED#*%
X144979500Y-81788000D02*
X144979500Y-83194000D01*
X144979500Y-83194000D02*
X146558000Y-84772500D01*
X146558000Y-84772500D02*
X154305000Y-84772500D01*
X154305000Y-84772500D02*
X155003500Y-84074000D01*
X155003500Y-84074000D02*
X155003500Y-81597500D01*
X156378000Y-80223000D02*
X157690000Y-80223000D01*
X155003500Y-81597500D02*
X156378000Y-80223000D01*
%TO.N,/USB_TO_RS232/RXLED#*%
X157690000Y-79573000D02*
X155821500Y-79573000D01*
X155821500Y-79573000D02*
X153987500Y-81407000D01*
X153987500Y-81407000D02*
X153987500Y-83375500D01*
X153987500Y-83375500D02*
X153543000Y-83820000D01*
X153543000Y-83820000D02*
X147574000Y-83820000D01*
X147574000Y-83820000D02*
X146621500Y-82867500D01*
X146621500Y-82867500D02*
X146621500Y-80073500D01*
X146050000Y-79502000D02*
X144966800Y-79502000D01*
X146621500Y-80073500D02*
X146050000Y-79502000D01*
%TO.N,/USB_TO_RS232/SLEEP#*%
X164894000Y-76327000D02*
X164890000Y-76323000D01*
X161036000Y-77152500D02*
X162433000Y-77152500D01*
X160020000Y-73609200D02*
X160020000Y-76136500D01*
X159918400Y-73507600D02*
X160020000Y-73609200D01*
X163262500Y-76323000D02*
X164890000Y-76323000D01*
X147624800Y-73507600D02*
X159918400Y-73507600D01*
X162433000Y-77152500D02*
X163262500Y-76323000D01*
X160020000Y-76136500D02*
X161036000Y-77152500D01*
X145834100Y-75298300D02*
X147624800Y-73507600D01*
X144992200Y-75298300D02*
X145834100Y-75298300D01*
%TO.N,/MCU/USART_RX*%
X164890000Y-83473000D02*
X166844000Y-83473000D01*
%TO.N,/MCU/USART_TX*%
X163423000Y-80873000D02*
X164890000Y-80873000D01*
X163195000Y-80645000D02*
X163423000Y-80873000D01*
X163195000Y-80391000D02*
X163195000Y-80645000D01*
%TO.N,Net-(C10-Pad1)*%
X152168200Y-82101800D02*
X152171400Y-82105000D01*
X148336000Y-82101800D02*
X152168200Y-82101800D01*
X152171400Y-82105000D02*
X152171400Y-80619600D01*
X152171400Y-80619600D02*
X153416000Y-79375000D01*
%TO.N,Net-(D4-Pad1)*%
X142916800Y-77558900D02*
X140521800Y-77558900D01*
%TO.N,Net-(R5-Pad1)*%
X182676800Y-83515200D02*
X182676800Y-81381600D01*
X181864000Y-84328000D02*
X182676800Y-83515200D01*
%TO.N,Net-(SW1-Pad2)*%
X182067200Y-78867000D02*
X180848000Y-80086200D01*
X179743100Y-84518500D02*
X161925000Y-84518500D01*
X180848000Y-80086200D02*
X180848000Y-83413600D01*
X180848000Y-83413600D02*
X179743100Y-84518500D01*
%TD*%
M02*
