M48
; DRILL file {KiCad 5.1.6-c6e7f7d~87~ubuntu18.04.1} date Sun Sep 27 02:41:21 2020
; FORMAT={-:-/ absolute / inch / decimal}
; #@! TF.CreationDate,2020-09-27T02:41:21+01:00
; #@! TF.GenerationSoftware,Kicad,Pcbnew,5.1.6-c6e7f7d~87~ubuntu18.04.1
; #@! TF.FileFunction,Plated,1,2,PTH
FMAT,2
INCH
T1C0.0079
T2C0.0394
%
G90
G05
T1
X5.28Y-3.06
X5.2875Y-2.9625
X5.32Y-3.095
X5.32Y-3.143
X5.32Y-3.2
X5.775Y-3.005
X5.99Y-3.12
X6.04Y-3.175
X6.0997Y-2.9537
X6.1Y-3.014
X6.1013Y-2.9793
X6.186Y-2.924
X6.335Y-2.99
X6.3657Y-3.0
X6.375Y-3.34
X6.425Y-3.165
X6.59Y-3.285
X6.6125Y-2.99
X6.6175Y-3.2275
X6.7554Y-2.9396
X7.16Y-3.32
X7.166Y-2.894
T2
X7.05Y-2.95
X7.05Y-3.05
X7.05Y-3.15
X7.05Y-3.25
T0
M30
