%TF.GenerationSoftware,KiCad,Pcbnew,5.1.6-c6e7f7d~87~ubuntu18.04.1*%
%TF.CreationDate,2020-09-27T02:41:19+01:00*%
%TF.ProjectId,OLED_USB_Stick,4f4c4544-5f55-4534-925f-537469636b2e,rev?*%
%TF.SameCoordinates,Original*%
%TF.FileFunction,Legend,Bot*%
%TF.FilePolarity,Positive*%
%FSLAX46Y46*%
G04 Gerber Fmt 4.6, Leading zero omitted, Abs format (unit mm)*
G04 Created by KiCad (PCBNEW 5.1.6-c6e7f7d~87~ubuntu18.04.1) date 2020-09-27 02:41:19*
%MOMM*%
%LPD*%
G01*
G04 APERTURE LIST*
%ADD10C,0.120000*%
%ADD11C,0.150000*%
G04 APERTURE END LIST*
D10*
%TO.C,C3*%
X153662748Y-83641000D02*
X154185252Y-83641000D01*
X153662748Y-82221000D02*
X154185252Y-82221000D01*
%TO.C,C1*%
X141739252Y-82221000D02*
X141216748Y-82221000D01*
X141739252Y-83641000D02*
X141216748Y-83641000D01*
%TO.C,C2*%
X149344748Y-83641000D02*
X149867252Y-83641000D01*
X149344748Y-82221000D02*
X149867252Y-82221000D01*
%TO.C,FB1*%
X145280748Y-83641000D02*
X145803252Y-83641000D01*
X145280748Y-82221000D02*
X145803252Y-82221000D01*
%TO.C,R5*%
X175267252Y-84784000D02*
X174744748Y-84784000D01*
X175267252Y-83364000D02*
X174744748Y-83364000D01*
%TO.C,U3*%
X164600000Y-75130000D02*
X164900000Y-75130000D01*
X164900000Y-75130000D02*
X164900000Y-75430000D01*
X157980000Y-75130000D02*
X157680000Y-75130000D01*
X157680000Y-75130000D02*
X157680000Y-75430000D01*
X164600000Y-82350000D02*
X164900000Y-82350000D01*
X164900000Y-82350000D02*
X164900000Y-82050000D01*
X157980000Y-82350000D02*
X157680000Y-82350000D01*
X157680000Y-82350000D02*
X157680000Y-82050000D01*
X157680000Y-82050000D02*
X156365000Y-82050000D01*
%TO.C,U2*%
X170373000Y-79621000D02*
X170373000Y-80671000D01*
X170373000Y-80671000D02*
X172223000Y-80671000D01*
X170373000Y-77621000D02*
X170373000Y-78621000D01*
X170393000Y-77611000D02*
X172823000Y-77611000D01*
%TO.C,C8*%
X171061748Y-76656000D02*
X171584252Y-76656000D01*
X171061748Y-75236000D02*
X171584252Y-75236000D01*
%TO.C,C5*%
X171017000Y-83255752D02*
X171017000Y-82733248D01*
X169597000Y-83255752D02*
X169597000Y-82733248D01*
%TO.C,C3*%
D11*
X154090666Y-85193142D02*
X154138285Y-85240761D01*
X154281142Y-85288380D01*
X154376380Y-85288380D01*
X154519238Y-85240761D01*
X154614476Y-85145523D01*
X154662095Y-85050285D01*
X154709714Y-84859809D01*
X154709714Y-84716952D01*
X154662095Y-84526476D01*
X154614476Y-84431238D01*
X154519238Y-84336000D01*
X154376380Y-84288380D01*
X154281142Y-84288380D01*
X154138285Y-84336000D01*
X154090666Y-84383619D01*
X153757333Y-84288380D02*
X153138285Y-84288380D01*
X153471619Y-84669333D01*
X153328761Y-84669333D01*
X153233523Y-84716952D01*
X153185904Y-84764571D01*
X153138285Y-84859809D01*
X153138285Y-85097904D01*
X153185904Y-85193142D01*
X153233523Y-85240761D01*
X153328761Y-85288380D01*
X153614476Y-85288380D01*
X153709714Y-85240761D01*
X153757333Y-85193142D01*
%TO.C,C1*%
X141644666Y-84939142D02*
X141692285Y-84986761D01*
X141835142Y-85034380D01*
X141930380Y-85034380D01*
X142073238Y-84986761D01*
X142168476Y-84891523D01*
X142216095Y-84796285D01*
X142263714Y-84605809D01*
X142263714Y-84462952D01*
X142216095Y-84272476D01*
X142168476Y-84177238D01*
X142073238Y-84082000D01*
X141930380Y-84034380D01*
X141835142Y-84034380D01*
X141692285Y-84082000D01*
X141644666Y-84129619D01*
X140692285Y-85034380D02*
X141263714Y-85034380D01*
X140978000Y-85034380D02*
X140978000Y-84034380D01*
X141073238Y-84177238D01*
X141168476Y-84272476D01*
X141263714Y-84320095D01*
%TO.C,C2*%
X149772666Y-85193142D02*
X149820285Y-85240761D01*
X149963142Y-85288380D01*
X150058380Y-85288380D01*
X150201238Y-85240761D01*
X150296476Y-85145523D01*
X150344095Y-85050285D01*
X150391714Y-84859809D01*
X150391714Y-84716952D01*
X150344095Y-84526476D01*
X150296476Y-84431238D01*
X150201238Y-84336000D01*
X150058380Y-84288380D01*
X149963142Y-84288380D01*
X149820285Y-84336000D01*
X149772666Y-84383619D01*
X149391714Y-84383619D02*
X149344095Y-84336000D01*
X149248857Y-84288380D01*
X149010761Y-84288380D01*
X148915523Y-84336000D01*
X148867904Y-84383619D01*
X148820285Y-84478857D01*
X148820285Y-84574095D01*
X148867904Y-84716952D01*
X149439333Y-85288380D01*
X148820285Y-85288380D01*
%TO.C,FB1*%
X146375333Y-84764571D02*
X146708666Y-84764571D01*
X146708666Y-85288380D02*
X146708666Y-84288380D01*
X146232476Y-84288380D01*
X145518190Y-84764571D02*
X145375333Y-84812190D01*
X145327714Y-84859809D01*
X145280095Y-84955047D01*
X145280095Y-85097904D01*
X145327714Y-85193142D01*
X145375333Y-85240761D01*
X145470571Y-85288380D01*
X145851523Y-85288380D01*
X145851523Y-84288380D01*
X145518190Y-84288380D01*
X145422952Y-84336000D01*
X145375333Y-84383619D01*
X145327714Y-84478857D01*
X145327714Y-84574095D01*
X145375333Y-84669333D01*
X145422952Y-84716952D01*
X145518190Y-84764571D01*
X145851523Y-84764571D01*
X144327714Y-85288380D02*
X144899142Y-85288380D01*
X144613428Y-85288380D02*
X144613428Y-84288380D01*
X144708666Y-84431238D01*
X144803904Y-84526476D01*
X144899142Y-84574095D01*
%TO.C,R5*%
X174918666Y-82748380D02*
X175252000Y-82272190D01*
X175490095Y-82748380D02*
X175490095Y-81748380D01*
X175109142Y-81748380D01*
X175013904Y-81796000D01*
X174966285Y-81843619D01*
X174918666Y-81938857D01*
X174918666Y-82081714D01*
X174966285Y-82176952D01*
X175013904Y-82224571D01*
X175109142Y-82272190D01*
X175490095Y-82272190D01*
X174013904Y-81748380D02*
X174490095Y-81748380D01*
X174537714Y-82224571D01*
X174490095Y-82176952D01*
X174394857Y-82129333D01*
X174156761Y-82129333D01*
X174061523Y-82176952D01*
X174013904Y-82224571D01*
X173966285Y-82319809D01*
X173966285Y-82557904D01*
X174013904Y-82653142D01*
X174061523Y-82700761D01*
X174156761Y-82748380D01*
X174394857Y-82748380D01*
X174490095Y-82700761D01*
X174537714Y-82653142D01*
%TO.C,U3*%
X162051904Y-72223380D02*
X162051904Y-73032904D01*
X162004285Y-73128142D01*
X161956666Y-73175761D01*
X161861428Y-73223380D01*
X161670952Y-73223380D01*
X161575714Y-73175761D01*
X161528095Y-73128142D01*
X161480476Y-73032904D01*
X161480476Y-72223380D01*
X161099523Y-72223380D02*
X160480476Y-72223380D01*
X160813809Y-72604333D01*
X160670952Y-72604333D01*
X160575714Y-72651952D01*
X160528095Y-72699571D01*
X160480476Y-72794809D01*
X160480476Y-73032904D01*
X160528095Y-73128142D01*
X160575714Y-73175761D01*
X160670952Y-73223380D01*
X160956666Y-73223380D01*
X161051904Y-73175761D01*
X161099523Y-73128142D01*
%TO.C,U2*%
X175259904Y-78700380D02*
X175259904Y-79509904D01*
X175212285Y-79605142D01*
X175164666Y-79652761D01*
X175069428Y-79700380D01*
X174878952Y-79700380D01*
X174783714Y-79652761D01*
X174736095Y-79605142D01*
X174688476Y-79509904D01*
X174688476Y-78700380D01*
X174259904Y-78795619D02*
X174212285Y-78748000D01*
X174117047Y-78700380D01*
X173878952Y-78700380D01*
X173783714Y-78748000D01*
X173736095Y-78795619D01*
X173688476Y-78890857D01*
X173688476Y-78986095D01*
X173736095Y-79128952D01*
X174307523Y-79700380D01*
X173688476Y-79700380D01*
%TO.C,C8*%
X174664666Y-76303142D02*
X174712285Y-76350761D01*
X174855142Y-76398380D01*
X174950380Y-76398380D01*
X175093238Y-76350761D01*
X175188476Y-76255523D01*
X175236095Y-76160285D01*
X175283714Y-75969809D01*
X175283714Y-75826952D01*
X175236095Y-75636476D01*
X175188476Y-75541238D01*
X175093238Y-75446000D01*
X174950380Y-75398380D01*
X174855142Y-75398380D01*
X174712285Y-75446000D01*
X174664666Y-75493619D01*
X174093238Y-75826952D02*
X174188476Y-75779333D01*
X174236095Y-75731714D01*
X174283714Y-75636476D01*
X174283714Y-75588857D01*
X174236095Y-75493619D01*
X174188476Y-75446000D01*
X174093238Y-75398380D01*
X173902761Y-75398380D01*
X173807523Y-75446000D01*
X173759904Y-75493619D01*
X173712285Y-75588857D01*
X173712285Y-75636476D01*
X173759904Y-75731714D01*
X173807523Y-75779333D01*
X173902761Y-75826952D01*
X174093238Y-75826952D01*
X174188476Y-75874571D01*
X174236095Y-75922190D01*
X174283714Y-76017428D01*
X174283714Y-76207904D01*
X174236095Y-76303142D01*
X174188476Y-76350761D01*
X174093238Y-76398380D01*
X173902761Y-76398380D01*
X173807523Y-76350761D01*
X173759904Y-76303142D01*
X173712285Y-76207904D01*
X173712285Y-76017428D01*
X173759904Y-75922190D01*
X173807523Y-75874571D01*
X173902761Y-75826952D01*
%TO.C,C5*%
X168568666Y-83415142D02*
X168616285Y-83462761D01*
X168759142Y-83510380D01*
X168854380Y-83510380D01*
X168997238Y-83462761D01*
X169092476Y-83367523D01*
X169140095Y-83272285D01*
X169187714Y-83081809D01*
X169187714Y-82938952D01*
X169140095Y-82748476D01*
X169092476Y-82653238D01*
X168997238Y-82558000D01*
X168854380Y-82510380D01*
X168759142Y-82510380D01*
X168616285Y-82558000D01*
X168568666Y-82605619D01*
X167663904Y-82510380D02*
X168140095Y-82510380D01*
X168187714Y-82986571D01*
X168140095Y-82938952D01*
X168044857Y-82891333D01*
X167806761Y-82891333D01*
X167711523Y-82938952D01*
X167663904Y-82986571D01*
X167616285Y-83081809D01*
X167616285Y-83319904D01*
X167663904Y-83415142D01*
X167711523Y-83462761D01*
X167806761Y-83510380D01*
X168044857Y-83510380D01*
X168140095Y-83462761D01*
X168187714Y-83415142D01*
%TD*%
M02*
