%TF.GenerationSoftware,KiCad,Pcbnew,5.1.6-c6e7f7d~87~ubuntu18.04.1*%
%TF.CreationDate,2020-09-27T02:41:19+01:00*%
%TF.ProjectId,OLED_USB_Stick,4f4c4544-5f55-4534-925f-537469636b2e,rev?*%
%TF.SameCoordinates,Original*%
%TF.FileFunction,Legend,Top*%
%TF.FilePolarity,Positive*%
%FSLAX46Y46*%
G04 Gerber Fmt 4.6, Leading zero omitted, Abs format (unit mm)*
G04 Created by KiCad (PCBNEW 5.1.6-c6e7f7d~87~ubuntu18.04.1) date 2020-09-27 02:41:19*
%MOMM*%
%LPD*%
G01*
G04 APERTURE LIST*
%ADD10C,0.800000*%
%ADD11C,0.175000*%
%ADD12C,0.150000*%
%ADD13C,0.120000*%
G04 APERTURE END LIST*
D10*
X166497000Y-83439000D02*
G75*
G03*
X166497000Y-83439000I0J0D01*
G01*
X156972000Y-82804000D02*
G75*
G03*
X156972000Y-82804000I0J0D01*
G01*
D11*
X184410476Y-73468666D02*
X184410476Y-72768666D01*
X184715238Y-72768666D01*
X184791428Y-72802000D01*
X184829523Y-72835333D01*
X184867619Y-72902000D01*
X184867619Y-73002000D01*
X184829523Y-73068666D01*
X184791428Y-73102000D01*
X184715238Y-73135333D01*
X184410476Y-73135333D01*
X185667619Y-73468666D02*
X185400952Y-73135333D01*
X185210476Y-73468666D02*
X185210476Y-72768666D01*
X185515238Y-72768666D01*
X185591428Y-72802000D01*
X185629523Y-72835333D01*
X185667619Y-72902000D01*
X185667619Y-73002000D01*
X185629523Y-73068666D01*
X185591428Y-73102000D01*
X185515238Y-73135333D01*
X185210476Y-73135333D01*
X186429523Y-72802000D02*
X186353333Y-72768666D01*
X186239047Y-72768666D01*
X186124761Y-72802000D01*
X186048571Y-72868666D01*
X186010476Y-72935333D01*
X185972380Y-73068666D01*
X185972380Y-73168666D01*
X186010476Y-73302000D01*
X186048571Y-73368666D01*
X186124761Y-73435333D01*
X186239047Y-73468666D01*
X186315238Y-73468666D01*
X186429523Y-73435333D01*
X186467619Y-73402000D01*
X186467619Y-73168666D01*
X186315238Y-73168666D01*
X184829523Y-84898666D02*
X184562857Y-84565333D01*
X184372380Y-84898666D02*
X184372380Y-84198666D01*
X184677142Y-84198666D01*
X184753333Y-84232000D01*
X184791428Y-84265333D01*
X184829523Y-84332000D01*
X184829523Y-84432000D01*
X184791428Y-84498666D01*
X184753333Y-84532000D01*
X184677142Y-84565333D01*
X184372380Y-84565333D01*
X185172380Y-84198666D02*
X185172380Y-84765333D01*
X185210476Y-84832000D01*
X185248571Y-84865333D01*
X185324761Y-84898666D01*
X185477142Y-84898666D01*
X185553333Y-84865333D01*
X185591428Y-84832000D01*
X185629523Y-84765333D01*
X185629523Y-84198666D01*
X186010476Y-84898666D02*
X186010476Y-84198666D01*
X186467619Y-84898666D01*
X186467619Y-84198666D01*
X151238095Y-73468666D02*
X150971428Y-73135333D01*
X150780952Y-73468666D02*
X150780952Y-72768666D01*
X151085714Y-72768666D01*
X151161904Y-72802000D01*
X151200000Y-72835333D01*
X151238095Y-72902000D01*
X151238095Y-73002000D01*
X151200000Y-73068666D01*
X151161904Y-73102000D01*
X151085714Y-73135333D01*
X150780952Y-73135333D01*
X151580952Y-73102000D02*
X151847619Y-73102000D01*
X151961904Y-73468666D02*
X151580952Y-73468666D01*
X151580952Y-72768666D01*
X151961904Y-72768666D01*
X152266666Y-73435333D02*
X152380952Y-73468666D01*
X152571428Y-73468666D01*
X152647619Y-73435333D01*
X152685714Y-73402000D01*
X152723809Y-73335333D01*
X152723809Y-73268666D01*
X152685714Y-73202000D01*
X152647619Y-73168666D01*
X152571428Y-73135333D01*
X152419047Y-73102000D01*
X152342857Y-73068666D01*
X152304761Y-73035333D01*
X152266666Y-72968666D01*
X152266666Y-72902000D01*
X152304761Y-72835333D01*
X152342857Y-72802000D01*
X152419047Y-72768666D01*
X152609523Y-72768666D01*
X152723809Y-72802000D01*
X153066666Y-73102000D02*
X153333333Y-73102000D01*
X153447619Y-73468666D02*
X153066666Y-73468666D01*
X153066666Y-72768666D01*
X153447619Y-72768666D01*
X153676190Y-72768666D02*
X154133333Y-72768666D01*
X153904761Y-73468666D02*
X153904761Y-72768666D01*
X175050571Y-82833333D02*
X175164857Y-82866666D01*
X175355333Y-82866666D01*
X175431523Y-82833333D01*
X175469619Y-82800000D01*
X175507714Y-82733333D01*
X175507714Y-82666666D01*
X175469619Y-82600000D01*
X175431523Y-82566666D01*
X175355333Y-82533333D01*
X175202952Y-82500000D01*
X175126761Y-82466666D01*
X175088666Y-82433333D01*
X175050571Y-82366666D01*
X175050571Y-82300000D01*
X175088666Y-82233333D01*
X175126761Y-82200000D01*
X175202952Y-82166666D01*
X175393428Y-82166666D01*
X175507714Y-82200000D01*
X175850571Y-82866666D02*
X175850571Y-82166666D01*
X176041047Y-82166666D01*
X176155333Y-82200000D01*
X176231523Y-82266666D01*
X176269619Y-82333333D01*
X176307714Y-82466666D01*
X176307714Y-82566666D01*
X176269619Y-82700000D01*
X176231523Y-82766666D01*
X176155333Y-82833333D01*
X176041047Y-82866666D01*
X175850571Y-82866666D01*
X176612476Y-82666666D02*
X176993428Y-82666666D01*
X176536285Y-82866666D02*
X176802952Y-82166666D01*
X177069619Y-82866666D01*
X175069619Y-80293333D02*
X175183904Y-80326666D01*
X175374380Y-80326666D01*
X175450571Y-80293333D01*
X175488666Y-80260000D01*
X175526761Y-80193333D01*
X175526761Y-80126666D01*
X175488666Y-80060000D01*
X175450571Y-80026666D01*
X175374380Y-79993333D01*
X175222000Y-79960000D01*
X175145809Y-79926666D01*
X175107714Y-79893333D01*
X175069619Y-79826666D01*
X175069619Y-79760000D01*
X175107714Y-79693333D01*
X175145809Y-79660000D01*
X175222000Y-79626666D01*
X175412476Y-79626666D01*
X175526761Y-79660000D01*
X176326761Y-80260000D02*
X176288666Y-80293333D01*
X176174380Y-80326666D01*
X176098190Y-80326666D01*
X175983904Y-80293333D01*
X175907714Y-80226666D01*
X175869619Y-80160000D01*
X175831523Y-80026666D01*
X175831523Y-79926666D01*
X175869619Y-79793333D01*
X175907714Y-79726666D01*
X175983904Y-79660000D01*
X176098190Y-79626666D01*
X176174380Y-79626666D01*
X176288666Y-79660000D01*
X176326761Y-79693333D01*
X177050571Y-80326666D02*
X176669619Y-80326666D01*
X176669619Y-79626666D01*
X175869619Y-77086666D02*
X175488666Y-77086666D01*
X175450571Y-77420000D01*
X175488666Y-77386666D01*
X175564857Y-77353333D01*
X175755333Y-77353333D01*
X175831523Y-77386666D01*
X175869619Y-77420000D01*
X175907714Y-77486666D01*
X175907714Y-77653333D01*
X175869619Y-77720000D01*
X175831523Y-77753333D01*
X175755333Y-77786666D01*
X175564857Y-77786666D01*
X175488666Y-77753333D01*
X175450571Y-77720000D01*
X176136285Y-77086666D02*
X176402952Y-77786666D01*
X176669619Y-77086666D01*
X175412476Y-74580000D02*
X175336285Y-74546666D01*
X175222000Y-74546666D01*
X175107714Y-74580000D01*
X175031523Y-74646666D01*
X174993428Y-74713333D01*
X174955333Y-74846666D01*
X174955333Y-74946666D01*
X174993428Y-75080000D01*
X175031523Y-75146666D01*
X175107714Y-75213333D01*
X175222000Y-75246666D01*
X175298190Y-75246666D01*
X175412476Y-75213333D01*
X175450571Y-75180000D01*
X175450571Y-74946666D01*
X175298190Y-74946666D01*
X175793428Y-75246666D02*
X175793428Y-74546666D01*
X176250571Y-75246666D01*
X176250571Y-74546666D01*
X176631523Y-75246666D02*
X176631523Y-74546666D01*
X176822000Y-74546666D01*
X176936285Y-74580000D01*
X177012476Y-74646666D01*
X177050571Y-74713333D01*
X177088666Y-74846666D01*
X177088666Y-74946666D01*
X177050571Y-75080000D01*
X177012476Y-75146666D01*
X176936285Y-75213333D01*
X176822000Y-75246666D01*
X176631523Y-75246666D01*
D12*
X135612285Y-75842761D02*
X135755142Y-75890380D01*
X135993238Y-75890380D01*
X136088476Y-75842761D01*
X136136095Y-75795142D01*
X136183714Y-75699904D01*
X136183714Y-75604666D01*
X136136095Y-75509428D01*
X136088476Y-75461809D01*
X135993238Y-75414190D01*
X135802761Y-75366571D01*
X135707523Y-75318952D01*
X135659904Y-75271333D01*
X135612285Y-75176095D01*
X135612285Y-75080857D01*
X135659904Y-74985619D01*
X135707523Y-74938000D01*
X135802761Y-74890380D01*
X136040857Y-74890380D01*
X136183714Y-74938000D01*
X136945619Y-75366571D02*
X137088476Y-75414190D01*
X137136095Y-75461809D01*
X137183714Y-75557047D01*
X137183714Y-75699904D01*
X137136095Y-75795142D01*
X137088476Y-75842761D01*
X136993238Y-75890380D01*
X136612285Y-75890380D01*
X136612285Y-74890380D01*
X136945619Y-74890380D01*
X137040857Y-74938000D01*
X137088476Y-74985619D01*
X137136095Y-75080857D01*
X137136095Y-75176095D01*
X137088476Y-75271333D01*
X137040857Y-75318952D01*
X136945619Y-75366571D01*
X136612285Y-75366571D01*
X134556666Y-78176380D02*
X134556666Y-77176380D01*
X134937619Y-77176380D01*
X135032857Y-77224000D01*
X135080476Y-77271619D01*
X135128095Y-77366857D01*
X135128095Y-77509714D01*
X135080476Y-77604952D01*
X135032857Y-77652571D01*
X134937619Y-77700190D01*
X134556666Y-77700190D01*
X135461428Y-77176380D02*
X135699523Y-78176380D01*
X135890000Y-77462095D01*
X136080476Y-78176380D01*
X136318571Y-77176380D01*
X137270952Y-78176380D02*
X136937619Y-77700190D01*
X136699523Y-78176380D02*
X136699523Y-77176380D01*
X137080476Y-77176380D01*
X137175714Y-77224000D01*
X137223333Y-77271619D01*
X137270952Y-77366857D01*
X137270952Y-77509714D01*
X137223333Y-77604952D01*
X137175714Y-77652571D01*
X137080476Y-77700190D01*
X136699523Y-77700190D01*
X136231333Y-80335380D02*
X135898000Y-79859190D01*
X135659904Y-80335380D02*
X135659904Y-79335380D01*
X136040857Y-79335380D01*
X136136095Y-79383000D01*
X136183714Y-79430619D01*
X136231333Y-79525857D01*
X136231333Y-79668714D01*
X136183714Y-79763952D01*
X136136095Y-79811571D01*
X136040857Y-79859190D01*
X135659904Y-79859190D01*
X136564666Y-79335380D02*
X137231333Y-80335380D01*
X137231333Y-79335380D02*
X136564666Y-80335380D01*
X135636095Y-81494380D02*
X136207523Y-81494380D01*
X135921809Y-82494380D02*
X135921809Y-81494380D01*
X136445619Y-81494380D02*
X137112285Y-82494380D01*
X137112285Y-81494380D02*
X136445619Y-82494380D01*
D13*
%TO.C,R3*%
X143705948Y-76008300D02*
X144228452Y-76008300D01*
X143705948Y-74588300D02*
X144228452Y-74588300D01*
%TO.C,D1*%
X138509500Y-83065500D02*
X141369500Y-83065500D01*
X141369500Y-83065500D02*
X141369500Y-81145500D01*
X141369500Y-81145500D02*
X138509500Y-81145500D01*
%TO.C,R1*%
X143693248Y-82815500D02*
X144215752Y-82815500D01*
X143693248Y-81395500D02*
X144215752Y-81395500D01*
%TO.C,R4*%
X143680548Y-78268900D02*
X144203052Y-78268900D01*
X143680548Y-76848900D02*
X144203052Y-76848900D01*
%TO.C,R2*%
X143680548Y-80529500D02*
X144203052Y-80529500D01*
X143680548Y-79109500D02*
X144203052Y-79109500D01*
%TO.C,J3*%
X177740000Y-83880000D02*
X180400000Y-83880000D01*
X177740000Y-76200000D02*
X177740000Y-83880000D01*
X180400000Y-76200000D02*
X180400000Y-83880000D01*
X177740000Y-76200000D02*
X180400000Y-76200000D01*
X177740000Y-74930000D02*
X177740000Y-73600000D01*
X177740000Y-73600000D02*
X179070000Y-73600000D01*
%TO.C,SW2*%
X152806400Y-78136667D02*
X151536400Y-78136667D01*
X151606400Y-76930000D02*
X151606400Y-78136667D01*
X151726400Y-76930000D02*
X151726400Y-78136667D01*
X151846400Y-76930000D02*
X151846400Y-78136667D01*
X151966400Y-76930000D02*
X151966400Y-78136667D01*
X152086400Y-76930000D02*
X152086400Y-78136667D01*
X152206400Y-76930000D02*
X152206400Y-78136667D01*
X152326400Y-76930000D02*
X152326400Y-78136667D01*
X152446400Y-76930000D02*
X152446400Y-78136667D01*
X152566400Y-76930000D02*
X152566400Y-78136667D01*
X152686400Y-76930000D02*
X152686400Y-78136667D01*
X152806400Y-80550000D02*
X152806400Y-76930000D01*
X151536400Y-80550000D02*
X152806400Y-80550000D01*
X151536400Y-76930000D02*
X151536400Y-80550000D01*
X152806400Y-76930000D02*
X151536400Y-76930000D01*
X154521400Y-75090000D02*
X153138400Y-75090000D01*
X154521400Y-75090000D02*
X154521400Y-76473000D01*
X151371400Y-82150000D02*
X150061400Y-82150000D01*
X154281400Y-82150000D02*
X152971400Y-82150000D01*
X151371400Y-75330000D02*
X150061400Y-75330000D01*
X154281400Y-75330000D02*
X152971400Y-75330000D01*
X150061400Y-75330000D02*
X150061400Y-82150000D01*
X154281400Y-75330000D02*
X154281400Y-82150000D01*
%TO.C,SW1*%
X183680100Y-83337400D02*
X183680100Y-74320400D01*
X183680100Y-74320400D02*
X187286900Y-74320400D01*
X187286900Y-74320400D02*
X187286900Y-83337400D01*
X187286900Y-83337400D02*
X183680100Y-83337400D01*
%TO.C,D4*%
X141356800Y-76598900D02*
X138496800Y-76598900D01*
X141356800Y-78518900D02*
X141356800Y-76598900D01*
X138496800Y-78518900D02*
X141356800Y-78518900D01*
%TO.C,C10*%
X149046000Y-81338052D02*
X149046000Y-80815548D01*
X147626000Y-81338052D02*
X147626000Y-80815548D01*
D12*
%TO.C,U1*%
X164165000Y-84573000D02*
X164165000Y-83998000D01*
X158415000Y-84573000D02*
X158415000Y-83923000D01*
X158415000Y-73923000D02*
X158415000Y-74573000D01*
X164165000Y-73923000D02*
X164165000Y-74573000D01*
X164165000Y-84573000D02*
X158415000Y-84573000D01*
X164165000Y-73923000D02*
X158415000Y-73923000D01*
X164165000Y-83998000D02*
X165765000Y-83998000D01*
D13*
%TO.C,D3*%
X138522200Y-76271000D02*
X141382200Y-76271000D01*
X141382200Y-76271000D02*
X141382200Y-74351000D01*
X141382200Y-74351000D02*
X138522200Y-74351000D01*
%TO.C,D2*%
X138496800Y-80779500D02*
X141356800Y-80779500D01*
X141356800Y-80779500D02*
X141356800Y-78859500D01*
X141356800Y-78859500D02*
X138496800Y-78859500D01*
%TO.C,C9*%
X170299748Y-77522000D02*
X170822252Y-77522000D01*
X170299748Y-78942000D02*
X170822252Y-78942000D01*
%TO.C,C7*%
X170299748Y-82602000D02*
X170822252Y-82602000D01*
X170299748Y-84022000D02*
X170822252Y-84022000D01*
%TO.C,C6*%
X170299748Y-74982000D02*
X170822252Y-74982000D01*
X170299748Y-76402000D02*
X170822252Y-76402000D01*
%TO.C,C4*%
X170299748Y-80062000D02*
X170822252Y-80062000D01*
X170299748Y-81482000D02*
X170822252Y-81482000D01*
%TO.C,C10*%
D12*
X147693142Y-84177142D02*
X147645523Y-84224761D01*
X147502666Y-84272380D01*
X147407428Y-84272380D01*
X147264571Y-84224761D01*
X147169333Y-84129523D01*
X147121714Y-84034285D01*
X147074095Y-83843809D01*
X147074095Y-83700952D01*
X147121714Y-83510476D01*
X147169333Y-83415238D01*
X147264571Y-83320000D01*
X147407428Y-83272380D01*
X147502666Y-83272380D01*
X147645523Y-83320000D01*
X147693142Y-83367619D01*
X148645523Y-84272380D02*
X148074095Y-84272380D01*
X148359809Y-84272380D02*
X148359809Y-83272380D01*
X148264571Y-83415238D01*
X148169333Y-83510476D01*
X148074095Y-83558095D01*
X149264571Y-83272380D02*
X149359809Y-83272380D01*
X149455047Y-83320000D01*
X149502666Y-83367619D01*
X149550285Y-83462857D01*
X149597904Y-83653333D01*
X149597904Y-83891428D01*
X149550285Y-84081904D01*
X149502666Y-84177142D01*
X149455047Y-84224761D01*
X149359809Y-84272380D01*
X149264571Y-84272380D01*
X149169333Y-84224761D01*
X149121714Y-84177142D01*
X149074095Y-84081904D01*
X149026476Y-83891428D01*
X149026476Y-83653333D01*
X149074095Y-83462857D01*
X149121714Y-83367619D01*
X149169333Y-83320000D01*
X149264571Y-83272380D01*
%TO.C,U1*%
X160528095Y-72477380D02*
X160528095Y-73286904D01*
X160575714Y-73382142D01*
X160623333Y-73429761D01*
X160718571Y-73477380D01*
X160909047Y-73477380D01*
X161004285Y-73429761D01*
X161051904Y-73382142D01*
X161099523Y-73286904D01*
X161099523Y-72477380D01*
X162099523Y-73477380D02*
X161528095Y-73477380D01*
X161813809Y-73477380D02*
X161813809Y-72477380D01*
X161718571Y-72620238D01*
X161623333Y-72715476D01*
X161528095Y-72763095D01*
%TO.C,C9*%
X167473333Y-78716142D02*
X167425714Y-78763761D01*
X167282857Y-78811380D01*
X167187619Y-78811380D01*
X167044761Y-78763761D01*
X166949523Y-78668523D01*
X166901904Y-78573285D01*
X166854285Y-78382809D01*
X166854285Y-78239952D01*
X166901904Y-78049476D01*
X166949523Y-77954238D01*
X167044761Y-77859000D01*
X167187619Y-77811380D01*
X167282857Y-77811380D01*
X167425714Y-77859000D01*
X167473333Y-77906619D01*
X167949523Y-78811380D02*
X168140000Y-78811380D01*
X168235238Y-78763761D01*
X168282857Y-78716142D01*
X168378095Y-78573285D01*
X168425714Y-78382809D01*
X168425714Y-78001857D01*
X168378095Y-77906619D01*
X168330476Y-77859000D01*
X168235238Y-77811380D01*
X168044761Y-77811380D01*
X167949523Y-77859000D01*
X167901904Y-77906619D01*
X167854285Y-78001857D01*
X167854285Y-78239952D01*
X167901904Y-78335190D01*
X167949523Y-78382809D01*
X168044761Y-78430428D01*
X168235238Y-78430428D01*
X168330476Y-78382809D01*
X168378095Y-78335190D01*
X168425714Y-78239952D01*
%TO.C,C7*%
X170267333Y-85447142D02*
X170219714Y-85494761D01*
X170076857Y-85542380D01*
X169981619Y-85542380D01*
X169838761Y-85494761D01*
X169743523Y-85399523D01*
X169695904Y-85304285D01*
X169648285Y-85113809D01*
X169648285Y-84970952D01*
X169695904Y-84780476D01*
X169743523Y-84685238D01*
X169838761Y-84590000D01*
X169981619Y-84542380D01*
X170076857Y-84542380D01*
X170219714Y-84590000D01*
X170267333Y-84637619D01*
X170600666Y-84542380D02*
X171267333Y-84542380D01*
X170838761Y-85542380D01*
%TO.C,C6*%
X170013333Y-74398142D02*
X169965714Y-74445761D01*
X169822857Y-74493380D01*
X169727619Y-74493380D01*
X169584761Y-74445761D01*
X169489523Y-74350523D01*
X169441904Y-74255285D01*
X169394285Y-74064809D01*
X169394285Y-73921952D01*
X169441904Y-73731476D01*
X169489523Y-73636238D01*
X169584761Y-73541000D01*
X169727619Y-73493380D01*
X169822857Y-73493380D01*
X169965714Y-73541000D01*
X170013333Y-73588619D01*
X170870476Y-73493380D02*
X170680000Y-73493380D01*
X170584761Y-73541000D01*
X170537142Y-73588619D01*
X170441904Y-73731476D01*
X170394285Y-73921952D01*
X170394285Y-74302904D01*
X170441904Y-74398142D01*
X170489523Y-74445761D01*
X170584761Y-74493380D01*
X170775238Y-74493380D01*
X170870476Y-74445761D01*
X170918095Y-74398142D01*
X170965714Y-74302904D01*
X170965714Y-74064809D01*
X170918095Y-73969571D01*
X170870476Y-73921952D01*
X170775238Y-73874333D01*
X170584761Y-73874333D01*
X170489523Y-73921952D01*
X170441904Y-73969571D01*
X170394285Y-74064809D01*
%TO.C,C4*%
X167473333Y-81129142D02*
X167425714Y-81176761D01*
X167282857Y-81224380D01*
X167187619Y-81224380D01*
X167044761Y-81176761D01*
X166949523Y-81081523D01*
X166901904Y-80986285D01*
X166854285Y-80795809D01*
X166854285Y-80652952D01*
X166901904Y-80462476D01*
X166949523Y-80367238D01*
X167044761Y-80272000D01*
X167187619Y-80224380D01*
X167282857Y-80224380D01*
X167425714Y-80272000D01*
X167473333Y-80319619D01*
X168330476Y-80557714D02*
X168330476Y-81224380D01*
X168092380Y-80176761D02*
X167854285Y-80891047D01*
X168473333Y-80891047D01*
%TD*%
M02*
