%TF.GenerationSoftware,KiCad,Pcbnew,(5.1.6-0-10_14)*%
%TF.CreationDate,2020-09-27T13:09:56+01:00*%
%TF.ProjectId,OLED_USB_Stick,4f4c4544-5f55-4534-925f-537469636b2e,rev?*%
%TF.SameCoordinates,Original*%
%TF.FileFunction,Soldermask,Bot*%
%TF.FilePolarity,Negative*%
%FSLAX46Y46*%
G04 Gerber Fmt 4.6, Leading zero omitted, Abs format (unit mm)*
G04 Created by KiCad (PCBNEW (5.1.6-0-10_14)) date 2020-09-27 13:09:56*
%MOMM*%
%LPD*%
G01*
G04 APERTURE LIST*
%ADD10O,1.800000X1.800000*%
%ADD11R,1.800000X1.800000*%
%ADD12C,1.100000*%
%ADD13R,1.320000X0.750000*%
G04 APERTURE END LIST*
%TO.C,R7*%
G36*
G01*
X174722262Y-75165000D02*
X173765738Y-75165000D01*
G75*
G02*
X173494000Y-74893262I0J271738D01*
G01*
X173494000Y-74186738D01*
G75*
G02*
X173765738Y-73915000I271738J0D01*
G01*
X174722262Y-73915000D01*
G75*
G02*
X174994000Y-74186738I0J-271738D01*
G01*
X174994000Y-74893262D01*
G75*
G02*
X174722262Y-75165000I-271738J0D01*
G01*
G37*
G36*
G01*
X174722262Y-77215000D02*
X173765738Y-77215000D01*
G75*
G02*
X173494000Y-76943262I0J271738D01*
G01*
X173494000Y-76236738D01*
G75*
G02*
X173765738Y-75965000I271738J0D01*
G01*
X174722262Y-75965000D01*
G75*
G02*
X174994000Y-76236738I0J-271738D01*
G01*
X174994000Y-76943262D01*
G75*
G02*
X174722262Y-77215000I-271738J0D01*
G01*
G37*
%TD*%
%TO.C,R6*%
G36*
G01*
X176754262Y-75165000D02*
X175797738Y-75165000D01*
G75*
G02*
X175526000Y-74893262I0J271738D01*
G01*
X175526000Y-74186738D01*
G75*
G02*
X175797738Y-73915000I271738J0D01*
G01*
X176754262Y-73915000D01*
G75*
G02*
X177026000Y-74186738I0J-271738D01*
G01*
X177026000Y-74893262D01*
G75*
G02*
X176754262Y-75165000I-271738J0D01*
G01*
G37*
G36*
G01*
X176754262Y-77215000D02*
X175797738Y-77215000D01*
G75*
G02*
X175526000Y-76943262I0J271738D01*
G01*
X175526000Y-76236738D01*
G75*
G02*
X175797738Y-75965000I271738J0D01*
G01*
X176754262Y-75965000D01*
G75*
G02*
X177026000Y-76236738I0J-271738D01*
G01*
X177026000Y-76943262D01*
G75*
G02*
X176754262Y-77215000I-271738J0D01*
G01*
G37*
%TD*%
%TO.C,C3*%
G36*
G01*
X154324000Y-83409262D02*
X154324000Y-82452738D01*
G75*
G02*
X154595738Y-82181000I271738J0D01*
G01*
X155302262Y-82181000D01*
G75*
G02*
X155574000Y-82452738I0J-271738D01*
G01*
X155574000Y-83409262D01*
G75*
G02*
X155302262Y-83681000I-271738J0D01*
G01*
X154595738Y-83681000D01*
G75*
G02*
X154324000Y-83409262I0J271738D01*
G01*
G37*
G36*
G01*
X152274000Y-83409262D02*
X152274000Y-82452738D01*
G75*
G02*
X152545738Y-82181000I271738J0D01*
G01*
X153252262Y-82181000D01*
G75*
G02*
X153524000Y-82452738I0J-271738D01*
G01*
X153524000Y-83409262D01*
G75*
G02*
X153252262Y-83681000I-271738J0D01*
G01*
X152545738Y-83681000D01*
G75*
G02*
X152274000Y-83409262I0J271738D01*
G01*
G37*
%TD*%
%TO.C,C1*%
G36*
G01*
X141078000Y-82452738D02*
X141078000Y-83409262D01*
G75*
G02*
X140806262Y-83681000I-271738J0D01*
G01*
X140099738Y-83681000D01*
G75*
G02*
X139828000Y-83409262I0J271738D01*
G01*
X139828000Y-82452738D01*
G75*
G02*
X140099738Y-82181000I271738J0D01*
G01*
X140806262Y-82181000D01*
G75*
G02*
X141078000Y-82452738I0J-271738D01*
G01*
G37*
G36*
G01*
X143128000Y-82452738D02*
X143128000Y-83409262D01*
G75*
G02*
X142856262Y-83681000I-271738J0D01*
G01*
X142149738Y-83681000D01*
G75*
G02*
X141878000Y-83409262I0J271738D01*
G01*
X141878000Y-82452738D01*
G75*
G02*
X142149738Y-82181000I271738J0D01*
G01*
X142856262Y-82181000D01*
G75*
G02*
X143128000Y-82452738I0J-271738D01*
G01*
G37*
%TD*%
%TO.C,C2*%
G36*
G01*
X150006000Y-83409262D02*
X150006000Y-82452738D01*
G75*
G02*
X150277738Y-82181000I271738J0D01*
G01*
X150984262Y-82181000D01*
G75*
G02*
X151256000Y-82452738I0J-271738D01*
G01*
X151256000Y-83409262D01*
G75*
G02*
X150984262Y-83681000I-271738J0D01*
G01*
X150277738Y-83681000D01*
G75*
G02*
X150006000Y-83409262I0J271738D01*
G01*
G37*
G36*
G01*
X147956000Y-83409262D02*
X147956000Y-82452738D01*
G75*
G02*
X148227738Y-82181000I271738J0D01*
G01*
X148934262Y-82181000D01*
G75*
G02*
X149206000Y-82452738I0J-271738D01*
G01*
X149206000Y-83409262D01*
G75*
G02*
X148934262Y-83681000I-271738J0D01*
G01*
X148227738Y-83681000D01*
G75*
G02*
X147956000Y-83409262I0J271738D01*
G01*
G37*
%TD*%
%TO.C,FB1*%
G36*
G01*
X145942000Y-83409262D02*
X145942000Y-82452738D01*
G75*
G02*
X146213738Y-82181000I271738J0D01*
G01*
X146920262Y-82181000D01*
G75*
G02*
X147192000Y-82452738I0J-271738D01*
G01*
X147192000Y-83409262D01*
G75*
G02*
X146920262Y-83681000I-271738J0D01*
G01*
X146213738Y-83681000D01*
G75*
G02*
X145942000Y-83409262I0J271738D01*
G01*
G37*
G36*
G01*
X143892000Y-83409262D02*
X143892000Y-82452738D01*
G75*
G02*
X144163738Y-82181000I271738J0D01*
G01*
X144870262Y-82181000D01*
G75*
G02*
X145142000Y-82452738I0J-271738D01*
G01*
X145142000Y-83409262D01*
G75*
G02*
X144870262Y-83681000I-271738J0D01*
G01*
X144163738Y-83681000D01*
G75*
G02*
X143892000Y-83409262I0J271738D01*
G01*
G37*
%TD*%
D10*
%TO.C,J3*%
X179070000Y-82550000D03*
X179070000Y-80010000D03*
X179070000Y-77470000D03*
D11*
X179070000Y-74930000D03*
%TD*%
D12*
%TO.C,SW1*%
X185521600Y-75412600D03*
X185521600Y-82270600D03*
%TD*%
%TO.C,R5*%
G36*
G01*
X174606000Y-83595738D02*
X174606000Y-84552262D01*
G75*
G02*
X174334262Y-84824000I-271738J0D01*
G01*
X173627738Y-84824000D01*
G75*
G02*
X173356000Y-84552262I0J271738D01*
G01*
X173356000Y-83595738D01*
G75*
G02*
X173627738Y-83324000I271738J0D01*
G01*
X174334262Y-83324000D01*
G75*
G02*
X174606000Y-83595738I0J-271738D01*
G01*
G37*
G36*
G01*
X176656000Y-83595738D02*
X176656000Y-84552262D01*
G75*
G02*
X176384262Y-84824000I-271738J0D01*
G01*
X175677738Y-84824000D01*
G75*
G02*
X175406000Y-84552262I0J271738D01*
G01*
X175406000Y-83595738D01*
G75*
G02*
X175677738Y-83324000I271738J0D01*
G01*
X176384262Y-83324000D01*
G75*
G02*
X176656000Y-83595738I0J-271738D01*
G01*
G37*
%TD*%
%TO.C,U3*%
G36*
G01*
X158190000Y-83565000D02*
X158190000Y-82265000D01*
G75*
G02*
X158340000Y-82115000I150000J0D01*
G01*
X158640000Y-82115000D01*
G75*
G02*
X158790000Y-82265000I0J-150000D01*
G01*
X158790000Y-83565000D01*
G75*
G02*
X158640000Y-83715000I-150000J0D01*
G01*
X158340000Y-83715000D01*
G75*
G02*
X158190000Y-83565000I0J150000D01*
G01*
G37*
G36*
G01*
X158990000Y-83565000D02*
X158990000Y-82265000D01*
G75*
G02*
X159140000Y-82115000I150000J0D01*
G01*
X159440000Y-82115000D01*
G75*
G02*
X159590000Y-82265000I0J-150000D01*
G01*
X159590000Y-83565000D01*
G75*
G02*
X159440000Y-83715000I-150000J0D01*
G01*
X159140000Y-83715000D01*
G75*
G02*
X158990000Y-83565000I0J150000D01*
G01*
G37*
G36*
G01*
X159790000Y-83565000D02*
X159790000Y-82265000D01*
G75*
G02*
X159940000Y-82115000I150000J0D01*
G01*
X160240000Y-82115000D01*
G75*
G02*
X160390000Y-82265000I0J-150000D01*
G01*
X160390000Y-83565000D01*
G75*
G02*
X160240000Y-83715000I-150000J0D01*
G01*
X159940000Y-83715000D01*
G75*
G02*
X159790000Y-83565000I0J150000D01*
G01*
G37*
G36*
G01*
X160590000Y-83565000D02*
X160590000Y-82265000D01*
G75*
G02*
X160740000Y-82115000I150000J0D01*
G01*
X161040000Y-82115000D01*
G75*
G02*
X161190000Y-82265000I0J-150000D01*
G01*
X161190000Y-83565000D01*
G75*
G02*
X161040000Y-83715000I-150000J0D01*
G01*
X160740000Y-83715000D01*
G75*
G02*
X160590000Y-83565000I0J150000D01*
G01*
G37*
G36*
G01*
X161390000Y-83565000D02*
X161390000Y-82265000D01*
G75*
G02*
X161540000Y-82115000I150000J0D01*
G01*
X161840000Y-82115000D01*
G75*
G02*
X161990000Y-82265000I0J-150000D01*
G01*
X161990000Y-83565000D01*
G75*
G02*
X161840000Y-83715000I-150000J0D01*
G01*
X161540000Y-83715000D01*
G75*
G02*
X161390000Y-83565000I0J150000D01*
G01*
G37*
G36*
G01*
X162190000Y-83565000D02*
X162190000Y-82265000D01*
G75*
G02*
X162340000Y-82115000I150000J0D01*
G01*
X162640000Y-82115000D01*
G75*
G02*
X162790000Y-82265000I0J-150000D01*
G01*
X162790000Y-83565000D01*
G75*
G02*
X162640000Y-83715000I-150000J0D01*
G01*
X162340000Y-83715000D01*
G75*
G02*
X162190000Y-83565000I0J150000D01*
G01*
G37*
G36*
G01*
X162990000Y-83565000D02*
X162990000Y-82265000D01*
G75*
G02*
X163140000Y-82115000I150000J0D01*
G01*
X163440000Y-82115000D01*
G75*
G02*
X163590000Y-82265000I0J-150000D01*
G01*
X163590000Y-83565000D01*
G75*
G02*
X163440000Y-83715000I-150000J0D01*
G01*
X163140000Y-83715000D01*
G75*
G02*
X162990000Y-83565000I0J150000D01*
G01*
G37*
G36*
G01*
X163790000Y-83565000D02*
X163790000Y-82265000D01*
G75*
G02*
X163940000Y-82115000I150000J0D01*
G01*
X164240000Y-82115000D01*
G75*
G02*
X164390000Y-82265000I0J-150000D01*
G01*
X164390000Y-83565000D01*
G75*
G02*
X164240000Y-83715000I-150000J0D01*
G01*
X163940000Y-83715000D01*
G75*
G02*
X163790000Y-83565000I0J150000D01*
G01*
G37*
G36*
G01*
X164665000Y-81690000D02*
X164665000Y-81390000D01*
G75*
G02*
X164815000Y-81240000I150000J0D01*
G01*
X166115000Y-81240000D01*
G75*
G02*
X166265000Y-81390000I0J-150000D01*
G01*
X166265000Y-81690000D01*
G75*
G02*
X166115000Y-81840000I-150000J0D01*
G01*
X164815000Y-81840000D01*
G75*
G02*
X164665000Y-81690000I0J150000D01*
G01*
G37*
G36*
G01*
X164665000Y-80890000D02*
X164665000Y-80590000D01*
G75*
G02*
X164815000Y-80440000I150000J0D01*
G01*
X166115000Y-80440000D01*
G75*
G02*
X166265000Y-80590000I0J-150000D01*
G01*
X166265000Y-80890000D01*
G75*
G02*
X166115000Y-81040000I-150000J0D01*
G01*
X164815000Y-81040000D01*
G75*
G02*
X164665000Y-80890000I0J150000D01*
G01*
G37*
G36*
G01*
X164665000Y-80090000D02*
X164665000Y-79790000D01*
G75*
G02*
X164815000Y-79640000I150000J0D01*
G01*
X166115000Y-79640000D01*
G75*
G02*
X166265000Y-79790000I0J-150000D01*
G01*
X166265000Y-80090000D01*
G75*
G02*
X166115000Y-80240000I-150000J0D01*
G01*
X164815000Y-80240000D01*
G75*
G02*
X164665000Y-80090000I0J150000D01*
G01*
G37*
G36*
G01*
X164665000Y-79290000D02*
X164665000Y-78990000D01*
G75*
G02*
X164815000Y-78840000I150000J0D01*
G01*
X166115000Y-78840000D01*
G75*
G02*
X166265000Y-78990000I0J-150000D01*
G01*
X166265000Y-79290000D01*
G75*
G02*
X166115000Y-79440000I-150000J0D01*
G01*
X164815000Y-79440000D01*
G75*
G02*
X164665000Y-79290000I0J150000D01*
G01*
G37*
G36*
G01*
X164665000Y-78490000D02*
X164665000Y-78190000D01*
G75*
G02*
X164815000Y-78040000I150000J0D01*
G01*
X166115000Y-78040000D01*
G75*
G02*
X166265000Y-78190000I0J-150000D01*
G01*
X166265000Y-78490000D01*
G75*
G02*
X166115000Y-78640000I-150000J0D01*
G01*
X164815000Y-78640000D01*
G75*
G02*
X164665000Y-78490000I0J150000D01*
G01*
G37*
G36*
G01*
X164665000Y-77690000D02*
X164665000Y-77390000D01*
G75*
G02*
X164815000Y-77240000I150000J0D01*
G01*
X166115000Y-77240000D01*
G75*
G02*
X166265000Y-77390000I0J-150000D01*
G01*
X166265000Y-77690000D01*
G75*
G02*
X166115000Y-77840000I-150000J0D01*
G01*
X164815000Y-77840000D01*
G75*
G02*
X164665000Y-77690000I0J150000D01*
G01*
G37*
G36*
G01*
X164665000Y-76890000D02*
X164665000Y-76590000D01*
G75*
G02*
X164815000Y-76440000I150000J0D01*
G01*
X166115000Y-76440000D01*
G75*
G02*
X166265000Y-76590000I0J-150000D01*
G01*
X166265000Y-76890000D01*
G75*
G02*
X166115000Y-77040000I-150000J0D01*
G01*
X164815000Y-77040000D01*
G75*
G02*
X164665000Y-76890000I0J150000D01*
G01*
G37*
G36*
G01*
X164665000Y-76090000D02*
X164665000Y-75790000D01*
G75*
G02*
X164815000Y-75640000I150000J0D01*
G01*
X166115000Y-75640000D01*
G75*
G02*
X166265000Y-75790000I0J-150000D01*
G01*
X166265000Y-76090000D01*
G75*
G02*
X166115000Y-76240000I-150000J0D01*
G01*
X164815000Y-76240000D01*
G75*
G02*
X164665000Y-76090000I0J150000D01*
G01*
G37*
G36*
G01*
X163790000Y-75215000D02*
X163790000Y-73915000D01*
G75*
G02*
X163940000Y-73765000I150000J0D01*
G01*
X164240000Y-73765000D01*
G75*
G02*
X164390000Y-73915000I0J-150000D01*
G01*
X164390000Y-75215000D01*
G75*
G02*
X164240000Y-75365000I-150000J0D01*
G01*
X163940000Y-75365000D01*
G75*
G02*
X163790000Y-75215000I0J150000D01*
G01*
G37*
G36*
G01*
X162990000Y-75215000D02*
X162990000Y-73915000D01*
G75*
G02*
X163140000Y-73765000I150000J0D01*
G01*
X163440000Y-73765000D01*
G75*
G02*
X163590000Y-73915000I0J-150000D01*
G01*
X163590000Y-75215000D01*
G75*
G02*
X163440000Y-75365000I-150000J0D01*
G01*
X163140000Y-75365000D01*
G75*
G02*
X162990000Y-75215000I0J150000D01*
G01*
G37*
G36*
G01*
X162190000Y-75215000D02*
X162190000Y-73915000D01*
G75*
G02*
X162340000Y-73765000I150000J0D01*
G01*
X162640000Y-73765000D01*
G75*
G02*
X162790000Y-73915000I0J-150000D01*
G01*
X162790000Y-75215000D01*
G75*
G02*
X162640000Y-75365000I-150000J0D01*
G01*
X162340000Y-75365000D01*
G75*
G02*
X162190000Y-75215000I0J150000D01*
G01*
G37*
G36*
G01*
X161390000Y-75215000D02*
X161390000Y-73915000D01*
G75*
G02*
X161540000Y-73765000I150000J0D01*
G01*
X161840000Y-73765000D01*
G75*
G02*
X161990000Y-73915000I0J-150000D01*
G01*
X161990000Y-75215000D01*
G75*
G02*
X161840000Y-75365000I-150000J0D01*
G01*
X161540000Y-75365000D01*
G75*
G02*
X161390000Y-75215000I0J150000D01*
G01*
G37*
G36*
G01*
X160590000Y-75215000D02*
X160590000Y-73915000D01*
G75*
G02*
X160740000Y-73765000I150000J0D01*
G01*
X161040000Y-73765000D01*
G75*
G02*
X161190000Y-73915000I0J-150000D01*
G01*
X161190000Y-75215000D01*
G75*
G02*
X161040000Y-75365000I-150000J0D01*
G01*
X160740000Y-75365000D01*
G75*
G02*
X160590000Y-75215000I0J150000D01*
G01*
G37*
G36*
G01*
X159790000Y-75215000D02*
X159790000Y-73915000D01*
G75*
G02*
X159940000Y-73765000I150000J0D01*
G01*
X160240000Y-73765000D01*
G75*
G02*
X160390000Y-73915000I0J-150000D01*
G01*
X160390000Y-75215000D01*
G75*
G02*
X160240000Y-75365000I-150000J0D01*
G01*
X159940000Y-75365000D01*
G75*
G02*
X159790000Y-75215000I0J150000D01*
G01*
G37*
G36*
G01*
X158990000Y-75215000D02*
X158990000Y-73915000D01*
G75*
G02*
X159140000Y-73765000I150000J0D01*
G01*
X159440000Y-73765000D01*
G75*
G02*
X159590000Y-73915000I0J-150000D01*
G01*
X159590000Y-75215000D01*
G75*
G02*
X159440000Y-75365000I-150000J0D01*
G01*
X159140000Y-75365000D01*
G75*
G02*
X158990000Y-75215000I0J150000D01*
G01*
G37*
G36*
G01*
X158190000Y-75215000D02*
X158190000Y-73915000D01*
G75*
G02*
X158340000Y-73765000I150000J0D01*
G01*
X158640000Y-73765000D01*
G75*
G02*
X158790000Y-73915000I0J-150000D01*
G01*
X158790000Y-75215000D01*
G75*
G02*
X158640000Y-75365000I-150000J0D01*
G01*
X158340000Y-75365000D01*
G75*
G02*
X158190000Y-75215000I0J150000D01*
G01*
G37*
G36*
G01*
X156315000Y-76090000D02*
X156315000Y-75790000D01*
G75*
G02*
X156465000Y-75640000I150000J0D01*
G01*
X157765000Y-75640000D01*
G75*
G02*
X157915000Y-75790000I0J-150000D01*
G01*
X157915000Y-76090000D01*
G75*
G02*
X157765000Y-76240000I-150000J0D01*
G01*
X156465000Y-76240000D01*
G75*
G02*
X156315000Y-76090000I0J150000D01*
G01*
G37*
G36*
G01*
X156315000Y-76890000D02*
X156315000Y-76590000D01*
G75*
G02*
X156465000Y-76440000I150000J0D01*
G01*
X157765000Y-76440000D01*
G75*
G02*
X157915000Y-76590000I0J-150000D01*
G01*
X157915000Y-76890000D01*
G75*
G02*
X157765000Y-77040000I-150000J0D01*
G01*
X156465000Y-77040000D01*
G75*
G02*
X156315000Y-76890000I0J150000D01*
G01*
G37*
G36*
G01*
X156315000Y-77690000D02*
X156315000Y-77390000D01*
G75*
G02*
X156465000Y-77240000I150000J0D01*
G01*
X157765000Y-77240000D01*
G75*
G02*
X157915000Y-77390000I0J-150000D01*
G01*
X157915000Y-77690000D01*
G75*
G02*
X157765000Y-77840000I-150000J0D01*
G01*
X156465000Y-77840000D01*
G75*
G02*
X156315000Y-77690000I0J150000D01*
G01*
G37*
G36*
G01*
X156315000Y-78490000D02*
X156315000Y-78190000D01*
G75*
G02*
X156465000Y-78040000I150000J0D01*
G01*
X157765000Y-78040000D01*
G75*
G02*
X157915000Y-78190000I0J-150000D01*
G01*
X157915000Y-78490000D01*
G75*
G02*
X157765000Y-78640000I-150000J0D01*
G01*
X156465000Y-78640000D01*
G75*
G02*
X156315000Y-78490000I0J150000D01*
G01*
G37*
G36*
G01*
X156315000Y-79290000D02*
X156315000Y-78990000D01*
G75*
G02*
X156465000Y-78840000I150000J0D01*
G01*
X157765000Y-78840000D01*
G75*
G02*
X157915000Y-78990000I0J-150000D01*
G01*
X157915000Y-79290000D01*
G75*
G02*
X157765000Y-79440000I-150000J0D01*
G01*
X156465000Y-79440000D01*
G75*
G02*
X156315000Y-79290000I0J150000D01*
G01*
G37*
G36*
G01*
X156315000Y-80090000D02*
X156315000Y-79790000D01*
G75*
G02*
X156465000Y-79640000I150000J0D01*
G01*
X157765000Y-79640000D01*
G75*
G02*
X157915000Y-79790000I0J-150000D01*
G01*
X157915000Y-80090000D01*
G75*
G02*
X157765000Y-80240000I-150000J0D01*
G01*
X156465000Y-80240000D01*
G75*
G02*
X156315000Y-80090000I0J150000D01*
G01*
G37*
G36*
G01*
X156315000Y-80890000D02*
X156315000Y-80590000D01*
G75*
G02*
X156465000Y-80440000I150000J0D01*
G01*
X157765000Y-80440000D01*
G75*
G02*
X157915000Y-80590000I0J-150000D01*
G01*
X157915000Y-80890000D01*
G75*
G02*
X157765000Y-81040000I-150000J0D01*
G01*
X156465000Y-81040000D01*
G75*
G02*
X156315000Y-80890000I0J150000D01*
G01*
G37*
G36*
G01*
X156315000Y-81690000D02*
X156315000Y-81390000D01*
G75*
G02*
X156465000Y-81240000I150000J0D01*
G01*
X157765000Y-81240000D01*
G75*
G02*
X157915000Y-81390000I0J-150000D01*
G01*
X157915000Y-81690000D01*
G75*
G02*
X157765000Y-81840000I-150000J0D01*
G01*
X156465000Y-81840000D01*
G75*
G02*
X156315000Y-81690000I0J150000D01*
G01*
G37*
%TD*%
D13*
%TO.C,U2*%
X170013000Y-79121000D03*
X172633000Y-80071000D03*
X172633000Y-78171000D03*
%TD*%
%TO.C,C8*%
G36*
G01*
X170785262Y-74530000D02*
X169828738Y-74530000D01*
G75*
G02*
X169557000Y-74258262I0J271738D01*
G01*
X169557000Y-73551738D01*
G75*
G02*
X169828738Y-73280000I271738J0D01*
G01*
X170785262Y-73280000D01*
G75*
G02*
X171057000Y-73551738I0J-271738D01*
G01*
X171057000Y-74258262D01*
G75*
G02*
X170785262Y-74530000I-271738J0D01*
G01*
G37*
G36*
G01*
X170785262Y-76580000D02*
X169828738Y-76580000D01*
G75*
G02*
X169557000Y-76308262I0J271738D01*
G01*
X169557000Y-75601738D01*
G75*
G02*
X169828738Y-75330000I271738J0D01*
G01*
X170785262Y-75330000D01*
G75*
G02*
X171057000Y-75601738I0J-271738D01*
G01*
X171057000Y-76308262D01*
G75*
G02*
X170785262Y-76580000I-271738J0D01*
G01*
G37*
%TD*%
%TO.C,C5*%
G36*
G01*
X170785262Y-82594500D02*
X169828738Y-82594500D01*
G75*
G02*
X169557000Y-82322762I0J271738D01*
G01*
X169557000Y-81616238D01*
G75*
G02*
X169828738Y-81344500I271738J0D01*
G01*
X170785262Y-81344500D01*
G75*
G02*
X171057000Y-81616238I0J-271738D01*
G01*
X171057000Y-82322762D01*
G75*
G02*
X170785262Y-82594500I-271738J0D01*
G01*
G37*
G36*
G01*
X170785262Y-84644500D02*
X169828738Y-84644500D01*
G75*
G02*
X169557000Y-84372762I0J271738D01*
G01*
X169557000Y-83666238D01*
G75*
G02*
X169828738Y-83394500I271738J0D01*
G01*
X170785262Y-83394500D01*
G75*
G02*
X171057000Y-83666238I0J-271738D01*
G01*
X171057000Y-84372762D01*
G75*
G02*
X170785262Y-84644500I-271738J0D01*
G01*
G37*
%TD*%
M02*
