M48
; DRILL file {KiCad 5.1.6-c6e7f7d~87~ubuntu18.04.1} date Sun Sep 27 19:16:20 2020
; FORMAT={-:-/ absolute / inch / decimal}
; #@! TF.CreationDate,2020-09-27T19:16:20+01:00
; #@! TF.GenerationSoftware,Kicad,Pcbnew,5.1.6-c6e7f7d~87~ubuntu18.04.1
; #@! TF.FileFunction,Plated,1,2,PTH
FMAT,2
INCH
T1C0.0079
T2C0.0394
%
G90
G05
T1
X5.2875Y-2.9625
X5.315Y-3.14
X5.315Y-3.1075
X5.32Y-3.17
X5.32Y-3.2
X5.765Y-2.875
X5.775Y-3.005
X6.04Y-3.125
X6.04Y-3.175
X6.12Y-2.9537
X6.12Y-2.98
X6.12Y-3.02
X6.16Y-2.91
X6.2713Y-3.31
X6.3025Y-2.89
X6.3028Y-3.31
X6.3343Y-3.3093
X6.425Y-3.165
X6.5687Y-3.2863
X6.6125Y-2.99
X6.65Y-3.23
X6.755Y-2.9125
X6.8725Y-3.195
X6.9525Y-3.0425
X6.9525Y-3.195
X7.16Y-3.32
T2
X7.05Y-2.95
X7.05Y-3.05
X7.05Y-3.15
X7.05Y-3.25
T0
M30
