%TF.GenerationSoftware,KiCad,Pcbnew,5.1.6-c6e7f7d~87~ubuntu18.04.1*%
%TF.CreationDate,2020-09-27T19:16:18+01:00*%
%TF.ProjectId,OLED_USB_Stick,4f4c4544-5f55-4534-925f-537469636b2e,rev?*%
%TF.SameCoordinates,Original*%
%TF.FileFunction,Soldermask,Top*%
%TF.FilePolarity,Negative*%
%FSLAX46Y46*%
G04 Gerber Fmt 4.6, Leading zero omitted, Abs format (unit mm)*
G04 Created by KiCad (PCBNEW 5.1.6-c6e7f7d~87~ubuntu18.04.1) date 2020-09-27 19:16:18*
%MOMM*%
%LPD*%
G01*
G04 APERTURE LIST*
%ADD10R,1.550000X1.100000*%
%ADD11O,1.800000X1.800000*%
%ADD12R,1.800000X1.800000*%
%ADD13R,2.600000X1.300000*%
%ADD14C,1.100000*%
%ADD15R,1.850000X0.550000*%
%ADD16R,6.100000X1.300000*%
%ADD17R,8.100000X2.100000*%
G04 APERTURE END LIST*
D10*
%TO.C,SW2*%
X153959000Y-74080000D03*
X148809000Y-74080000D03*
X148809000Y-75780000D03*
X153959000Y-75780000D03*
%TD*%
%TO.C,R3*%
G36*
G01*
X144367200Y-75776562D02*
X144367200Y-74820038D01*
G75*
G02*
X144638938Y-74548300I271738J0D01*
G01*
X145345462Y-74548300D01*
G75*
G02*
X145617200Y-74820038I0J-271738D01*
G01*
X145617200Y-75776562D01*
G75*
G02*
X145345462Y-76048300I-271738J0D01*
G01*
X144638938Y-76048300D01*
G75*
G02*
X144367200Y-75776562I0J271738D01*
G01*
G37*
G36*
G01*
X142317200Y-75776562D02*
X142317200Y-74820038D01*
G75*
G02*
X142588938Y-74548300I271738J0D01*
G01*
X143295462Y-74548300D01*
G75*
G02*
X143567200Y-74820038I0J-271738D01*
G01*
X143567200Y-75776562D01*
G75*
G02*
X143295462Y-76048300I-271738J0D01*
G01*
X142588938Y-76048300D01*
G75*
G02*
X142317200Y-75776562I0J271738D01*
G01*
G37*
%TD*%
%TO.C,D1*%
G36*
G01*
X139109500Y-81627238D02*
X139109500Y-82583762D01*
G75*
G02*
X138837762Y-82855500I-271738J0D01*
G01*
X138131238Y-82855500D01*
G75*
G02*
X137859500Y-82583762I0J271738D01*
G01*
X137859500Y-81627238D01*
G75*
G02*
X138131238Y-81355500I271738J0D01*
G01*
X138837762Y-81355500D01*
G75*
G02*
X139109500Y-81627238I0J-271738D01*
G01*
G37*
G36*
G01*
X141159500Y-81627238D02*
X141159500Y-82583762D01*
G75*
G02*
X140887762Y-82855500I-271738J0D01*
G01*
X140181238Y-82855500D01*
G75*
G02*
X139909500Y-82583762I0J271738D01*
G01*
X139909500Y-81627238D01*
G75*
G02*
X140181238Y-81355500I271738J0D01*
G01*
X140887762Y-81355500D01*
G75*
G02*
X141159500Y-81627238I0J-271738D01*
G01*
G37*
%TD*%
%TO.C,R1*%
G36*
G01*
X144354500Y-82583762D02*
X144354500Y-81627238D01*
G75*
G02*
X144626238Y-81355500I271738J0D01*
G01*
X145332762Y-81355500D01*
G75*
G02*
X145604500Y-81627238I0J-271738D01*
G01*
X145604500Y-82583762D01*
G75*
G02*
X145332762Y-82855500I-271738J0D01*
G01*
X144626238Y-82855500D01*
G75*
G02*
X144354500Y-82583762I0J271738D01*
G01*
G37*
G36*
G01*
X142304500Y-82583762D02*
X142304500Y-81627238D01*
G75*
G02*
X142576238Y-81355500I271738J0D01*
G01*
X143282762Y-81355500D01*
G75*
G02*
X143554500Y-81627238I0J-271738D01*
G01*
X143554500Y-82583762D01*
G75*
G02*
X143282762Y-82855500I-271738J0D01*
G01*
X142576238Y-82855500D01*
G75*
G02*
X142304500Y-82583762I0J271738D01*
G01*
G37*
%TD*%
%TO.C,R4*%
G36*
G01*
X144341800Y-78037162D02*
X144341800Y-77080638D01*
G75*
G02*
X144613538Y-76808900I271738J0D01*
G01*
X145320062Y-76808900D01*
G75*
G02*
X145591800Y-77080638I0J-271738D01*
G01*
X145591800Y-78037162D01*
G75*
G02*
X145320062Y-78308900I-271738J0D01*
G01*
X144613538Y-78308900D01*
G75*
G02*
X144341800Y-78037162I0J271738D01*
G01*
G37*
G36*
G01*
X142291800Y-78037162D02*
X142291800Y-77080638D01*
G75*
G02*
X142563538Y-76808900I271738J0D01*
G01*
X143270062Y-76808900D01*
G75*
G02*
X143541800Y-77080638I0J-271738D01*
G01*
X143541800Y-78037162D01*
G75*
G02*
X143270062Y-78308900I-271738J0D01*
G01*
X142563538Y-78308900D01*
G75*
G02*
X142291800Y-78037162I0J271738D01*
G01*
G37*
%TD*%
%TO.C,R2*%
G36*
G01*
X144341800Y-80297762D02*
X144341800Y-79341238D01*
G75*
G02*
X144613538Y-79069500I271738J0D01*
G01*
X145320062Y-79069500D01*
G75*
G02*
X145591800Y-79341238I0J-271738D01*
G01*
X145591800Y-80297762D01*
G75*
G02*
X145320062Y-80569500I-271738J0D01*
G01*
X144613538Y-80569500D01*
G75*
G02*
X144341800Y-80297762I0J271738D01*
G01*
G37*
G36*
G01*
X142291800Y-80297762D02*
X142291800Y-79341238D01*
G75*
G02*
X142563538Y-79069500I271738J0D01*
G01*
X143270062Y-79069500D01*
G75*
G02*
X143541800Y-79341238I0J-271738D01*
G01*
X143541800Y-80297762D01*
G75*
G02*
X143270062Y-80569500I-271738J0D01*
G01*
X142563538Y-80569500D01*
G75*
G02*
X142291800Y-80297762I0J271738D01*
G01*
G37*
%TD*%
D11*
%TO.C,J3*%
X179070000Y-82550000D03*
X179070000Y-80010000D03*
X179070000Y-77470000D03*
D12*
X179070000Y-74930000D03*
%TD*%
D13*
%TO.C,SW1*%
X182676800Y-76301600D03*
X182676800Y-78841600D03*
D14*
X185521600Y-75412600D03*
X185521600Y-82270600D03*
D13*
X182676800Y-81381600D03*
%TD*%
%TO.C,D4*%
G36*
G01*
X139096800Y-77080638D02*
X139096800Y-78037162D01*
G75*
G02*
X138825062Y-78308900I-271738J0D01*
G01*
X138118538Y-78308900D01*
G75*
G02*
X137846800Y-78037162I0J271738D01*
G01*
X137846800Y-77080638D01*
G75*
G02*
X138118538Y-76808900I271738J0D01*
G01*
X138825062Y-76808900D01*
G75*
G02*
X139096800Y-77080638I0J-271738D01*
G01*
G37*
G36*
G01*
X141146800Y-77080638D02*
X141146800Y-78037162D01*
G75*
G02*
X140875062Y-78308900I-271738J0D01*
G01*
X140168538Y-78308900D01*
G75*
G02*
X139896800Y-78037162I0J271738D01*
G01*
X139896800Y-77080638D01*
G75*
G02*
X140168538Y-76808900I271738J0D01*
G01*
X140875062Y-76808900D01*
G75*
G02*
X141146800Y-77080638I0J-271738D01*
G01*
G37*
%TD*%
%TO.C,C10*%
G36*
G01*
X148814262Y-80676800D02*
X147857738Y-80676800D01*
G75*
G02*
X147586000Y-80405062I0J271738D01*
G01*
X147586000Y-79698538D01*
G75*
G02*
X147857738Y-79426800I271738J0D01*
G01*
X148814262Y-79426800D01*
G75*
G02*
X149086000Y-79698538I0J-271738D01*
G01*
X149086000Y-80405062D01*
G75*
G02*
X148814262Y-80676800I-271738J0D01*
G01*
G37*
G36*
G01*
X148814262Y-82726800D02*
X147857738Y-82726800D01*
G75*
G02*
X147586000Y-82455062I0J271738D01*
G01*
X147586000Y-81748538D01*
G75*
G02*
X147857738Y-81476800I271738J0D01*
G01*
X148814262Y-81476800D01*
G75*
G02*
X149086000Y-81748538I0J-271738D01*
G01*
X149086000Y-82455062D01*
G75*
G02*
X148814262Y-82726800I-271738J0D01*
G01*
G37*
%TD*%
D15*
%TO.C,U1*%
X157690000Y-83473000D03*
X157690000Y-82823000D03*
X157690000Y-82173000D03*
X157690000Y-81523000D03*
X157690000Y-80873000D03*
X157690000Y-80223000D03*
X157690000Y-79573000D03*
X157690000Y-78923000D03*
X157690000Y-78273000D03*
X157690000Y-77623000D03*
X157690000Y-76973000D03*
X157690000Y-76323000D03*
X157690000Y-75673000D03*
X157690000Y-75023000D03*
X164890000Y-75023000D03*
X164890000Y-75673000D03*
X164890000Y-76323000D03*
X164890000Y-76973000D03*
X164890000Y-77623000D03*
X164890000Y-78273000D03*
X164890000Y-78923000D03*
X164890000Y-79573000D03*
X164890000Y-80223000D03*
X164890000Y-80873000D03*
X164890000Y-81523000D03*
X164890000Y-82173000D03*
X164890000Y-82823000D03*
X164890000Y-83473000D03*
%TD*%
D16*
%TO.C,J1*%
X129540000Y-77724000D03*
X129540000Y-79756000D03*
D17*
X129540000Y-75247500D03*
X129540000Y-82232500D03*
%TD*%
%TO.C,D3*%
G36*
G01*
X139122200Y-74832738D02*
X139122200Y-75789262D01*
G75*
G02*
X138850462Y-76061000I-271738J0D01*
G01*
X138143938Y-76061000D01*
G75*
G02*
X137872200Y-75789262I0J271738D01*
G01*
X137872200Y-74832738D01*
G75*
G02*
X138143938Y-74561000I271738J0D01*
G01*
X138850462Y-74561000D01*
G75*
G02*
X139122200Y-74832738I0J-271738D01*
G01*
G37*
G36*
G01*
X141172200Y-74832738D02*
X141172200Y-75789262D01*
G75*
G02*
X140900462Y-76061000I-271738J0D01*
G01*
X140193938Y-76061000D01*
G75*
G02*
X139922200Y-75789262I0J271738D01*
G01*
X139922200Y-74832738D01*
G75*
G02*
X140193938Y-74561000I271738J0D01*
G01*
X140900462Y-74561000D01*
G75*
G02*
X141172200Y-74832738I0J-271738D01*
G01*
G37*
%TD*%
%TO.C,D2*%
G36*
G01*
X139096800Y-79341238D02*
X139096800Y-80297762D01*
G75*
G02*
X138825062Y-80569500I-271738J0D01*
G01*
X138118538Y-80569500D01*
G75*
G02*
X137846800Y-80297762I0J271738D01*
G01*
X137846800Y-79341238D01*
G75*
G02*
X138118538Y-79069500I271738J0D01*
G01*
X138825062Y-79069500D01*
G75*
G02*
X139096800Y-79341238I0J-271738D01*
G01*
G37*
G36*
G01*
X141146800Y-79341238D02*
X141146800Y-80297762D01*
G75*
G02*
X140875062Y-80569500I-271738J0D01*
G01*
X140168538Y-80569500D01*
G75*
G02*
X139896800Y-80297762I0J271738D01*
G01*
X139896800Y-79341238D01*
G75*
G02*
X140168538Y-79069500I271738J0D01*
G01*
X140875062Y-79069500D01*
G75*
G02*
X141146800Y-79341238I0J-271738D01*
G01*
G37*
%TD*%
%TO.C,C9*%
G36*
G01*
X170961000Y-78710262D02*
X170961000Y-77753738D01*
G75*
G02*
X171232738Y-77482000I271738J0D01*
G01*
X171939262Y-77482000D01*
G75*
G02*
X172211000Y-77753738I0J-271738D01*
G01*
X172211000Y-78710262D01*
G75*
G02*
X171939262Y-78982000I-271738J0D01*
G01*
X171232738Y-78982000D01*
G75*
G02*
X170961000Y-78710262I0J271738D01*
G01*
G37*
G36*
G01*
X168911000Y-78710262D02*
X168911000Y-77753738D01*
G75*
G02*
X169182738Y-77482000I271738J0D01*
G01*
X169889262Y-77482000D01*
G75*
G02*
X170161000Y-77753738I0J-271738D01*
G01*
X170161000Y-78710262D01*
G75*
G02*
X169889262Y-78982000I-271738J0D01*
G01*
X169182738Y-78982000D01*
G75*
G02*
X168911000Y-78710262I0J271738D01*
G01*
G37*
%TD*%
%TO.C,C7*%
G36*
G01*
X170961000Y-83790262D02*
X170961000Y-82833738D01*
G75*
G02*
X171232738Y-82562000I271738J0D01*
G01*
X171939262Y-82562000D01*
G75*
G02*
X172211000Y-82833738I0J-271738D01*
G01*
X172211000Y-83790262D01*
G75*
G02*
X171939262Y-84062000I-271738J0D01*
G01*
X171232738Y-84062000D01*
G75*
G02*
X170961000Y-83790262I0J271738D01*
G01*
G37*
G36*
G01*
X168911000Y-83790262D02*
X168911000Y-82833738D01*
G75*
G02*
X169182738Y-82562000I271738J0D01*
G01*
X169889262Y-82562000D01*
G75*
G02*
X170161000Y-82833738I0J-271738D01*
G01*
X170161000Y-83790262D01*
G75*
G02*
X169889262Y-84062000I-271738J0D01*
G01*
X169182738Y-84062000D01*
G75*
G02*
X168911000Y-83790262I0J271738D01*
G01*
G37*
%TD*%
%TO.C,C6*%
G36*
G01*
X170961000Y-76170262D02*
X170961000Y-75213738D01*
G75*
G02*
X171232738Y-74942000I271738J0D01*
G01*
X171939262Y-74942000D01*
G75*
G02*
X172211000Y-75213738I0J-271738D01*
G01*
X172211000Y-76170262D01*
G75*
G02*
X171939262Y-76442000I-271738J0D01*
G01*
X171232738Y-76442000D01*
G75*
G02*
X170961000Y-76170262I0J271738D01*
G01*
G37*
G36*
G01*
X168911000Y-76170262D02*
X168911000Y-75213738D01*
G75*
G02*
X169182738Y-74942000I271738J0D01*
G01*
X169889262Y-74942000D01*
G75*
G02*
X170161000Y-75213738I0J-271738D01*
G01*
X170161000Y-76170262D01*
G75*
G02*
X169889262Y-76442000I-271738J0D01*
G01*
X169182738Y-76442000D01*
G75*
G02*
X168911000Y-76170262I0J271738D01*
G01*
G37*
%TD*%
%TO.C,C4*%
G36*
G01*
X170961000Y-81250262D02*
X170961000Y-80293738D01*
G75*
G02*
X171232738Y-80022000I271738J0D01*
G01*
X171939262Y-80022000D01*
G75*
G02*
X172211000Y-80293738I0J-271738D01*
G01*
X172211000Y-81250262D01*
G75*
G02*
X171939262Y-81522000I-271738J0D01*
G01*
X171232738Y-81522000D01*
G75*
G02*
X170961000Y-81250262I0J271738D01*
G01*
G37*
G36*
G01*
X168911000Y-81250262D02*
X168911000Y-80293738D01*
G75*
G02*
X169182738Y-80022000I271738J0D01*
G01*
X169889262Y-80022000D01*
G75*
G02*
X170161000Y-80293738I0J-271738D01*
G01*
X170161000Y-81250262D01*
G75*
G02*
X169889262Y-81522000I-271738J0D01*
G01*
X169182738Y-81522000D01*
G75*
G02*
X168911000Y-81250262I0J271738D01*
G01*
G37*
%TD*%
M02*
