%TF.GenerationSoftware,KiCad,Pcbnew,(5.1.6-0-10_14)*%
%TF.CreationDate,2020-09-27T13:09:56+01:00*%
%TF.ProjectId,OLED_USB_Stick,4f4c4544-5f55-4534-925f-537469636b2e,rev?*%
%TF.SameCoordinates,Original*%
%TF.FileFunction,Paste,Top*%
%TF.FilePolarity,Positive*%
%FSLAX46Y46*%
G04 Gerber Fmt 4.6, Leading zero omitted, Abs format (unit mm)*
G04 Created by KiCad (PCBNEW (5.1.6-0-10_14)) date 2020-09-27 13:09:56*
%MOMM*%
%LPD*%
G01*
G04 APERTURE LIST*
%ADD10R,1.120000X2.160000*%
%ADD11R,2.500000X1.200000*%
%ADD12R,1.750000X0.450000*%
%ADD13R,6.000000X1.200000*%
%ADD14R,8.000000X2.000000*%
G04 APERTURE END LIST*
%TO.C,R3*%
G36*
G01*
X144417200Y-75748301D02*
X144417200Y-74848299D01*
G75*
G02*
X144667199Y-74598300I249999J0D01*
G01*
X145317201Y-74598300D01*
G75*
G02*
X145567200Y-74848299I0J-249999D01*
G01*
X145567200Y-75748301D01*
G75*
G02*
X145317201Y-75998300I-249999J0D01*
G01*
X144667199Y-75998300D01*
G75*
G02*
X144417200Y-75748301I0J249999D01*
G01*
G37*
G36*
G01*
X142367200Y-75748301D02*
X142367200Y-74848299D01*
G75*
G02*
X142617199Y-74598300I249999J0D01*
G01*
X143267201Y-74598300D01*
G75*
G02*
X143517200Y-74848299I0J-249999D01*
G01*
X143517200Y-75748301D01*
G75*
G02*
X143267201Y-75998300I-249999J0D01*
G01*
X142617199Y-75998300D01*
G75*
G02*
X142367200Y-75748301I0J249999D01*
G01*
G37*
%TD*%
%TO.C,D1*%
G36*
G01*
X139059500Y-81655499D02*
X139059500Y-82555501D01*
G75*
G02*
X138809501Y-82805500I-249999J0D01*
G01*
X138159499Y-82805500D01*
G75*
G02*
X137909500Y-82555501I0J249999D01*
G01*
X137909500Y-81655499D01*
G75*
G02*
X138159499Y-81405500I249999J0D01*
G01*
X138809501Y-81405500D01*
G75*
G02*
X139059500Y-81655499I0J-249999D01*
G01*
G37*
G36*
G01*
X141109500Y-81655499D02*
X141109500Y-82555501D01*
G75*
G02*
X140859501Y-82805500I-249999J0D01*
G01*
X140209499Y-82805500D01*
G75*
G02*
X139959500Y-82555501I0J249999D01*
G01*
X139959500Y-81655499D01*
G75*
G02*
X140209499Y-81405500I249999J0D01*
G01*
X140859501Y-81405500D01*
G75*
G02*
X141109500Y-81655499I0J-249999D01*
G01*
G37*
%TD*%
%TO.C,R1*%
G36*
G01*
X144404500Y-82555501D02*
X144404500Y-81655499D01*
G75*
G02*
X144654499Y-81405500I249999J0D01*
G01*
X145304501Y-81405500D01*
G75*
G02*
X145554500Y-81655499I0J-249999D01*
G01*
X145554500Y-82555501D01*
G75*
G02*
X145304501Y-82805500I-249999J0D01*
G01*
X144654499Y-82805500D01*
G75*
G02*
X144404500Y-82555501I0J249999D01*
G01*
G37*
G36*
G01*
X142354500Y-82555501D02*
X142354500Y-81655499D01*
G75*
G02*
X142604499Y-81405500I249999J0D01*
G01*
X143254501Y-81405500D01*
G75*
G02*
X143504500Y-81655499I0J-249999D01*
G01*
X143504500Y-82555501D01*
G75*
G02*
X143254501Y-82805500I-249999J0D01*
G01*
X142604499Y-82805500D01*
G75*
G02*
X142354500Y-82555501I0J249999D01*
G01*
G37*
%TD*%
%TO.C,R4*%
G36*
G01*
X144391800Y-78008901D02*
X144391800Y-77108899D01*
G75*
G02*
X144641799Y-76858900I249999J0D01*
G01*
X145291801Y-76858900D01*
G75*
G02*
X145541800Y-77108899I0J-249999D01*
G01*
X145541800Y-78008901D01*
G75*
G02*
X145291801Y-78258900I-249999J0D01*
G01*
X144641799Y-78258900D01*
G75*
G02*
X144391800Y-78008901I0J249999D01*
G01*
G37*
G36*
G01*
X142341800Y-78008901D02*
X142341800Y-77108899D01*
G75*
G02*
X142591799Y-76858900I249999J0D01*
G01*
X143241801Y-76858900D01*
G75*
G02*
X143491800Y-77108899I0J-249999D01*
G01*
X143491800Y-78008901D01*
G75*
G02*
X143241801Y-78258900I-249999J0D01*
G01*
X142591799Y-78258900D01*
G75*
G02*
X142341800Y-78008901I0J249999D01*
G01*
G37*
%TD*%
%TO.C,R2*%
G36*
G01*
X144391800Y-80269501D02*
X144391800Y-79369499D01*
G75*
G02*
X144641799Y-79119500I249999J0D01*
G01*
X145291801Y-79119500D01*
G75*
G02*
X145541800Y-79369499I0J-249999D01*
G01*
X145541800Y-80269501D01*
G75*
G02*
X145291801Y-80519500I-249999J0D01*
G01*
X144641799Y-80519500D01*
G75*
G02*
X144391800Y-80269501I0J249999D01*
G01*
G37*
G36*
G01*
X142341800Y-80269501D02*
X142341800Y-79369499D01*
G75*
G02*
X142591799Y-79119500I249999J0D01*
G01*
X143241801Y-79119500D01*
G75*
G02*
X143491800Y-79369499I0J-249999D01*
G01*
X143491800Y-80269501D01*
G75*
G02*
X143241801Y-80519500I-249999J0D01*
G01*
X142591799Y-80519500D01*
G75*
G02*
X142341800Y-80269501I0J249999D01*
G01*
G37*
%TD*%
D10*
%TO.C,SW2*%
X152171400Y-82105000D03*
X152171400Y-75375000D03*
%TD*%
D11*
%TO.C,SW1*%
X182676800Y-76301600D03*
X182676800Y-78841600D03*
X182676800Y-81381600D03*
%TD*%
%TO.C,D4*%
G36*
G01*
X139046800Y-77108899D02*
X139046800Y-78008901D01*
G75*
G02*
X138796801Y-78258900I-249999J0D01*
G01*
X138146799Y-78258900D01*
G75*
G02*
X137896800Y-78008901I0J249999D01*
G01*
X137896800Y-77108899D01*
G75*
G02*
X138146799Y-76858900I249999J0D01*
G01*
X138796801Y-76858900D01*
G75*
G02*
X139046800Y-77108899I0J-249999D01*
G01*
G37*
G36*
G01*
X141096800Y-77108899D02*
X141096800Y-78008901D01*
G75*
G02*
X140846801Y-78258900I-249999J0D01*
G01*
X140196799Y-78258900D01*
G75*
G02*
X139946800Y-78008901I0J249999D01*
G01*
X139946800Y-77108899D01*
G75*
G02*
X140196799Y-76858900I249999J0D01*
G01*
X140846801Y-76858900D01*
G75*
G02*
X141096800Y-77108899I0J-249999D01*
G01*
G37*
%TD*%
%TO.C,C10*%
G36*
G01*
X148786001Y-80626800D02*
X147885999Y-80626800D01*
G75*
G02*
X147636000Y-80376801I0J249999D01*
G01*
X147636000Y-79726799D01*
G75*
G02*
X147885999Y-79476800I249999J0D01*
G01*
X148786001Y-79476800D01*
G75*
G02*
X149036000Y-79726799I0J-249999D01*
G01*
X149036000Y-80376801D01*
G75*
G02*
X148786001Y-80626800I-249999J0D01*
G01*
G37*
G36*
G01*
X148786001Y-82676800D02*
X147885999Y-82676800D01*
G75*
G02*
X147636000Y-82426801I0J249999D01*
G01*
X147636000Y-81776799D01*
G75*
G02*
X147885999Y-81526800I249999J0D01*
G01*
X148786001Y-81526800D01*
G75*
G02*
X149036000Y-81776799I0J-249999D01*
G01*
X149036000Y-82426801D01*
G75*
G02*
X148786001Y-82676800I-249999J0D01*
G01*
G37*
%TD*%
D12*
%TO.C,U1*%
X157690000Y-83473000D03*
X157690000Y-82823000D03*
X157690000Y-82173000D03*
X157690000Y-81523000D03*
X157690000Y-80873000D03*
X157690000Y-80223000D03*
X157690000Y-79573000D03*
X157690000Y-78923000D03*
X157690000Y-78273000D03*
X157690000Y-77623000D03*
X157690000Y-76973000D03*
X157690000Y-76323000D03*
X157690000Y-75673000D03*
X157690000Y-75023000D03*
X164890000Y-75023000D03*
X164890000Y-75673000D03*
X164890000Y-76323000D03*
X164890000Y-76973000D03*
X164890000Y-77623000D03*
X164890000Y-78273000D03*
X164890000Y-78923000D03*
X164890000Y-79573000D03*
X164890000Y-80223000D03*
X164890000Y-80873000D03*
X164890000Y-81523000D03*
X164890000Y-82173000D03*
X164890000Y-82823000D03*
X164890000Y-83473000D03*
%TD*%
D13*
%TO.C,J1*%
X129540000Y-77724000D03*
X129540000Y-79756000D03*
D14*
X129540000Y-75247500D03*
X129540000Y-82232500D03*
%TD*%
%TO.C,D3*%
G36*
G01*
X139072200Y-74860999D02*
X139072200Y-75761001D01*
G75*
G02*
X138822201Y-76011000I-249999J0D01*
G01*
X138172199Y-76011000D01*
G75*
G02*
X137922200Y-75761001I0J249999D01*
G01*
X137922200Y-74860999D01*
G75*
G02*
X138172199Y-74611000I249999J0D01*
G01*
X138822201Y-74611000D01*
G75*
G02*
X139072200Y-74860999I0J-249999D01*
G01*
G37*
G36*
G01*
X141122200Y-74860999D02*
X141122200Y-75761001D01*
G75*
G02*
X140872201Y-76011000I-249999J0D01*
G01*
X140222199Y-76011000D01*
G75*
G02*
X139972200Y-75761001I0J249999D01*
G01*
X139972200Y-74860999D01*
G75*
G02*
X140222199Y-74611000I249999J0D01*
G01*
X140872201Y-74611000D01*
G75*
G02*
X141122200Y-74860999I0J-249999D01*
G01*
G37*
%TD*%
%TO.C,D2*%
G36*
G01*
X139046800Y-79369499D02*
X139046800Y-80269501D01*
G75*
G02*
X138796801Y-80519500I-249999J0D01*
G01*
X138146799Y-80519500D01*
G75*
G02*
X137896800Y-80269501I0J249999D01*
G01*
X137896800Y-79369499D01*
G75*
G02*
X138146799Y-79119500I249999J0D01*
G01*
X138796801Y-79119500D01*
G75*
G02*
X139046800Y-79369499I0J-249999D01*
G01*
G37*
G36*
G01*
X141096800Y-79369499D02*
X141096800Y-80269501D01*
G75*
G02*
X140846801Y-80519500I-249999J0D01*
G01*
X140196799Y-80519500D01*
G75*
G02*
X139946800Y-80269501I0J249999D01*
G01*
X139946800Y-79369499D01*
G75*
G02*
X140196799Y-79119500I249999J0D01*
G01*
X140846801Y-79119500D01*
G75*
G02*
X141096800Y-79369499I0J-249999D01*
G01*
G37*
%TD*%
%TO.C,C9*%
G36*
G01*
X171011000Y-78682001D02*
X171011000Y-77781999D01*
G75*
G02*
X171260999Y-77532000I249999J0D01*
G01*
X171911001Y-77532000D01*
G75*
G02*
X172161000Y-77781999I0J-249999D01*
G01*
X172161000Y-78682001D01*
G75*
G02*
X171911001Y-78932000I-249999J0D01*
G01*
X171260999Y-78932000D01*
G75*
G02*
X171011000Y-78682001I0J249999D01*
G01*
G37*
G36*
G01*
X168961000Y-78682001D02*
X168961000Y-77781999D01*
G75*
G02*
X169210999Y-77532000I249999J0D01*
G01*
X169861001Y-77532000D01*
G75*
G02*
X170111000Y-77781999I0J-249999D01*
G01*
X170111000Y-78682001D01*
G75*
G02*
X169861001Y-78932000I-249999J0D01*
G01*
X169210999Y-78932000D01*
G75*
G02*
X168961000Y-78682001I0J249999D01*
G01*
G37*
%TD*%
%TO.C,C7*%
G36*
G01*
X171011000Y-83762001D02*
X171011000Y-82861999D01*
G75*
G02*
X171260999Y-82612000I249999J0D01*
G01*
X171911001Y-82612000D01*
G75*
G02*
X172161000Y-82861999I0J-249999D01*
G01*
X172161000Y-83762001D01*
G75*
G02*
X171911001Y-84012000I-249999J0D01*
G01*
X171260999Y-84012000D01*
G75*
G02*
X171011000Y-83762001I0J249999D01*
G01*
G37*
G36*
G01*
X168961000Y-83762001D02*
X168961000Y-82861999D01*
G75*
G02*
X169210999Y-82612000I249999J0D01*
G01*
X169861001Y-82612000D01*
G75*
G02*
X170111000Y-82861999I0J-249999D01*
G01*
X170111000Y-83762001D01*
G75*
G02*
X169861001Y-84012000I-249999J0D01*
G01*
X169210999Y-84012000D01*
G75*
G02*
X168961000Y-83762001I0J249999D01*
G01*
G37*
%TD*%
%TO.C,C6*%
G36*
G01*
X171011000Y-76142001D02*
X171011000Y-75241999D01*
G75*
G02*
X171260999Y-74992000I249999J0D01*
G01*
X171911001Y-74992000D01*
G75*
G02*
X172161000Y-75241999I0J-249999D01*
G01*
X172161000Y-76142001D01*
G75*
G02*
X171911001Y-76392000I-249999J0D01*
G01*
X171260999Y-76392000D01*
G75*
G02*
X171011000Y-76142001I0J249999D01*
G01*
G37*
G36*
G01*
X168961000Y-76142001D02*
X168961000Y-75241999D01*
G75*
G02*
X169210999Y-74992000I249999J0D01*
G01*
X169861001Y-74992000D01*
G75*
G02*
X170111000Y-75241999I0J-249999D01*
G01*
X170111000Y-76142001D01*
G75*
G02*
X169861001Y-76392000I-249999J0D01*
G01*
X169210999Y-76392000D01*
G75*
G02*
X168961000Y-76142001I0J249999D01*
G01*
G37*
%TD*%
%TO.C,C4*%
G36*
G01*
X171011000Y-81222001D02*
X171011000Y-80321999D01*
G75*
G02*
X171260999Y-80072000I249999J0D01*
G01*
X171911001Y-80072000D01*
G75*
G02*
X172161000Y-80321999I0J-249999D01*
G01*
X172161000Y-81222001D01*
G75*
G02*
X171911001Y-81472000I-249999J0D01*
G01*
X171260999Y-81472000D01*
G75*
G02*
X171011000Y-81222001I0J249999D01*
G01*
G37*
G36*
G01*
X168961000Y-81222001D02*
X168961000Y-80321999D01*
G75*
G02*
X169210999Y-80072000I249999J0D01*
G01*
X169861001Y-80072000D01*
G75*
G02*
X170111000Y-80321999I0J-249999D01*
G01*
X170111000Y-81222001D01*
G75*
G02*
X169861001Y-81472000I-249999J0D01*
G01*
X169210999Y-81472000D01*
G75*
G02*
X168961000Y-81222001I0J249999D01*
G01*
G37*
%TD*%
M02*
