%TF.GenerationSoftware,KiCad,Pcbnew,(5.1.6-0-10_14)*%
%TF.CreationDate,2020-09-27T13:09:56+01:00*%
%TF.ProjectId,OLED_USB_Stick,4f4c4544-5f55-4534-925f-537469636b2e,rev?*%
%TF.SameCoordinates,Original*%
%TF.FileFunction,Paste,Bot*%
%TF.FilePolarity,Positive*%
%FSLAX46Y46*%
G04 Gerber Fmt 4.6, Leading zero omitted, Abs format (unit mm)*
G04 Created by KiCad (PCBNEW (5.1.6-0-10_14)) date 2020-09-27 13:09:56*
%MOMM*%
%LPD*%
G01*
G04 APERTURE LIST*
%ADD10R,1.220000X0.650000*%
G04 APERTURE END LIST*
%TO.C,R7*%
G36*
G01*
X174694001Y-75115000D02*
X173793999Y-75115000D01*
G75*
G02*
X173544000Y-74865001I0J249999D01*
G01*
X173544000Y-74214999D01*
G75*
G02*
X173793999Y-73965000I249999J0D01*
G01*
X174694001Y-73965000D01*
G75*
G02*
X174944000Y-74214999I0J-249999D01*
G01*
X174944000Y-74865001D01*
G75*
G02*
X174694001Y-75115000I-249999J0D01*
G01*
G37*
G36*
G01*
X174694001Y-77165000D02*
X173793999Y-77165000D01*
G75*
G02*
X173544000Y-76915001I0J249999D01*
G01*
X173544000Y-76264999D01*
G75*
G02*
X173793999Y-76015000I249999J0D01*
G01*
X174694001Y-76015000D01*
G75*
G02*
X174944000Y-76264999I0J-249999D01*
G01*
X174944000Y-76915001D01*
G75*
G02*
X174694001Y-77165000I-249999J0D01*
G01*
G37*
%TD*%
%TO.C,R6*%
G36*
G01*
X176726001Y-75115000D02*
X175825999Y-75115000D01*
G75*
G02*
X175576000Y-74865001I0J249999D01*
G01*
X175576000Y-74214999D01*
G75*
G02*
X175825999Y-73965000I249999J0D01*
G01*
X176726001Y-73965000D01*
G75*
G02*
X176976000Y-74214999I0J-249999D01*
G01*
X176976000Y-74865001D01*
G75*
G02*
X176726001Y-75115000I-249999J0D01*
G01*
G37*
G36*
G01*
X176726001Y-77165000D02*
X175825999Y-77165000D01*
G75*
G02*
X175576000Y-76915001I0J249999D01*
G01*
X175576000Y-76264999D01*
G75*
G02*
X175825999Y-76015000I249999J0D01*
G01*
X176726001Y-76015000D01*
G75*
G02*
X176976000Y-76264999I0J-249999D01*
G01*
X176976000Y-76915001D01*
G75*
G02*
X176726001Y-77165000I-249999J0D01*
G01*
G37*
%TD*%
%TO.C,C3*%
G36*
G01*
X154374000Y-83381001D02*
X154374000Y-82480999D01*
G75*
G02*
X154623999Y-82231000I249999J0D01*
G01*
X155274001Y-82231000D01*
G75*
G02*
X155524000Y-82480999I0J-249999D01*
G01*
X155524000Y-83381001D01*
G75*
G02*
X155274001Y-83631000I-249999J0D01*
G01*
X154623999Y-83631000D01*
G75*
G02*
X154374000Y-83381001I0J249999D01*
G01*
G37*
G36*
G01*
X152324000Y-83381001D02*
X152324000Y-82480999D01*
G75*
G02*
X152573999Y-82231000I249999J0D01*
G01*
X153224001Y-82231000D01*
G75*
G02*
X153474000Y-82480999I0J-249999D01*
G01*
X153474000Y-83381001D01*
G75*
G02*
X153224001Y-83631000I-249999J0D01*
G01*
X152573999Y-83631000D01*
G75*
G02*
X152324000Y-83381001I0J249999D01*
G01*
G37*
%TD*%
%TO.C,C1*%
G36*
G01*
X141028000Y-82480999D02*
X141028000Y-83381001D01*
G75*
G02*
X140778001Y-83631000I-249999J0D01*
G01*
X140127999Y-83631000D01*
G75*
G02*
X139878000Y-83381001I0J249999D01*
G01*
X139878000Y-82480999D01*
G75*
G02*
X140127999Y-82231000I249999J0D01*
G01*
X140778001Y-82231000D01*
G75*
G02*
X141028000Y-82480999I0J-249999D01*
G01*
G37*
G36*
G01*
X143078000Y-82480999D02*
X143078000Y-83381001D01*
G75*
G02*
X142828001Y-83631000I-249999J0D01*
G01*
X142177999Y-83631000D01*
G75*
G02*
X141928000Y-83381001I0J249999D01*
G01*
X141928000Y-82480999D01*
G75*
G02*
X142177999Y-82231000I249999J0D01*
G01*
X142828001Y-82231000D01*
G75*
G02*
X143078000Y-82480999I0J-249999D01*
G01*
G37*
%TD*%
%TO.C,C2*%
G36*
G01*
X150056000Y-83381001D02*
X150056000Y-82480999D01*
G75*
G02*
X150305999Y-82231000I249999J0D01*
G01*
X150956001Y-82231000D01*
G75*
G02*
X151206000Y-82480999I0J-249999D01*
G01*
X151206000Y-83381001D01*
G75*
G02*
X150956001Y-83631000I-249999J0D01*
G01*
X150305999Y-83631000D01*
G75*
G02*
X150056000Y-83381001I0J249999D01*
G01*
G37*
G36*
G01*
X148006000Y-83381001D02*
X148006000Y-82480999D01*
G75*
G02*
X148255999Y-82231000I249999J0D01*
G01*
X148906001Y-82231000D01*
G75*
G02*
X149156000Y-82480999I0J-249999D01*
G01*
X149156000Y-83381001D01*
G75*
G02*
X148906001Y-83631000I-249999J0D01*
G01*
X148255999Y-83631000D01*
G75*
G02*
X148006000Y-83381001I0J249999D01*
G01*
G37*
%TD*%
%TO.C,FB1*%
G36*
G01*
X145992000Y-83381001D02*
X145992000Y-82480999D01*
G75*
G02*
X146241999Y-82231000I249999J0D01*
G01*
X146892001Y-82231000D01*
G75*
G02*
X147142000Y-82480999I0J-249999D01*
G01*
X147142000Y-83381001D01*
G75*
G02*
X146892001Y-83631000I-249999J0D01*
G01*
X146241999Y-83631000D01*
G75*
G02*
X145992000Y-83381001I0J249999D01*
G01*
G37*
G36*
G01*
X143942000Y-83381001D02*
X143942000Y-82480999D01*
G75*
G02*
X144191999Y-82231000I249999J0D01*
G01*
X144842001Y-82231000D01*
G75*
G02*
X145092000Y-82480999I0J-249999D01*
G01*
X145092000Y-83381001D01*
G75*
G02*
X144842001Y-83631000I-249999J0D01*
G01*
X144191999Y-83631000D01*
G75*
G02*
X143942000Y-83381001I0J249999D01*
G01*
G37*
%TD*%
%TO.C,R5*%
G36*
G01*
X174556000Y-83623999D02*
X174556000Y-84524001D01*
G75*
G02*
X174306001Y-84774000I-249999J0D01*
G01*
X173655999Y-84774000D01*
G75*
G02*
X173406000Y-84524001I0J249999D01*
G01*
X173406000Y-83623999D01*
G75*
G02*
X173655999Y-83374000I249999J0D01*
G01*
X174306001Y-83374000D01*
G75*
G02*
X174556000Y-83623999I0J-249999D01*
G01*
G37*
G36*
G01*
X176606000Y-83623999D02*
X176606000Y-84524001D01*
G75*
G02*
X176356001Y-84774000I-249999J0D01*
G01*
X175705999Y-84774000D01*
G75*
G02*
X175456000Y-84524001I0J249999D01*
G01*
X175456000Y-83623999D01*
G75*
G02*
X175705999Y-83374000I249999J0D01*
G01*
X176356001Y-83374000D01*
G75*
G02*
X176606000Y-83623999I0J-249999D01*
G01*
G37*
%TD*%
%TO.C,U3*%
G36*
G01*
X158240000Y-83540000D02*
X158240000Y-82290000D01*
G75*
G02*
X158365000Y-82165000I125000J0D01*
G01*
X158615000Y-82165000D01*
G75*
G02*
X158740000Y-82290000I0J-125000D01*
G01*
X158740000Y-83540000D01*
G75*
G02*
X158615000Y-83665000I-125000J0D01*
G01*
X158365000Y-83665000D01*
G75*
G02*
X158240000Y-83540000I0J125000D01*
G01*
G37*
G36*
G01*
X159040000Y-83540000D02*
X159040000Y-82290000D01*
G75*
G02*
X159165000Y-82165000I125000J0D01*
G01*
X159415000Y-82165000D01*
G75*
G02*
X159540000Y-82290000I0J-125000D01*
G01*
X159540000Y-83540000D01*
G75*
G02*
X159415000Y-83665000I-125000J0D01*
G01*
X159165000Y-83665000D01*
G75*
G02*
X159040000Y-83540000I0J125000D01*
G01*
G37*
G36*
G01*
X159840000Y-83540000D02*
X159840000Y-82290000D01*
G75*
G02*
X159965000Y-82165000I125000J0D01*
G01*
X160215000Y-82165000D01*
G75*
G02*
X160340000Y-82290000I0J-125000D01*
G01*
X160340000Y-83540000D01*
G75*
G02*
X160215000Y-83665000I-125000J0D01*
G01*
X159965000Y-83665000D01*
G75*
G02*
X159840000Y-83540000I0J125000D01*
G01*
G37*
G36*
G01*
X160640000Y-83540000D02*
X160640000Y-82290000D01*
G75*
G02*
X160765000Y-82165000I125000J0D01*
G01*
X161015000Y-82165000D01*
G75*
G02*
X161140000Y-82290000I0J-125000D01*
G01*
X161140000Y-83540000D01*
G75*
G02*
X161015000Y-83665000I-125000J0D01*
G01*
X160765000Y-83665000D01*
G75*
G02*
X160640000Y-83540000I0J125000D01*
G01*
G37*
G36*
G01*
X161440000Y-83540000D02*
X161440000Y-82290000D01*
G75*
G02*
X161565000Y-82165000I125000J0D01*
G01*
X161815000Y-82165000D01*
G75*
G02*
X161940000Y-82290000I0J-125000D01*
G01*
X161940000Y-83540000D01*
G75*
G02*
X161815000Y-83665000I-125000J0D01*
G01*
X161565000Y-83665000D01*
G75*
G02*
X161440000Y-83540000I0J125000D01*
G01*
G37*
G36*
G01*
X162240000Y-83540000D02*
X162240000Y-82290000D01*
G75*
G02*
X162365000Y-82165000I125000J0D01*
G01*
X162615000Y-82165000D01*
G75*
G02*
X162740000Y-82290000I0J-125000D01*
G01*
X162740000Y-83540000D01*
G75*
G02*
X162615000Y-83665000I-125000J0D01*
G01*
X162365000Y-83665000D01*
G75*
G02*
X162240000Y-83540000I0J125000D01*
G01*
G37*
G36*
G01*
X163040000Y-83540000D02*
X163040000Y-82290000D01*
G75*
G02*
X163165000Y-82165000I125000J0D01*
G01*
X163415000Y-82165000D01*
G75*
G02*
X163540000Y-82290000I0J-125000D01*
G01*
X163540000Y-83540000D01*
G75*
G02*
X163415000Y-83665000I-125000J0D01*
G01*
X163165000Y-83665000D01*
G75*
G02*
X163040000Y-83540000I0J125000D01*
G01*
G37*
G36*
G01*
X163840000Y-83540000D02*
X163840000Y-82290000D01*
G75*
G02*
X163965000Y-82165000I125000J0D01*
G01*
X164215000Y-82165000D01*
G75*
G02*
X164340000Y-82290000I0J-125000D01*
G01*
X164340000Y-83540000D01*
G75*
G02*
X164215000Y-83665000I-125000J0D01*
G01*
X163965000Y-83665000D01*
G75*
G02*
X163840000Y-83540000I0J125000D01*
G01*
G37*
G36*
G01*
X164715000Y-81665000D02*
X164715000Y-81415000D01*
G75*
G02*
X164840000Y-81290000I125000J0D01*
G01*
X166090000Y-81290000D01*
G75*
G02*
X166215000Y-81415000I0J-125000D01*
G01*
X166215000Y-81665000D01*
G75*
G02*
X166090000Y-81790000I-125000J0D01*
G01*
X164840000Y-81790000D01*
G75*
G02*
X164715000Y-81665000I0J125000D01*
G01*
G37*
G36*
G01*
X164715000Y-80865000D02*
X164715000Y-80615000D01*
G75*
G02*
X164840000Y-80490000I125000J0D01*
G01*
X166090000Y-80490000D01*
G75*
G02*
X166215000Y-80615000I0J-125000D01*
G01*
X166215000Y-80865000D01*
G75*
G02*
X166090000Y-80990000I-125000J0D01*
G01*
X164840000Y-80990000D01*
G75*
G02*
X164715000Y-80865000I0J125000D01*
G01*
G37*
G36*
G01*
X164715000Y-80065000D02*
X164715000Y-79815000D01*
G75*
G02*
X164840000Y-79690000I125000J0D01*
G01*
X166090000Y-79690000D01*
G75*
G02*
X166215000Y-79815000I0J-125000D01*
G01*
X166215000Y-80065000D01*
G75*
G02*
X166090000Y-80190000I-125000J0D01*
G01*
X164840000Y-80190000D01*
G75*
G02*
X164715000Y-80065000I0J125000D01*
G01*
G37*
G36*
G01*
X164715000Y-79265000D02*
X164715000Y-79015000D01*
G75*
G02*
X164840000Y-78890000I125000J0D01*
G01*
X166090000Y-78890000D01*
G75*
G02*
X166215000Y-79015000I0J-125000D01*
G01*
X166215000Y-79265000D01*
G75*
G02*
X166090000Y-79390000I-125000J0D01*
G01*
X164840000Y-79390000D01*
G75*
G02*
X164715000Y-79265000I0J125000D01*
G01*
G37*
G36*
G01*
X164715000Y-78465000D02*
X164715000Y-78215000D01*
G75*
G02*
X164840000Y-78090000I125000J0D01*
G01*
X166090000Y-78090000D01*
G75*
G02*
X166215000Y-78215000I0J-125000D01*
G01*
X166215000Y-78465000D01*
G75*
G02*
X166090000Y-78590000I-125000J0D01*
G01*
X164840000Y-78590000D01*
G75*
G02*
X164715000Y-78465000I0J125000D01*
G01*
G37*
G36*
G01*
X164715000Y-77665000D02*
X164715000Y-77415000D01*
G75*
G02*
X164840000Y-77290000I125000J0D01*
G01*
X166090000Y-77290000D01*
G75*
G02*
X166215000Y-77415000I0J-125000D01*
G01*
X166215000Y-77665000D01*
G75*
G02*
X166090000Y-77790000I-125000J0D01*
G01*
X164840000Y-77790000D01*
G75*
G02*
X164715000Y-77665000I0J125000D01*
G01*
G37*
G36*
G01*
X164715000Y-76865000D02*
X164715000Y-76615000D01*
G75*
G02*
X164840000Y-76490000I125000J0D01*
G01*
X166090000Y-76490000D01*
G75*
G02*
X166215000Y-76615000I0J-125000D01*
G01*
X166215000Y-76865000D01*
G75*
G02*
X166090000Y-76990000I-125000J0D01*
G01*
X164840000Y-76990000D01*
G75*
G02*
X164715000Y-76865000I0J125000D01*
G01*
G37*
G36*
G01*
X164715000Y-76065000D02*
X164715000Y-75815000D01*
G75*
G02*
X164840000Y-75690000I125000J0D01*
G01*
X166090000Y-75690000D01*
G75*
G02*
X166215000Y-75815000I0J-125000D01*
G01*
X166215000Y-76065000D01*
G75*
G02*
X166090000Y-76190000I-125000J0D01*
G01*
X164840000Y-76190000D01*
G75*
G02*
X164715000Y-76065000I0J125000D01*
G01*
G37*
G36*
G01*
X163840000Y-75190000D02*
X163840000Y-73940000D01*
G75*
G02*
X163965000Y-73815000I125000J0D01*
G01*
X164215000Y-73815000D01*
G75*
G02*
X164340000Y-73940000I0J-125000D01*
G01*
X164340000Y-75190000D01*
G75*
G02*
X164215000Y-75315000I-125000J0D01*
G01*
X163965000Y-75315000D01*
G75*
G02*
X163840000Y-75190000I0J125000D01*
G01*
G37*
G36*
G01*
X163040000Y-75190000D02*
X163040000Y-73940000D01*
G75*
G02*
X163165000Y-73815000I125000J0D01*
G01*
X163415000Y-73815000D01*
G75*
G02*
X163540000Y-73940000I0J-125000D01*
G01*
X163540000Y-75190000D01*
G75*
G02*
X163415000Y-75315000I-125000J0D01*
G01*
X163165000Y-75315000D01*
G75*
G02*
X163040000Y-75190000I0J125000D01*
G01*
G37*
G36*
G01*
X162240000Y-75190000D02*
X162240000Y-73940000D01*
G75*
G02*
X162365000Y-73815000I125000J0D01*
G01*
X162615000Y-73815000D01*
G75*
G02*
X162740000Y-73940000I0J-125000D01*
G01*
X162740000Y-75190000D01*
G75*
G02*
X162615000Y-75315000I-125000J0D01*
G01*
X162365000Y-75315000D01*
G75*
G02*
X162240000Y-75190000I0J125000D01*
G01*
G37*
G36*
G01*
X161440000Y-75190000D02*
X161440000Y-73940000D01*
G75*
G02*
X161565000Y-73815000I125000J0D01*
G01*
X161815000Y-73815000D01*
G75*
G02*
X161940000Y-73940000I0J-125000D01*
G01*
X161940000Y-75190000D01*
G75*
G02*
X161815000Y-75315000I-125000J0D01*
G01*
X161565000Y-75315000D01*
G75*
G02*
X161440000Y-75190000I0J125000D01*
G01*
G37*
G36*
G01*
X160640000Y-75190000D02*
X160640000Y-73940000D01*
G75*
G02*
X160765000Y-73815000I125000J0D01*
G01*
X161015000Y-73815000D01*
G75*
G02*
X161140000Y-73940000I0J-125000D01*
G01*
X161140000Y-75190000D01*
G75*
G02*
X161015000Y-75315000I-125000J0D01*
G01*
X160765000Y-75315000D01*
G75*
G02*
X160640000Y-75190000I0J125000D01*
G01*
G37*
G36*
G01*
X159840000Y-75190000D02*
X159840000Y-73940000D01*
G75*
G02*
X159965000Y-73815000I125000J0D01*
G01*
X160215000Y-73815000D01*
G75*
G02*
X160340000Y-73940000I0J-125000D01*
G01*
X160340000Y-75190000D01*
G75*
G02*
X160215000Y-75315000I-125000J0D01*
G01*
X159965000Y-75315000D01*
G75*
G02*
X159840000Y-75190000I0J125000D01*
G01*
G37*
G36*
G01*
X159040000Y-75190000D02*
X159040000Y-73940000D01*
G75*
G02*
X159165000Y-73815000I125000J0D01*
G01*
X159415000Y-73815000D01*
G75*
G02*
X159540000Y-73940000I0J-125000D01*
G01*
X159540000Y-75190000D01*
G75*
G02*
X159415000Y-75315000I-125000J0D01*
G01*
X159165000Y-75315000D01*
G75*
G02*
X159040000Y-75190000I0J125000D01*
G01*
G37*
G36*
G01*
X158240000Y-75190000D02*
X158240000Y-73940000D01*
G75*
G02*
X158365000Y-73815000I125000J0D01*
G01*
X158615000Y-73815000D01*
G75*
G02*
X158740000Y-73940000I0J-125000D01*
G01*
X158740000Y-75190000D01*
G75*
G02*
X158615000Y-75315000I-125000J0D01*
G01*
X158365000Y-75315000D01*
G75*
G02*
X158240000Y-75190000I0J125000D01*
G01*
G37*
G36*
G01*
X156365000Y-76065000D02*
X156365000Y-75815000D01*
G75*
G02*
X156490000Y-75690000I125000J0D01*
G01*
X157740000Y-75690000D01*
G75*
G02*
X157865000Y-75815000I0J-125000D01*
G01*
X157865000Y-76065000D01*
G75*
G02*
X157740000Y-76190000I-125000J0D01*
G01*
X156490000Y-76190000D01*
G75*
G02*
X156365000Y-76065000I0J125000D01*
G01*
G37*
G36*
G01*
X156365000Y-76865000D02*
X156365000Y-76615000D01*
G75*
G02*
X156490000Y-76490000I125000J0D01*
G01*
X157740000Y-76490000D01*
G75*
G02*
X157865000Y-76615000I0J-125000D01*
G01*
X157865000Y-76865000D01*
G75*
G02*
X157740000Y-76990000I-125000J0D01*
G01*
X156490000Y-76990000D01*
G75*
G02*
X156365000Y-76865000I0J125000D01*
G01*
G37*
G36*
G01*
X156365000Y-77665000D02*
X156365000Y-77415000D01*
G75*
G02*
X156490000Y-77290000I125000J0D01*
G01*
X157740000Y-77290000D01*
G75*
G02*
X157865000Y-77415000I0J-125000D01*
G01*
X157865000Y-77665000D01*
G75*
G02*
X157740000Y-77790000I-125000J0D01*
G01*
X156490000Y-77790000D01*
G75*
G02*
X156365000Y-77665000I0J125000D01*
G01*
G37*
G36*
G01*
X156365000Y-78465000D02*
X156365000Y-78215000D01*
G75*
G02*
X156490000Y-78090000I125000J0D01*
G01*
X157740000Y-78090000D01*
G75*
G02*
X157865000Y-78215000I0J-125000D01*
G01*
X157865000Y-78465000D01*
G75*
G02*
X157740000Y-78590000I-125000J0D01*
G01*
X156490000Y-78590000D01*
G75*
G02*
X156365000Y-78465000I0J125000D01*
G01*
G37*
G36*
G01*
X156365000Y-79265000D02*
X156365000Y-79015000D01*
G75*
G02*
X156490000Y-78890000I125000J0D01*
G01*
X157740000Y-78890000D01*
G75*
G02*
X157865000Y-79015000I0J-125000D01*
G01*
X157865000Y-79265000D01*
G75*
G02*
X157740000Y-79390000I-125000J0D01*
G01*
X156490000Y-79390000D01*
G75*
G02*
X156365000Y-79265000I0J125000D01*
G01*
G37*
G36*
G01*
X156365000Y-80065000D02*
X156365000Y-79815000D01*
G75*
G02*
X156490000Y-79690000I125000J0D01*
G01*
X157740000Y-79690000D01*
G75*
G02*
X157865000Y-79815000I0J-125000D01*
G01*
X157865000Y-80065000D01*
G75*
G02*
X157740000Y-80190000I-125000J0D01*
G01*
X156490000Y-80190000D01*
G75*
G02*
X156365000Y-80065000I0J125000D01*
G01*
G37*
G36*
G01*
X156365000Y-80865000D02*
X156365000Y-80615000D01*
G75*
G02*
X156490000Y-80490000I125000J0D01*
G01*
X157740000Y-80490000D01*
G75*
G02*
X157865000Y-80615000I0J-125000D01*
G01*
X157865000Y-80865000D01*
G75*
G02*
X157740000Y-80990000I-125000J0D01*
G01*
X156490000Y-80990000D01*
G75*
G02*
X156365000Y-80865000I0J125000D01*
G01*
G37*
G36*
G01*
X156365000Y-81665000D02*
X156365000Y-81415000D01*
G75*
G02*
X156490000Y-81290000I125000J0D01*
G01*
X157740000Y-81290000D01*
G75*
G02*
X157865000Y-81415000I0J-125000D01*
G01*
X157865000Y-81665000D01*
G75*
G02*
X157740000Y-81790000I-125000J0D01*
G01*
X156490000Y-81790000D01*
G75*
G02*
X156365000Y-81665000I0J125000D01*
G01*
G37*
%TD*%
D10*
%TO.C,U2*%
X170013000Y-79121000D03*
X172633000Y-80071000D03*
X172633000Y-78171000D03*
%TD*%
%TO.C,C8*%
G36*
G01*
X170757001Y-74480000D02*
X169856999Y-74480000D01*
G75*
G02*
X169607000Y-74230001I0J249999D01*
G01*
X169607000Y-73579999D01*
G75*
G02*
X169856999Y-73330000I249999J0D01*
G01*
X170757001Y-73330000D01*
G75*
G02*
X171007000Y-73579999I0J-249999D01*
G01*
X171007000Y-74230001D01*
G75*
G02*
X170757001Y-74480000I-249999J0D01*
G01*
G37*
G36*
G01*
X170757001Y-76530000D02*
X169856999Y-76530000D01*
G75*
G02*
X169607000Y-76280001I0J249999D01*
G01*
X169607000Y-75629999D01*
G75*
G02*
X169856999Y-75380000I249999J0D01*
G01*
X170757001Y-75380000D01*
G75*
G02*
X171007000Y-75629999I0J-249999D01*
G01*
X171007000Y-76280001D01*
G75*
G02*
X170757001Y-76530000I-249999J0D01*
G01*
G37*
%TD*%
%TO.C,C5*%
G36*
G01*
X170757001Y-82544500D02*
X169856999Y-82544500D01*
G75*
G02*
X169607000Y-82294501I0J249999D01*
G01*
X169607000Y-81644499D01*
G75*
G02*
X169856999Y-81394500I249999J0D01*
G01*
X170757001Y-81394500D01*
G75*
G02*
X171007000Y-81644499I0J-249999D01*
G01*
X171007000Y-82294501D01*
G75*
G02*
X170757001Y-82544500I-249999J0D01*
G01*
G37*
G36*
G01*
X170757001Y-84594500D02*
X169856999Y-84594500D01*
G75*
G02*
X169607000Y-84344501I0J249999D01*
G01*
X169607000Y-83694499D01*
G75*
G02*
X169856999Y-83444500I249999J0D01*
G01*
X170757001Y-83444500D01*
G75*
G02*
X171007000Y-83694499I0J-249999D01*
G01*
X171007000Y-84344501D01*
G75*
G02*
X170757001Y-84594500I-249999J0D01*
G01*
G37*
%TD*%
M02*
