%TF.GenerationSoftware,KiCad,Pcbnew,5.1.6-c6e7f7d~87~ubuntu18.04.1*%
%TF.CreationDate,2020-09-27T19:16:18+01:00*%
%TF.ProjectId,OLED_USB_Stick,4f4c4544-5f55-4534-925f-537469636b2e,rev?*%
%TF.SameCoordinates,Original*%
%TF.FileFunction,Legend,Bot*%
%TF.FilePolarity,Positive*%
%FSLAX46Y46*%
G04 Gerber Fmt 4.6, Leading zero omitted, Abs format (unit mm)*
G04 Created by KiCad (PCBNEW 5.1.6-c6e7f7d~87~ubuntu18.04.1) date 2020-09-27 19:16:18*
%MOMM*%
%LPD*%
G01*
G04 APERTURE LIST*
%ADD10C,0.150000*%
%ADD11C,0.800000*%
%ADD12C,0.120000*%
G04 APERTURE END LIST*
D10*
X181896666Y-74856666D02*
X181896666Y-74990000D01*
X181930000Y-75056666D01*
X181996666Y-75123333D01*
X182130000Y-75156666D01*
X182363333Y-75156666D01*
X182496666Y-75123333D01*
X182563333Y-75056666D01*
X182596666Y-74990000D01*
X182596666Y-74856666D01*
X182563333Y-74790000D01*
X182496666Y-74723333D01*
X182363333Y-74690000D01*
X182130000Y-74690000D01*
X181996666Y-74723333D01*
X181930000Y-74790000D01*
X181896666Y-74856666D01*
X182596666Y-75790000D02*
X182596666Y-75456666D01*
X181896666Y-75456666D01*
X182230000Y-76023333D02*
X182230000Y-76256666D01*
X182596666Y-76356666D02*
X182596666Y-76023333D01*
X181896666Y-76023333D01*
X181896666Y-76356666D01*
X182596666Y-76656666D02*
X181896666Y-76656666D01*
X181896666Y-76823333D01*
X181930000Y-76923333D01*
X181996666Y-76990000D01*
X182063333Y-77023333D01*
X182196666Y-77056666D01*
X182296666Y-77056666D01*
X182430000Y-77023333D01*
X182496666Y-76990000D01*
X182563333Y-76923333D01*
X182596666Y-76823333D01*
X182596666Y-76656666D01*
X181896666Y-77890000D02*
X182463333Y-77890000D01*
X182530000Y-77923333D01*
X182563333Y-77956666D01*
X182596666Y-78023333D01*
X182596666Y-78156666D01*
X182563333Y-78223333D01*
X182530000Y-78256666D01*
X182463333Y-78290000D01*
X181896666Y-78290000D01*
X182563333Y-78590000D02*
X182596666Y-78690000D01*
X182596666Y-78856666D01*
X182563333Y-78923333D01*
X182530000Y-78956666D01*
X182463333Y-78990000D01*
X182396666Y-78990000D01*
X182330000Y-78956666D01*
X182296666Y-78923333D01*
X182263333Y-78856666D01*
X182230000Y-78723333D01*
X182196666Y-78656666D01*
X182163333Y-78623333D01*
X182096666Y-78590000D01*
X182030000Y-78590000D01*
X181963333Y-78623333D01*
X181930000Y-78656666D01*
X181896666Y-78723333D01*
X181896666Y-78890000D01*
X181930000Y-78990000D01*
X182230000Y-79523333D02*
X182263333Y-79623333D01*
X182296666Y-79656666D01*
X182363333Y-79690000D01*
X182463333Y-79690000D01*
X182530000Y-79656666D01*
X182563333Y-79623333D01*
X182596666Y-79556666D01*
X182596666Y-79290000D01*
X181896666Y-79290000D01*
X181896666Y-79523333D01*
X181930000Y-79590000D01*
X181963333Y-79623333D01*
X182030000Y-79656666D01*
X182096666Y-79656666D01*
X182163333Y-79623333D01*
X182196666Y-79590000D01*
X182230000Y-79523333D01*
X182230000Y-79290000D01*
X182563333Y-80490000D02*
X182596666Y-80590000D01*
X182596666Y-80756666D01*
X182563333Y-80823333D01*
X182530000Y-80856666D01*
X182463333Y-80890000D01*
X182396666Y-80890000D01*
X182330000Y-80856666D01*
X182296666Y-80823333D01*
X182263333Y-80756666D01*
X182230000Y-80623333D01*
X182196666Y-80556666D01*
X182163333Y-80523333D01*
X182096666Y-80490000D01*
X182030000Y-80490000D01*
X181963333Y-80523333D01*
X181930000Y-80556666D01*
X181896666Y-80623333D01*
X181896666Y-80790000D01*
X181930000Y-80890000D01*
X182130000Y-81090000D02*
X182130000Y-81356666D01*
X181896666Y-81190000D02*
X182496666Y-81190000D01*
X182563333Y-81223333D01*
X182596666Y-81290000D01*
X182596666Y-81356666D01*
X182596666Y-81590000D02*
X182130000Y-81590000D01*
X181896666Y-81590000D02*
X181930000Y-81556666D01*
X181963333Y-81590000D01*
X181930000Y-81623333D01*
X181896666Y-81590000D01*
X181963333Y-81590000D01*
X182563333Y-82223333D02*
X182596666Y-82156666D01*
X182596666Y-82023333D01*
X182563333Y-81956666D01*
X182530000Y-81923333D01*
X182463333Y-81890000D01*
X182263333Y-81890000D01*
X182196666Y-81923333D01*
X182163333Y-81956666D01*
X182130000Y-82023333D01*
X182130000Y-82156666D01*
X182163333Y-82223333D01*
X182596666Y-82523333D02*
X181896666Y-82523333D01*
X182330000Y-82590000D02*
X182596666Y-82790000D01*
X182130000Y-82790000D02*
X182396666Y-82523333D01*
X183796666Y-76440000D02*
X183463333Y-76206666D01*
X183796666Y-76040000D02*
X183096666Y-76040000D01*
X183096666Y-76306666D01*
X183130000Y-76373333D01*
X183163333Y-76406666D01*
X183230000Y-76440000D01*
X183330000Y-76440000D01*
X183396666Y-76406666D01*
X183430000Y-76373333D01*
X183463333Y-76306666D01*
X183463333Y-76040000D01*
X183763333Y-77006666D02*
X183796666Y-76940000D01*
X183796666Y-76806666D01*
X183763333Y-76740000D01*
X183696666Y-76706666D01*
X183430000Y-76706666D01*
X183363333Y-76740000D01*
X183330000Y-76806666D01*
X183330000Y-76940000D01*
X183363333Y-77006666D01*
X183430000Y-77040000D01*
X183496666Y-77040000D01*
X183563333Y-76706666D01*
X183330000Y-77273333D02*
X183796666Y-77440000D01*
X183330000Y-77606666D01*
X183430000Y-78106666D02*
X183463333Y-78206666D01*
X183496666Y-78240000D01*
X183563333Y-78273333D01*
X183663333Y-78273333D01*
X183730000Y-78240000D01*
X183763333Y-78206666D01*
X183796666Y-78140000D01*
X183796666Y-77873333D01*
X183096666Y-77873333D01*
X183096666Y-78106666D01*
X183130000Y-78173333D01*
X183163333Y-78206666D01*
X183230000Y-78240000D01*
X183296666Y-78240000D01*
X183363333Y-78206666D01*
X183396666Y-78173333D01*
X183430000Y-78106666D01*
X183430000Y-77873333D01*
X183096666Y-79040000D02*
X183096666Y-79473333D01*
X183363333Y-79240000D01*
X183363333Y-79340000D01*
X183396666Y-79406666D01*
X183430000Y-79440000D01*
X183496666Y-79473333D01*
X183663333Y-79473333D01*
X183730000Y-79440000D01*
X183763333Y-79406666D01*
X183796666Y-79340000D01*
X183796666Y-79140000D01*
X183763333Y-79073333D01*
X183730000Y-79040000D01*
X183796666Y-79806666D02*
X183796666Y-79940000D01*
X183763333Y-80006666D01*
X183730000Y-80040000D01*
X183630000Y-80106666D01*
X183496666Y-80140000D01*
X183230000Y-80140000D01*
X183163333Y-80106666D01*
X183130000Y-80073333D01*
X183096666Y-80006666D01*
X183096666Y-79873333D01*
X183130000Y-79806666D01*
X183163333Y-79773333D01*
X183230000Y-79740000D01*
X183396666Y-79740000D01*
X183463333Y-79773333D01*
X183496666Y-79806666D01*
X183530000Y-79873333D01*
X183530000Y-80006666D01*
X183496666Y-80073333D01*
X183463333Y-80106666D01*
X183396666Y-80140000D01*
X183163333Y-80406666D02*
X183130000Y-80440000D01*
X183096666Y-80506666D01*
X183096666Y-80673333D01*
X183130000Y-80740000D01*
X183163333Y-80773333D01*
X183230000Y-80806666D01*
X183296666Y-80806666D01*
X183396666Y-80773333D01*
X183796666Y-80373333D01*
X183796666Y-80806666D01*
X183096666Y-81240000D02*
X183096666Y-81306666D01*
X183130000Y-81373333D01*
X183163333Y-81406666D01*
X183230000Y-81440000D01*
X183363333Y-81473333D01*
X183530000Y-81473333D01*
X183663333Y-81440000D01*
X183730000Y-81406666D01*
X183763333Y-81373333D01*
X183796666Y-81306666D01*
X183796666Y-81240000D01*
X183763333Y-81173333D01*
X183730000Y-81140000D01*
X183663333Y-81106666D01*
X183530000Y-81073333D01*
X183363333Y-81073333D01*
X183230000Y-81106666D01*
X183163333Y-81140000D01*
X183130000Y-81173333D01*
X183096666Y-81240000D01*
D11*
X156972000Y-82804000D02*
G75*
G03*
X156972000Y-82804000I0J0D01*
G01*
D12*
%TO.C,R8*%
X139834252Y-72315000D02*
X139311748Y-72315000D01*
X139834252Y-73735000D02*
X139311748Y-73735000D01*
%TO.C,D5*%
X145018000Y-73985000D02*
X142158000Y-73985000D01*
X142158000Y-73985000D02*
X142158000Y-72065000D01*
X142158000Y-72065000D02*
X145018000Y-72065000D01*
%TO.C,R7*%
X175883500Y-78986748D02*
X175883500Y-79509252D01*
X177303500Y-78986748D02*
X177303500Y-79509252D01*
%TO.C,R6*%
X173851500Y-78986748D02*
X173851500Y-79509252D01*
X175271500Y-78986748D02*
X175271500Y-79509252D01*
%TO.C,C3*%
X153662748Y-82221000D02*
X154185252Y-82221000D01*
X153662748Y-83641000D02*
X154185252Y-83641000D01*
%TO.C,C1*%
X141739252Y-83641000D02*
X141216748Y-83641000D01*
X141739252Y-82221000D02*
X141216748Y-82221000D01*
%TO.C,C2*%
X149344748Y-82221000D02*
X149867252Y-82221000D01*
X149344748Y-83641000D02*
X149867252Y-83641000D01*
%TO.C,FB1*%
X145280748Y-82221000D02*
X145803252Y-82221000D01*
X145280748Y-83641000D02*
X145803252Y-83641000D01*
%TO.C,R5*%
X175267252Y-83364000D02*
X174744748Y-83364000D01*
X175267252Y-84784000D02*
X174744748Y-84784000D01*
%TO.C,U3*%
X157680000Y-82050000D02*
X156365000Y-82050000D01*
X157680000Y-82350000D02*
X157680000Y-82050000D01*
X157980000Y-82350000D02*
X157680000Y-82350000D01*
X164900000Y-82350000D02*
X164900000Y-82050000D01*
X164600000Y-82350000D02*
X164900000Y-82350000D01*
X157680000Y-75130000D02*
X157680000Y-75430000D01*
X157980000Y-75130000D02*
X157680000Y-75130000D01*
X164900000Y-75130000D02*
X164900000Y-75430000D01*
X164600000Y-75130000D02*
X164900000Y-75130000D01*
%TO.C,U2*%
X170393000Y-77611000D02*
X172823000Y-77611000D01*
X170373000Y-77621000D02*
X170373000Y-78621000D01*
X170373000Y-80671000D02*
X172223000Y-80671000D01*
X170373000Y-79621000D02*
X170373000Y-80671000D01*
%TO.C,C8*%
X169597000Y-75191252D02*
X169597000Y-74668748D01*
X171017000Y-75191252D02*
X171017000Y-74668748D01*
%TO.C,C5*%
X169597000Y-83255752D02*
X169597000Y-82733248D01*
X171017000Y-83255752D02*
X171017000Y-82733248D01*
%TO.C,R8*%
D10*
X139866666Y-75382380D02*
X140200000Y-74906190D01*
X140438095Y-75382380D02*
X140438095Y-74382380D01*
X140057142Y-74382380D01*
X139961904Y-74430000D01*
X139914285Y-74477619D01*
X139866666Y-74572857D01*
X139866666Y-74715714D01*
X139914285Y-74810952D01*
X139961904Y-74858571D01*
X140057142Y-74906190D01*
X140438095Y-74906190D01*
X139295238Y-74810952D02*
X139390476Y-74763333D01*
X139438095Y-74715714D01*
X139485714Y-74620476D01*
X139485714Y-74572857D01*
X139438095Y-74477619D01*
X139390476Y-74430000D01*
X139295238Y-74382380D01*
X139104761Y-74382380D01*
X139009523Y-74430000D01*
X138961904Y-74477619D01*
X138914285Y-74572857D01*
X138914285Y-74620476D01*
X138961904Y-74715714D01*
X139009523Y-74763333D01*
X139104761Y-74810952D01*
X139295238Y-74810952D01*
X139390476Y-74858571D01*
X139438095Y-74906190D01*
X139485714Y-75001428D01*
X139485714Y-75191904D01*
X139438095Y-75287142D01*
X139390476Y-75334761D01*
X139295238Y-75382380D01*
X139104761Y-75382380D01*
X139009523Y-75334761D01*
X138961904Y-75287142D01*
X138914285Y-75191904D01*
X138914285Y-75001428D01*
X138961904Y-74906190D01*
X139009523Y-74858571D01*
X139104761Y-74810952D01*
%TO.C,D5*%
X144756095Y-75382380D02*
X144756095Y-74382380D01*
X144518000Y-74382380D01*
X144375142Y-74430000D01*
X144279904Y-74525238D01*
X144232285Y-74620476D01*
X144184666Y-74810952D01*
X144184666Y-74953809D01*
X144232285Y-75144285D01*
X144279904Y-75239523D01*
X144375142Y-75334761D01*
X144518000Y-75382380D01*
X144756095Y-75382380D01*
X143279904Y-74382380D02*
X143756095Y-74382380D01*
X143803714Y-74858571D01*
X143756095Y-74810952D01*
X143660857Y-74763333D01*
X143422761Y-74763333D01*
X143327523Y-74810952D01*
X143279904Y-74858571D01*
X143232285Y-74953809D01*
X143232285Y-75191904D01*
X143279904Y-75287142D01*
X143327523Y-75334761D01*
X143422761Y-75382380D01*
X143660857Y-75382380D01*
X143756095Y-75334761D01*
X143803714Y-75287142D01*
%TO.C,R7*%
X176696666Y-76652380D02*
X177030000Y-76176190D01*
X177268095Y-76652380D02*
X177268095Y-75652380D01*
X176887142Y-75652380D01*
X176791904Y-75700000D01*
X176744285Y-75747619D01*
X176696666Y-75842857D01*
X176696666Y-75985714D01*
X176744285Y-76080952D01*
X176791904Y-76128571D01*
X176887142Y-76176190D01*
X177268095Y-76176190D01*
X176363333Y-75652380D02*
X175696666Y-75652380D01*
X176125238Y-76652380D01*
%TO.C,R6*%
X174791666Y-76652380D02*
X175125000Y-76176190D01*
X175363095Y-76652380D02*
X175363095Y-75652380D01*
X174982142Y-75652380D01*
X174886904Y-75700000D01*
X174839285Y-75747619D01*
X174791666Y-75842857D01*
X174791666Y-75985714D01*
X174839285Y-76080952D01*
X174886904Y-76128571D01*
X174982142Y-76176190D01*
X175363095Y-76176190D01*
X173934523Y-75652380D02*
X174125000Y-75652380D01*
X174220238Y-75700000D01*
X174267857Y-75747619D01*
X174363095Y-75890476D01*
X174410714Y-76080952D01*
X174410714Y-76461904D01*
X174363095Y-76557142D01*
X174315476Y-76604761D01*
X174220238Y-76652380D01*
X174029761Y-76652380D01*
X173934523Y-76604761D01*
X173886904Y-76557142D01*
X173839285Y-76461904D01*
X173839285Y-76223809D01*
X173886904Y-76128571D01*
X173934523Y-76080952D01*
X174029761Y-76033333D01*
X174220238Y-76033333D01*
X174315476Y-76080952D01*
X174363095Y-76128571D01*
X174410714Y-76223809D01*
%TO.C,C3*%
X154090666Y-85193142D02*
X154138285Y-85240761D01*
X154281142Y-85288380D01*
X154376380Y-85288380D01*
X154519238Y-85240761D01*
X154614476Y-85145523D01*
X154662095Y-85050285D01*
X154709714Y-84859809D01*
X154709714Y-84716952D01*
X154662095Y-84526476D01*
X154614476Y-84431238D01*
X154519238Y-84336000D01*
X154376380Y-84288380D01*
X154281142Y-84288380D01*
X154138285Y-84336000D01*
X154090666Y-84383619D01*
X153757333Y-84288380D02*
X153138285Y-84288380D01*
X153471619Y-84669333D01*
X153328761Y-84669333D01*
X153233523Y-84716952D01*
X153185904Y-84764571D01*
X153138285Y-84859809D01*
X153138285Y-85097904D01*
X153185904Y-85193142D01*
X153233523Y-85240761D01*
X153328761Y-85288380D01*
X153614476Y-85288380D01*
X153709714Y-85240761D01*
X153757333Y-85193142D01*
%TO.C,C1*%
X141644666Y-84939142D02*
X141692285Y-84986761D01*
X141835142Y-85034380D01*
X141930380Y-85034380D01*
X142073238Y-84986761D01*
X142168476Y-84891523D01*
X142216095Y-84796285D01*
X142263714Y-84605809D01*
X142263714Y-84462952D01*
X142216095Y-84272476D01*
X142168476Y-84177238D01*
X142073238Y-84082000D01*
X141930380Y-84034380D01*
X141835142Y-84034380D01*
X141692285Y-84082000D01*
X141644666Y-84129619D01*
X140692285Y-85034380D02*
X141263714Y-85034380D01*
X140978000Y-85034380D02*
X140978000Y-84034380D01*
X141073238Y-84177238D01*
X141168476Y-84272476D01*
X141263714Y-84320095D01*
%TO.C,C2*%
X149772666Y-85193142D02*
X149820285Y-85240761D01*
X149963142Y-85288380D01*
X150058380Y-85288380D01*
X150201238Y-85240761D01*
X150296476Y-85145523D01*
X150344095Y-85050285D01*
X150391714Y-84859809D01*
X150391714Y-84716952D01*
X150344095Y-84526476D01*
X150296476Y-84431238D01*
X150201238Y-84336000D01*
X150058380Y-84288380D01*
X149963142Y-84288380D01*
X149820285Y-84336000D01*
X149772666Y-84383619D01*
X149391714Y-84383619D02*
X149344095Y-84336000D01*
X149248857Y-84288380D01*
X149010761Y-84288380D01*
X148915523Y-84336000D01*
X148867904Y-84383619D01*
X148820285Y-84478857D01*
X148820285Y-84574095D01*
X148867904Y-84716952D01*
X149439333Y-85288380D01*
X148820285Y-85288380D01*
%TO.C,FB1*%
X146375333Y-84764571D02*
X146708666Y-84764571D01*
X146708666Y-85288380D02*
X146708666Y-84288380D01*
X146232476Y-84288380D01*
X145518190Y-84764571D02*
X145375333Y-84812190D01*
X145327714Y-84859809D01*
X145280095Y-84955047D01*
X145280095Y-85097904D01*
X145327714Y-85193142D01*
X145375333Y-85240761D01*
X145470571Y-85288380D01*
X145851523Y-85288380D01*
X145851523Y-84288380D01*
X145518190Y-84288380D01*
X145422952Y-84336000D01*
X145375333Y-84383619D01*
X145327714Y-84478857D01*
X145327714Y-84574095D01*
X145375333Y-84669333D01*
X145422952Y-84716952D01*
X145518190Y-84764571D01*
X145851523Y-84764571D01*
X144327714Y-85288380D02*
X144899142Y-85288380D01*
X144613428Y-85288380D02*
X144613428Y-84288380D01*
X144708666Y-84431238D01*
X144803904Y-84526476D01*
X144899142Y-84574095D01*
%TO.C,R5*%
X174791666Y-83002380D02*
X175125000Y-82526190D01*
X175363095Y-83002380D02*
X175363095Y-82002380D01*
X174982142Y-82002380D01*
X174886904Y-82050000D01*
X174839285Y-82097619D01*
X174791666Y-82192857D01*
X174791666Y-82335714D01*
X174839285Y-82430952D01*
X174886904Y-82478571D01*
X174982142Y-82526190D01*
X175363095Y-82526190D01*
X173886904Y-82002380D02*
X174363095Y-82002380D01*
X174410714Y-82478571D01*
X174363095Y-82430952D01*
X174267857Y-82383333D01*
X174029761Y-82383333D01*
X173934523Y-82430952D01*
X173886904Y-82478571D01*
X173839285Y-82573809D01*
X173839285Y-82811904D01*
X173886904Y-82907142D01*
X173934523Y-82954761D01*
X174029761Y-83002380D01*
X174267857Y-83002380D01*
X174363095Y-82954761D01*
X174410714Y-82907142D01*
%TO.C,U3*%
X162051904Y-72223380D02*
X162051904Y-73032904D01*
X162004285Y-73128142D01*
X161956666Y-73175761D01*
X161861428Y-73223380D01*
X161670952Y-73223380D01*
X161575714Y-73175761D01*
X161528095Y-73128142D01*
X161480476Y-73032904D01*
X161480476Y-72223380D01*
X161099523Y-72223380D02*
X160480476Y-72223380D01*
X160813809Y-72604333D01*
X160670952Y-72604333D01*
X160575714Y-72651952D01*
X160528095Y-72699571D01*
X160480476Y-72794809D01*
X160480476Y-73032904D01*
X160528095Y-73128142D01*
X160575714Y-73175761D01*
X160670952Y-73223380D01*
X160956666Y-73223380D01*
X161051904Y-73175761D01*
X161099523Y-73128142D01*
%TO.C,U2*%
X173950380Y-78486095D02*
X174759904Y-78486095D01*
X174855142Y-78533714D01*
X174902761Y-78581333D01*
X174950380Y-78676571D01*
X174950380Y-78867047D01*
X174902761Y-78962285D01*
X174855142Y-79009904D01*
X174759904Y-79057523D01*
X173950380Y-79057523D01*
X174045619Y-79486095D02*
X173998000Y-79533714D01*
X173950380Y-79628952D01*
X173950380Y-79867047D01*
X173998000Y-79962285D01*
X174045619Y-80009904D01*
X174140857Y-80057523D01*
X174236095Y-80057523D01*
X174378952Y-80009904D01*
X174950380Y-79438476D01*
X174950380Y-80057523D01*
%TO.C,C8*%
X168568666Y-74525142D02*
X168616285Y-74572761D01*
X168759142Y-74620380D01*
X168854380Y-74620380D01*
X168997238Y-74572761D01*
X169092476Y-74477523D01*
X169140095Y-74382285D01*
X169187714Y-74191809D01*
X169187714Y-74048952D01*
X169140095Y-73858476D01*
X169092476Y-73763238D01*
X168997238Y-73668000D01*
X168854380Y-73620380D01*
X168759142Y-73620380D01*
X168616285Y-73668000D01*
X168568666Y-73715619D01*
X167997238Y-74048952D02*
X168092476Y-74001333D01*
X168140095Y-73953714D01*
X168187714Y-73858476D01*
X168187714Y-73810857D01*
X168140095Y-73715619D01*
X168092476Y-73668000D01*
X167997238Y-73620380D01*
X167806761Y-73620380D01*
X167711523Y-73668000D01*
X167663904Y-73715619D01*
X167616285Y-73810857D01*
X167616285Y-73858476D01*
X167663904Y-73953714D01*
X167711523Y-74001333D01*
X167806761Y-74048952D01*
X167997238Y-74048952D01*
X168092476Y-74096571D01*
X168140095Y-74144190D01*
X168187714Y-74239428D01*
X168187714Y-74429904D01*
X168140095Y-74525142D01*
X168092476Y-74572761D01*
X167997238Y-74620380D01*
X167806761Y-74620380D01*
X167711523Y-74572761D01*
X167663904Y-74525142D01*
X167616285Y-74429904D01*
X167616285Y-74239428D01*
X167663904Y-74144190D01*
X167711523Y-74096571D01*
X167806761Y-74048952D01*
%TO.C,C5*%
X168568666Y-83415142D02*
X168616285Y-83462761D01*
X168759142Y-83510380D01*
X168854380Y-83510380D01*
X168997238Y-83462761D01*
X169092476Y-83367523D01*
X169140095Y-83272285D01*
X169187714Y-83081809D01*
X169187714Y-82938952D01*
X169140095Y-82748476D01*
X169092476Y-82653238D01*
X168997238Y-82558000D01*
X168854380Y-82510380D01*
X168759142Y-82510380D01*
X168616285Y-82558000D01*
X168568666Y-82605619D01*
X167663904Y-82510380D02*
X168140095Y-82510380D01*
X168187714Y-82986571D01*
X168140095Y-82938952D01*
X168044857Y-82891333D01*
X167806761Y-82891333D01*
X167711523Y-82938952D01*
X167663904Y-82986571D01*
X167616285Y-83081809D01*
X167616285Y-83319904D01*
X167663904Y-83415142D01*
X167711523Y-83462761D01*
X167806761Y-83510380D01*
X168044857Y-83510380D01*
X168140095Y-83462761D01*
X168187714Y-83415142D01*
%TD*%
M02*
