<?xml version="1.0" standalone="no"?>
 <!DOCTYPE svg PUBLIC "-//W3C//DTD SVG 1.1//EN" 
 "http://www.w3.org/Graphics/SVG/1.1/DTD/svg11.dtd"> 
<svg
  xmlns:svg="http://www.w3.org/2000/svg"
  xmlns="http://www.w3.org/2000/svg"
  xmlns:xlink="http://www.w3.org/1999/xlink"
  version="1.1"
  width="29.700220cm" height="21.000720cm" viewBox="0 0 116930 82680">
<title>SVG Picture created as OLED_USB_Stick.svg date 2020/09/27 19:19:07 </title>
  <desc>Picture generated by Eeschema-SVG </desc>
<g style="fill:#000000; fill-opacity:1;stroke:#000000; stroke-opacity:1;
stroke-linecap:round; stroke-linejoin:round;"
 transform="translate(0 0) scale(1 1)">
</g>
<g style="fill:#000000; fill-opacity:0.0; 
stroke:#000000; stroke-width:-10; stroke-opacity:1; 
stroke-linecap:round; stroke-linejoin:round;">
</g>
<g style="fill:#840000; fill-opacity:0.0; 
stroke:#840000; stroke-width:-10; stroke-opacity:1; 
stroke-linecap:round; stroke-linejoin:round;">
</g>
<g style="fill:#840000; fill-opacity:0.0; 
stroke:#840000; stroke-width:100; stroke-opacity:1; 
stroke-linecap:round; stroke-linejoin:round;">
</g>
<g style="fill:#840000; fill-opacity:0.0; 
stroke:#840000; stroke-width:60; stroke-opacity:1; 
stroke-linecap:round; stroke-linejoin:round;">
<rect x="69690" y="65360" width="42520" height="12600" rx="0" />
</g>
<g style="fill:#840000; fill-opacity:0.0; 
stroke:#840000; stroke-width:100; stroke-opacity:1; 
stroke-linecap:round; stroke-linejoin:round;">
</g>
<g style="fill:#840000; fill-opacity:0.0; 
stroke:#840000; stroke-width:60; stroke-opacity:1; 
stroke-linecap:round; stroke-linejoin:round;">
<rect x="3940" y="3940" width="109050" height="74800" rx="0" />
</g>
<g style="fill:#840000; fill-opacity:0.0; 
stroke:#840000; stroke-width:100; stroke-opacity:1; 
stroke-linecap:round; stroke-linejoin:round;">
</g>
<g style="fill:#840000; fill-opacity:0.0; 
stroke:#840000; stroke-width:60; stroke-opacity:1; 
stroke-linecap:round; stroke-linejoin:round;">
<rect x="4720" y="4720" width="107490" height="73240" rx="0" />
</g>
<g style="fill:#840000; fill-opacity:0.0; 
stroke:#840000; stroke-width:100; stroke-opacity:1; 
stroke-linecap:round; stroke-linejoin:round;">
</g>
<g style="fill:#840000; fill-opacity:0.0; 
stroke:#840000; stroke-width:60; stroke-opacity:1; 
stroke-linecap:round; stroke-linejoin:round;">
<path d="M23620 4720
L23620 3940
" />
</g>
<g style="fill:#840000; fill-opacity:0.0; 
stroke:#840000; stroke-width:100; stroke-opacity:1; 
stroke-linecap:round; stroke-linejoin:round;">
</g>
<g style="fill:#840000; fill-opacity:0.0; 
stroke:#840000; stroke-width:60; stroke-opacity:1; 
stroke-linecap:round; stroke-linejoin:round;">
<path d="M43310 4720
L43310 3940
" />
</g>
<g style="fill:#840000; fill-opacity:0.0; 
stroke:#840000; stroke-width:100; stroke-opacity:1; 
stroke-linecap:round; stroke-linejoin:round;">
</g>
<g style="fill:#840000; fill-opacity:0.0; 
stroke:#840000; stroke-width:60; stroke-opacity:1; 
stroke-linecap:round; stroke-linejoin:round;">
<path d="M62990 4720
L62990 3940
" />
</g>
<g style="fill:#840000; fill-opacity:0.0; 
stroke:#840000; stroke-width:100; stroke-opacity:1; 
stroke-linecap:round; stroke-linejoin:round;">
</g>
<g style="fill:#840000; fill-opacity:0.0; 
stroke:#840000; stroke-width:60; stroke-opacity:1; 
stroke-linecap:round; stroke-linejoin:round;">
<path d="M82680 4720
L82680 3940
" />
</g>
<g style="fill:#840000; fill-opacity:0.0; 
stroke:#840000; stroke-width:100; stroke-opacity:1; 
stroke-linecap:round; stroke-linejoin:round;">
</g>
<g style="fill:#840000; fill-opacity:0.0; 
stroke:#840000; stroke-width:60; stroke-opacity:1; 
stroke-linecap:round; stroke-linejoin:round;">
<path d="M102360 4720
L102360 3940
" />
</g>
<g style="fill:#840000; fill-opacity:0.0; 
stroke:#840000; stroke-width:100; stroke-opacity:1; 
stroke-linecap:round; stroke-linejoin:round;">
</g>
<g style="fill:#840000; fill-opacity:0.0; 
stroke:#840000; stroke-width:60; stroke-opacity:1; 
stroke-linecap:round; stroke-linejoin:round;">
<text x="13780" y="4580"
textLength="550" font-size="680" lengthAdjust="spacingAndGlyphs"
text-anchor="start" opacity="0">1</text>
<path d="M14190 4560
L13900 4560
" />
<path d="M14050 4560
L14050 4050
L14000 4120
L13950 4170
L13900 4190
" />
</g>
<g style="fill:#840000; fill-opacity:0.0; 
stroke:#840000; stroke-width:100; stroke-opacity:1; 
stroke-linecap:round; stroke-linejoin:round;">
</g>
<g style="fill:#840000; fill-opacity:0.0; 
stroke:#840000; stroke-width:60; stroke-opacity:1; 
stroke-linecap:round; stroke-linejoin:round;">
<text x="33460" y="4580"
textLength="550" font-size="680" lengthAdjust="spacingAndGlyphs"
text-anchor="start" opacity="0">2</text>
<path d="M33580 4090
L33610 4070
L33660 4050
L33780 4050
L33830 4070
L33850 4090
L33870 4140
L33870 4190
L33850 4260
L33560 4560
L33870 4560
" />
</g>
<g style="fill:#840000; fill-opacity:0.0; 
stroke:#840000; stroke-width:100; stroke-opacity:1; 
stroke-linecap:round; stroke-linejoin:round;">
</g>
<g style="fill:#840000; fill-opacity:0.0; 
stroke:#840000; stroke-width:60; stroke-opacity:1; 
stroke-linecap:round; stroke-linejoin:round;">
<text x="53150" y="4580"
textLength="550" font-size="680" lengthAdjust="spacingAndGlyphs"
text-anchor="start" opacity="0">3</text>
<path d="M53250 4050
L53560 4050
L53390 4240
L53470 4240
L53520 4260
L53540 4290
L53560 4340
L53560 4460
L53540 4510
L53520 4530
L53470 4560
L53320 4560
L53270 4530
L53250 4510
" />
</g>
<g style="fill:#840000; fill-opacity:0.0; 
stroke:#840000; stroke-width:100; stroke-opacity:1; 
stroke-linecap:round; stroke-linejoin:round;">
</g>
<g style="fill:#840000; fill-opacity:0.0; 
stroke:#840000; stroke-width:60; stroke-opacity:1; 
stroke-linecap:round; stroke-linejoin:round;">
<text x="72830" y="4580"
textLength="550" font-size="680" lengthAdjust="spacingAndGlyphs"
text-anchor="start" opacity="0">4</text>
<path d="M73200 4220
L73200 4560
" />
<path d="M73070 4020
L72950 4390
L73270 4390
" />
</g>
<g style="fill:#840000; fill-opacity:0.0; 
stroke:#840000; stroke-width:100; stroke-opacity:1; 
stroke-linecap:round; stroke-linejoin:round;">
</g>
<g style="fill:#840000; fill-opacity:0.0; 
stroke:#840000; stroke-width:60; stroke-opacity:1; 
stroke-linecap:round; stroke-linejoin:round;">
<text x="92520" y="4580"
textLength="550" font-size="680" lengthAdjust="spacingAndGlyphs"
text-anchor="start" opacity="0">5</text>
<path d="M92910 4050
L92670 4050
L92640 4290
L92670 4260
L92720 4240
L92840 4240
L92890 4260
L92910 4290
L92930 4340
L92930 4460
L92910 4510
L92890 4530
L92840 4560
L92720 4560
L92670 4530
L92640 4510
" />
</g>
<g style="fill:#840000; fill-opacity:0.0; 
stroke:#840000; stroke-width:100; stroke-opacity:1; 
stroke-linecap:round; stroke-linejoin:round;">
</g>
<g style="fill:#840000; fill-opacity:0.0; 
stroke:#840000; stroke-width:60; stroke-opacity:1; 
stroke-linecap:round; stroke-linejoin:round;">
<text x="112200" y="4580"
textLength="550" font-size="680" lengthAdjust="spacingAndGlyphs"
text-anchor="start" opacity="0">6</text>
<path d="M112570 4050
L112470 4050
L112420 4070
L112400 4090
L112350 4170
L112320 4260
L112320 4460
L112350 4510
L112370 4530
L112420 4560
L112520 4560
L112570 4530
L112590 4510
L112610 4460
L112610 4340
L112590 4290
L112570 4260
L112520 4240
L112420 4240
L112370 4260
L112350 4290
L112320 4340
" />
</g>
<g style="fill:#840000; fill-opacity:0.0; 
stroke:#840000; stroke-width:100; stroke-opacity:1; 
stroke-linecap:round; stroke-linejoin:round;">
</g>
<g style="fill:#840000; fill-opacity:0.0; 
stroke:#840000; stroke-width:60; stroke-opacity:1; 
stroke-linecap:round; stroke-linejoin:round;">
<path d="M23620 77960
L23620 78740
" />
</g>
<g style="fill:#840000; fill-opacity:0.0; 
stroke:#840000; stroke-width:100; stroke-opacity:1; 
stroke-linecap:round; stroke-linejoin:round;">
</g>
<g style="fill:#840000; fill-opacity:0.0; 
stroke:#840000; stroke-width:60; stroke-opacity:1; 
stroke-linecap:round; stroke-linejoin:round;">
<path d="M43310 77960
L43310 78740
" />
</g>
<g style="fill:#840000; fill-opacity:0.0; 
stroke:#840000; stroke-width:100; stroke-opacity:1; 
stroke-linecap:round; stroke-linejoin:round;">
</g>
<g style="fill:#840000; fill-opacity:0.0; 
stroke:#840000; stroke-width:60; stroke-opacity:1; 
stroke-linecap:round; stroke-linejoin:round;">
<path d="M62990 77960
L62990 78740
" />
</g>
<g style="fill:#840000; fill-opacity:0.0; 
stroke:#840000; stroke-width:100; stroke-opacity:1; 
stroke-linecap:round; stroke-linejoin:round;">
</g>
<g style="fill:#840000; fill-opacity:0.0; 
stroke:#840000; stroke-width:60; stroke-opacity:1; 
stroke-linecap:round; stroke-linejoin:round;">
<path d="M82680 77960
L82680 78740
" />
</g>
<g style="fill:#840000; fill-opacity:0.0; 
stroke:#840000; stroke-width:100; stroke-opacity:1; 
stroke-linecap:round; stroke-linejoin:round;">
</g>
<g style="fill:#840000; fill-opacity:0.0; 
stroke:#840000; stroke-width:60; stroke-opacity:1; 
stroke-linecap:round; stroke-linejoin:round;">
<path d="M102360 77960
L102360 78740
" />
</g>
<g style="fill:#840000; fill-opacity:0.0; 
stroke:#840000; stroke-width:100; stroke-opacity:1; 
stroke-linecap:round; stroke-linejoin:round;">
</g>
<g style="fill:#840000; fill-opacity:0.0; 
stroke:#840000; stroke-width:60; stroke-opacity:1; 
stroke-linecap:round; stroke-linejoin:round;">
<text x="13780" y="78600"
textLength="550" font-size="680" lengthAdjust="spacingAndGlyphs"
text-anchor="start" opacity="0">1</text>
<path d="M14190 78580
L13900 78580
" />
<path d="M14050 78580
L14050 78070
L14000 78140
L13950 78190
L13900 78210
" />
</g>
<g style="fill:#840000; fill-opacity:0.0; 
stroke:#840000; stroke-width:100; stroke-opacity:1; 
stroke-linecap:round; stroke-linejoin:round;">
</g>
<g style="fill:#840000; fill-opacity:0.0; 
stroke:#840000; stroke-width:60; stroke-opacity:1; 
stroke-linecap:round; stroke-linejoin:round;">
<text x="33460" y="78600"
textLength="550" font-size="680" lengthAdjust="spacingAndGlyphs"
text-anchor="start" opacity="0">2</text>
<path d="M33580 78110
L33610 78090
L33660 78070
L33780 78070
L33830 78090
L33850 78110
L33870 78160
L33870 78210
L33850 78280
L33560 78580
L33870 78580
" />
</g>
<g style="fill:#840000; fill-opacity:0.0; 
stroke:#840000; stroke-width:100; stroke-opacity:1; 
stroke-linecap:round; stroke-linejoin:round;">
</g>
<g style="fill:#840000; fill-opacity:0.0; 
stroke:#840000; stroke-width:60; stroke-opacity:1; 
stroke-linecap:round; stroke-linejoin:round;">
<text x="53150" y="78600"
textLength="550" font-size="680" lengthAdjust="spacingAndGlyphs"
text-anchor="start" opacity="0">3</text>
<path d="M53250 78070
L53560 78070
L53390 78260
L53470 78260
L53520 78280
L53540 78310
L53560 78360
L53560 78480
L53540 78530
L53520 78550
L53470 78580
L53320 78580
L53270 78550
L53250 78530
" />
</g>
<g style="fill:#840000; fill-opacity:0.0; 
stroke:#840000; stroke-width:100; stroke-opacity:1; 
stroke-linecap:round; stroke-linejoin:round;">
</g>
<g style="fill:#840000; fill-opacity:0.0; 
stroke:#840000; stroke-width:60; stroke-opacity:1; 
stroke-linecap:round; stroke-linejoin:round;">
<text x="72830" y="78600"
textLength="550" font-size="680" lengthAdjust="spacingAndGlyphs"
text-anchor="start" opacity="0">4</text>
<path d="M73200 78240
L73200 78580
" />
<path d="M73070 78040
L72950 78410
L73270 78410
" />
</g>
<g style="fill:#840000; fill-opacity:0.0; 
stroke:#840000; stroke-width:100; stroke-opacity:1; 
stroke-linecap:round; stroke-linejoin:round;">
</g>
<g style="fill:#840000; fill-opacity:0.0; 
stroke:#840000; stroke-width:60; stroke-opacity:1; 
stroke-linecap:round; stroke-linejoin:round;">
<text x="92520" y="78600"
textLength="550" font-size="680" lengthAdjust="spacingAndGlyphs"
text-anchor="start" opacity="0">5</text>
<path d="M92910 78070
L92670 78070
L92640 78310
L92670 78280
L92720 78260
L92840 78260
L92890 78280
L92910 78310
L92930 78360
L92930 78480
L92910 78530
L92890 78550
L92840 78580
L92720 78580
L92670 78550
L92640 78530
" />
</g>
<g style="fill:#840000; fill-opacity:0.0; 
stroke:#840000; stroke-width:100; stroke-opacity:1; 
stroke-linecap:round; stroke-linejoin:round;">
</g>
<g style="fill:#840000; fill-opacity:0.0; 
stroke:#840000; stroke-width:60; stroke-opacity:1; 
stroke-linecap:round; stroke-linejoin:round;">
<text x="112200" y="78600"
textLength="550" font-size="680" lengthAdjust="spacingAndGlyphs"
text-anchor="start" opacity="0">6</text>
<path d="M112570 78070
L112470 78070
L112420 78090
L112400 78110
L112350 78190
L112320 78280
L112320 78480
L112350 78530
L112370 78550
L112420 78580
L112520 78580
L112570 78550
L112590 78530
L112610 78480
L112610 78360
L112590 78310
L112570 78280
L112520 78260
L112420 78260
L112370 78280
L112350 78310
L112320 78360
" />
</g>
<g style="fill:#840000; fill-opacity:0.0; 
stroke:#840000; stroke-width:100; stroke-opacity:1; 
stroke-linecap:round; stroke-linejoin:round;">
</g>
<g style="fill:#840000; fill-opacity:0.0; 
stroke:#840000; stroke-width:60; stroke-opacity:1; 
stroke-linecap:round; stroke-linejoin:round;">
<path d="M3940 23620
L4720 23620
" />
</g>
<g style="fill:#840000; fill-opacity:0.0; 
stroke:#840000; stroke-width:100; stroke-opacity:1; 
stroke-linecap:round; stroke-linejoin:round;">
</g>
<g style="fill:#840000; fill-opacity:0.0; 
stroke:#840000; stroke-width:60; stroke-opacity:1; 
stroke-linecap:round; stroke-linejoin:round;">
<path d="M3940 43310
L4720 43310
" />
</g>
<g style="fill:#840000; fill-opacity:0.0; 
stroke:#840000; stroke-width:100; stroke-opacity:1; 
stroke-linecap:round; stroke-linejoin:round;">
</g>
<g style="fill:#840000; fill-opacity:0.0; 
stroke:#840000; stroke-width:60; stroke-opacity:1; 
stroke-linecap:round; stroke-linejoin:round;">
<path d="M3940 62990
L4720 62990
" />
</g>
<g style="fill:#840000; fill-opacity:0.0; 
stroke:#840000; stroke-width:100; stroke-opacity:1; 
stroke-linecap:round; stroke-linejoin:round;">
</g>
<g style="fill:#840000; fill-opacity:0.0; 
stroke:#840000; stroke-width:60; stroke-opacity:1; 
stroke-linecap:round; stroke-linejoin:round;">
<text x="4330" y="14030"
textLength="500" font-size="680" lengthAdjust="spacingAndGlyphs"
text-anchor="middle" opacity="0">A</text>
<path d="M4200 13860
L4450 13860
" />
<path d="M4160 14010
L4330 13500
L4500 14010
" />
</g>
<g style="fill:#840000; fill-opacity:0.0; 
stroke:#840000; stroke-width:100; stroke-opacity:1; 
stroke-linecap:round; stroke-linejoin:round;">
</g>
<g style="fill:#840000; fill-opacity:0.0; 
stroke:#840000; stroke-width:60; stroke-opacity:1; 
stroke-linecap:round; stroke-linejoin:round;">
<text x="4330" y="33710"
textLength="570" font-size="680" lengthAdjust="spacingAndGlyphs"
text-anchor="middle" opacity="0">B</text>
<path d="M4360 33420
L4430 33440
L4460 33470
L4480 33520
L4480 33590
L4460 33640
L4430 33660
L4390 33690
L4190 33690
L4190 33180
L4360 33180
L4410 33200
L4430 33220
L4460 33270
L4460 33320
L4430 33370
L4410 33390
L4360 33420
L4190 33420
" />
</g>
<g style="fill:#840000; fill-opacity:0.0; 
stroke:#840000; stroke-width:100; stroke-opacity:1; 
stroke-linecap:round; stroke-linejoin:round;">
</g>
<g style="fill:#840000; fill-opacity:0.0; 
stroke:#840000; stroke-width:60; stroke-opacity:1; 
stroke-linecap:round; stroke-linejoin:round;">
<text x="4330" y="53400"
textLength="570" font-size="680" lengthAdjust="spacingAndGlyphs"
text-anchor="middle" opacity="0">C</text>
<path d="M4480 53330
L4460 53350
L4390 53380
L4340 53380
L4260 53350
L4220 53300
L4190 53250
L4170 53160
L4170 53080
L4190 52990
L4220 52940
L4260 52890
L4340 52870
L4390 52870
L4460 52890
L4480 52910
" />
</g>
<g style="fill:#840000; fill-opacity:0.0; 
stroke:#840000; stroke-width:100; stroke-opacity:1; 
stroke-linecap:round; stroke-linejoin:round;">
</g>
<g style="fill:#840000; fill-opacity:0.0; 
stroke:#840000; stroke-width:60; stroke-opacity:1; 
stroke-linecap:round; stroke-linejoin:round;">
<text x="4330" y="73080"
textLength="570" font-size="680" lengthAdjust="spacingAndGlyphs"
text-anchor="middle" opacity="0">D</text>
<path d="M4190 73060
L4190 72550
L4310 72550
L4390 72570
L4430 72620
L4460 72670
L4480 72760
L4480 72840
L4460 72930
L4430 72980
L4390 73030
L4310 73060
L4190 73060
" />
</g>
<g style="fill:#840000; fill-opacity:0.0; 
stroke:#840000; stroke-width:100; stroke-opacity:1; 
stroke-linecap:round; stroke-linejoin:round;">
</g>
<g style="fill:#840000; fill-opacity:0.0; 
stroke:#840000; stroke-width:60; stroke-opacity:1; 
stroke-linecap:round; stroke-linejoin:round;">
<path d="M112990 23620
L112210 23620
" />
</g>
<g style="fill:#840000; fill-opacity:0.0; 
stroke:#840000; stroke-width:100; stroke-opacity:1; 
stroke-linecap:round; stroke-linejoin:round;">
</g>
<g style="fill:#840000; fill-opacity:0.0; 
stroke:#840000; stroke-width:60; stroke-opacity:1; 
stroke-linecap:round; stroke-linejoin:round;">
<path d="M112990 43310
L112210 43310
" />
</g>
<g style="fill:#840000; fill-opacity:0.0; 
stroke:#840000; stroke-width:100; stroke-opacity:1; 
stroke-linecap:round; stroke-linejoin:round;">
</g>
<g style="fill:#840000; fill-opacity:0.0; 
stroke:#840000; stroke-width:60; stroke-opacity:1; 
stroke-linecap:round; stroke-linejoin:round;">
<path d="M112990 62990
L112210 62990
" />
</g>
<g style="fill:#840000; fill-opacity:0.0; 
stroke:#840000; stroke-width:100; stroke-opacity:1; 
stroke-linecap:round; stroke-linejoin:round;">
</g>
<g style="fill:#840000; fill-opacity:0.0; 
stroke:#840000; stroke-width:60; stroke-opacity:1; 
stroke-linecap:round; stroke-linejoin:round;">
<text x="112600" y="14030"
textLength="500" font-size="680" lengthAdjust="spacingAndGlyphs"
text-anchor="middle" opacity="0">A</text>
<path d="M112470 13860
L112720 13860
" />
<path d="M112430 14010
L112600 13500
L112770 14010
" />
</g>
<g style="fill:#840000; fill-opacity:0.0; 
stroke:#840000; stroke-width:100; stroke-opacity:1; 
stroke-linecap:round; stroke-linejoin:round;">
</g>
<g style="fill:#840000; fill-opacity:0.0; 
stroke:#840000; stroke-width:60; stroke-opacity:1; 
stroke-linecap:round; stroke-linejoin:round;">
<text x="112600" y="33710"
textLength="570" font-size="680" lengthAdjust="spacingAndGlyphs"
text-anchor="middle" opacity="0">B</text>
<path d="M112630 33420
L112700 33440
L112730 33470
L112750 33520
L112750 33590
L112730 33640
L112700 33660
L112660 33690
L112460 33690
L112460 33180
L112630 33180
L112680 33200
L112700 33220
L112730 33270
L112730 33320
L112700 33370
L112680 33390
L112630 33420
L112460 33420
" />
</g>
<g style="fill:#840000; fill-opacity:0.0; 
stroke:#840000; stroke-width:100; stroke-opacity:1; 
stroke-linecap:round; stroke-linejoin:round;">
</g>
<g style="fill:#840000; fill-opacity:0.0; 
stroke:#840000; stroke-width:60; stroke-opacity:1; 
stroke-linecap:round; stroke-linejoin:round;">
<text x="112600" y="53400"
textLength="570" font-size="680" lengthAdjust="spacingAndGlyphs"
text-anchor="middle" opacity="0">C</text>
<path d="M112750 53330
L112730 53350
L112660 53380
L112610 53380
L112530 53350
L112490 53300
L112460 53250
L112440 53160
L112440 53080
L112460 52990
L112490 52940
L112530 52890
L112610 52870
L112660 52870
L112730 52890
L112750 52910
" />
</g>
<g style="fill:#840000; fill-opacity:0.0; 
stroke:#840000; stroke-width:100; stroke-opacity:1; 
stroke-linecap:round; stroke-linejoin:round;">
</g>
<g style="fill:#840000; fill-opacity:0.0; 
stroke:#840000; stroke-width:60; stroke-opacity:1; 
stroke-linecap:round; stroke-linejoin:round;">
<text x="112600" y="73080"
textLength="570" font-size="680" lengthAdjust="spacingAndGlyphs"
text-anchor="middle" opacity="0">D</text>
<path d="M112460 73060
L112460 72550
L112580 72550
L112660 72570
L112700 72620
L112730 72670
L112750 72760
L112750 72840
L112730 72930
L112700 72980
L112660 73030
L112580 73060
L112460 73060
" />
</g>
<g style="fill:#840000; fill-opacity:0.0; 
stroke:#840000; stroke-width:100; stroke-opacity:1; 
stroke-linecap:round; stroke-linejoin:round;">
</g>
<g style="fill:#840000; fill-opacity:0.0; 
stroke:#840000; stroke-width:60; stroke-opacity:1; 
stroke-linecap:round; stroke-linejoin:round;">
<text x="78740" y="76320"
textLength="2760" font-size="780" lengthAdjust="spacingAndGlyphs"
text-anchor="start" opacity="0">Date: </text>
<path d="M78910 76290
L78910 75700
L79050 75700
L79130 75730
L79190 75790
L79210 75840
L79240 75950
L79240 76040
L79210 76150
L79190 76210
L79130 76260
L79050 76290
L78910 76290
" />
<path d="M79750 76290
L79750 75980
L79720 75930
L79660 75900
L79550 75900
L79500 75930
" />
<path d="M79750 76260
L79690 76290
L79550 76290
L79500 76260
L79470 76210
L79470 76150
L79500 76100
L79550 76070
L79690 76070
L79750 76040
" />
<path d="M79950 75900
L80170 75900
" />
<path d="M80030 75700
L80030 76210
L80060 76260
L80110 76290
L80170 76290
" />
<path d="M80590 76260
L80540 76290
L80420 76290
L80370 76260
L80340 76210
L80340 75980
L80370 75930
L80420 75900
L80540 75900
L80590 75930
L80620 75980
L80620 76040
L80340 76100
" />
<path d="M80870 76240
L80900 76260
L80870 76290
L80840 76260
L80870 76240
L80870 76290
" />
<path d="M80870 75930
L80900 75950
L80870 75980
L80840 75950
L80870 75930
L80870 75980
" />
</g>
<g style="fill:#840000; fill-opacity:0.0; 
stroke:#840000; stroke-width:100; stroke-opacity:1; 
stroke-linecap:round; stroke-linejoin:round;">
</g>
<g style="fill:#840000; fill-opacity:0.0; 
stroke:#840000; stroke-width:60; stroke-opacity:1; 
stroke-linecap:round; stroke-linejoin:round;">
<path d="M69690 76580
L112210 76580
" />
</g>
<g style="fill:#840000; fill-opacity:0.0; 
stroke:#840000; stroke-width:100; stroke-opacity:1; 
stroke-linecap:round; stroke-linejoin:round;">
</g>
<g style="fill:#840000; fill-opacity:0.0; 
stroke:#840000; stroke-width:60; stroke-opacity:1; 
stroke-linecap:round; stroke-linejoin:round;">
<text x="70080" y="77420"
textLength="23240" font-size="780" lengthAdjust="spacingAndGlyphs"
text-anchor="start" opacity="0">KiCad E.D.A.  kicad 5.1.6-c6e7f7d~87~ubuntu18.04.1</text>
<path d="M70250 77390
L70250 76800
" />
<path d="M70580 77390
L70330 77050
" />
<path d="M70580 76800
L70250 77140
" />
<path d="M70840 77390
L70840 77000
" />
<path d="M70840 76800
L70810 76830
L70840 76860
L70860 76830
L70840 76800
L70840 76860
" />
<path d="M71450 77340
L71430 77360
L71340 77390
L71290 77390
L71200 77360
L71140 77310
L71120 77250
L71090 77140
L71090 77050
L71120 76940
L71140 76890
L71200 76830
L71290 76800
L71340 76800
L71430 76830
L71450 76860
" />
<path d="M71960 77390
L71960 77080
L71930 77030
L71880 77000
L71760 77000
L71710 77030
" />
<path d="M71960 77360
L71900 77390
L71760 77390
L71710 77360
L71680 77310
L71680 77250
L71710 77200
L71760 77170
L71900 77170
L71960 77140
" />
<path d="M72490 77390
L72490 76800
" />
<path d="M72490 77360
L72440 77390
L72320 77390
L72270 77360
L72240 77340
L72210 77280
L72210 77110
L72240 77050
L72270 77030
L72320 77000
L72440 77000
L72490 77030
" />
<path d="M73220 77080
L73420 77080
" />
<path d="M73500 77390
L73220 77390
L73220 76800
L73500 76800
" />
<path d="M73760 77340
L73790 77360
L73760 77390
L73730 77360
L73760 77340
L73760 77390
" />
<path d="M74040 77390
L74040 76800
L74180 76800
L74260 76830
L74320 76890
L74350 76940
L74380 77050
L74380 77140
L74350 77250
L74320 77310
L74260 77360
L74180 77390
L74040 77390
" />
<path d="M74630 77340
L74660 77360
L74630 77390
L74600 77360
L74630 77340
L74630 77390
" />
<path d="M74880 77220
L75160 77220
" />
<path d="M74830 77390
L75020 76800
L75220 77390
" />
<path d="M75420 77340
L75440 77360
L75420 77390
L75390 77360
L75420 77340
L75420 77390
" />
<path d="M76600 77390
L76600 76800
" />
<path d="M76650 77170
L76820 77390
" />
<path d="M76820 77000
L76600 77220
" />
<path d="M77070 77390
L77070 77000
" />
<path d="M77070 76800
L77040 76830
L77070 76860
L77100 76830
L77070 76800
L77070 76860
" />
<path d="M77610 77360
L77550 77390
L77440 77390
L77380 77360
L77350 77340
L77330 77280
L77330 77110
L77350 77050
L77380 77030
L77440 77000
L77550 77000
L77610 77030
" />
<path d="M78110 77390
L78110 77080
L78080 77030
L78030 77000
L77920 77000
L77860 77030
" />
<path d="M78110 77360
L78060 77390
L77920 77390
L77860 77360
L77830 77310
L77830 77250
L77860 77200
L77920 77170
L78060 77170
L78110 77140
" />
<path d="M78650 77390
L78650 76800
" />
<path d="M78650 77360
L78590 77390
L78480 77390
L78420 77360
L78390 77340
L78370 77280
L78370 77110
L78390 77050
L78420 77030
L78480 77000
L78590 77000
L78650 77030
" />
<path d="M79660 76800
L79380 76800
L79350 77080
L79380 77050
L79430 77030
L79570 77030
L79630 77050
L79660 77080
L79690 77140
L79690 77280
L79660 77340
L79630 77360
L79570 77390
L79430 77390
L79380 77360
L79350 77340
" />
<path d="M79940 77340
L79970 77360
L79940 77390
L79910 77360
L79940 77340
L79940 77390
" />
<path d="M80530 77390
L80190 77390
" />
<path d="M80360 77390
L80360 76800
L80300 76890
L80250 76940
L80190 76970
" />
<path d="M80780 77340
L80810 77360
L80780 77390
L80750 77360
L80780 77340
L80780 77390
" />
<path d="M81320 76800
L81200 76800
L81150 76830
L81120 76860
L81060 76940
L81030 77050
L81030 77280
L81060 77340
L81090 77360
L81150 77390
L81260 77390
L81320 77360
L81340 77340
L81370 77280
L81370 77140
L81340 77080
L81320 77050
L81260 77030
L81150 77030
L81090 77050
L81060 77080
L81030 77140
" />
<path d="M81620 77170
L82070 77170
" />
<path d="M82610 77360
L82550 77390
L82440 77390
L82380 77360
L82350 77340
L82330 77280
L82330 77110
L82350 77050
L82380 77030
L82440 77000
L82550 77000
L82610 77030
" />
<path d="M83110 76800
L83000 76800
L82940 76830
L82920 76860
L82860 76940
L82830 77050
L82830 77280
L82860 77340
L82890 77360
L82940 77390
L83060 77390
L83110 77360
L83140 77340
L83170 77280
L83170 77140
L83140 77080
L83110 77050
L83060 77030
L82940 77030
L82890 77050
L82860 77080
L82830 77140
" />
<path d="M83650 77360
L83590 77390
L83480 77390
L83420 77360
L83390 77310
L83390 77080
L83420 77030
L83480 77000
L83590 77000
L83650 77030
L83680 77080
L83680 77140
L83390 77200
" />
<path d="M83870 76800
L84270 76800
L84010 77390
" />
<path d="M84410 77000
L84630 77000
" />
<path d="M84490 77390
L84490 76890
L84520 76830
L84570 76800
L84630 76800
" />
<path d="M84770 76800
L85160 76800
L84910 77390
" />
<path d="M85640 77390
L85640 76800
" />
<path d="M85640 77360
L85590 77390
L85470 77390
L85420 77360
L85390 77340
L85360 77280
L85360 77110
L85390 77050
L85420 77030
L85470 77000
L85590 77000
L85640 77030
" />
<path d="M85780 76640
L86340 76640
" />
<path d="M86010 77050
L85950 77030
L85920 77000
L85890 76940
L85890 76910
L85920 76860
L85950 76830
L86010 76800
L86120 76800
L86180 76830
L86200 76860
L86230 76910
L86230 76940
L86200 77000
L86180 77030
L86120 77050
L86010 77050
L85950 77080
L85920 77110
L85890 77170
L85890 77280
L85920 77340
L85950 77360
L86010 77390
L86120 77390
L86180 77360
L86200 77340
L86230 77280
L86230 77170
L86200 77110
L86180 77080
L86120 77050
" />
<path d="M86340 76640
L86910 76640
" />
<path d="M86430 76800
L86820 76800
L86570 77390
" />
<path d="M87300 77000
L87300 77390
" />
<path d="M87050 77000
L87050 77310
L87070 77360
L87130 77390
L87220 77390
L87270 77360
L87300 77340
" />
<path d="M87580 77390
L87580 76800
" />
<path d="M87580 77030
L87640 77000
L87750 77000
L87810 77030
L87830 77050
L87860 77110
L87860 77280
L87830 77340
L87810 77360
L87750 77390
L87640 77390
L87580 77360
" />
<path d="M88370 77000
L88370 77390
" />
<path d="M88110 77000
L88110 77310
L88140 77360
L88200 77390
L88280 77390
L88340 77360
L88370 77340
" />
<path d="M88650 77000
L88650 77390
" />
<path d="M88650 77050
L88680 77030
L88730 77000
L88820 77000
L88870 77030
L88900 77080
L88900 77390
" />
<path d="M89100 77000
L89320 77000
" />
<path d="M89180 76800
L89180 77310
L89210 77360
L89270 77390
L89320 77390
" />
<path d="M89770 77000
L89770 77390
" />
<path d="M89520 77000
L89520 77310
L89550 77360
L89600 77390
L89690 77390
L89740 77360
L89770 77340
" />
<path d="M90360 77390
L90020 77390
" />
<path d="M90190 77390
L90190 76800
L90140 76890
L90080 76940
L90020 76970
" />
<path d="M90700 77050
L90640 77030
L90610 77000
L90590 76940
L90590 76910
L90610 76860
L90640 76830
L90700 76800
L90810 76800
L90870 76830
L90900 76860
L90920 76910
L90920 76940
L90900 77000
L90870 77030
L90810 77050
L90700 77050
L90640 77080
L90610 77110
L90590 77170
L90590 77280
L90610 77340
L90640 77360
L90700 77390
L90810 77390
L90870 77360
L90900 77340
L90920 77280
L90920 77170
L90900 77110
L90870 77080
L90810 77050
" />
<path d="M91180 77340
L91200 77360
L91180 77390
L91150 77360
L91180 77340
L91180 77390
" />
<path d="M91570 76800
L91630 76800
L91680 76830
L91710 76860
L91740 76910
L91770 77030
L91770 77170
L91740 77280
L91710 77340
L91680 77360
L91630 77390
L91570 77390
L91510 77360
L91490 77340
L91460 77280
L91430 77170
L91430 77030
L91460 76910
L91490 76860
L91510 76830
L91570 76800
" />
<path d="M92270 77000
L92270 77390
" />
<path d="M92130 76770
L91990 77200
L92360 77200
" />
<path d="M92580 77340
L92610 77360
L92580 77390
L92550 77360
L92580 77340
L92580 77390
" />
<path d="M93170 77390
L92830 77390
" />
<path d="M93000 77390
L93000 76800
L92950 76890
L92890 76940
L92830 76970
" />
</g>
<g style="fill:#840000; fill-opacity:0.0; 
stroke:#840000; stroke-width:100; stroke-opacity:1; 
stroke-linecap:round; stroke-linejoin:round;">
</g>
<g style="fill:#840000; fill-opacity:0.0; 
stroke:#840000; stroke-width:60; stroke-opacity:1; 
stroke-linecap:round; stroke-linejoin:round;">
<path d="M69690 75400
L112210 75400
" />
</g>
<g style="fill:#840000; fill-opacity:0.0; 
stroke:#840000; stroke-width:100; stroke-opacity:1; 
stroke-linecap:round; stroke-linejoin:round;">
</g>
<g style="fill:#840000; fill-opacity:0.0; 
stroke:#840000; stroke-width:120; stroke-opacity:1; 
stroke-linecap:round; stroke-linejoin:round;">
<text x="103540" y="76320"
textLength="2340" font-size="780" lengthAdjust="spacingAndGlyphs"
text-anchor="start" opacity="0">Rev: </text>
<path d="M104090 76290
L103890 76010
" />
<path d="M103750 76290
L103750 75700
L103980 75700
L104030 75730
L104060 75760
L104090 75810
L104090 75900
L104060 75950
L104030 75980
L103980 76010
L103750 76010
" />
<path d="M104570 76260
L104510 76290
L104400 76290
L104340 76260
L104320 76210
L104320 75980
L104340 75930
L104400 75900
L104510 75900
L104570 75930
L104600 75980
L104600 76040
L104320 76100
" />
<path d="M104790 75900
L104930 76290
L105070 75900
" />
<path d="M105300 76240
L105330 76260
L105300 76290
L105270 76260
L105300 76240
L105300 76290
" />
<path d="M105300 75930
L105330 75950
L105300 75980
L105270 75950
L105300 75930
L105300 75980
" />
</g>
<g style="fill:#840000; fill-opacity:0.0; 
stroke:#840000; stroke-width:100; stroke-opacity:1; 
stroke-linecap:round; stroke-linejoin:round;">
</g>
<g style="fill:#840000; fill-opacity:0.0; 
stroke:#840000; stroke-width:60; stroke-opacity:1; 
stroke-linecap:round; stroke-linejoin:round;">
<text x="70080" y="76320"
textLength="3780" font-size="780" lengthAdjust="spacingAndGlyphs"
text-anchor="start" opacity="0">Size: A4</text>
<path d="M70220 76260
L70300 76290
L70440 76290
L70500 76260
L70530 76240
L70550 76180
L70550 76120
L70530 76070
L70500 76040
L70440 76010
L70330 75980
L70270 75950
L70250 75930
L70220 75870
L70220 75810
L70250 75760
L70270 75730
L70330 75700
L70470 75700
L70550 75730
" />
<path d="M70810 76290
L70810 75900
" />
<path d="M70810 75700
L70780 75730
L70810 75760
L70840 75730
L70810 75700
L70810 75760
" />
<path d="M71030 75900
L71340 75900
L71030 76290
L71340 76290
" />
<path d="M71790 76260
L71730 76290
L71620 76290
L71570 76260
L71540 76210
L71540 75980
L71570 75930
L71620 75900
L71730 75900
L71790 75930
L71820 75980
L71820 76040
L71540 76100
" />
<path d="M72070 76240
L72100 76260
L72070 76290
L72040 76260
L72070 76240
L72070 76290
" />
<path d="M72070 75930
L72100 75950
L72070 75980
L72040 75950
L72070 75930
L72070 75980
" />
<path d="M72770 76120
L73060 76120
" />
<path d="M72720 76290
L72910 75700
L73110 76290
" />
<path d="M73560 75900
L73560 76290
" />
<path d="M73420 75670
L73280 76100
L73650 76100
" />
</g>
<g style="fill:#840000; fill-opacity:0.0; 
stroke:#840000; stroke-width:100; stroke-opacity:1; 
stroke-linecap:round; stroke-linejoin:round;">
</g>
<g style="fill:#840000; fill-opacity:0.0; 
stroke:#840000; stroke-width:60; stroke-opacity:1; 
stroke-linecap:round; stroke-linejoin:round;">
<text x="103540" y="77420"
textLength="3350" font-size="780" lengthAdjust="spacingAndGlyphs"
text-anchor="start" opacity="0">Id: 1/4</text>
<path d="M103710 77390
L103710 76800
" />
<path d="M104240 77390
L104240 76800
" />
<path d="M104240 77360
L104180 77390
L104070 77390
L104010 77360
L103990 77340
L103960 77280
L103960 77110
L103990 77050
L104010 77030
L104070 77000
L104180 77000
L104240 77030
" />
<path d="M104520 77340
L104550 77360
L104520 77390
L104490 77360
L104520 77340
L104520 77390
" />
<path d="M104520 77030
L104550 77050
L104520 77080
L104490 77050
L104520 77030
L104520 77080
" />
<path d="M105560 77390
L105220 77390
" />
<path d="M105390 77390
L105390 76800
L105340 76890
L105280 76940
L105220 76970
" />
<path d="M106230 76770
L105730 77530
" />
<path d="M106680 77000
L106680 77390
" />
<path d="M106540 76770
L106400 77200
L106770 77200
" />
</g>
<g style="fill:#840000; fill-opacity:0.0; 
stroke:#840000; stroke-width:100; stroke-opacity:1; 
stroke-linecap:round; stroke-linejoin:round;">
</g>
<g style="fill:#840000; fill-opacity:0.0; 
stroke:#840000; stroke-width:60; stroke-opacity:1; 
stroke-linecap:round; stroke-linejoin:round;">
<path d="M69690 73820
L112210 73820
" />
</g>
<g style="fill:#840000; fill-opacity:0.0; 
stroke:#840000; stroke-width:100; stroke-opacity:1; 
stroke-linecap:round; stroke-linejoin:round;">
</g>
<g style="fill:#840000; fill-opacity:0.0; 
stroke:#840000; stroke-width:160; stroke-opacity:1; 
stroke-linecap:round; stroke-linejoin:round;">
<text x="70080" y="74920"
textLength="3710" font-size="1050" lengthAdjust="spacingAndGlyphs"
text-anchor="start" opacity="0">Title: </text>
<path d="M70360 74090
L70810 74090
" />
<path d="M70480 74880
L70580 74090
" />
<path d="M70970 74880
L71040 74360
" />
<path d="M71070 74090
L71030 74130
L71060 74170
L71110 74130
L71070 74090
L71060 74170
" />
<path d="M71300 74360
L71600 74360
" />
<path d="M71450 74090
L71360 74770
L71390 74840
L71460 74880
L71540 74880
" />
<path d="M71910 74880
L71840 74840
L71820 74770
L71900 74090
" />
<path d="M72520 74840
L72440 74880
L72290 74880
L72220 74840
L72190 74770
L72230 74470
L72280 74390
L72360 74360
L72510 74360
L72580 74390
L72610 74470
L72600 74540
L72210 74620
" />
<path d="M72900 74810
L72930 74840
L72890 74880
L72860 74840
L72900 74810
L72890 74880
" />
<path d="M72950 74390
L72990 74430
L72940 74470
L72910 74430
L72950 74390
L72940 74470
" />
</g>
<g style="fill:#840000; fill-opacity:0.0; 
stroke:#840000; stroke-width:100; stroke-opacity:1; 
stroke-linecap:round; stroke-linejoin:round;">
</g>
<g style="fill:#840000; fill-opacity:0.0; 
stroke:#840000; stroke-width:60; stroke-opacity:1; 
stroke-linecap:round; stroke-linejoin:round;">
<text x="70080" y="73400"
textLength="11390" font-size="780" lengthAdjust="spacingAndGlyphs"
text-anchor="start" opacity="0">File: OLED_USB_Stick.sch</text>
<path d="M70440 73060
L70250 73060
" />
<path d="M70250 73370
L70250 72780
L70530 72780
" />
<path d="M70750 73370
L70750 72980
" />
<path d="M70750 72780
L70720 72810
L70750 72840
L70780 72810
L70750 72780
L70750 72840
" />
<path d="M71120 73370
L71060 73340
L71030 73290
L71030 72780
" />
<path d="M71570 73340
L71510 73370
L71400 73370
L71340 73340
L71310 73290
L71310 73060
L71340 73010
L71400 72980
L71510 72980
L71570 73010
L71590 73060
L71590 73120
L71310 73180
" />
<path d="M71850 73320
L71880 73340
L71850 73370
L71820 73340
L71850 73320
L71850 73370
" />
<path d="M71850 73010
L71880 73030
L71850 73060
L71820 73030
L71850 73010
L71850 73060
" />
<path d="M72690 72780
L72800 72780
L72860 72810
L72910 72870
L72940 72980
L72940 73180
L72910 73290
L72860 73340
L72800 73370
L72690 73370
L72630 73340
L72580 73290
L72550 73180
L72550 72980
L72580 72870
L72630 72810
L72690 72780
" />
<path d="M73480 73370
L73200 73370
L73200 72780
" />
<path d="M73670 73060
L73870 73060
" />
<path d="M73950 73370
L73670 73370
L73670 72780
L73950 72780
" />
<path d="M74210 73370
L74210 72780
L74350 72780
L74430 72810
L74490 72870
L74520 72920
L74540 73030
L74540 73120
L74520 73230
L74490 73290
L74430 73340
L74350 73370
L74210 73370
" />
<path d="M74660 73430
L75110 73430
" />
<path d="M75250 72780
L75250 73260
L75270 73320
L75300 73340
L75360 73370
L75470 73370
L75530 73340
L75560 73320
L75580 73260
L75580 72780
" />
<path d="M75840 73340
L75920 73370
L76060 73370
L76120 73340
L76150 73320
L76170 73260
L76170 73200
L76150 73150
L76120 73120
L76060 73090
L75950 73060
L75890 73030
L75860 73010
L75840 72950
L75840 72890
L75860 72840
L75890 72810
L75950 72780
L76090 72780
L76170 72810
" />
<path d="M76620 73060
L76710 73090
L76740 73120
L76760 73180
L76760 73260
L76740 73320
L76710 73340
L76650 73370
L76430 73370
L76430 72780
L76620 72780
L76680 72810
L76710 72840
L76740 72890
L76740 72950
L76710 73010
L76680 73030
L76620 73060
L76430 73060
" />
<path d="M76880 73430
L77330 73430
" />
<path d="M77440 73340
L77520 73370
L77660 73370
L77720 73340
L77750 73320
L77780 73260
L77780 73200
L77750 73150
L77720 73120
L77660 73090
L77550 73060
L77490 73030
L77470 73010
L77440 72950
L77440 72890
L77470 72840
L77490 72810
L77550 72780
L77690 72780
L77780 72810
" />
<path d="M77940 72980
L78170 72980
" />
<path d="M78030 72780
L78030 73290
L78060 73340
L78110 73370
L78170 73370
" />
<path d="M78370 73370
L78370 72980
" />
<path d="M78370 72780
L78340 72810
L78370 72840
L78390 72810
L78370 72780
L78370 72840
" />
<path d="M78900 73340
L78840 73370
L78730 73370
L78670 73340
L78650 73320
L78620 73260
L78620 73090
L78650 73030
L78670 73010
L78730 72980
L78840 72980
L78900 73010
" />
<path d="M79150 73370
L79150 72780
" />
<path d="M79210 73150
L79380 73370
" />
<path d="M79380 72980
L79150 73200
" />
<path d="M79630 73320
L79660 73340
L79630 73370
L79600 73340
L79630 73320
L79630 73370
" />
<path d="M79880 73340
L79940 73370
L80050 73370
L80110 73340
L80140 73290
L80140 73260
L80110 73200
L80050 73180
L79970 73180
L79910 73150
L79880 73090
L79880 73060
L79910 73010
L79970 72980
L80050 72980
L80110 73010
" />
<path d="M80640 73340
L80580 73370
L80470 73370
L80420 73340
L80390 73320
L80360 73260
L80360 73090
L80390 73030
L80420 73010
L80470 72980
L80580 72980
L80640 73010
" />
<path d="M80890 73370
L80890 72780
" />
<path d="M81150 73370
L81150 73060
L81120 73010
L81060 72980
L80980 72980
L80920 73010
L80890 73030
" />
</g>
<g style="fill:#840000; fill-opacity:0.0; 
stroke:#840000; stroke-width:100; stroke-opacity:1; 
stroke-linecap:round; stroke-linejoin:round;">
</g>
<g style="fill:#840000; fill-opacity:0.0; 
stroke:#840000; stroke-width:60; stroke-opacity:1; 
stroke-linecap:round; stroke-linejoin:round;">
<path d="M69690 71460
L112210 71460
" />
</g>
<g style="fill:#840000; fill-opacity:0.0; 
stroke:#840000; stroke-width:100; stroke-opacity:1; 
stroke-linecap:round; stroke-linejoin:round;">
</g>
<g style="fill:#840000; fill-opacity:0.0; 
stroke:#840000; stroke-width:60; stroke-opacity:1; 
stroke-linecap:round; stroke-linejoin:round;">
<text x="70080" y="72340"
textLength="3850" font-size="780" lengthAdjust="spacingAndGlyphs"
text-anchor="start" opacity="0">Sheet: /</text>
<path d="M70220 72280
L70300 72310
L70440 72310
L70500 72280
L70530 72260
L70550 72200
L70550 72140
L70530 72090
L70500 72060
L70440 72030
L70330 72000
L70270 71970
L70250 71950
L70220 71890
L70220 71830
L70250 71780
L70270 71750
L70330 71720
L70470 71720
L70550 71750
" />
<path d="M70810 72310
L70810 71720
" />
<path d="M71060 72310
L71060 72000
L71030 71950
L70980 71920
L70890 71920
L70840 71950
L70810 71970
" />
<path d="M71570 72280
L71510 72310
L71400 72310
L71340 72280
L71310 72230
L71310 72000
L71340 71950
L71400 71920
L71510 71920
L71570 71950
L71590 72000
L71590 72060
L71310 72120
" />
<path d="M72070 72280
L72020 72310
L71900 72310
L71850 72280
L71820 72230
L71820 72000
L71850 71950
L71900 71920
L72020 71920
L72070 71950
L72100 72000
L72100 72060
L71820 72120
" />
<path d="M72270 71920
L72490 71920
" />
<path d="M72350 71720
L72350 72230
L72380 72280
L72440 72310
L72490 72310
" />
<path d="M72690 72260
L72720 72280
L72690 72310
L72660 72280
L72690 72260
L72690 72310
" />
<path d="M72690 71950
L72720 71970
L72690 72000
L72660 71970
L72690 71950
L72690 72000
" />
<path d="M73840 71690
L73340 72450
" />
</g>
<g style="fill:#840000; fill-opacity:0.0; 
stroke:#840000; stroke-width:100; stroke-opacity:1; 
stroke-linecap:round; stroke-linejoin:round;">
</g>
<g style="fill:#840000; fill-opacity:0.0; 
stroke:#840000; stroke-width:60; stroke-opacity:1; 
stroke-linecap:round; stroke-linejoin:round;">
<path d="M77560 75400
L77560 76580
" />
</g>
<g style="fill:#840000; fill-opacity:0.0; 
stroke:#840000; stroke-width:100; stroke-opacity:1; 
stroke-linecap:round; stroke-linejoin:round;">
</g>
<g style="fill:#840000; fill-opacity:0.0; 
stroke:#840000; stroke-width:60; stroke-opacity:1; 
stroke-linecap:round; stroke-linejoin:round;">
<path d="M102760 75400
L102760 77960
" />
</g>
<g style="fill:#840084; fill-opacity:0.0; 
stroke:#840084; stroke-width:60; stroke-opacity:1; 
stroke-linecap:round; stroke-linejoin:round;">
<path d="M51500 27000
L70500 27000
L70500 40500
L51500 40500
L51500 27000
" />
</g>
<g style="fill:#008484; fill-opacity:0.0; 
stroke:#008484; stroke-width:60; stroke-opacity:1; 
stroke-linecap:round; stroke-linejoin:round;">
</g>
<g style="fill:#000000; fill-opacity:0.0; 
stroke:#000000; stroke-width:60; stroke-opacity:1; 
stroke-linecap:round; stroke-linejoin:round;">
<text x="51500" y="26960"
textLength="4350" font-size="660" lengthAdjust="spacingAndGlyphs"
text-anchor="start" opacity="0">Sheet: MCU</text>
<path d="M51620 26910
L51690 26930
L51810 26930
L51860 26910
L51880 26880
L51910 26840
L51910 26790
L51880 26740
L51860 26720
L51810 26690
L51720 26670
L51670 26650
L51640 26620
L51620 26570
L51620 26530
L51640 26480
L51670 26460
L51720 26430
L51830 26430
L51910 26460
" />
<path d="M52120 26930
L52120 26430
" />
<path d="M52330 26930
L52330 26670
L52310 26620
L52260 26600
L52190 26600
L52140 26620
L52120 26650
" />
<path d="M52760 26910
L52720 26930
L52620 26930
L52570 26910
L52550 26860
L52550 26670
L52570 26620
L52620 26600
L52720 26600
L52760 26620
L52790 26670
L52790 26720
L52550 26760
" />
<path d="M53190 26910
L53140 26930
L53050 26930
L53000 26910
L52980 26860
L52980 26670
L53000 26620
L53050 26600
L53140 26600
L53190 26620
L53220 26670
L53220 26720
L52980 26760
" />
<path d="M53360 26600
L53550 26600
" />
<path d="M53430 26430
L53430 26860
L53450 26910
L53500 26930
L53550 26930
" />
<path d="M53720 26880
L53740 26910
L53720 26930
L53690 26910
L53720 26880
L53720 26930
" />
<path d="M53720 26620
L53740 26650
L53720 26670
L53690 26650
L53720 26620
L53720 26670
" />
<path d="M54330 26930
L54330 26430
L54500 26790
L54670 26430
L54670 26930
" />
<path d="M55190 26880
L55170 26910
L55100 26930
L55050 26930
L54980 26910
L54930 26860
L54910 26810
L54880 26720
L54880 26650
L54910 26550
L54930 26500
L54980 26460
L55050 26430
L55100 26430
L55170 26460
L55190 26480
" />
<path d="M55410 26430
L55410 26840
L55430 26880
L55450 26910
L55500 26930
L55600 26930
L55640 26910
L55670 26880
L55690 26840
L55690 26430
" />
</g>
<g style="fill:#848400; fill-opacity:0.0; 
stroke:#848400; stroke-width:60; stroke-opacity:1; 
stroke-linecap:round; stroke-linejoin:round;">
</g>
<g style="fill:#000000; fill-opacity:0.0; 
stroke:#000000; stroke-width:60; stroke-opacity:1; 
stroke-linecap:round; stroke-linejoin:round;">
<text x="51500" y="41040"
textLength="5160" font-size="660" lengthAdjust="spacingAndGlyphs"
text-anchor="start" opacity="0">File: MCU.sch</text>
<path d="M51810 40750
L51640 40750
" />
<path d="M51640 41010
L51640 40510
L51880 40510
" />
<path d="M52070 41010
L52070 40680
" />
<path d="M52070 40510
L52050 40540
L52070 40560
L52100 40540
L52070 40510
L52070 40560
" />
<path d="M52380 41010
L52330 40990
L52310 40940
L52310 40510
" />
<path d="M52760 40990
L52720 41010
L52620 41010
L52570 40990
L52550 40940
L52550 40750
L52570 40700
L52620 40680
L52720 40680
L52760 40700
L52790 40750
L52790 40800
L52550 40840
" />
<path d="M53000 40960
L53030 40990
L53000 41010
L52980 40990
L53000 40960
L53000 41010
" />
<path d="M53000 40700
L53030 40730
L53000 40750
L52980 40730
L53000 40700
L53000 40750
" />
<path d="M53620 41010
L53620 40510
L53790 40870
L53950 40510
L53950 41010
" />
<path d="M54480 40960
L54450 40990
L54380 41010
L54330 41010
L54260 40990
L54220 40940
L54190 40890
L54170 40800
L54170 40730
L54190 40630
L54220 40580
L54260 40540
L54330 40510
L54380 40510
L54450 40540
L54480 40560
" />
<path d="M54690 40510
L54690 40920
L54720 40960
L54740 40990
L54790 41010
L54880 41010
L54930 40990
L54950 40960
L54980 40920
L54980 40510
" />
<path d="M55220 40960
L55240 40990
L55220 41010
L55190 40990
L55220 40960
L55220 41010
" />
<path d="M55430 40990
L55480 41010
L55570 41010
L55620 40990
L55640 40940
L55640 40920
L55620 40870
L55570 40840
L55500 40840
L55450 40820
L55430 40770
L55430 40750
L55450 40700
L55500 40680
L55570 40680
L55620 40700
" />
<path d="M56070 40990
L56030 41010
L55930 41010
L55880 40990
L55860 40960
L55830 40920
L55830 40770
L55860 40730
L55880 40700
L55930 40680
L56030 40680
L56070 40700
" />
<path d="M56290 41010
L56290 40510
" />
<path d="M56500 41010
L56500 40750
L56480 40700
L56430 40680
L56360 40680
L56310 40700
L56290 40730
" />
</g>
<g style="fill:#840084; fill-opacity:0.0; 
stroke:#840084; stroke-width:60; stroke-opacity:1; 
stroke-linecap:round; stroke-linejoin:round;">
</g>
<g style="fill:#848400; fill-opacity:0.0; 
stroke:#848400; stroke-width:60; stroke-opacity:1; 
stroke-linecap:round; stroke-linejoin:round;">
<text x="69900" y="33250"
textLength="3040" font-size="660" lengthAdjust="spacingAndGlyphs"
text-anchor="end" opacity="0">I2C_SCL</text>
<path d="M67010 33220
L67010 32720
" />
<path d="M67220 32770
L67250 32750
L67290 32720
L67410 32720
L67460 32750
L67480 32770
L67510 32820
L67510 32860
L67480 32940
L67200 33220
L67510 33220
" />
<path d="M68010 33170
L67980 33200
L67910 33220
L67870 33220
L67790 33200
L67750 33150
L67720 33100
L67700 33010
L67700 32940
L67720 32840
L67750 32790
L67790 32750
L67870 32720
L67910 32720
L67980 32750
L68010 32770
" />
<path d="M68100 33270
L68480 33270
" />
<path d="M68580 33200
L68650 33220
L68770 33220
L68820 33200
L68840 33170
L68870 33130
L68870 33080
L68840 33030
L68820 33010
L68770 32980
L68670 32960
L68630 32940
L68600 32910
L68580 32860
L68580 32820
L68600 32770
L68630 32750
L68670 32720
L68790 32720
L68870 32750
" />
<path d="M69370 33170
L69340 33200
L69270 33220
L69220 33220
L69150 33200
L69100 33150
L69080 33100
L69060 33010
L69060 32940
L69080 32840
L69100 32790
L69150 32750
L69220 32720
L69270 32720
L69340 32750
L69370 32770
" />
<path d="M69820 33220
L69580 33220
L69580 32720
" />
</g>
<g style="fill:#848400; fill-opacity:0.0; 
stroke:#848400; stroke-width:100; stroke-opacity:1; 
stroke-linecap:round; stroke-linejoin:round;">
<path style="fill:#848400; fill-opacity:0.0; 
stroke:#848400; stroke-width:100; stroke-opacity:1; 
stroke-linecap:round; stroke-linejoin:round;fill:none"
d="M 70000,33000
70250,33250
70500,33250
70500,32750
70250,32750
Z" /> 
</g>
<g style="fill:#848400; fill-opacity:0.0; 
stroke:#848400; stroke-width:60; stroke-opacity:1; 
stroke-linecap:round; stroke-linejoin:round;">
<text x="69900" y="34750"
textLength="3060" font-size="660" lengthAdjust="spacingAndGlyphs"
text-anchor="end" opacity="0">I2C_SDA</text>
<path d="M66980 34720
L66980 34220
" />
<path d="M67200 34270
L67220 34250
L67270 34220
L67390 34220
L67440 34250
L67460 34270
L67480 34320
L67480 34360
L67460 34440
L67170 34720
L67480 34720
" />
<path d="M67980 34670
L67960 34700
L67890 34720
L67840 34720
L67770 34700
L67720 34650
L67700 34600
L67670 34510
L67670 34440
L67700 34340
L67720 34290
L67770 34250
L67840 34220
L67890 34220
L67960 34250
L67980 34270
" />
<path d="M68080 34770
L68460 34770
" />
<path d="M68560 34700
L68630 34720
L68750 34720
L68790 34700
L68820 34670
L68840 34630
L68840 34580
L68820 34530
L68790 34510
L68750 34480
L68650 34460
L68600 34440
L68580 34410
L68560 34360
L68560 34320
L68580 34270
L68600 34250
L68650 34220
L68770 34220
L68840 34250
" />
<path d="M69060 34720
L69060 34220
L69170 34220
L69250 34250
L69290 34290
L69320 34340
L69340 34440
L69340 34510
L69320 34600
L69290 34650
L69250 34700
L69170 34720
L69060 34720
" />
<path d="M69530 34580
L69770 34580
" />
<path d="M69480 34720
L69650 34220
L69820 34720
" />
</g>
<g style="fill:#848400; fill-opacity:0.0; 
stroke:#848400; stroke-width:100; stroke-opacity:1; 
stroke-linecap:round; stroke-linejoin:round;">
<path style="fill:#848400; fill-opacity:0.0; 
stroke:#848400; stroke-width:100; stroke-opacity:1; 
stroke-linecap:round; stroke-linejoin:round;fill:none"
d="M 70000,34500
70250,34750
70500,34750
70500,34250
70250,34250
Z" /> 
</g>
<g style="fill:#848400; fill-opacity:0.0; 
stroke:#848400; stroke-width:60; stroke-opacity:1; 
stroke-linecap:round; stroke-linejoin:round;">
<text x="52100" y="33250"
textLength="3610" font-size="660" lengthAdjust="spacingAndGlyphs"
text-anchor="start" opacity="0">USART_TX</text>
<path d="M52240 32720
L52240 33130
L52270 33170
L52290 33200
L52340 33220
L52430 33220
L52480 33200
L52510 33170
L52530 33130
L52530 32720
" />
<path d="M52740 33200
L52820 33220
L52930 33220
L52980 33200
L53010 33170
L53030 33130
L53030 33080
L53010 33030
L52980 33010
L52930 32980
L52840 32960
L52790 32940
L52770 32910
L52740 32860
L52740 32820
L52770 32770
L52790 32750
L52840 32720
L52960 32720
L53030 32750
" />
<path d="M53220 33080
L53460 33080
" />
<path d="M53170 33220
L53340 32720
L53510 33220
" />
<path d="M53960 33220
L53790 32980
" />
<path d="M53670 33220
L53670 32720
L53860 32720
L53910 32750
L53930 32770
L53960 32820
L53960 32890
L53930 32940
L53910 32960
L53860 32980
L53670 32980
" />
<path d="M54100 32720
L54390 32720
" />
<path d="M54240 33220
L54240 32720
" />
<path d="M54430 33270
L54820 33270
" />
<path d="M54860 32720
L55150 32720
" />
<path d="M55010 33220
L55010 32720
" />
<path d="M55270 32720
L55600 33220
" />
<path d="M55600 32720
L55270 33220
" />
</g>
<g style="fill:#848400; fill-opacity:0.0; 
stroke:#848400; stroke-width:100; stroke-opacity:1; 
stroke-linecap:round; stroke-linejoin:round;">
<path style="fill:#848400; fill-opacity:0.0; 
stroke:#848400; stroke-width:100; stroke-opacity:1; 
stroke-linecap:round; stroke-linejoin:round;fill:none"
d="M 52000,33000
51750,32750
51500,32750
51500,33250
51750,33250
Z" /> 
</g>
<g style="fill:#848400; fill-opacity:0.0; 
stroke:#848400; stroke-width:60; stroke-opacity:1; 
stroke-linecap:round; stroke-linejoin:round;">
<text x="52100" y="34750"
textLength="3730" font-size="660" lengthAdjust="spacingAndGlyphs"
text-anchor="start" opacity="0">USART_RX</text>
<path d="M52240 34220
L52240 34630
L52270 34670
L52290 34700
L52340 34720
L52430 34720
L52480 34700
L52510 34670
L52530 34630
L52530 34220
" />
<path d="M52740 34700
L52820 34720
L52930 34720
L52980 34700
L53010 34670
L53030 34630
L53030 34580
L53010 34530
L52980 34510
L52930 34480
L52840 34460
L52790 34440
L52770 34410
L52740 34360
L52740 34320
L52770 34270
L52790 34250
L52840 34220
L52960 34220
L53030 34250
" />
<path d="M53220 34580
L53460 34580
" />
<path d="M53170 34720
L53340 34220
L53510 34720
" />
<path d="M53960 34720
L53790 34480
" />
<path d="M53670 34720
L53670 34220
L53860 34220
L53910 34250
L53930 34270
L53960 34320
L53960 34390
L53930 34440
L53910 34460
L53860 34480
L53670 34480
" />
<path d="M54100 34220
L54390 34220
" />
<path d="M54240 34720
L54240 34220
" />
<path d="M54430 34770
L54820 34770
" />
<path d="M55220 34720
L55050 34480
" />
<path d="M54930 34720
L54930 34220
L55130 34220
L55170 34250
L55200 34270
L55220 34320
L55220 34390
L55200 34440
L55170 34460
L55130 34480
L54930 34480
" />
<path d="M55390 34220
L55720 34720
" />
<path d="M55720 34220
L55390 34720
" />
</g>
<g style="fill:#848400; fill-opacity:0.0; 
stroke:#848400; stroke-width:100; stroke-opacity:1; 
stroke-linecap:round; stroke-linejoin:round;">
<path style="fill:#848400; fill-opacity:0.0; 
stroke:#848400; stroke-width:100; stroke-opacity:1; 
stroke-linecap:round; stroke-linejoin:round;fill:none"
d="M 52000,34500
51750,34250
51500,34250
51500,34750
51750,34750
Z" /> 
</g>
<g style="fill:#848400; fill-opacity:0.0; 
stroke:#848400; stroke-width:60; stroke-opacity:1; 
stroke-linecap:round; stroke-linejoin:round;">
</g>
<g style="fill:#840084; fill-opacity:0.0; 
stroke:#840084; stroke-width:60; stroke-opacity:1; 
stroke-linecap:round; stroke-linejoin:round;">
<path d="M81000 27000
L91000 27000
L91000 40500
L81000 40500
L81000 27000
" />
</g>
<g style="fill:#008484; fill-opacity:0.0; 
stroke:#008484; stroke-width:60; stroke-opacity:1; 
stroke-linecap:round; stroke-linejoin:round;">
</g>
<g style="fill:#000000; fill-opacity:0.0; 
stroke:#000000; stroke-width:60; stroke-opacity:1; 
stroke-linecap:round; stroke-linejoin:round;">
<text x="81000" y="26960"
textLength="8180" font-size="660" lengthAdjust="spacingAndGlyphs"
text-anchor="start" opacity="0">Sheet: OledConnector</text>
<path d="M81120 26910
L81190 26930
L81310 26930
L81360 26910
L81380 26880
L81410 26840
L81410 26790
L81380 26740
L81360 26720
L81310 26690
L81220 26670
L81170 26650
L81140 26620
L81120 26570
L81120 26530
L81140 26480
L81170 26460
L81220 26430
L81330 26430
L81410 26460
" />
<path d="M81620 26930
L81620 26430
" />
<path d="M81830 26930
L81830 26670
L81810 26620
L81760 26600
L81690 26600
L81640 26620
L81620 26650
" />
<path d="M82260 26910
L82220 26930
L82120 26930
L82070 26910
L82050 26860
L82050 26670
L82070 26620
L82120 26600
L82220 26600
L82260 26620
L82290 26670
L82290 26720
L82050 26760
" />
<path d="M82690 26910
L82640 26930
L82550 26930
L82500 26910
L82480 26860
L82480 26670
L82500 26620
L82550 26600
L82640 26600
L82690 26620
L82720 26670
L82720 26720
L82480 26760
" />
<path d="M82860 26600
L83050 26600
" />
<path d="M82930 26430
L82930 26860
L82950 26910
L83000 26930
L83050 26930
" />
<path d="M83220 26880
L83240 26910
L83220 26930
L83190 26910
L83220 26880
L83220 26930
" />
<path d="M83220 26620
L83240 26650
L83220 26670
L83190 26650
L83220 26620
L83220 26670
" />
<path d="M83930 26430
L84030 26430
L84070 26460
L84120 26500
L84140 26600
L84140 26760
L84120 26860
L84070 26910
L84030 26930
L83930 26930
L83880 26910
L83830 26860
L83810 26760
L83810 26600
L83830 26500
L83880 26460
L83930 26430
" />
<path d="M84430 26930
L84380 26910
L84360 26860
L84360 26430
" />
<path d="M84810 26910
L84760 26930
L84670 26930
L84620 26910
L84600 26860
L84600 26670
L84620 26620
L84670 26600
L84760 26600
L84810 26620
L84830 26670
L84830 26720
L84600 26760
" />
<path d="M85260 26930
L85260 26430
" />
<path d="M85260 26910
L85220 26930
L85120 26930
L85070 26910
L85050 26880
L85030 26840
L85030 26690
L85050 26650
L85070 26620
L85120 26600
L85220 26600
L85260 26620
" />
<path d="M85790 26880
L85760 26910
L85690 26930
L85640 26930
L85570 26910
L85530 26860
L85500 26810
L85480 26720
L85480 26650
L85500 26550
L85530 26500
L85570 26460
L85640 26430
L85690 26430
L85760 26460
L85790 26480
" />
<path d="M86070 26930
L86030 26910
L86000 26880
L85980 26840
L85980 26690
L86000 26650
L86030 26620
L86070 26600
L86140 26600
L86190 26620
L86220 26650
L86240 26690
L86240 26840
L86220 26880
L86190 26910
L86140 26930
L86070 26930
" />
<path d="M86450 26600
L86450 26930
" />
<path d="M86450 26650
L86480 26620
L86530 26600
L86600 26600
L86640 26620
L86670 26670
L86670 26930
" />
<path d="M86910 26600
L86910 26930
" />
<path d="M86910 26650
L86930 26620
L86980 26600
L87050 26600
L87100 26620
L87120 26670
L87120 26930
" />
<path d="M87550 26910
L87500 26930
L87410 26930
L87360 26910
L87330 26860
L87330 26670
L87360 26620
L87410 26600
L87500 26600
L87550 26620
L87570 26670
L87570 26720
L87330 26760
" />
<path d="M88000 26910
L87950 26930
L87860 26930
L87810 26910
L87790 26880
L87760 26840
L87760 26690
L87790 26650
L87810 26620
L87860 26600
L87950 26600
L88000 26620
" />
<path d="M88140 26600
L88330 26600
" />
<path d="M88220 26430
L88220 26860
L88240 26910
L88290 26930
L88330 26930
" />
<path d="M88570 26930
L88530 26910
L88500 26880
L88480 26840
L88480 26690
L88500 26650
L88530 26620
L88570 26600
L88640 26600
L88690 26620
L88720 26650
L88740 26690
L88740 26840
L88720 26880
L88690 26910
L88640 26930
L88570 26930
" />
<path d="M88950 26930
L88950 26600
" />
<path d="M88950 26690
L88980 26650
L89000 26620
L89050 26600
L89100 26600
" />
</g>
<g style="fill:#848400; fill-opacity:0.0; 
stroke:#848400; stroke-width:60; stroke-opacity:1; 
stroke-linecap:round; stroke-linejoin:round;">
</g>
<g style="fill:#000000; fill-opacity:0.0; 
stroke:#000000; stroke-width:60; stroke-opacity:1; 
stroke-linecap:round; stroke-linejoin:round;">
<text x="81000" y="41040"
textLength="7890" font-size="660" lengthAdjust="spacingAndGlyphs"
text-anchor="start" opacity="0">File: OLED_CONN.sch</text>
<path d="M81310 40750
L81140 40750
" />
<path d="M81140 41010
L81140 40510
L81380 40510
" />
<path d="M81570 41010
L81570 40680
" />
<path d="M81570 40510
L81550 40540
L81570 40560
L81600 40540
L81570 40510
L81570 40560
" />
<path d="M81880 41010
L81830 40990
L81810 40940
L81810 40510
" />
<path d="M82260 40990
L82220 41010
L82120 41010
L82070 40990
L82050 40940
L82050 40750
L82070 40700
L82120 40680
L82220 40680
L82260 40700
L82290 40750
L82290 40800
L82050 40840
" />
<path d="M82500 40960
L82530 40990
L82500 41010
L82480 40990
L82500 40960
L82500 41010
" />
<path d="M82500 40700
L82530 40730
L82500 40750
L82480 40730
L82500 40700
L82500 40750
" />
<path d="M83220 40510
L83310 40510
L83360 40540
L83410 40580
L83430 40680
L83430 40840
L83410 40940
L83360 40990
L83310 41010
L83220 41010
L83170 40990
L83120 40940
L83100 40840
L83100 40680
L83120 40580
L83170 40540
L83220 40510
" />
<path d="M83880 41010
L83640 41010
L83640 40510
" />
<path d="M84050 40750
L84220 40750
" />
<path d="M84290 41010
L84050 41010
L84050 40510
L84290 40510
" />
<path d="M84500 41010
L84500 40510
L84620 40510
L84690 40540
L84740 40580
L84760 40630
L84790 40730
L84790 40800
L84760 40890
L84740 40940
L84690 40990
L84620 41010
L84500 41010
" />
<path d="M84880 41060
L85260 41060
" />
<path d="M85670 40960
L85640 40990
L85570 41010
L85530 41010
L85450 40990
L85410 40940
L85380 40890
L85360 40800
L85360 40730
L85380 40630
L85410 40580
L85450 40540
L85530 40510
L85570 40510
L85640 40540
L85670 40560
" />
<path d="M85980 40510
L86070 40510
L86120 40540
L86170 40580
L86190 40680
L86190 40840
L86170 40940
L86120 40990
L86070 41010
L85980 41010
L85930 40990
L85880 40940
L85860 40840
L85860 40680
L85880 40580
L85930 40540
L85980 40510
" />
<path d="M86410 41010
L86410 40510
L86690 41010
L86690 40510
" />
<path d="M86930 41010
L86930 40510
L87220 41010
L87220 40510
" />
<path d="M87450 40960
L87480 40990
L87450 41010
L87430 40990
L87450 40960
L87450 41010
" />
<path d="M87670 40990
L87720 41010
L87810 41010
L87860 40990
L87880 40940
L87880 40920
L87860 40870
L87810 40840
L87740 40840
L87690 40820
L87670 40770
L87670 40750
L87690 40700
L87740 40680
L87810 40680
L87860 40700
" />
<path d="M88310 40990
L88260 41010
L88170 41010
L88120 40990
L88100 40960
L88070 40920
L88070 40770
L88100 40730
L88120 40700
L88170 40680
L88260 40680
L88310 40700
" />
<path d="M88530 41010
L88530 40510
" />
<path d="M88740 41010
L88740 40750
L88720 40700
L88670 40680
L88600 40680
L88550 40700
L88530 40730
" />
</g>
<g style="fill:#840084; fill-opacity:0.0; 
stroke:#840084; stroke-width:60; stroke-opacity:1; 
stroke-linecap:round; stroke-linejoin:round;">
</g>
<g style="fill:#848400; fill-opacity:0.0; 
stroke:#848400; stroke-width:60; stroke-opacity:1; 
stroke-linecap:round; stroke-linejoin:round;">
<text x="81600" y="33250"
textLength="3040" font-size="660" lengthAdjust="spacingAndGlyphs"
text-anchor="start" opacity="0">I2C_SCL</text>
<path d="M81740 33220
L81740 32720
" />
<path d="M81960 32770
L81980 32750
L82030 32720
L82150 32720
L82200 32750
L82220 32770
L82240 32820
L82240 32860
L82220 32940
L81930 33220
L82240 33220
" />
<path d="M82740 33170
L82720 33200
L82650 33220
L82600 33220
L82530 33200
L82480 33150
L82460 33100
L82430 33010
L82430 32940
L82460 32840
L82480 32790
L82530 32750
L82600 32720
L82650 32720
L82720 32750
L82740 32770
" />
<path d="M82840 33270
L83220 33270
" />
<path d="M83320 33200
L83390 33220
L83510 33220
L83550 33200
L83580 33170
L83600 33130
L83600 33080
L83580 33030
L83550 33010
L83510 32980
L83410 32960
L83360 32940
L83340 32910
L83320 32860
L83320 32820
L83340 32770
L83360 32750
L83410 32720
L83530 32720
L83600 32750
" />
<path d="M84100 33170
L84080 33200
L84010 33220
L83960 33220
L83890 33200
L83840 33150
L83820 33100
L83790 33010
L83790 32940
L83820 32840
L83840 32790
L83890 32750
L83960 32720
L84010 32720
L84080 32750
L84100 32770
" />
<path d="M84550 33220
L84320 33220
L84320 32720
" />
</g>
<g style="fill:#848400; fill-opacity:0.0; 
stroke:#848400; stroke-width:100; stroke-opacity:1; 
stroke-linecap:round; stroke-linejoin:round;">
<path style="fill:#848400; fill-opacity:0.0; 
stroke:#848400; stroke-width:100; stroke-opacity:1; 
stroke-linecap:round; stroke-linejoin:round;fill:none"
d="M 81500,33000
81250,32750
81000,32750
81000,33250
81250,33250
Z" /> 
</g>
<g style="fill:#848400; fill-opacity:0.0; 
stroke:#848400; stroke-width:60; stroke-opacity:1; 
stroke-linecap:round; stroke-linejoin:round;">
<text x="81600" y="34750"
textLength="3060" font-size="660" lengthAdjust="spacingAndGlyphs"
text-anchor="start" opacity="0">I2C_SDA</text>
<path d="M81740 34720
L81740 34220
" />
<path d="M81960 34270
L81980 34250
L82030 34220
L82150 34220
L82200 34250
L82220 34270
L82240 34320
L82240 34360
L82220 34440
L81930 34720
L82240 34720
" />
<path d="M82740 34670
L82720 34700
L82650 34720
L82600 34720
L82530 34700
L82480 34650
L82460 34600
L82430 34510
L82430 34440
L82460 34340
L82480 34290
L82530 34250
L82600 34220
L82650 34220
L82720 34250
L82740 34270
" />
<path d="M82840 34770
L83220 34770
" />
<path d="M83320 34700
L83390 34720
L83510 34720
L83550 34700
L83580 34670
L83600 34630
L83600 34580
L83580 34530
L83550 34510
L83510 34480
L83410 34460
L83360 34440
L83340 34410
L83320 34360
L83320 34320
L83340 34270
L83360 34250
L83410 34220
L83530 34220
L83600 34250
" />
<path d="M83820 34720
L83820 34220
L83930 34220
L84010 34250
L84050 34290
L84080 34340
L84100 34440
L84100 34510
L84080 34600
L84050 34650
L84010 34700
L83930 34720
L83820 34720
" />
<path d="M84290 34580
L84530 34580
" />
<path d="M84240 34720
L84410 34220
L84580 34720
" />
</g>
<g style="fill:#848400; fill-opacity:0.0; 
stroke:#848400; stroke-width:100; stroke-opacity:1; 
stroke-linecap:round; stroke-linejoin:round;">
<path style="fill:#848400; fill-opacity:0.0; 
stroke:#848400; stroke-width:100; stroke-opacity:1; 
stroke-linecap:round; stroke-linejoin:round;fill:none"
d="M 81500,34500
81250,34250
81000,34250
81000,34750
81250,34750
Z" /> 
</g>
<g style="fill:#848400; fill-opacity:0.0; 
stroke:#848400; stroke-width:60; stroke-opacity:1; 
stroke-linecap:round; stroke-linejoin:round;">
</g>
<g style="fill:#840084; fill-opacity:0.0; 
stroke:#840084; stroke-width:60; stroke-opacity:1; 
stroke-linecap:round; stroke-linejoin:round;">
<path d="M23000 27000
L40500 27000
L40500 40500
L23000 40500
L23000 27000
" />
</g>
<g style="fill:#008484; fill-opacity:0.0; 
stroke:#008484; stroke-width:60; stroke-opacity:1; 
stroke-linecap:round; stroke-linejoin:round;">
</g>
<g style="fill:#000000; fill-opacity:0.0; 
stroke:#000000; stroke-width:60; stroke-opacity:1; 
stroke-linecap:round; stroke-linejoin:round;">
<text x="23000" y="26960"
textLength="8320" font-size="660" lengthAdjust="spacingAndGlyphs"
text-anchor="start" opacity="0">Sheet: USB_TO_RS232</text>
<path d="M23120 26910
L23190 26930
L23310 26930
L23360 26910
L23380 26880
L23410 26840
L23410 26790
L23380 26740
L23360 26720
L23310 26690
L23220 26670
L23170 26650
L23140 26620
L23120 26570
L23120 26530
L23140 26480
L23170 26460
L23220 26430
L23330 26430
L23410 26460
" />
<path d="M23620 26930
L23620 26430
" />
<path d="M23830 26930
L23830 26670
L23810 26620
L23760 26600
L23690 26600
L23640 26620
L23620 26650
" />
<path d="M24260 26910
L24220 26930
L24120 26930
L24070 26910
L24050 26860
L24050 26670
L24070 26620
L24120 26600
L24220 26600
L24260 26620
L24290 26670
L24290 26720
L24050 26760
" />
<path d="M24690 26910
L24640 26930
L24550 26930
L24500 26910
L24480 26860
L24480 26670
L24500 26620
L24550 26600
L24640 26600
L24690 26620
L24720 26670
L24720 26720
L24480 26760
" />
<path d="M24860 26600
L25050 26600
" />
<path d="M24930 26430
L24930 26860
L24950 26910
L25000 26930
L25050 26930
" />
<path d="M25220 26880
L25240 26910
L25220 26930
L25190 26910
L25220 26880
L25220 26930
" />
<path d="M25220 26620
L25240 26650
L25220 26670
L25190 26650
L25220 26620
L25220 26670
" />
<path d="M25830 26430
L25830 26840
L25860 26880
L25880 26910
L25930 26930
L26030 26930
L26070 26910
L26100 26880
L26120 26840
L26120 26430
" />
<path d="M26330 26910
L26410 26930
L26530 26930
L26570 26910
L26600 26880
L26620 26840
L26620 26790
L26600 26740
L26570 26720
L26530 26690
L26430 26670
L26380 26650
L26360 26620
L26330 26570
L26330 26530
L26360 26480
L26380 26460
L26430 26430
L26550 26430
L26620 26460
" />
<path d="M27000 26670
L27070 26690
L27100 26720
L27120 26760
L27120 26840
L27100 26880
L27070 26910
L27030 26930
L26830 26930
L26830 26430
L27000 26430
L27050 26460
L27070 26480
L27100 26530
L27100 26570
L27070 26620
L27050 26650
L27000 26670
L26830 26670
" />
<path d="M27220 26980
L27600 26980
" />
<path d="M27640 26430
L27930 26430
" />
<path d="M27790 26930
L27790 26430
" />
<path d="M28190 26430
L28290 26430
L28330 26460
L28380 26500
L28410 26600
L28410 26760
L28380 26860
L28330 26910
L28290 26930
L28190 26930
L28140 26910
L28100 26860
L28070 26760
L28070 26600
L28100 26500
L28140 26460
L28190 26430
" />
<path d="M28500 26980
L28880 26980
" />
<path d="M29290 26930
L29120 26690
" />
<path d="M29000 26930
L29000 26430
L29190 26430
L29240 26460
L29260 26480
L29290 26530
L29290 26600
L29260 26650
L29240 26670
L29190 26690
L29000 26690
" />
<path d="M29480 26910
L29550 26930
L29670 26930
L29720 26910
L29740 26880
L29760 26840
L29760 26790
L29740 26740
L29720 26720
L29670 26690
L29570 26670
L29530 26650
L29500 26620
L29480 26570
L29480 26530
L29500 26480
L29530 26460
L29570 26430
L29690 26430
L29760 26460
" />
<path d="M29950 26480
L29980 26460
L30030 26430
L30140 26430
L30190 26460
L30220 26480
L30240 26530
L30240 26570
L30220 26650
L29930 26930
L30240 26930
" />
<path d="M30410 26430
L30720 26430
L30550 26620
L30620 26620
L30670 26650
L30690 26670
L30720 26720
L30720 26840
L30690 26880
L30670 26910
L30620 26930
L30480 26930
L30430 26910
L30410 26880
" />
<path d="M30910 26480
L30930 26460
L30980 26430
L31100 26430
L31140 26460
L31170 26480
L31190 26530
L31190 26570
L31170 26650
L30880 26930
L31190 26930
" />
</g>
<g style="fill:#848400; fill-opacity:0.0; 
stroke:#848400; stroke-width:60; stroke-opacity:1; 
stroke-linecap:round; stroke-linejoin:round;">
</g>
<g style="fill:#000000; fill-opacity:0.0; 
stroke:#000000; stroke-width:60; stroke-opacity:1; 
stroke-linecap:round; stroke-linejoin:round;">
<text x="23000" y="41040"
textLength="9130" font-size="660" lengthAdjust="spacingAndGlyphs"
text-anchor="start" opacity="0">File: USB_TO_RS232.sch</text>
<path d="M23310 40750
L23140 40750
" />
<path d="M23140 41010
L23140 40510
L23380 40510
" />
<path d="M23570 41010
L23570 40680
" />
<path d="M23570 40510
L23550 40540
L23570 40560
L23600 40540
L23570 40510
L23570 40560
" />
<path d="M23880 41010
L23830 40990
L23810 40940
L23810 40510
" />
<path d="M24260 40990
L24220 41010
L24120 41010
L24070 40990
L24050 40940
L24050 40750
L24070 40700
L24120 40680
L24220 40680
L24260 40700
L24290 40750
L24290 40800
L24050 40840
" />
<path d="M24500 40960
L24530 40990
L24500 41010
L24480 40990
L24500 40960
L24500 41010
" />
<path d="M24500 40700
L24530 40730
L24500 40750
L24480 40730
L24500 40700
L24500 40750
" />
<path d="M25120 40510
L25120 40920
L25140 40960
L25170 40990
L25220 41010
L25310 41010
L25360 40990
L25380 40960
L25410 40920
L25410 40510
" />
<path d="M25620 40990
L25690 41010
L25810 41010
L25860 40990
L25880 40960
L25910 40920
L25910 40870
L25880 40820
L25860 40800
L25810 40770
L25720 40750
L25670 40730
L25640 40700
L25620 40650
L25620 40610
L25640 40560
L25670 40540
L25720 40510
L25830 40510
L25910 40540
" />
<path d="M26290 40750
L26360 40770
L26380 40800
L26410 40840
L26410 40920
L26380 40960
L26360 40990
L26310 41010
L26120 41010
L26120 40510
L26290 40510
L26330 40540
L26360 40560
L26380 40610
L26380 40650
L26360 40700
L26330 40730
L26290 40750
L26120 40750
" />
<path d="M26500 41060
L26880 41060
" />
<path d="M26930 40510
L27220 40510
" />
<path d="M27070 41010
L27070 40510
" />
<path d="M27480 40510
L27570 40510
L27620 40540
L27670 40580
L27690 40680
L27690 40840
L27670 40940
L27620 40990
L27570 41010
L27480 41010
L27430 40990
L27380 40940
L27360 40840
L27360 40680
L27380 40580
L27430 40540
L27480 40510
" />
<path d="M27790 41060
L28170 41060
" />
<path d="M28570 41010
L28410 40770
" />
<path d="M28290 41010
L28290 40510
L28480 40510
L28530 40540
L28550 40560
L28570 40610
L28570 40680
L28550 40730
L28530 40750
L28480 40770
L28290 40770
" />
<path d="M28760 40990
L28830 41010
L28950 41010
L29000 40990
L29030 40960
L29050 40920
L29050 40870
L29030 40820
L29000 40800
L28950 40770
L28860 40750
L28810 40730
L28790 40700
L28760 40650
L28760 40610
L28790 40560
L28810 40540
L28860 40510
L28980 40510
L29050 40540
" />
<path d="M29240 40560
L29260 40540
L29310 40510
L29430 40510
L29480 40540
L29500 40560
L29530 40610
L29530 40650
L29500 40730
L29220 41010
L29530 41010
" />
<path d="M29690 40510
L30000 40510
L29830 40700
L29910 40700
L29950 40730
L29980 40750
L30000 40800
L30000 40920
L29980 40960
L29950 40990
L29910 41010
L29760 41010
L29720 40990
L29690 40960
" />
<path d="M30190 40560
L30220 40540
L30260 40510
L30380 40510
L30430 40540
L30450 40560
L30480 40610
L30480 40650
L30450 40730
L30170 41010
L30480 41010
" />
<path d="M30690 40960
L30720 40990
L30690 41010
L30670 40990
L30690 40960
L30690 41010
" />
<path d="M30910 40990
L30950 41010
L31050 41010
L31100 40990
L31120 40940
L31120 40920
L31100 40870
L31050 40840
L30980 40840
L30930 40820
L30910 40770
L30910 40750
L30930 40700
L30980 40680
L31050 40680
L31100 40700
" />
<path d="M31550 40990
L31500 41010
L31410 41010
L31360 40990
L31330 40960
L31310 40920
L31310 40770
L31330 40730
L31360 40700
L31410 40680
L31500 40680
L31550 40700
" />
<path d="M31760 41010
L31760 40510
" />
<path d="M31980 41010
L31980 40750
L31950 40700
L31910 40680
L31830 40680
L31790 40700
L31760 40730
" />
</g>
<g style="fill:#840084; fill-opacity:0.0; 
stroke:#840084; stroke-width:60; stroke-opacity:1; 
stroke-linecap:round; stroke-linejoin:round;">
</g>
<g style="fill:#848400; fill-opacity:0.0; 
stroke:#848400; stroke-width:60; stroke-opacity:1; 
stroke-linecap:round; stroke-linejoin:round;">
<text x="39900" y="33250"
textLength="3660" font-size="660" lengthAdjust="spacingAndGlyphs"
text-anchor="end" opacity="0">FT232_RX</text>
<path d="M36560 32960
L36390 32960
" />
<path d="M36390 33220
L36390 32720
L36630 32720
" />
<path d="M36750 32720
L37030 32720
" />
<path d="M36890 33220
L36890 32720
" />
<path d="M37170 32770
L37200 32750
L37250 32720
L37370 32720
L37410 32750
L37440 32770
L37460 32820
L37460 32860
L37440 32940
L37150 33220
L37460 33220
" />
<path d="M37630 32720
L37940 32720
L37770 32910
L37840 32910
L37890 32940
L37910 32960
L37940 33010
L37940 33130
L37910 33170
L37890 33200
L37840 33220
L37700 33220
L37650 33200
L37630 33170
" />
<path d="M38130 32770
L38150 32750
L38200 32720
L38320 32720
L38370 32750
L38390 32770
L38410 32820
L38410 32860
L38390 32940
L38100 33220
L38410 33220
" />
<path d="M38510 33270
L38890 33270
" />
<path d="M39290 33220
L39130 32980
" />
<path d="M39010 33220
L39010 32720
L39200 32720
L39250 32750
L39270 32770
L39290 32820
L39290 32890
L39270 32940
L39250 32960
L39200 32980
L39010 32980
" />
<path d="M39460 32720
L39790 33220
" />
<path d="M39790 32720
L39460 33220
" />
</g>
<g style="fill:#848400; fill-opacity:0.0; 
stroke:#848400; stroke-width:100; stroke-opacity:1; 
stroke-linecap:round; stroke-linejoin:round;">
<path style="fill:#848400; fill-opacity:0.0; 
stroke:#848400; stroke-width:100; stroke-opacity:1; 
stroke-linecap:round; stroke-linejoin:round;fill:none"
d="M 40000,33000
40250,33250
40500,33250
40500,32750
40250,32750
Z" /> 
</g>
<g style="fill:#848400; fill-opacity:0.0; 
stroke:#848400; stroke-width:60; stroke-opacity:1; 
stroke-linecap:round; stroke-linejoin:round;">
<text x="39900" y="34750"
textLength="3540" font-size="660" lengthAdjust="spacingAndGlyphs"
text-anchor="end" opacity="0">FT232_TX</text>
<path d="M36670 34460
L36510 34460
" />
<path d="M36510 34720
L36510 34220
L36750 34220
" />
<path d="M36870 34220
L37150 34220
" />
<path d="M37010 34720
L37010 34220
" />
<path d="M37290 34270
L37320 34250
L37370 34220
L37480 34220
L37530 34250
L37560 34270
L37580 34320
L37580 34360
L37560 34440
L37270 34720
L37580 34720
" />
<path d="M37750 34220
L38060 34220
L37890 34410
L37960 34410
L38010 34440
L38030 34460
L38060 34510
L38060 34630
L38030 34670
L38010 34700
L37960 34720
L37820 34720
L37770 34700
L37750 34670
" />
<path d="M38250 34270
L38270 34250
L38320 34220
L38440 34220
L38480 34250
L38510 34270
L38530 34320
L38530 34360
L38510 34440
L38220 34720
L38530 34720
" />
<path d="M38630 34770
L39010 34770
" />
<path d="M39060 34220
L39340 34220
" />
<path d="M39200 34720
L39200 34220
" />
<path d="M39460 34220
L39790 34720
" />
<path d="M39790 34220
L39460 34720
" />
</g>
<g style="fill:#848400; fill-opacity:0.0; 
stroke:#848400; stroke-width:100; stroke-opacity:1; 
stroke-linecap:round; stroke-linejoin:round;">
<path style="fill:#848400; fill-opacity:0.0; 
stroke:#848400; stroke-width:100; stroke-opacity:1; 
stroke-linecap:round; stroke-linejoin:round;fill:none"
d="M 40000,34500
40250,34750
40500,34750
40500,34250
40250,34250
Z" /> 
</g>
<g style="fill:#848400; fill-opacity:0.0; 
stroke:#848400; stroke-width:60; stroke-opacity:1; 
stroke-linecap:round; stroke-linejoin:round;">
</g>
<g style="fill:#008400; fill-opacity:0.0; 
stroke:#008400; stroke-width:60; stroke-opacity:1; 
stroke-linecap:round; stroke-linejoin:round;">
<path d="M70500 33000
L81000 33000
" />
<path d="M81000 34500
L70500 34500
" />
<path d="M40500 34500
L51500 34500
" />
<path d="M51500 33000
L40500 33000
" />
</g> 
</svg>
